<?xml version="1.0" encoding="utf-8" standalone="no"?>
<!DOCTYPE svg PUBLIC "-//W3C//DTD SVG 1.1//EN"
  "http://www.w3.org/Graphics/SVG/1.1/DTD/svg11.dtd">
<svg xmlns:xlink="http://www.w3.org/1999/xlink" width="220.257392pt" height="244.595pt" viewBox="0 0 220.257392 244.595" xmlns="http://www.w3.org/2000/svg" version="1.1">
 <metadata>
  <rdf:RDF xmlns:dc="http://purl.org/dc/elements/1.1/" xmlns:cc="http://creativecommons.org/ns#" xmlns:rdf="http://www.w3.org/1999/02/22-rdf-syntax-ns#">
   <cc:Work>
    <dc:type rdf:resource="http://purl.org/dc/dcmitype/StillImage"/>
    <dc:date>2024-08-20T14:57:35.572210</dc:date>
    <dc:format>image/svg+xml</dc:format>
    <dc:creator>
     <cc:Agent>
      <dc:title>Matplotlib v3.8.4, https://matplotlib.org/</dc:title>
     </cc:Agent>
    </dc:creator>
   </cc:Work>
  </rdf:RDF>
 </metadata>
 <defs>
  <style type="text/css">*{stroke-linejoin: round; stroke-linecap: butt}</style>
 </defs>
 <g id="figure_1">
  <g id="patch_1">
   <path d="M 0 244.595 
L 220.257392 244.595 
L 220.257392 0 
L 0 0 
z
" style="fill: #ffffff"/>
  </g>
  <g id="axes_1">
   <g id="patch_2">
    <path d="M 73.3075 215.48 
L 201.5775 215.48 
L 201.5775 7.2 
L 73.3075 7.2 
z
" style="fill: #ffffff"/>
   </g>
   <g id="matplotlib.axis_1">
    <g id="xtick_1">
     <g id="line2d_1">
      <defs>
       <path id="mc0206efa9e" d="M 0 0 
L 0 3.5 
" style="stroke: #000000; stroke-width: 0.8"/>
      </defs>
      <g>
       <use xlink:href="#mc0206efa9e" x="90.780359" y="215.48" style="stroke: #000000; stroke-width: 0.8"/>
      </g>
     </g>
     <g id="text_1">
      <!-- 0.75 -->
      <g transform="translate(77.866609 233.6525) scale(0.16 -0.16)">
       <defs>
        <path id="LinLibertine-30" d="M 1484 3681 
Q 1363 3681 1255 3603 
Q 1147 3525 1040 3340 
Q 934 3156 870 2762 
Q 806 2369 806 1813 
Q 806 163 1466 159 
Q 1522 159 1586 178 
Q 1650 197 1737 251 
Q 1825 306 1904 431 
Q 1984 556 2034 744 
Q 2144 1141 2144 2059 
Q 2144 3256 1772 3572 
Q 1650 3681 1484 3681 
z
M 1459 -63 
Q 1078 -63 809 206 
Q 547 466 398 916 
Q 250 1366 250 1881 
Q 250 2791 617 3347 
Q 984 3903 1484 3903 
Q 1953 3903 2266 3488 
Q 2700 2913 2700 1941 
Q 2700 1409 2578 998 
Q 2456 588 2262 367 
Q 2069 147 1862 42 
Q 1656 -63 1459 -63 
z
" transform="scale(0.015625)"/>
        <path id="LinLibertine-2e" d="M 464 35 
Q 366 134 366 275 
Q 366 416 464 516 
Q 563 616 703 616 
Q 844 616 944 516 
Q 1044 416 1044 275 
Q 1044 134 944 35 
Q 844 -63 703 -63 
Q 563 -63 464 35 
z
" transform="scale(0.015625)"/>
        <path id="LinLibertine-37" d="M 1088 3425 
Q 966 3425 880 3395 
Q 794 3366 694 3237 
Q 594 3109 531 2869 
Q 434 2856 325 2888 
Q 447 3688 453 3909 
Q 453 3928 481 3928 
Q 506 3922 589 3881 
Q 672 3841 800 3841 
L 2119 3841 
Q 2375 3841 2613 3909 
L 2713 3834 
Q 2022 2144 1281 -63 
L 844 -84 
L 794 -38 
Q 1269 1019 2234 3425 
L 1088 3425 
z
" transform="scale(0.015625)"/>
        <path id="LinLibertine-35" d="M 2041 1209 
Q 2041 1709 1836 1945 
Q 1631 2181 1300 2181 
Q 897 2181 488 2028 
L 703 3872 
Q 1075 3841 1394 3841 
Q 1778 3841 2444 3909 
L 2491 3884 
L 2388 3450 
Q 1991 3413 1716 3413 
Q 1497 3413 966 3469 
L 838 2400 
Q 1100 2503 1466 2503 
Q 1984 2503 2298 2158 
Q 2613 1813 2613 1325 
Q 2613 716 2231 322 
Q 1850 -72 1253 -72 
Q 959 -72 653 76 
Q 347 225 347 409 
Q 347 506 420 576 
Q 494 647 588 647 
Q 759 647 916 441 
Q 922 428 953 387 
Q 984 347 998 326 
Q 1013 306 1044 275 
Q 1075 244 1100 228 
Q 1125 213 1164 189 
Q 1203 166 1245 159 
Q 1288 153 1338 153 
Q 1631 153 1836 458 
Q 2041 763 2041 1209 
z
" transform="scale(0.015625)"/>
       </defs>
       <use xlink:href="#LinLibertine-30"/>
       <use xlink:href="#LinLibertine-2e" x="46.484375"/>
       <use xlink:href="#LinLibertine-37" x="68.457031"/>
       <use xlink:href="#LinLibertine-35" x="114.941406"/>
      </g>
     </g>
    </g>
    <g id="xtick_2">
     <g id="line2d_2">
      <g>
       <use xlink:href="#mc0206efa9e" x="127.234786" y="215.48" style="stroke: #000000; stroke-width: 0.8"/>
      </g>
     </g>
     <g id="text_2">
      <!-- 1.00 -->
      <g transform="translate(114.321036 233.6525) scale(0.16 -0.16)">
       <defs>
        <path id="LinLibertine-31" d="M 1844 781 
Q 1844 397 1942 305 
Q 2041 213 2400 197 
Q 2431 166 2431 89 
Q 2431 13 2400 -13 
Q 1759 0 1619 0 
Q 1356 0 728 -13 
Q 703 13 703 89 
Q 703 166 728 197 
Q 1100 209 1225 309 
Q 1350 409 1350 781 
L 1350 2869 
Q 1350 3241 1222 3238 
Q 1050 3238 666 3078 
Q 588 3128 569 3250 
Q 1466 3666 1825 3891 
Q 1863 3891 1863 3859 
Q 1844 3713 1844 3003 
L 1844 781 
z
" transform="scale(0.015625)"/>
       </defs>
       <use xlink:href="#LinLibertine-31"/>
       <use xlink:href="#LinLibertine-2e" x="46.484375"/>
       <use xlink:href="#LinLibertine-30" x="68.457031"/>
       <use xlink:href="#LinLibertine-30" x="114.941406"/>
      </g>
     </g>
    </g>
    <g id="xtick_3">
     <g id="line2d_3">
      <g>
       <use xlink:href="#mc0206efa9e" x="163.689214" y="215.48" style="stroke: #000000; stroke-width: 0.8"/>
      </g>
     </g>
     <g id="text_3">
      <!-- 1.25 -->
      <g transform="translate(150.775464 233.6525) scale(0.16 -0.16)">
       <defs>
        <path id="LinLibertine-32" d="M 391 2994 
Q 391 3313 717 3608 
Q 1044 3903 1544 3903 
Q 1978 3903 2301 3658 
Q 2625 3413 2625 2931 
Q 2625 2700 2528 2495 
Q 2431 2291 2320 2159 
Q 2209 2028 1984 1813 
L 1338 1191 
Q 863 716 863 416 
L 2003 416 
Q 2175 416 2272 550 
Q 2369 684 2450 1031 
Q 2572 1056 2638 997 
Q 2625 550 2484 -13 
Q 2191 0 1984 0 
L 863 0 
L 331 -13 
Q 331 294 476 578 
Q 622 863 1063 1313 
L 1538 1778 
Q 2063 2309 2059 2906 
Q 2059 3322 1890 3501 
Q 1722 3681 1503 3681 
Q 1184 3681 1028 3559 
Q 872 3438 872 3291 
Q 872 3259 897 3201 
Q 922 3144 922 3138 
Q 947 3047 947 3003 
Q 947 2906 842 2826 
Q 738 2747 647 2747 
Q 544 2747 467 2819 
Q 391 2891 391 2994 
z
" transform="scale(0.015625)"/>
       </defs>
       <use xlink:href="#LinLibertine-31"/>
       <use xlink:href="#LinLibertine-2e" x="46.484375"/>
       <use xlink:href="#LinLibertine-32" x="68.457031"/>
       <use xlink:href="#LinLibertine-35" x="114.941406"/>
      </g>
     </g>
    </g>
    <g id="xtick_4">
     <g id="line2d_4">
      <g>
       <use xlink:href="#mc0206efa9e" x="200.143642" y="215.48" style="stroke: #000000; stroke-width: 0.8"/>
      </g>
     </g>
     <g id="text_4">
      <!-- 1.50 -->
      <g transform="translate(187.229892 233.6525) scale(0.16 -0.16)">
       <use xlink:href="#LinLibertine-31"/>
       <use xlink:href="#LinLibertine-2e" x="46.484375"/>
       <use xlink:href="#LinLibertine-35" x="68.457031"/>
       <use xlink:href="#LinLibertine-30" x="114.941406"/>
      </g>
     </g>
    </g>
   </g>
   <g id="matplotlib.axis_2">
    <g id="ytick_1">
     <g id="line2d_5">
      <defs>
       <path id="m03c2aa36f5" d="M 0 0 
L -3.5 0 
" style="stroke: #000000; stroke-width: 0.8"/>
      </defs>
      <g>
       <use xlink:href="#m03c2aa36f5" x="73.3075" y="18.771111" style="stroke: #000000; stroke-width: 0.8"/>
      </g>
     </g>
     <g id="text_5">
      <!-- II -->
      <g transform="translate(54.5725 24.357361) scale(0.16 -0.16)">
       <defs>
        <path id="LinLibertineB-49" d="M 728 3347 
Q 728 3538 700 3656 
Q 672 3775 592 3829 
Q 513 3884 436 3900 
Q 359 3916 197 3922 
Q 153 3953 153 4034 
Q 153 4116 197 4141 
Q 709 4128 1184 4128 
Q 1644 4128 2156 4141 
Q 2200 4116 2201 4036 
Q 2203 3956 2156 3922 
Q 1997 3916 1920 3900 
Q 1844 3884 1764 3829 
Q 1684 3775 1654 3658 
Q 1625 3541 1625 3347 
L 1625 781 
Q 1625 591 1654 472 
Q 1684 353 1764 298 
Q 1844 244 1920 228 
Q 1997 213 2156 206 
Q 2200 175 2201 97 
Q 2203 19 2156 -13 
Q 1644 0 1184 0 
Q 709 0 197 -13 
Q 153 19 153 98 
Q 153 178 197 206 
Q 356 213 434 228 
Q 513 244 592 298 
Q 672 353 700 470 
Q 728 588 728 781 
L 728 3347 
z
" transform="scale(0.015625)"/>
       </defs>
       <use xlink:href="#LinLibertineB-49"/>
       <use xlink:href="#LinLibertineB-49" x="36.669922"/>
      </g>
     </g>
    </g>
    <g id="ytick_2">
     <g id="line2d_6">
      <g>
       <use xlink:href="#m03c2aa36f5" x="73.3075" y="41.913333" style="stroke: #000000; stroke-width: 0.8"/>
      </g>
     </g>
     <g id="text_6">
      <!-- LA -->
      <g transform="translate(45.245 47.499583) scale(0.16 -0.16)">
       <defs>
        <path id="LinLibertineB-4c" d="M 2234 269 
Q 2703 269 2933 483 
Q 3163 697 3272 1088 
Q 3431 1113 3547 1056 
Q 3484 500 3378 -13 
Q 2797 0 2613 0 
L 1181 0 
Q 934 0 197 -13 
Q 153 19 153 98 
Q 153 178 197 206 
Q 356 213 434 228 
Q 513 244 592 298 
Q 672 353 700 470 
Q 728 588 728 781 
L 728 3347 
Q 728 3538 700 3656 
Q 672 3775 592 3829 
Q 513 3884 436 3900 
Q 359 3916 197 3922 
Q 153 3953 153 4034 
Q 153 4116 197 4141 
Q 925 4128 1184 4128 
Q 1300 4128 1419 4131 
Q 1538 4134 1745 4137 
Q 1953 4141 2156 4141 
Q 2200 4116 2201 4036 
Q 2203 3956 2156 3922 
Q 1997 3916 1920 3900 
Q 1844 3884 1764 3829 
Q 1684 3775 1654 3658 
Q 1625 3541 1625 3347 
L 1625 775 
Q 1625 269 1850 269 
L 2234 269 
z
" transform="scale(0.015625)"/>
        <path id="LinLibertineB-41" d="M 1747 1813 
L 2719 1813 
L 2197 3328 
L 2153 3328 
L 1584 1897 
Q 1575 1878 1578 1862 
Q 1581 1847 1590 1837 
Q 1600 1828 1622 1822 
Q 1644 1816 1673 1814 
Q 1703 1813 1747 1813 
z
M 1056 506 
Q 1050 444 1037 395 
Q 1025 347 1072 314 
Q 1119 281 1148 262 
Q 1178 244 1254 231 
Q 1331 219 1373 216 
Q 1416 213 1497 206 
Q 1522 181 1522 97 
Q 1522 13 1497 -13 
Q 1022 0 647 0 
Q 519 0 44 -13 
Q 13 13 13 95 
Q 13 178 44 206 
Q 209 219 303 244 
Q 397 269 503 364 
Q 609 459 684 653 
L 2072 3928 
Q 2309 3928 2778 4213 
L 4097 550 
Q 4128 453 4183 389 
Q 4238 325 4269 294 
Q 4300 263 4403 241 
Q 4506 219 4522 219 
Q 4538 219 4672 206 
Q 4697 181 4697 97 
Q 4697 13 4672 -13 
Q 4197 0 3816 0 
Q 3194 0 2719 -13 
Q 2688 13 2688 95 
Q 2688 178 2719 206 
Q 2756 206 2818 209 
Q 2881 213 2915 216 
Q 2950 219 2998 222 
Q 3047 225 3072 234 
Q 3097 244 3130 253 
Q 3163 263 3178 281 
Q 3194 300 3203 326 
Q 3213 353 3209 384 
Q 3206 416 3194 459 
L 2834 1503 
L 1619 1503 
Q 1503 1503 1462 1481 
Q 1422 1459 1394 1394 
L 1056 506 
z
" transform="scale(0.015625)"/>
       </defs>
       <use xlink:href="#LinLibertineB-4c"/>
       <use xlink:href="#LinLibertineB-41" x="57.666016"/>
      </g>
     </g>
    </g>
    <g id="ytick_3">
     <g id="line2d_7">
      <g>
       <use xlink:href="#m03c2aa36f5" x="73.3075" y="65.055556" style="stroke: #000000; stroke-width: 0.8"/>
      </g>
     </g>
     <g id="text_7">
      <!-- Entropy -->
      <g transform="translate(7.2 70.641806) scale(0.16 -0.16)">
       <defs>
        <path id="LinLibertineB-45" d="M 2034 2338 
Q 2366 2338 2486 2414 
Q 2606 2491 2619 2747 
Q 2650 2778 2759 2778 
Q 2869 2778 2894 2747 
Q 2881 2363 2881 2194 
Q 2881 2078 2894 1631 
Q 2869 1600 2759 1600 
Q 2650 1600 2619 1631 
Q 2606 1856 2481 1948 
Q 2356 2041 2034 2041 
L 1516 2041 
L 1516 575 
Q 1516 447 1594 358 
Q 1672 269 1778 269 
L 2425 269 
Q 3097 269 3328 1088 
Q 3488 1125 3616 1056 
Q 3603 959 3575 726 
Q 3547 494 3514 311 
Q 3481 128 3444 -13 
Q 2869 0 2559 0 
L 1056 0 
Q 378 -6 63 -13 
Q 38 13 38 95 
Q 38 178 63 206 
Q 422 219 522 311 
Q 622 403 622 781 
L 622 3341 
Q 622 3725 522 3817 
Q 422 3909 63 3922 
Q 38 3953 38 4031 
Q 38 4109 63 4141 
L 1050 4128 
L 2938 4128 
Q 3103 4128 3250 4153 
Q 3275 4153 3278 4134 
Q 3284 4116 3296 3939 
Q 3309 3763 3325 3539 
Q 3341 3316 3353 3206 
Q 3238 3150 3078 3175 
Q 2963 3547 2809 3703 
Q 2656 3859 2322 3859 
L 1778 3859 
Q 1669 3859 1592 3764 
Q 1516 3669 1516 3547 
L 1516 2338 
L 2034 2338 
z
" transform="scale(0.015625)"/>
        <path id="LinLibertineB-6e" d="M 1459 781 
Q 1459 403 1517 314 
Q 1575 225 1791 206 
Q 1816 181 1817 97 
Q 1819 13 1791 -13 
Q 1241 0 1044 0 
Q 703 0 166 -13 
Q 141 13 141 95 
Q 141 178 166 206 
Q 472 231 550 314 
Q 628 397 628 781 
L 628 1978 
Q 628 2247 554 2323 
Q 481 2400 213 2425 
Q 175 2547 197 2631 
Q 741 2703 1259 2841 
Q 1400 2841 1409 2731 
Q 1438 2541 1450 2319 
Q 2213 2844 2516 2841 
Q 3366 2841 3366 1819 
L 3366 819 
Q 3366 428 3459 323 
Q 3553 219 3859 206 
Q 3891 181 3891 97 
Q 3891 13 3859 -13 
Q 3309 0 2950 0 
Q 2706 0 2169 -13 
Q 2138 13 2138 95 
Q 2138 178 2169 206 
Q 2381 219 2457 330 
Q 2534 441 2534 819 
L 2534 1888 
Q 2534 2369 2088 2369 
Q 1897 2369 1459 2069 
L 1459 2056 
L 1459 781 
z
" transform="scale(0.015625)"/>
        <path id="LinLibertineB-74" d="M 403 2778 
L 581 2778 
Q 581 3425 653 3519 
Q 672 3544 730 3569 
Q 788 3594 872 3620 
Q 956 3647 991 3663 
Q 1066 3694 1205 3734 
Q 1344 3775 1378 3775 
Q 1428 3775 1428 3719 
Q 1409 3419 1394 2994 
L 1388 2778 
L 2138 2778 
Q 2188 2778 2188 2741 
L 2188 2541 
Q 2188 2456 2034 2456 
L 1388 2456 
Q 1388 2097 1391 1515 
Q 1394 934 1394 813 
Q 1394 588 1475 486 
Q 1556 384 1678 384 
Q 1928 384 2041 475 
Q 2156 378 2156 294 
Q 2053 153 1798 45 
Q 1544 -63 1288 -63 
Q 969 -63 756 116 
Q 566 281 563 672 
Q 563 1619 581 2456 
L 166 2456 
Q 134 2456 134 2497 
L 134 2681 
Q 244 2778 403 2778 
z
" transform="scale(0.015625)"/>
        <path id="LinLibertineB-72" d="M 1459 1716 
L 1459 781 
Q 1459 397 1536 311 
Q 1613 225 1919 206 
Q 1944 181 1945 97 
Q 1947 13 1919 -13 
Q 1369 0 1044 0 
Q 703 0 166 -13 
Q 141 13 141 95 
Q 141 178 166 206 
Q 472 231 550 314 
Q 628 397 628 781 
L 628 1978 
Q 628 2247 551 2326 
Q 475 2406 213 2431 
Q 175 2547 197 2631 
Q 569 2669 1259 2841 
Q 1394 2841 1409 2731 
Q 1441 2419 1453 2228 
L 1478 2228 
Q 1906 2844 2241 2841 
Q 2406 2841 2534 2727 
Q 2663 2613 2663 2484 
Q 2663 2288 2550 2153 
Q 2438 2019 2294 2019 
Q 2091 2019 1984 2125 
Q 1972 2138 1950 2159 
Q 1928 2181 1915 2193 
Q 1903 2206 1884 2220 
Q 1866 2234 1850 2240 
Q 1834 2247 1816 2247 
Q 1725 2247 1613 2138 
Q 1538 2066 1498 1970 
Q 1459 1875 1459 1716 
z
" transform="scale(0.015625)"/>
        <path id="LinLibertineB-6f" d="M 1663 2572 
Q 1131 2572 1131 1466 
Q 1131 1025 1320 615 
Q 1509 206 1863 206 
Q 2075 206 2234 432 
Q 2394 659 2394 1178 
Q 2394 1831 2194 2201 
Q 1994 2572 1663 2572 
z
M 238 1325 
Q 238 1966 588 2369 
Q 1000 2844 1766 2841 
Q 2463 2841 2877 2431 
Q 3291 2022 3291 1381 
Q 3291 691 2853 300 
Q 2444 -66 1759 -63 
Q 1106 -63 672 320 
Q 238 703 238 1325 
z
" transform="scale(0.015625)"/>
        <path id="LinLibertineB-70" d="M 609 1978 
Q 609 2247 534 2323 
Q 459 2400 191 2425 
Q 153 2547 178 2631 
Q 722 2703 1241 2841 
Q 1381 2841 1388 2731 
Q 1406 2591 1422 2413 
L 1459 2413 
Q 1644 2578 1866 2709 
Q 2088 2841 2216 2841 
Q 2772 2841 3091 2522 
Q 3269 2344 3372 2067 
Q 3475 1791 3475 1516 
Q 3475 806 3036 371 
Q 2597 -63 1869 -63 
Q 1650 -63 1441 44 
L 1441 -703 
Q 1441 -1088 1517 -1173 
Q 1594 -1259 1900 -1281 
Q 1931 -1306 1931 -1389 
Q 1931 -1472 1900 -1497 
Q 1350 -1484 1025 -1484 
Q 684 -1484 147 -1497 
Q 116 -1472 116 -1389 
Q 116 -1306 147 -1281 
Q 453 -1256 531 -1172 
Q 609 -1088 609 -703 
L 609 1978 
z
M 1441 416 
Q 1638 203 1831 206 
Q 2216 206 2397 542 
Q 2578 878 2578 1344 
Q 2578 1863 2406 2138 
Q 2234 2413 2009 2413 
Q 1888 2413 1728 2345 
Q 1569 2278 1438 2159 
Q 1441 2106 1441 2056 
L 1441 416 
z
" transform="scale(0.015625)"/>
        <path id="LinLibertineB-79" d="M 1550 -1075 
Q 1422 -1300 1166 -1422 
Q 1031 -1484 800 -1484 
Q 647 -1484 550 -1369 
Q 472 -1278 475 -1113 
Q 475 -1003 579 -911 
Q 684 -819 856 -819 
Q 894 -819 959 -831 
Q 1025 -844 1081 -844 
Q 1206 -844 1279 -770 
Q 1353 -697 1422 -531 
L 1575 -178 
Q 1581 -128 1587 -109 
Q 1594 -91 1566 -39 
Q 1538 13 1520 34 
Q 1503 56 1459 114 
Q 1416 172 1394 206 
L 569 2100 
Q 434 2400 354 2476 
Q 275 2553 63 2572 
Q 38 2597 38 2681 
Q 38 2766 63 2791 
Q 319 2778 775 2778 
Q 1153 2778 1625 2791 
Q 1650 2766 1650 2681 
Q 1650 2597 1625 2572 
Q 1356 2553 1331 2454 
Q 1306 2356 1416 2163 
L 2009 825 
Q 2019 809 2019 800 
Q 2019 806 2022 813 
L 2681 2291 
Q 2725 2353 2709 2404 
Q 2694 2456 2678 2486 
Q 2663 2516 2602 2534 
Q 2541 2553 2495 2559 
Q 2450 2566 2375 2572 
Q 2344 2597 2344 2681 
Q 2344 2766 2375 2791 
Q 2850 2778 3053 2778 
Q 3188 2778 3506 2791 
Q 3531 2766 3531 2681 
Q 3531 2597 3506 2572 
Q 3341 2559 3203 2440 
Q 3066 2322 2988 2169 
Q 2431 991 1825 -475 
Q 1672 -863 1550 -1075 
z
" transform="scale(0.015625)"/>
       </defs>
       <use xlink:href="#LinLibertineB-45"/>
       <use xlink:href="#LinLibertineB-6e" x="60.351562"/>
       <use xlink:href="#LinLibertineB-74" x="121.923828"/>
       <use xlink:href="#LinLibertineB-72" x="157.714844"/>
       <use xlink:href="#LinLibertineB-6f" x="200.488281"/>
       <use xlink:href="#LinLibertineB-70" x="255.566406"/>
       <use xlink:href="#LinLibertineB-79" x="313.623047"/>
      </g>
     </g>
    </g>
    <g id="ytick_4">
     <g id="line2d_8">
      <g>
       <use xlink:href="#m03c2aa36f5" x="73.3075" y="88.197778" style="stroke: #000000; stroke-width: 0.8"/>
      </g>
     </g>
     <g id="text_8">
      <!-- TE -->
      <g transform="translate(46.22 93.784028) scale(0.16 -0.16)">
       <defs>
        <path id="LinLibertineB-54" d="M 2591 788 
Q 2591 403 2700 311 
Q 2809 219 3213 206 
Q 3238 181 3238 97 
Q 3238 13 3213 -13 
Q 2572 0 2131 0 
Q 1703 0 1075 -13 
Q 1050 13 1050 95 
Q 1050 178 1075 206 
Q 1478 219 1587 311 
Q 1697 403 1697 788 
L 1697 3238 
Q 1697 3550 1630 3711 
Q 1563 3872 1394 3872 
L 1081 3872 
Q 756 3872 561 3719 
Q 366 3566 269 3194 
Q 103 3194 19 3225 
Q 147 3775 178 4159 
Q 178 4178 206 4178 
Q 853 4128 1697 4128 
L 2597 4128 
Q 3447 4128 4031 4178 
Q 4050 4178 4050 4159 
Q 4056 3731 4134 3244 
Q 4063 3213 3884 3213 
Q 3806 3572 3601 3722 
Q 3397 3872 3028 3872 
L 2888 3872 
Q 2722 3872 2656 3709 
Q 2591 3547 2591 3219 
L 2591 788 
z
" transform="scale(0.015625)"/>
       </defs>
       <use xlink:href="#LinLibertineB-54"/>
       <use xlink:href="#LinLibertineB-45" x="65.185547"/>
      </g>
     </g>
    </g>
    <g id="ytick_5">
     <g id="line2d_9">
      <g>
       <use xlink:href="#m03c2aa36f5" x="73.3075" y="111.34" style="stroke: #000000; stroke-width: 0.8"/>
      </g>
     </g>
     <g id="text_9">
      <!-- SEXP -->
      <g transform="translate(27.2825 116.92625) scale(0.16 -0.16)">
       <defs>
        <path id="LinLibertineB-53" d="M 2694 4038 
Q 2766 3456 2766 3066 
Q 2656 2975 2444 3034 
Q 2394 3225 2339 3359 
Q 2284 3494 2189 3644 
Q 2094 3794 1945 3872 
Q 1797 3950 1606 3950 
Q 1356 3950 1209 3795 
Q 1063 3641 1063 3372 
Q 1063 3128 1289 2901 
Q 1516 2675 1772 2547 
Q 2353 2247 2631 1947 
Q 2963 1581 2963 1178 
Q 2963 675 2528 284 
Q 2138 -66 1563 -63 
Q 1056 -63 732 0 
Q 409 63 294 63 
Q 172 472 172 1119 
Q 391 1175 494 1141 
Q 591 719 875 462 
Q 1159 206 1491 206 
Q 1784 206 1970 353 
Q 2156 500 2156 738 
Q 2156 1153 1575 1556 
Q 1503 1600 1254 1744 
Q 1006 1888 807 2034 
Q 609 2181 475 2363 
Q 263 2644 263 3103 
Q 263 3572 678 3903 
Q 1063 4209 1613 4213 
Q 1966 4213 2314 4128 
Q 2663 4044 2694 4038 
z
" transform="scale(0.015625)"/>
        <path id="LinLibertineB-58" d="M 2778 569 
L 2188 1575 
Q 2125 1684 2083 1700 
Q 2041 1716 1997 1650 
Q 1772 1338 1275 525 
Q 1134 238 1556 213 
Q 1588 181 1588 103 
Q 1588 25 1556 -6 
Q 1044 6 775 6 
Q 450 6 63 -6 
Q 38 25 38 101 
Q 38 178 63 213 
Q 225 228 334 253 
Q 444 278 556 343 
Q 669 409 753 519 
L 1806 1863 
Q 1884 1966 1879 2017 
Q 1875 2069 1778 2203 
L 856 3500 
Q 678 3747 554 3828 
Q 431 3909 225 3922 
Q 194 3953 192 4031 
Q 191 4109 219 4141 
Q 603 4128 1209 4128 
Q 1638 4128 2150 4141 
Q 2175 4109 2175 4032 
Q 2175 3956 2150 3922 
Q 1894 3909 1853 3826 
Q 1813 3744 1925 3566 
L 2419 2744 
Q 2459 2675 2484 2645 
Q 2509 2616 2539 2616 
Q 2569 2616 2603 2653 
Q 2781 2859 2932 3092 
Q 3084 3325 3244 3609 
Q 3384 3897 2963 3922 
Q 2931 3953 2931 4031 
Q 2931 4109 2963 4141 
Q 3475 4128 3706 4128 
Q 3975 4128 4359 4141 
Q 4391 4109 4391 4032 
Q 4391 3956 4359 3922 
Q 4122 3900 3973 3837 
Q 3825 3775 3700 3616 
L 2834 2488 
Q 2753 2384 2758 2315 
Q 2763 2247 2866 2094 
L 3856 634 
Q 4022 391 4162 309 
Q 4303 228 4525 213 
Q 4556 181 4556 103 
Q 4556 25 4531 -6 
Q 4147 6 3622 6 
Q 3134 6 2625 -6 
Q 2600 25 2598 101 
Q 2597 178 2625 213 
Q 2875 225 2897 314 
Q 2919 403 2778 569 
z
" transform="scale(0.015625)"/>
        <path id="LinLibertineB-50" d="M 2216 4184 
Q 2925 4184 3284 3975 
Q 3778 3681 3775 3097 
Q 3775 2431 3347 2081 
Q 2975 1775 2131 1772 
Q 2041 1772 1906 1791 
Q 1778 1875 1778 2059 
Q 1913 2041 2100 2041 
Q 2491 2041 2650 2262 
Q 2809 2484 2809 2988 
Q 2809 3922 2009 3922 
Q 1766 3922 1695 3808 
Q 1625 3694 1625 3353 
L 1625 781 
Q 1625 591 1654 472 
Q 1684 353 1764 298 
Q 1844 244 1920 228 
Q 1997 213 2156 206 
Q 2200 175 2201 97 
Q 2203 19 2156 -13 
Q 1644 0 1184 0 
Q 709 0 197 -13 
Q 153 19 153 98 
Q 153 178 197 206 
Q 356 213 434 228 
Q 513 244 592 298 
Q 672 353 700 470 
Q 728 588 728 781 
L 728 3347 
Q 728 3538 700 3656 
Q 672 3775 592 3829 
Q 513 3884 436 3900 
Q 359 3916 197 3922 
Q 153 3953 153 4034 
Q 153 4116 197 4141 
Q 325 4141 1206 4162 
Q 2088 4184 2216 4184 
z
" transform="scale(0.015625)"/>
       </defs>
       <use xlink:href="#LinLibertineB-53"/>
       <use xlink:href="#LinLibertineB-45" x="50.390625"/>
       <use xlink:href="#LinLibertineB-58" x="110.742188"/>
       <use xlink:href="#LinLibertineB-50" x="182.519531"/>
      </g>
     </g>
    </g>
    <g id="ytick_6">
     <g id="line2d_10">
      <g>
       <use xlink:href="#m03c2aa36f5" x="73.3075" y="134.482222" style="stroke: #000000; stroke-width: 0.8"/>
      </g>
     </g>
     <g id="text_10">
      <!-- EXP -->
      <g transform="translate(35.345 140.068472) scale(0.16 -0.16)">
       <use xlink:href="#LinLibertineB-45"/>
       <use xlink:href="#LinLibertineB-58" x="60.351562"/>
       <use xlink:href="#LinLibertineB-50" x="132.128906"/>
      </g>
     </g>
    </g>
    <g id="ytick_7">
     <g id="line2d_11">
      <g>
       <use xlink:href="#m03c2aa36f5" x="73.3075" y="157.624444" style="stroke: #000000; stroke-width: 0.8"/>
      </g>
     </g>
     <g id="text_11">
      <!-- NUC -->
      <g transform="translate(31.4725 163.210694) scale(0.16 -0.16)">
       <defs>
        <path id="LinLibertineB-4e" d="M 4038 0 
Q 3878 -78 3634 -78 
Q 3503 44 3378 206 
L 1234 2753 
Q 1128 2881 1081 2881 
Q 1031 2881 1031 2753 
L 1031 850 
Q 1031 556 1086 428 
Q 1141 300 1236 265 
Q 1331 231 1588 206 
Q 1613 181 1613 97 
Q 1613 13 1588 -13 
Q 947 0 872 0 
Q 781 0 153 -13 
Q 128 13 128 95 
Q 128 178 153 206 
Q 409 231 506 268 
Q 603 306 656 434 
Q 709 563 709 850 
L 709 3519 
Q 678 3659 537 3784 
Q 397 3909 206 3922 
Q 181 3953 179 4031 
Q 178 4109 206 4141 
L 1247 4128 
L 1819 3456 
L 3516 1456 
Q 3588 1372 3633 1369 
Q 3678 1366 3688 1478 
L 3688 3278 
Q 3688 3572 3633 3700 
Q 3578 3828 3481 3862 
Q 3384 3897 3128 3922 
Q 3097 3953 3097 4031 
Q 3097 4109 3128 4141 
Q 3769 4128 3872 4128 
Q 3934 4128 4563 4141 
Q 4594 4109 4594 4032 
Q 4594 3956 4563 3922 
Q 4306 3897 4211 3859 
Q 4116 3822 4061 3694 
Q 4006 3566 4006 3278 
L 4006 653 
L 4038 0 
z
" transform="scale(0.015625)"/>
        <path id="LinLibertineB-55" d="M 1453 3341 
L 1453 1722 
Q 1453 1453 1465 1283 
Q 1478 1113 1554 889 
Q 1631 666 1778 525 
Q 2109 206 2541 206 
Q 2853 206 3078 304 
Q 3303 403 3425 547 
Q 3547 691 3617 916 
Q 3688 1141 3703 1328 
Q 3719 1516 3719 1772 
L 3719 3341 
Q 3719 3547 3700 3651 
Q 3681 3756 3597 3814 
Q 3513 3872 3430 3887 
Q 3347 3903 3128 3922 
Q 3097 3953 3097 4031 
Q 3097 4109 3128 4141 
Q 3769 4128 3944 4128 
Q 4000 4128 4628 4141 
Q 4659 4109 4659 4032 
Q 4659 3956 4628 3922 
Q 4397 3897 4317 3869 
Q 4238 3841 4186 3722 
Q 4134 3603 4134 3341 
L 4134 1888 
Q 4134 966 3734 451 
Q 3334 -63 2406 -63 
Q 1528 -63 1113 206 
Q 556 572 556 1509 
L 556 3341 
Q 556 3719 464 3814 
Q 372 3909 63 3922 
Q 38 3953 38 4031 
Q 38 4109 63 4141 
Q 703 4128 997 4128 
Q 1413 4128 2041 4141 
Q 2072 4109 2073 4032 
Q 2075 3956 2041 3922 
Q 1656 3909 1554 3817 
Q 1453 3725 1453 3341 
z
" transform="scale(0.015625)"/>
        <path id="LinLibertineB-43" d="M 4166 800 
Q 3506 -63 2540 -63 
Q 1575 -63 1013 341 
Q 641 603 439 1070 
Q 238 1538 238 2016 
Q 238 3034 900 3623 
Q 1563 4213 2547 4213 
Q 3006 4213 3445 4070 
Q 3884 3928 3950 3922 
Q 4059 3250 4091 2931 
Q 3950 2853 3816 2900 
Q 3669 3394 3373 3669 
Q 3078 3944 2478 3944 
Q 1916 3944 1559 3422 
Q 1203 2900 1203 2138 
Q 1203 1381 1593 825 
Q 1984 269 2534 269 
Q 3347 269 3956 934 
Q 4006 934 4073 889 
Q 4141 844 4166 800 
z
" transform="scale(0.015625)"/>
       </defs>
       <use xlink:href="#LinLibertineB-4e"/>
       <use xlink:href="#LinLibertineB-55" x="73.974609"/>
       <use xlink:href="#LinLibertineB-43" x="147.167969"/>
      </g>
     </g>
    </g>
    <g id="ytick_8">
     <g id="line2d_12">
      <g>
       <use xlink:href="#m03c2aa36f5" x="73.3075" y="180.766667" style="stroke: #000000; stroke-width: 0.8"/>
      </g>
     </g>
     <g id="text_12">
      <!-- NS -->
      <g transform="translate(46.41 186.352917) scale(0.16 -0.16)">
       <use xlink:href="#LinLibertineB-4e"/>
       <use xlink:href="#LinLibertineB-53" x="73.974609"/>
      </g>
     </g>
    </g>
    <g id="ytick_9">
     <g id="line2d_13">
      <g>
       <use xlink:href="#m03c2aa36f5" x="73.3075" y="203.908889" style="stroke: #000000; stroke-width: 0.8"/>
      </g>
     </g>
     <g id="text_13">
      <!-- EC -->
      <g transform="translate(45.36 209.495139) scale(0.16 -0.16)">
       <use xlink:href="#LinLibertineB-45"/>
       <use xlink:href="#LinLibertineB-43" x="60.351562"/>
      </g>
     </g>
    </g>
   </g>
   <g id="LineCollection_1">
    <path d="M 177.793036 18.771111 
L 191.576012 18.771111 
" clip-path="url(#p069a806343)" style="fill: none; stroke: #404040; stroke-width: 1.5"/>
   </g>
   <g id="LineCollection_2">
    <path d="M 172.394559 41.913333 
L 195.747045 41.913333 
" clip-path="url(#p069a806343)" style="fill: none; stroke: #404040; stroke-width: 1.5"/>
   </g>
   <g id="LineCollection_3">
    <path d="M 171.122664 65.055556 
L 186.105597 65.055556 
" clip-path="url(#p069a806343)" style="fill: none; stroke: #404040; stroke-width: 1.5"/>
   </g>
   <g id="LineCollection_4">
    <path d="M 160.316348 88.197778 
L 180.604327 88.197778 
" clip-path="url(#p069a806343)" style="fill: none; stroke: #404040; stroke-width: 1.5"/>
   </g>
   <g id="LineCollection_5">
    <path d="M 155.55626 111.34 
L 180.915364 111.34 
" clip-path="url(#p069a806343)" style="fill: none; stroke: #404040; stroke-width: 1.5"/>
   </g>
   <g id="LineCollection_6">
    <path d="M 79.137955 134.482222 
L 94.942709 134.482222 
" clip-path="url(#p069a806343)" style="fill: none; stroke: #404040; stroke-width: 1.5"/>
   </g>
   <g id="LineCollection_7">
    <path d="M 145.602731 157.624444 
L 155.463379 157.624444 
" clip-path="url(#p069a806343)" style="fill: none; stroke: #404040; stroke-width: 1.5"/>
   </g>
   <g id="LineCollection_8">
    <path d="M 140.851998 180.766667 
L 153.30618 180.766667 
" clip-path="url(#p069a806343)" style="fill: none; stroke: #404040; stroke-width: 1.5"/>
   </g>
   <g id="LineCollection_9">
    <path d="M 139.286977 203.908889 
L 152.677917 203.908889 
" clip-path="url(#p069a806343)" style="fill: none; stroke: #404040; stroke-width: 1.5"/>
   </g>
   <g id="line2d_14">
    <defs>
     <path id="mbe861270f5" d="M 0 3.383948 
C 0.897434 3.383948 1.758231 3.027394 2.392813 2.392813 
C 3.027394 1.758231 3.383948 0.897434 3.383948 0 
C 3.383948 -0.897434 3.027394 -1.758231 2.392813 -2.392813 
C 1.758231 -3.027394 0.897434 -3.383948 0 -3.383948 
C -0.897434 -3.383948 -1.758231 -3.027394 -2.392813 -2.392813 
C -3.027394 -1.758231 -3.383948 -0.897434 -3.383948 0 
C -3.383948 0.897434 -3.027394 1.758231 -2.392813 2.392813 
C -1.758231 3.027394 -0.897434 3.383948 0 3.383948 
z
" style="stroke: #ff9f9b; stroke-width: 2.025"/>
    </defs>
    <g clip-path="url(#p069a806343)">
     <use xlink:href="#mbe861270f5" x="183.734149" y="41.913333" style="fill: #ff9f9b; stroke: #ff9f9b; stroke-width: 2.025"/>
     <use xlink:href="#mbe861270f5" x="178.47178" y="65.055556" style="fill: #ff9f9b; stroke: #ff9f9b; stroke-width: 2.025"/>
     <use xlink:href="#mbe861270f5" x="167.805029" y="111.34" style="fill: #ff9f9b; stroke: #ff9f9b; stroke-width: 2.025"/>
     <use xlink:href="#mbe861270f5" x="86.744302" y="134.482222" style="fill: #ff9f9b; stroke: #ff9f9b; stroke-width: 2.025"/>
     <use xlink:href="#mbe861270f5" x="150.461171" y="157.624444" style="fill: #ff9f9b; stroke: #ff9f9b; stroke-width: 2.025"/>
     <use xlink:href="#mbe861270f5" x="146.962012" y="180.766667" style="fill: #ff9f9b; stroke: #ff9f9b; stroke-width: 2.025"/>
    </g>
   </g>
   <g id="line2d_15">
    <defs>
     <path id="mbe13af100e" d="M 0 3.383948 
C 0.897434 3.383948 1.758231 3.027394 2.392813 2.392813 
C 3.027394 1.758231 3.383948 0.897434 3.383948 0 
C 3.383948 -0.897434 3.027394 -1.758231 2.392813 -2.392813 
C 1.758231 -3.027394 0.897434 -3.383948 0 -3.383948 
C -0.897434 -3.383948 -1.758231 -3.027394 -2.392813 -2.392813 
C -3.027394 -1.758231 -3.383948 -0.897434 -3.383948 0 
C -3.383948 0.897434 -3.027394 1.758231 -2.392813 2.392813 
C -1.758231 3.027394 -0.897434 3.383948 0 3.383948 
z
" style="stroke: #8de5a1; stroke-width: 2.025"/>
    </defs>
    <g clip-path="url(#p069a806343)">
     <use xlink:href="#mbe13af100e" x="184.567667" y="18.771111" style="fill: #8de5a1; stroke: #8de5a1; stroke-width: 2.025"/>
     <use xlink:href="#mbe13af100e" x="170.18798" y="88.197778" style="fill: #8de5a1; stroke: #8de5a1; stroke-width: 2.025"/>
     <use xlink:href="#mbe13af100e" x="145.846185" y="203.908889" style="fill: #8de5a1; stroke: #8de5a1; stroke-width: 2.025"/>
    </g>
   </g>
   <g id="line2d_16"/>
   <g id="line2d_17"/>
   <g id="line2d_18">
    <path d="M 127.234786 215.48 
L 127.234786 7.2 
" clip-path="url(#p069a806343)" style="fill: none; stroke-dasharray: 5.55,2.4; stroke-dashoffset: 0; stroke: #1d1d1d; stroke-width: 1.5"/>
   </g>
   <g id="patch_3">
    <path d="M 73.3075 215.48 
L 73.3075 7.2 
" style="fill: none; stroke: #000000; stroke-width: 0.8; stroke-linejoin: miter; stroke-linecap: square"/>
   </g>
   <g id="patch_4">
    <path d="M 73.3075 215.48 
L 201.5775 215.48 
" style="fill: none; stroke: #000000; stroke-width: 0.8; stroke-linejoin: miter; stroke-linecap: square"/>
   </g>
  </g>
 </g>
 <defs>
  <clipPath id="p069a806343">
   <rect x="73.3075" y="7.2" width="128.27" height="208.28"/>
  </clipPath>
 </defs>
</svg>
