<?xml version="1.0" encoding="utf-8" standalone="no"?>
<!DOCTYPE svg PUBLIC "-//W3C//DTD SVG 1.1//EN"
  "http://www.w3.org/Graphics/SVG/1.1/DTD/svg11.dtd">
<svg xmlns:xlink="http://www.w3.org/1999/xlink" width="347.04pt" height="352.237865pt" viewBox="0 0 347.04 352.237865" xmlns="http://www.w3.org/2000/svg" version="1.1">
 <metadata>
  <rdf:RDF xmlns:dc="http://purl.org/dc/elements/1.1/" xmlns:cc="http://creativecommons.org/ns#" xmlns:rdf="http://www.w3.org/1999/02/22-rdf-syntax-ns#">
   <cc:Work>
    <dc:type rdf:resource="http://purl.org/dc/dcmitype/StillImage"/>
    <dc:date>2024-08-22T20:46:31.856782</dc:date>
    <dc:format>image/svg+xml</dc:format>
    <dc:creator>
     <cc:Agent>
      <dc:title>Matplotlib v3.8.4, https://matplotlib.org/</dc:title>
     </cc:Agent>
    </dc:creator>
   </cc:Work>
  </rdf:RDF>
 </metadata>
 <defs>
  <style type="text/css">*{stroke-linejoin: round; stroke-linecap: butt}</style>
 </defs>
 <g id="figure_1">
  <g id="patch_1">
   <path d="M 0 352.237865 
L 347.04 352.237865 
L 347.04 0 
L 0 0 
z
" style="fill: #ffffff"/>
  </g>
  <g id="axes_1">
   <g id="patch_2">
    <path d="M 173.52 12.397865 
L 55.914 61.111865 
L 7.2 178.717865 
L 55.914 296.323865 
L 173.52 345.037865 
L 291.126 296.323865 
L 339.84 178.717865 
L 291.126 61.111865 
z
" style="fill: #ffffff"/>
   </g>
   <g id="patch_3">
    <path d="M 173.52 49.871077 
L 84.205904 89.403768 
L 34.237101 178.717865 
L 57.292213 294.945652 
L 173.52 330.301313 
L 277.84956 283.047425 
L 335.640811 178.717865 
L 269.428807 82.809058 
z
" clip-path="url(#pdc11be2749)" style="fill: #8de5a1; opacity: 0.3; stroke: #8de5a1; stroke-linejoin: miter"/>
   </g>
   <g id="patch_4">
    <path d="M 173.52 45.525654 
L 84.856467 90.054332 
L 29.784918 178.717865 
L 72.488057 279.749808 
L 173.52 323.941252 
L 275.821426 281.019291 
L 332.257764 178.717865 
L 267.733539 84.504326 
z
" clip-path="url(#pdc11be2749)" style="fill: #ffffff; stroke: #ffffff; stroke-linejoin: miter"/>
   </g>
   <g id="patch_5">
    <path d="M 173.52 45.525654 
L 84.856467 90.054332 
L 29.784918 178.717865 
L 72.488057 279.749808 
L 173.52 323.941252 
L 275.821426 281.019291 
L 332.257764 178.717865 
L 267.733539 84.504326 
z
" clip-path="url(#pdc11be2749)" style="fill: #ff9f9b; opacity: 0.3; stroke: #ff9f9b; stroke-linejoin: miter"/>
   </g>
   <g id="matplotlib.axis_1">
    <g id="xtick_1">
     <g id="line2d_1">
      <path d="M 173.52 178.717865 
L 173.52 157.927865 
L 173.52 137.137865 
L 173.52 116.347865 
L 173.52 95.557865 
L 173.52 74.767865 
L 173.52 53.977865 
L 173.52 33.187865 
L 173.52 12.397865 
" clip-path="url(#pdc11be2749)" style="fill: none; stroke: #b0b0b0; stroke-width: 0.8; stroke-linecap: square"/>
     </g>
    </g>
    <g id="xtick_2">
     <g id="line2d_2">
      <path d="M 173.52 178.717865 
L 158.81925 164.017115 
L 144.1185 149.316365 
L 129.41775 134.615615 
L 114.717 119.914865 
L 100.01625 105.214115 
L 85.3155 90.513365 
L 70.61475 75.812615 
L 55.914 61.111865 
" clip-path="url(#pdc11be2749)" style="fill: none; stroke: #b0b0b0; stroke-width: 0.8; stroke-linecap: square"/>
     </g>
    </g>
    <g id="xtick_3">
     <g id="line2d_3">
      <path d="M 173.52 178.717865 
L 152.73 178.717865 
L 131.94 178.717865 
L 111.15 178.717865 
L 90.36 178.717865 
L 69.57 178.717865 
L 48.78 178.717865 
L 27.99 178.717865 
L 7.2 178.717865 
" clip-path="url(#pdc11be2749)" style="fill: none; stroke: #b0b0b0; stroke-width: 0.8; stroke-linecap: square"/>
     </g>
    </g>
    <g id="xtick_4">
     <g id="line2d_4">
      <path d="M 173.52 178.717865 
L 158.81925 193.418615 
L 144.1185 208.119365 
L 129.41775 222.820115 
L 114.717 237.520865 
L 100.01625 252.221615 
L 85.3155 266.922365 
L 70.61475 281.623115 
L 55.914 296.323865 
" clip-path="url(#pdc11be2749)" style="fill: none; stroke: #b0b0b0; stroke-width: 0.8; stroke-linecap: square"/>
     </g>
    </g>
    <g id="xtick_5">
     <g id="line2d_5">
      <path d="M 173.52 178.717865 
L 173.52 199.507865 
L 173.52 220.297865 
L 173.52 241.087865 
L 173.52 261.877865 
L 173.52 282.667865 
L 173.52 303.457865 
L 173.52 324.247865 
L 173.52 345.037865 
" clip-path="url(#pdc11be2749)" style="fill: none; stroke: #b0b0b0; stroke-width: 0.8; stroke-linecap: square"/>
     </g>
    </g>
    <g id="xtick_6">
     <g id="line2d_6">
      <path d="M 173.52 178.717865 
L 188.22075 193.418615 
L 202.9215 208.119365 
L 217.62225 222.820115 
L 232.323 237.520865 
L 247.02375 252.221615 
L 261.7245 266.922365 
L 276.42525 281.623115 
L 291.126 296.323865 
" clip-path="url(#pdc11be2749)" style="fill: none; stroke: #b0b0b0; stroke-width: 0.8; stroke-linecap: square"/>
     </g>
    </g>
    <g id="xtick_7">
     <g id="line2d_7">
      <path d="M 173.52 178.717865 
L 194.31 178.717865 
L 215.1 178.717865 
L 235.89 178.717865 
L 256.68 178.717865 
L 277.47 178.717865 
L 298.26 178.717865 
L 319.05 178.717865 
L 339.84 178.717865 
" clip-path="url(#pdc11be2749)" style="fill: none; stroke: #b0b0b0; stroke-width: 0.8; stroke-linecap: square"/>
     </g>
    </g>
    <g id="xtick_8">
     <g id="line2d_8">
      <path d="M 173.52 178.717865 
L 188.22075 164.017115 
L 202.9215 149.316365 
L 217.62225 134.615615 
L 232.323 119.914865 
L 247.02375 105.214115 
L 261.7245 90.513365 
L 276.42525 75.812615 
L 291.126 61.111865 
" clip-path="url(#pdc11be2749)" style="fill: none; stroke: #b0b0b0; stroke-width: 0.8; stroke-linecap: square"/>
     </g>
    </g>
   </g>
   <g id="matplotlib.axis_2">
    <g id="ytick_1">
     <g id="line2d_9">
      <path d="M 173.52 155.005398 
L 156.752754 161.950619 
L 149.807533 178.717865 
L 156.752754 195.485111 
L 173.52 202.430332 
L 190.287246 195.485111 
L 197.232467 178.717865 
L 190.287246 161.950619 
L 173.52 155.005398 
" clip-path="url(#pdc11be2749)" style="fill: none; stroke: #b0b0b0; stroke-width: 0.8; stroke-linecap: square"/>
     </g>
     <g id="text_1">
      <!-- 0.1 -->
      <g style="fill: #959595" transform="translate(164.445632 152.532277) scale(0.2 -0.2)">
       <defs>
        <path id="TimesNewRomanPSMT-30" d="M 231 2094 
Q 231 2819 450 3342 
Q 669 3866 1031 4122 
Q 1313 4325 1613 4325 
Q 2100 4325 2488 3828 
Q 2972 3213 2972 2159 
Q 2972 1422 2759 906 
Q 2547 391 2217 158 
Q 1888 -75 1581 -75 
Q 975 -75 572 641 
Q 231 1244 231 2094 
z
M 844 2016 
Q 844 1141 1059 588 
Q 1238 122 1591 122 
Q 1759 122 1940 273 
Q 2122 425 2216 781 
Q 2359 1319 2359 2297 
Q 2359 3022 2209 3506 
Q 2097 3866 1919 4016 
Q 1791 4119 1609 4119 
Q 1397 4119 1231 3928 
Q 1006 3669 925 3112 
Q 844 2556 844 2016 
z
" transform="scale(0.015625)"/>
        <path id="TimesNewRomanPSMT-2e" d="M 800 606 
Q 947 606 1047 504 
Q 1147 403 1147 259 
Q 1147 116 1045 14 
Q 944 -88 800 -88 
Q 656 -88 554 14 
Q 453 116 453 259 
Q 453 406 554 506 
Q 656 606 800 606 
z
" transform="scale(0.015625)"/>
        <path id="TimesNewRomanPSMT-31" d="M 750 3822 
L 1781 4325 
L 1884 4325 
L 1884 747 
Q 1884 391 1914 303 
Q 1944 216 2037 169 
Q 2131 122 2419 116 
L 2419 0 
L 825 0 
L 825 116 
Q 1125 122 1212 167 
Q 1300 213 1334 289 
Q 1369 366 1369 747 
L 1369 3034 
Q 1369 3497 1338 3628 
Q 1316 3728 1258 3775 
Q 1200 3822 1119 3822 
Q 1003 3822 797 3725 
L 750 3822 
z
" transform="scale(0.015625)"/>
       </defs>
       <use xlink:href="#TimesNewRomanPSMT-30"/>
       <use xlink:href="#TimesNewRomanPSMT-2e" x="50"/>
       <use xlink:href="#TimesNewRomanPSMT-31" x="75"/>
      </g>
     </g>
    </g>
    <g id="ytick_2">
     <g id="line2d_10">
      <path d="M 173.52 131.292931 
L 139.985508 145.183373 
L 126.095066 178.717865 
L 139.985508 212.252357 
L 173.52 226.142799 
L 207.054492 212.252357 
L 220.944934 178.717865 
L 207.054492 145.183373 
L 173.52 131.292931 
" clip-path="url(#pdc11be2749)" style="fill: none; stroke: #b0b0b0; stroke-width: 0.8; stroke-linecap: square"/>
     </g>
     <g id="text_2">
      <!-- 0.2 -->
      <g style="fill: #959595" transform="translate(155.371264 130.624814) scale(0.2 -0.2)">
       <defs>
        <path id="TimesNewRomanPSMT-32" d="M 2934 816 
L 2638 0 
L 138 0 
L 138 116 
Q 1241 1122 1691 1759 
Q 2141 2397 2141 2925 
Q 2141 3328 1894 3587 
Q 1647 3847 1303 3847 
Q 991 3847 742 3664 
Q 494 3481 375 3128 
L 259 3128 
Q 338 3706 661 4015 
Q 984 4325 1469 4325 
Q 1984 4325 2329 3994 
Q 2675 3663 2675 3213 
Q 2675 2891 2525 2569 
Q 2294 2063 1775 1497 
Q 997 647 803 472 
L 1909 472 
Q 2247 472 2383 497 
Q 2519 522 2628 598 
Q 2738 675 2819 816 
L 2934 816 
z
" transform="scale(0.015625)"/>
       </defs>
       <use xlink:href="#TimesNewRomanPSMT-30"/>
       <use xlink:href="#TimesNewRomanPSMT-2e" x="50"/>
       <use xlink:href="#TimesNewRomanPSMT-32" x="75"/>
      </g>
     </g>
    </g>
    <g id="ytick_3">
     <g id="line2d_11">
      <path d="M 173.52 107.580464 
L 123.218262 128.416126 
L 102.382599 178.717865 
L 123.218262 229.019603 
L 173.52 249.855266 
L 223.821738 229.019603 
L 244.657401 178.717865 
L 223.821738 128.416126 
L 173.52 107.580464 
" clip-path="url(#pdc11be2749)" style="fill: none; stroke: #b0b0b0; stroke-width: 0.8; stroke-linecap: square"/>
     </g>
     <g id="text_3">
      <!-- 0.3 -->
      <g style="fill: #959595" transform="translate(146.296895 108.717351) scale(0.2 -0.2)">
       <defs>
        <path id="TimesNewRomanPSMT-33" d="M 325 3431 
Q 506 3859 782 4092 
Q 1059 4325 1472 4325 
Q 1981 4325 2253 3994 
Q 2459 3747 2459 3466 
Q 2459 3003 1878 2509 
Q 2269 2356 2469 2072 
Q 2669 1788 2669 1403 
Q 2669 853 2319 450 
Q 1863 -75 997 -75 
Q 569 -75 414 31 
Q 259 138 259 259 
Q 259 350 332 419 
Q 406 488 509 488 
Q 588 488 669 463 
Q 722 447 909 348 
Q 1097 250 1169 231 
Q 1284 197 1416 197 
Q 1734 197 1970 444 
Q 2206 691 2206 1028 
Q 2206 1275 2097 1509 
Q 2016 1684 1919 1775 
Q 1784 1900 1550 2001 
Q 1316 2103 1072 2103 
L 972 2103 
L 972 2197 
Q 1219 2228 1467 2375 
Q 1716 2522 1828 2728 
Q 1941 2934 1941 3181 
Q 1941 3503 1739 3701 
Q 1538 3900 1238 3900 
Q 753 3900 428 3381 
L 325 3431 
z
" transform="scale(0.015625)"/>
       </defs>
       <use xlink:href="#TimesNewRomanPSMT-30"/>
       <use xlink:href="#TimesNewRomanPSMT-2e" x="50"/>
       <use xlink:href="#TimesNewRomanPSMT-33" x="75"/>
      </g>
     </g>
    </g>
    <g id="ytick_4">
     <g id="line2d_12">
      <path d="M 173.52 83.867997 
L 106.451015 111.64888 
L 78.670132 178.717865 
L 106.451015 245.786849 
L 173.52 273.567732 
L 240.588985 245.786849 
L 268.369868 178.717865 
L 240.588985 111.64888 
L 173.52 83.867997 
" clip-path="url(#pdc11be2749)" style="fill: none; stroke: #b0b0b0; stroke-width: 0.8; stroke-linecap: square"/>
     </g>
     <g id="text_4">
      <!-- 0.4 -->
      <g style="fill: #959595" transform="translate(137.222527 86.809889) scale(0.2 -0.2)">
       <defs>
        <path id="TimesNewRomanPSMT-34" d="M 2978 1563 
L 2978 1119 
L 2409 1119 
L 2409 0 
L 1894 0 
L 1894 1119 
L 100 1119 
L 100 1519 
L 2066 4325 
L 2409 4325 
L 2409 1563 
L 2978 1563 
z
M 1894 1563 
L 1894 3666 
L 406 1563 
L 1894 1563 
z
" transform="scale(0.015625)"/>
       </defs>
       <use xlink:href="#TimesNewRomanPSMT-30"/>
       <use xlink:href="#TimesNewRomanPSMT-2e" x="50"/>
       <use xlink:href="#TimesNewRomanPSMT-34" x="75"/>
      </g>
     </g>
    </g>
    <g id="ytick_5">
     <g id="line2d_13">
      <path d="M 173.52 60.15553 
L 89.683769 94.881634 
L 54.957665 178.717865 
L 89.683769 262.554096 
L 173.52 297.280199 
L 257.356231 262.554096 
L 292.082335 178.717865 
L 257.356231 94.881634 
L 173.52 60.15553 
" clip-path="url(#pdc11be2749)" style="fill: none; stroke: #b0b0b0; stroke-width: 0.8; stroke-linecap: square"/>
     </g>
     <g id="text_5">
      <!-- 0.5 -->
      <g style="fill: #959595" transform="translate(128.148159 64.902426) scale(0.2 -0.2)">
       <defs>
        <path id="TimesNewRomanPSMT-35" d="M 2778 4238 
L 2534 3706 
L 1259 3706 
L 981 3138 
Q 1809 3016 2294 2522 
Q 2709 2097 2709 1522 
Q 2709 1188 2573 903 
Q 2438 619 2231 419 
Q 2025 219 1772 97 
Q 1413 -75 1034 -75 
Q 653 -75 479 54 
Q 306 184 306 341 
Q 306 428 378 495 
Q 450 563 559 563 
Q 641 563 702 538 
Q 763 513 909 409 
Q 1144 247 1384 247 
Q 1750 247 2026 523 
Q 2303 800 2303 1197 
Q 2303 1581 2056 1914 
Q 1809 2247 1375 2428 
Q 1034 2569 447 2591 
L 1259 4238 
L 2778 4238 
z
" transform="scale(0.015625)"/>
       </defs>
       <use xlink:href="#TimesNewRomanPSMT-30"/>
       <use xlink:href="#TimesNewRomanPSMT-2e" x="50"/>
       <use xlink:href="#TimesNewRomanPSMT-35" x="75"/>
      </g>
     </g>
    </g>
    <g id="ytick_6">
     <g id="line2d_14">
      <path d="M 173.52 36.443063 
L 72.916523 78.114388 
L 31.245199 178.717865 
L 72.916523 279.321342 
L 173.52 320.992666 
L 274.123477 279.321342 
L 315.794801 178.717865 
L 274.123477 78.114388 
L 173.52 36.443063 
" clip-path="url(#pdc11be2749)" style="fill: none; stroke: #b0b0b0; stroke-width: 0.8; stroke-linecap: square"/>
     </g>
     <g id="text_6">
      <!-- 0.6 -->
      <g style="fill: #959595" transform="translate(119.073791 42.994963) scale(0.2 -0.2)">
       <defs>
        <path id="TimesNewRomanPSMT-36" d="M 2869 4325 
L 2869 4209 
Q 2456 4169 2195 4045 
Q 1934 3922 1679 3669 
Q 1425 3416 1258 3105 
Q 1091 2794 978 2366 
Q 1428 2675 1881 2675 
Q 2316 2675 2634 2325 
Q 2953 1975 2953 1425 
Q 2953 894 2631 456 
Q 2244 -75 1606 -75 
Q 1172 -75 869 213 
Q 275 772 275 1663 
Q 275 2231 503 2743 
Q 731 3256 1154 3653 
Q 1578 4050 1965 4187 
Q 2353 4325 2688 4325 
L 2869 4325 
z
M 925 2138 
Q 869 1716 869 1456 
Q 869 1156 980 804 
Q 1091 453 1309 247 
Q 1469 100 1697 100 
Q 1969 100 2183 356 
Q 2397 613 2397 1088 
Q 2397 1622 2184 2012 
Q 1972 2403 1581 2403 
Q 1463 2403 1327 2353 
Q 1191 2303 925 2138 
z
" transform="scale(0.015625)"/>
       </defs>
       <use xlink:href="#TimesNewRomanPSMT-30"/>
       <use xlink:href="#TimesNewRomanPSMT-2e" x="50"/>
       <use xlink:href="#TimesNewRomanPSMT-36" x="75"/>
      </g>
     </g>
    </g>
    <g id="ytick_7">
     <g id="line2d_15">
      <path d="M 173.52 12.730597 
L 56.149277 61.347142 
L 7.532732 178.717865 
L 56.149277 296.088588 
L 173.52 344.705133 
L 290.890723 296.088588 
L 339.507268 178.717865 
L 290.890723 61.347142 
L 173.52 12.730597 
" clip-path="url(#pdc11be2749)" style="fill: none; stroke: #b0b0b0; stroke-width: 0.8; stroke-linecap: square"/>
     </g>
     <g id="text_7">
      <!-- 0.7 -->
      <g style="fill: #959595" transform="translate(109.999422 21.0875) scale(0.2 -0.2)">
       <defs>
        <path id="TimesNewRomanPSMT-37" d="M 644 4238 
L 2916 4238 
L 2916 4119 
L 1503 -88 
L 1153 -88 
L 2419 3728 
L 1253 3728 
Q 900 3728 750 3644 
Q 488 3500 328 3200 
L 238 3234 
L 644 4238 
z
" transform="scale(0.015625)"/>
       </defs>
       <use xlink:href="#TimesNewRomanPSMT-30"/>
       <use xlink:href="#TimesNewRomanPSMT-2e" x="50"/>
       <use xlink:href="#TimesNewRomanPSMT-37" x="75"/>
      </g>
     </g>
    </g>
   </g>
   <g id="line2d_16">
    <path d="M 173.52 49.871077 
L 84.205904 89.403768 
L 34.237101 178.717865 
L 57.292213 294.945652 
L 173.52 330.301313 
L 277.84956 283.047425 
L 335.640811 178.717865 
L 269.428807 82.809058 
L 173.52 49.871077 
" clip-path="url(#pdc11be2749)" style="fill: none; stroke: #8de5a1; stroke-width: 3; stroke-linecap: square"/>
   </g>
   <g id="line2d_17">
    <path d="M 173.52 45.525654 
L 84.856467 90.054332 
L 29.784918 178.717865 
L 72.488057 279.749808 
L 173.52 323.941252 
L 275.821426 281.019291 
L 332.257764 178.717865 
L 267.733539 84.504326 
L 173.52 45.525654 
" clip-path="url(#pdc11be2749)" style="fill: none; stroke: #ff9f9b; stroke-width: 3; stroke-linecap: square"/>
   </g>
   <g id="patch_6">
    <path d="M 173.52 12.397865 
L 55.914 61.111865 
L 7.2 178.717865 
L 55.914 296.323865 
L 173.52 345.037865 
L 291.126 296.323865 
L 339.84 178.717865 
L 291.126 61.111865 
L 173.52 12.397865 
z
" style="fill: none; stroke: #000000; stroke-width: 0.8; stroke-linejoin: miter; stroke-linecap: square"/>
   </g>
  </g>
 </g>
 <defs>
  <clipPath id="pdc11be2749">
   <path d="M 173.52 12.397865 
L 55.914 61.111865 
L 7.2 178.717865 
L 55.914 296.323865 
L 173.52 345.037865 
L 291.126 296.323865 
L 339.84 178.717865 
L 291.126 61.111865 
z
"/>
  </clipPath>
 </defs>
</svg>
