<?xml version="1.0" encoding="utf-8" standalone="no"?>
<!DOCTYPE svg PUBLIC "-//W3C//DTD SVG 1.1//EN"
  "http://www.w3.org/Graphics/SVG/1.1/DTD/svg11.dtd">
<svg xmlns:xlink="http://www.w3.org/1999/xlink" width="457.92pt" height="457.92pt" viewBox="0 0 457.92 457.92" xmlns="http://www.w3.org/2000/svg" version="1.1">
 <metadata>
  <rdf:RDF xmlns:dc="http://purl.org/dc/elements/1.1/" xmlns:cc="http://creativecommons.org/ns#" xmlns:rdf="http://www.w3.org/1999/02/22-rdf-syntax-ns#">
   <cc:Work>
    <dc:type rdf:resource="http://purl.org/dc/dcmitype/StillImage"/>
    <dc:date>2024-06-07T22:35:58.982534</dc:date>
    <dc:format>image/svg+xml</dc:format>
    <dc:creator>
     <cc:Agent>
      <dc:title>Matplotlib v3.8.4, https://matplotlib.org/</dc:title>
     </cc:Agent>
    </dc:creator>
   </cc:Work>
  </rdf:RDF>
 </metadata>
 <defs>
  <style type="text/css">*{stroke-linejoin: round; stroke-linecap: butt}</style>
 </defs>
 <g id="figure_1">
  <g id="patch_1">
   <path d="M 0 457.92 
L 457.92 457.92 
L 457.92 0 
L 0 0 
z
" style="fill: #ffffff"/>
  </g>
  <g id="axes_1">
   <g id="patch_2">
    <path d="M 228.96 7.2 
L 72.152 72.152 
L 7.2 228.96 
L 72.152 385.768 
L 228.96 450.72 
L 385.768 385.768 
L 450.72 228.96 
L 385.768 72.152 
z
" style="fill: #ffffff"/>
   </g>
   <g id="patch_3">
    <path d="M 228.96 47.943005 
L 102.537648 102.537648 
L 32.946993 228.96 
L 73.649413 384.270587 
L 228.96 444.309603 
L 372.119327 372.119327 
L 440.745067 228.96 
L 363.442475 94.477525 
z
" clip-path="url(#p80b8521978)" style="fill: #8de5a1; opacity: 0.3; stroke: #8de5a1; stroke-linejoin: miter"/>
   </g>
   <g id="patch_4">
    <path d="M 228.96 48.900288 
L 103.597666 103.597666 
L 33.588414 228.96 
L 86.255719 371.664281 
L 228.96 432.739435 
L 368.563511 368.563511 
L 439.324451 228.96 
L 359.985835 97.934165 
z
" clip-path="url(#p80b8521978)" style="fill: #ffffff; stroke: #ffffff; stroke-linejoin: miter"/>
   </g>
   <g id="patch_5">
    <path d="M 228.96 48.900288 
L 103.597666 103.597666 
L 33.588414 228.96 
L 86.255719 371.664281 
L 228.96 432.739435 
L 368.563511 368.563511 
L 439.324451 228.96 
L 359.985835 97.934165 
z
" clip-path="url(#p80b8521978)" style="fill: #ff9f9b; opacity: 0.3; stroke: #ff9f9b; stroke-linejoin: miter"/>
   </g>
   <g id="matplotlib.axis_1">
    <g id="xtick_1">
     <g id="line2d_1">
      <path d="M 228.96 228.96 
L 228.96 201.24 
L 228.96 173.52 
L 228.96 145.8 
L 228.96 118.08 
L 228.96 90.36 
L 228.96 62.64 
L 228.96 34.92 
L 228.96 7.2 
" clip-path="url(#p80b8521978)" style="fill: none; stroke: #b0b0b0; stroke-width: 0.8; stroke-linecap: square"/>
     </g>
    </g>
    <g id="xtick_2">
     <g id="line2d_2">
      <path d="M 228.96 228.96 
L 209.359 209.359 
L 189.758 189.758 
L 170.157 170.157 
L 150.556 150.556 
L 130.955 130.955 
L 111.354 111.354 
L 91.753 91.753 
L 72.152 72.152 
" clip-path="url(#p80b8521978)" style="fill: none; stroke: #b0b0b0; stroke-width: 0.8; stroke-linecap: square"/>
     </g>
    </g>
    <g id="xtick_3">
     <g id="line2d_3">
      <path d="M 228.96 228.96 
L 201.24 228.96 
L 173.52 228.96 
L 145.8 228.96 
L 118.08 228.96 
L 90.36 228.96 
L 62.64 228.96 
L 34.92 228.96 
L 7.2 228.96 
" clip-path="url(#p80b8521978)" style="fill: none; stroke: #b0b0b0; stroke-width: 0.8; stroke-linecap: square"/>
     </g>
    </g>
    <g id="xtick_4">
     <g id="line2d_4">
      <path d="M 228.96 228.96 
L 209.359 248.561 
L 189.758 268.162 
L 170.157 287.763 
L 150.556 307.364 
L 130.955 326.965 
L 111.354 346.566 
L 91.753 366.167 
L 72.152 385.768 
" clip-path="url(#p80b8521978)" style="fill: none; stroke: #b0b0b0; stroke-width: 0.8; stroke-linecap: square"/>
     </g>
    </g>
    <g id="xtick_5">
     <g id="line2d_5">
      <path d="M 228.96 228.96 
L 228.96 256.68 
L 228.96 284.4 
L 228.96 312.12 
L 228.96 339.84 
L 228.96 367.56 
L 228.96 395.28 
L 228.96 423 
L 228.96 450.72 
" clip-path="url(#p80b8521978)" style="fill: none; stroke: #b0b0b0; stroke-width: 0.8; stroke-linecap: square"/>
     </g>
    </g>
    <g id="xtick_6">
     <g id="line2d_6">
      <path d="M 228.96 228.96 
L 248.561 248.561 
L 268.162 268.162 
L 287.763 287.763 
L 307.364 307.364 
L 326.965 326.965 
L 346.566 346.566 
L 366.167 366.167 
L 385.768 385.768 
" clip-path="url(#p80b8521978)" style="fill: none; stroke: #b0b0b0; stroke-width: 0.8; stroke-linecap: square"/>
     </g>
    </g>
    <g id="xtick_7">
     <g id="line2d_7">
      <path d="M 228.96 228.96 
L 256.68 228.96 
L 284.4 228.96 
L 312.12 228.96 
L 339.84 228.96 
L 367.56 228.96 
L 395.28 228.96 
L 423 228.96 
L 450.72 228.96 
" clip-path="url(#p80b8521978)" style="fill: none; stroke: #b0b0b0; stroke-width: 0.8; stroke-linecap: square"/>
     </g>
    </g>
    <g id="xtick_8">
     <g id="line2d_8">
      <path d="M 228.96 228.96 
L 248.561 209.359 
L 268.162 189.758 
L 287.763 170.157 
L 307.364 150.556 
L 326.965 130.955 
L 346.566 111.354 
L 366.167 91.753 
L 385.768 72.152 
" clip-path="url(#p80b8521978)" style="fill: none; stroke: #b0b0b0; stroke-width: 0.8; stroke-linecap: square"/>
     </g>
    </g>
   </g>
   <g id="matplotlib.axis_2">
    <g id="ytick_1">
     <g id="line2d_9">
      <path d="M 228.96 195.807069 
L 205.517338 205.517338 
L 195.807069 228.96 
L 205.517338 252.402662 
L 228.96 262.112931 
L 252.402662 252.402662 
L 262.112931 228.96 
L 252.402662 205.517338 
L 228.96 195.807069 
" clip-path="url(#p80b8521978)" style="fill: none; stroke: #b0b0b0; stroke-width: 0.8; stroke-linecap: square"/>
     </g>
     <g id="text_1">
      <!-- 0.1 -->
      <g style="fill: #959595" transform="translate(216.272923 194.908186) scale(0.16 -0.16)">
       <defs>
        <path id="TimesNewRomanPSMT-30" d="M 231 2094 
Q 231 2819 450 3342 
Q 669 3866 1031 4122 
Q 1313 4325 1613 4325 
Q 2100 4325 2488 3828 
Q 2972 3213 2972 2159 
Q 2972 1422 2759 906 
Q 2547 391 2217 158 
Q 1888 -75 1581 -75 
Q 975 -75 572 641 
Q 231 1244 231 2094 
z
M 844 2016 
Q 844 1141 1059 588 
Q 1238 122 1591 122 
Q 1759 122 1940 273 
Q 2122 425 2216 781 
Q 2359 1319 2359 2297 
Q 2359 3022 2209 3506 
Q 2097 3866 1919 4016 
Q 1791 4119 1609 4119 
Q 1397 4119 1231 3928 
Q 1006 3669 925 3112 
Q 844 2556 844 2016 
z
" transform="scale(0.015625)"/>
        <path id="TimesNewRomanPSMT-2e" d="M 800 606 
Q 947 606 1047 504 
Q 1147 403 1147 259 
Q 1147 116 1045 14 
Q 944 -88 800 -88 
Q 656 -88 554 14 
Q 453 116 453 259 
Q 453 406 554 506 
Q 656 606 800 606 
z
" transform="scale(0.015625)"/>
        <path id="TimesNewRomanPSMT-31" d="M 750 3822 
L 1781 4325 
L 1884 4325 
L 1884 747 
Q 1884 391 1914 303 
Q 1944 216 2037 169 
Q 2131 122 2419 116 
L 2419 0 
L 825 0 
L 825 116 
Q 1125 122 1212 167 
Q 1300 213 1334 289 
Q 1369 366 1369 747 
L 1369 3034 
Q 1369 3497 1338 3628 
Q 1316 3728 1258 3775 
Q 1200 3822 1119 3822 
Q 1003 3822 797 3725 
L 750 3822 
z
" transform="scale(0.015625)"/>
       </defs>
       <use xlink:href="#TimesNewRomanPSMT-30"/>
       <use xlink:href="#TimesNewRomanPSMT-2e" x="50"/>
       <use xlink:href="#TimesNewRomanPSMT-31" x="75"/>
      </g>
     </g>
    </g>
    <g id="ytick_2">
     <g id="line2d_10">
      <path d="M 228.96 162.654138 
L 182.074675 182.074675 
L 162.654138 228.96 
L 182.074675 275.845325 
L 228.96 295.265862 
L 275.845325 275.845325 
L 295.265862 228.96 
L 275.845325 182.074675 
L 228.96 162.654138 
" clip-path="url(#p80b8521978)" style="fill: none; stroke: #b0b0b0; stroke-width: 0.8; stroke-linecap: square"/>
     </g>
     <g id="text_2">
      <!-- 0.2 -->
      <g style="fill: #959595" transform="translate(203.585845 164.278871) scale(0.16 -0.16)">
       <defs>
        <path id="TimesNewRomanPSMT-32" d="M 2934 816 
L 2638 0 
L 138 0 
L 138 116 
Q 1241 1122 1691 1759 
Q 2141 2397 2141 2925 
Q 2141 3328 1894 3587 
Q 1647 3847 1303 3847 
Q 991 3847 742 3664 
Q 494 3481 375 3128 
L 259 3128 
Q 338 3706 661 4015 
Q 984 4325 1469 4325 
Q 1984 4325 2329 3994 
Q 2675 3663 2675 3213 
Q 2675 2891 2525 2569 
Q 2294 2063 1775 1497 
Q 997 647 803 472 
L 1909 472 
Q 2247 472 2383 497 
Q 2519 522 2628 598 
Q 2738 675 2819 816 
L 2934 816 
z
" transform="scale(0.015625)"/>
       </defs>
       <use xlink:href="#TimesNewRomanPSMT-30"/>
       <use xlink:href="#TimesNewRomanPSMT-2e" x="50"/>
       <use xlink:href="#TimesNewRomanPSMT-32" x="75"/>
      </g>
     </g>
    </g>
    <g id="ytick_3">
     <g id="line2d_11">
      <path d="M 228.96 129.501207 
L 158.632013 158.632013 
L 129.501207 228.96 
L 158.632013 299.287987 
L 228.96 328.418793 
L 299.287987 299.287987 
L 328.418793 228.96 
L 299.287987 158.632013 
L 228.96 129.501207 
" clip-path="url(#p80b8521978)" style="fill: none; stroke: #b0b0b0; stroke-width: 0.8; stroke-linecap: square"/>
     </g>
     <g id="text_3">
      <!-- 0.3 -->
      <g style="fill: #959595" transform="translate(190.898768 133.649557) scale(0.16 -0.16)">
       <defs>
        <path id="TimesNewRomanPSMT-33" d="M 325 3431 
Q 506 3859 782 4092 
Q 1059 4325 1472 4325 
Q 1981 4325 2253 3994 
Q 2459 3747 2459 3466 
Q 2459 3003 1878 2509 
Q 2269 2356 2469 2072 
Q 2669 1788 2669 1403 
Q 2669 853 2319 450 
Q 1863 -75 997 -75 
Q 569 -75 414 31 
Q 259 138 259 259 
Q 259 350 332 419 
Q 406 488 509 488 
Q 588 488 669 463 
Q 722 447 909 348 
Q 1097 250 1169 231 
Q 1284 197 1416 197 
Q 1734 197 1970 444 
Q 2206 691 2206 1028 
Q 2206 1275 2097 1509 
Q 2016 1684 1919 1775 
Q 1784 1900 1550 2001 
Q 1316 2103 1072 2103 
L 972 2103 
L 972 2197 
Q 1219 2228 1467 2375 
Q 1716 2522 1828 2728 
Q 1941 2934 1941 3181 
Q 1941 3503 1739 3701 
Q 1538 3900 1238 3900 
Q 753 3900 428 3381 
L 325 3431 
z
" transform="scale(0.015625)"/>
       </defs>
       <use xlink:href="#TimesNewRomanPSMT-30"/>
       <use xlink:href="#TimesNewRomanPSMT-2e" x="50"/>
       <use xlink:href="#TimesNewRomanPSMT-33" x="75"/>
      </g>
     </g>
    </g>
    <g id="ytick_4">
     <g id="line2d_12">
      <path d="M 228.96 96.348276 
L 135.189351 135.189351 
L 96.348276 228.96 
L 135.189351 322.730649 
L 228.96 361.571724 
L 322.730649 322.730649 
L 361.571724 228.96 
L 322.730649 135.189351 
L 228.96 96.348276 
" clip-path="url(#p80b8521978)" style="fill: none; stroke: #b0b0b0; stroke-width: 0.8; stroke-linecap: square"/>
     </g>
     <g id="text_4">
      <!-- 0.4 -->
      <g style="fill: #959595" transform="translate(178.21169 103.020242) scale(0.16 -0.16)">
       <defs>
        <path id="TimesNewRomanPSMT-34" d="M 2978 1563 
L 2978 1119 
L 2409 1119 
L 2409 0 
L 1894 0 
L 1894 1119 
L 100 1119 
L 100 1519 
L 2066 4325 
L 2409 4325 
L 2409 1563 
L 2978 1563 
z
M 1894 1563 
L 1894 3666 
L 406 1563 
L 1894 1563 
z
" transform="scale(0.015625)"/>
       </defs>
       <use xlink:href="#TimesNewRomanPSMT-30"/>
       <use xlink:href="#TimesNewRomanPSMT-2e" x="50"/>
       <use xlink:href="#TimesNewRomanPSMT-34" x="75"/>
      </g>
     </g>
    </g>
    <g id="ytick_5">
     <g id="line2d_13">
      <path d="M 228.96 63.195345 
L 111.746688 111.746688 
L 63.195345 228.96 
L 111.746688 346.173312 
L 228.96 394.724655 
L 346.173312 346.173312 
L 394.724655 228.96 
L 346.173312 111.746688 
L 228.96 63.195345 
" clip-path="url(#p80b8521978)" style="fill: none; stroke: #b0b0b0; stroke-width: 0.8; stroke-linecap: square"/>
     </g>
     <g id="text_5">
      <!-- 0.5 -->
      <g style="fill: #959595" transform="translate(165.524613 72.390928) scale(0.16 -0.16)">
       <defs>
        <path id="TimesNewRomanPSMT-35" d="M 2778 4238 
L 2534 3706 
L 1259 3706 
L 981 3138 
Q 1809 3016 2294 2522 
Q 2709 2097 2709 1522 
Q 2709 1188 2573 903 
Q 2438 619 2231 419 
Q 2025 219 1772 97 
Q 1413 -75 1034 -75 
Q 653 -75 479 54 
Q 306 184 306 341 
Q 306 428 378 495 
Q 450 563 559 563 
Q 641 563 702 538 
Q 763 513 909 409 
Q 1144 247 1384 247 
Q 1750 247 2026 523 
Q 2303 800 2303 1197 
Q 2303 1581 2056 1914 
Q 1809 2247 1375 2428 
Q 1034 2569 447 2591 
L 1259 4238 
L 2778 4238 
z
" transform="scale(0.015625)"/>
       </defs>
       <use xlink:href="#TimesNewRomanPSMT-30"/>
       <use xlink:href="#TimesNewRomanPSMT-2e" x="50"/>
       <use xlink:href="#TimesNewRomanPSMT-35" x="75"/>
      </g>
     </g>
    </g>
    <g id="ytick_6">
     <g id="line2d_14">
      <path d="M 228.96 30.042414 
L 88.304026 88.304026 
L 30.042414 228.96 
L 88.304026 369.615974 
L 228.96 427.877586 
L 369.615974 369.615974 
L 427.877586 228.96 
L 369.615974 88.304026 
L 228.96 30.042414 
" clip-path="url(#p80b8521978)" style="fill: none; stroke: #b0b0b0; stroke-width: 0.8; stroke-linecap: square"/>
     </g>
     <g id="text_6">
      <!-- 0.6 -->
      <g style="fill: #959595" transform="translate(152.837535 41.761614) scale(0.16 -0.16)">
       <defs>
        <path id="TimesNewRomanPSMT-36" d="M 2869 4325 
L 2869 4209 
Q 2456 4169 2195 4045 
Q 1934 3922 1679 3669 
Q 1425 3416 1258 3105 
Q 1091 2794 978 2366 
Q 1428 2675 1881 2675 
Q 2316 2675 2634 2325 
Q 2953 1975 2953 1425 
Q 2953 894 2631 456 
Q 2244 -75 1606 -75 
Q 1172 -75 869 213 
Q 275 772 275 1663 
Q 275 2231 503 2743 
Q 731 3256 1154 3653 
Q 1578 4050 1965 4187 
Q 2353 4325 2688 4325 
L 2869 4325 
z
M 925 2138 
Q 869 1716 869 1456 
Q 869 1156 980 804 
Q 1091 453 1309 247 
Q 1469 100 1697 100 
Q 1969 100 2183 356 
Q 2397 613 2397 1088 
Q 2397 1622 2184 2012 
Q 1972 2403 1581 2403 
Q 1463 2403 1327 2353 
Q 1191 2303 925 2138 
z
" transform="scale(0.015625)"/>
       </defs>
       <use xlink:href="#TimesNewRomanPSMT-30"/>
       <use xlink:href="#TimesNewRomanPSMT-2e" x="50"/>
       <use xlink:href="#TimesNewRomanPSMT-36" x="75"/>
      </g>
     </g>
    </g>
   </g>
   <g id="line2d_15">
    <path d="M 228.96 47.943005 
L 102.537648 102.537648 
L 32.946993 228.96 
L 73.649413 384.270587 
L 228.96 444.309603 
L 372.119327 372.119327 
L 440.745067 228.96 
L 363.442475 94.477525 
L 228.96 47.943005 
" clip-path="url(#p80b8521978)" style="fill: none; stroke: #8de5a1; stroke-width: 3; stroke-linecap: square"/>
   </g>
   <g id="line2d_16">
    <path d="M 228.96 48.900288 
L 103.597666 103.597666 
L 33.588414 228.96 
L 86.255719 371.664281 
L 228.96 432.739435 
L 368.563511 368.563511 
L 439.324451 228.96 
L 359.985835 97.934165 
L 228.96 48.900288 
" clip-path="url(#p80b8521978)" style="fill: none; stroke: #ff9f9b; stroke-width: 3; stroke-linecap: square"/>
   </g>
   <g id="patch_6">
    <path d="M 228.96 7.2 
L 72.152 72.152 
L 7.2 228.96 
L 72.152 385.768 
L 228.96 450.72 
L 385.768 385.768 
L 450.72 228.96 
L 385.768 72.152 
L 228.96 7.2 
z
" style="fill: none; stroke: #000000; stroke-width: 0.8; stroke-linejoin: miter; stroke-linecap: square"/>
   </g>
  </g>
 </g>
 <defs>
  <clipPath id="p80b8521978">
   <path d="M 228.96 7.2 
L 72.152 72.152 
L 7.2 228.96 
L 72.152 385.768 
L 228.96 450.72 
L 385.768 385.768 
L 450.72 228.96 
L 385.768 72.152 
z
"/>
  </clipPath>
 </defs>
</svg>
