<?xml version="1.0" encoding="utf-8" standalone="no"?>
<!DOCTYPE svg PUBLIC "-//W3C//DTD SVG 1.1//EN"
  "http://www.w3.org/Graphics/SVG/1.1/DTD/svg11.dtd">
<svg xmlns:xlink="http://www.w3.org/1999/xlink" width="399.048125pt" height="378.9568pt" viewBox="0 0 399.048125 378.9568" xmlns="http://www.w3.org/2000/svg" version="1.1">
 <metadata>
  <rdf:RDF xmlns:dc="http://purl.org/dc/elements/1.1/" xmlns:cc="http://creativecommons.org/ns#" xmlns:rdf="http://www.w3.org/1999/02/22-rdf-syntax-ns#">
   <cc:Work>
    <dc:type rdf:resource="http://purl.org/dc/dcmitype/StillImage"/>
    <dc:date>2024-06-08T16:38:28.633958</dc:date>
    <dc:format>image/svg+xml</dc:format>
    <dc:creator>
     <cc:Agent>
      <dc:title>Matplotlib v3.8.4, https://matplotlib.org/</dc:title>
     </cc:Agent>
    </dc:creator>
   </cc:Work>
  </rdf:RDF>
 </metadata>
 <defs>
  <style type="text/css">*{stroke-linejoin: round; stroke-linecap: butt}</style>
 </defs>
 <g id="figure_1">
  <g id="patch_1">
   <path d="M 0 378.9568 
L 399.048125 378.9568 
L 399.048125 0 
L 0 0 
z
" style="fill: #ffffff"/>
  </g>
  <g id="axes_1">
   <g id="patch_2">
    <path d="M 98.490625 339.84 
L 349.590625 339.84 
L 349.590625 7.2 
L 98.490625 7.2 
z
" style="fill: #ffffff"/>
   </g>
   <g id="patch_3">
    <path d="M 98.490625 11.358 
L 337.633482 11.358 
L 337.633482 44.622 
L 98.490625 44.622 
z
" clip-path="url(#p9741a20a83)" style="fill: #f2aba8"/>
   </g>
   <g id="patch_4">
    <path d="M 98.490625 52.938 
L 337.633482 52.938 
L 337.633482 86.202 
L 98.490625 86.202 
z
" clip-path="url(#p9741a20a83)" style="fill: #f2aba8"/>
   </g>
   <g id="patch_5">
    <path d="M 98.490625 94.518 
L 337.633482 94.518 
L 337.633482 127.782 
L 98.490625 127.782 
z
" clip-path="url(#p9741a20a83)" style="fill: #f2aba8"/>
   </g>
   <g id="patch_6">
    <path d="M 98.490625 136.098 
L 337.633482 136.098 
L 337.633482 169.362 
L 98.490625 169.362 
z
" clip-path="url(#p9741a20a83)" style="fill: #f2aba8"/>
   </g>
   <g id="patch_7">
    <path d="M 98.490625 177.678 
L 337.633482 177.678 
L 337.633482 210.942 
L 98.490625 210.942 
z
" clip-path="url(#p9741a20a83)" style="fill: #f2aba8"/>
   </g>
   <g id="patch_8">
    <path d="M 98.490625 219.258 
L 337.633482 219.258 
L 337.633482 252.522 
L 98.490625 252.522 
z
" clip-path="url(#p9741a20a83)" style="fill: #f2aba8"/>
   </g>
   <g id="patch_9">
    <path d="M 98.490625 260.838 
L 337.633482 260.838 
L 337.633482 294.102 
L 98.490625 294.102 
z
" clip-path="url(#p9741a20a83)" style="fill: #f2aba8"/>
   </g>
   <g id="patch_10">
    <path d="M 98.490625 302.418 
L 337.633482 302.418 
L 337.633482 335.682 
L 98.490625 335.682 
z
" clip-path="url(#p9741a20a83)" style="fill: #f2aba8"/>
   </g>
   <g id="patch_11">
    <path d="M 98.490625 11.358 
L 269.311696 11.358 
L 269.311696 44.622 
L 98.490625 44.622 
z
" clip-path="url(#p9741a20a83)" style="fill: #d3c4f6"/>
   </g>
   <g id="patch_12">
    <path d="M 98.490625 52.938 
L 286.616363 52.938 
L 286.616363 86.202 
L 98.490625 86.202 
z
" clip-path="url(#p9741a20a83)" style="fill: #d3c4f6"/>
   </g>
   <g id="patch_13">
    <path d="M 98.490625 94.518 
L 224.451842 94.518 
L 224.451842 127.782 
L 98.490625 127.782 
z
" clip-path="url(#p9741a20a83)" style="fill: #d3c4f6"/>
   </g>
   <g id="patch_14">
    <path d="M 98.490625 136.098 
L 222.010532 136.098 
L 222.010532 169.362 
L 98.490625 169.362 
z
" clip-path="url(#p9741a20a83)" style="fill: #d3c4f6"/>
   </g>
   <g id="patch_15">
    <path d="M 98.490625 177.678 
L 287.089338 177.678 
L 287.089338 210.942 
L 98.490625 210.942 
z
" clip-path="url(#p9741a20a83)" style="fill: #d3c4f6"/>
   </g>
   <g id="patch_16">
    <path d="M 98.490625 219.258 
L 225.372434 219.258 
L 225.372434 252.522 
L 98.490625 252.522 
z
" clip-path="url(#p9741a20a83)" style="fill: #d3c4f6"/>
   </g>
   <g id="patch_17">
    <path d="M 98.490625 260.838 
L 243.578987 260.838 
L 243.578987 294.102 
L 98.490625 294.102 
z
" clip-path="url(#p9741a20a83)" style="fill: #d3c4f6"/>
   </g>
   <g id="patch_18">
    <path d="M 98.490625 302.418 
L 248.338742 302.418 
L 248.338742 335.682 
L 98.490625 335.682 
z
" clip-path="url(#p9741a20a83)" style="fill: #d3c4f6"/>
   </g>
   <g id="patch_19">
    <path d="M 98.490625 11.358 
L 211.917411 11.358 
L 211.917411 44.622 
L 98.490625 44.622 
z
" clip-path="url(#p9741a20a83)" style="fill: #98daa7"/>
   </g>
   <g id="patch_20">
    <path d="M 98.490625 52.938 
L 210.805205 52.938 
L 210.805205 86.202 
L 98.490625 86.202 
z
" clip-path="url(#p9741a20a83)" style="fill: #98daa7"/>
   </g>
   <g id="patch_21">
    <path d="M 98.490625 94.518 
L 189.287454 94.518 
L 189.287454 127.782 
L 98.490625 127.782 
z
" clip-path="url(#p9741a20a83)" style="fill: #98daa7"/>
   </g>
   <g id="patch_22">
    <path d="M 98.490625 136.098 
L 177.269279 136.098 
L 177.269279 169.362 
L 98.490625 169.362 
z
" clip-path="url(#p9741a20a83)" style="fill: #98daa7"/>
   </g>
   <g id="patch_23">
    <path d="M 98.490625 177.678 
L 171.189716 177.678 
L 171.189716 210.942 
L 98.490625 210.942 
z
" clip-path="url(#p9741a20a83)" style="fill: #98daa7"/>
   </g>
   <g id="patch_24">
    <path d="M 98.490625 219.258 
L 161.675652 219.258 
L 161.675652 252.522 
L 98.490625 252.522 
z
" clip-path="url(#p9741a20a83)" style="fill: #98daa7"/>
   </g>
   <g id="patch_25">
    <path d="M 98.490625 260.838 
L 153.144682 260.838 
L 153.144682 294.102 
L 98.490625 294.102 
z
" clip-path="url(#p9741a20a83)" style="fill: #98daa7"/>
   </g>
   <g id="patch_26">
    <path d="M 98.490625 302.418 
L 133.599217 302.418 
L 133.599217 335.682 
L 98.490625 335.682 
z
" clip-path="url(#p9741a20a83)" style="fill: #98daa7"/>
   </g>
   <g id="matplotlib.axis_1"/>
   <g id="matplotlib.axis_2">
    <g id="ytick_1">
     <g id="line2d_1">
      <defs>
       <path id="me53ac1d266" d="M 0 0 
L -3.5 0 
" style="stroke: #000000; stroke-width: 0.8"/>
      </defs>
      <g>
       <use xlink:href="#me53ac1d266" x="98.490625" y="27.99" style="stroke: #000000; stroke-width: 0.8"/>
      </g>
     </g>
     <g id="text_1">
      <!-- Camel -->
      <g transform="translate(39.440625 34.972812) scale(0.2 -0.2)">
       <defs>
        <path id="LinLibertine-43" d="M 2284 -63 
Q 1625 -63 1148 246 
Q 672 556 455 1017 
Q 238 1478 238 2016 
Q 238 3047 916 3669 
Q 1509 4213 2291 4213 
Q 2750 4213 3189 4070 
Q 3628 3928 3694 3922 
Q 3803 3250 3834 2931 
Q 3713 2869 3622 2900 
Q 3297 3975 2222 3975 
Q 1663 3975 1200 3406 
Q 1019 3184 919 2862 
Q 819 2541 819 2138 
Q 819 1644 972 1216 
Q 1125 788 1465 492 
Q 1806 197 2278 197 
Q 2725 197 3075 361 
Q 3425 525 3763 897 
Q 3859 897 3909 800 
Q 3250 -63 2284 -63 
z
" transform="scale(0.015625)"/>
        <path id="LinLibertine-61" d="M 1875 1491 
L 1369 1356 
Q 759 1203 763 653 
Q 763 481 880 339 
Q 997 197 1222 197 
Q 1447 197 1784 475 
Q 1875 538 1875 641 
L 1875 1491 
z
M 1875 306 
L 1863 306 
L 1734 206 
Q 1522 41 1387 -11 
Q 1253 -63 1038 -63 
Q 672 -63 451 103 
Q 231 269 231 628 
Q 231 947 522 1190 
Q 813 1434 1288 1556 
L 1838 1691 
Q 1875 1703 1875 1766 
Q 1875 2597 1356 2597 
Q 1144 2597 984 2530 
Q 825 2463 825 2328 
Q 825 2238 838 2203 
Q 856 2166 856 2088 
Q 856 2016 779 1945 
Q 703 1875 575 1875 
Q 350 1875 353 2100 
Q 353 2363 686 2586 
Q 1019 2809 1409 2809 
Q 2375 2809 2375 1728 
L 2375 775 
Q 2375 591 2384 494 
Q 2394 397 2455 314 
Q 2516 231 2631 231 
Q 2709 231 2765 281 
Q 2822 331 2828 331 
Q 2847 331 2880 293 
Q 2913 256 2913 225 
Q 2913 206 2845 139 
Q 2778 72 2643 4 
Q 2509 -63 2369 -63 
Q 1984 -66 1875 306 
z
" transform="scale(0.015625)"/>
        <path id="LinLibertine-6d" d="M 1106 2291 
Q 1106 2213 1150 2275 
Q 1159 2284 1166 2291 
Q 1659 2809 2138 2809 
Q 2381 2809 2556 2676 
Q 2731 2544 2778 2341 
Q 2794 2278 2847 2338 
Q 3006 2506 3197 2615 
Q 3388 2725 3559 2767 
Q 3731 2809 3903 2809 
Q 4294 2809 4428 2546 
Q 4563 2284 4563 1791 
L 4563 781 
Q 4563 397 4630 308 
Q 4697 219 4972 197 
Q 4997 172 4997 95 
Q 4997 19 4972 -13 
Q 4422 0 4313 0 
Q 4197 0 3659 -13 
Q 3634 19 3634 95 
Q 3634 172 3659 197 
Q 3922 216 3989 309 
Q 4056 403 4056 781 
L 4056 1906 
Q 4056 2213 3961 2345 
Q 3866 2478 3675 2478 
Q 3216 2478 2828 2053 
Q 2834 1975 2834 1797 
L 2834 781 
Q 2834 397 2898 308 
Q 2963 219 3213 197 
Q 3238 172 3238 92 
Q 3238 13 3213 -13 
Q 2663 0 2584 0 
Q 2469 0 1931 -13 
Q 1906 13 1906 89 
Q 1906 166 1931 197 
Q 2200 216 2264 306 
Q 2328 397 2328 781 
L 2328 1894 
Q 2328 2475 1906 2478 
Q 1600 2478 1216 2100 
Q 1106 1984 1106 1831 
L 1106 781 
Q 1106 513 1139 400 
Q 1172 288 1240 252 
Q 1309 216 1491 197 
Q 1519 169 1519 92 
Q 1519 16 1491 -13 
Q 953 0 856 0 
Q 691 0 166 -13 
Q 141 13 141 89 
Q 141 166 166 197 
Q 447 216 525 309 
Q 603 403 603 781 
L 603 2028 
Q 603 2297 528 2367 
Q 453 2438 184 2463 
Q 147 2572 172 2644 
Q 672 2706 978 2828 
Q 1028 2828 1056 2778 
Q 1106 2663 1106 2291 
z
" transform="scale(0.015625)"/>
        <path id="LinLibertine-65" d="M 794 1806 
L 1953 1825 
Q 2050 1825 2047 1913 
Q 2047 2278 1890 2431 
Q 1734 2584 1516 2584 
Q 1431 2584 1350 2562 
Q 1269 2541 1150 2470 
Q 1031 2400 934 2228 
Q 838 2056 794 1806 
z
M 2472 594 
Q 2581 588 2606 494 
Q 2178 -63 1516 -63 
Q 881 -63 538 347 
Q 238 694 238 1294 
Q 238 1972 644 2384 
Q 1050 2797 1516 2797 
Q 2597 2797 2597 1684 
Q 2597 1575 2478 1575 
L 775 1588 
Q 775 1050 978 709 
Q 1259 250 1678 250 
Q 1947 250 2117 326 
Q 2288 403 2472 594 
z
" transform="scale(0.015625)"/>
        <path id="LinLibertine-6c" d="M 609 781 
L 609 3578 
Q 609 3784 598 3886 
Q 588 3988 517 4036 
Q 447 4084 409 4087 
Q 372 4091 197 4103 
Q 125 4175 159 4294 
Q 728 4338 1056 4469 
Q 1141 4469 1141 4403 
Q 1116 4147 1113 3731 
L 1113 781 
Q 1113 397 1194 305 
Q 1275 213 1575 197 
Q 1600 166 1600 89 
Q 1600 13 1575 -13 
Q 1025 0 863 0 
Q 684 0 147 -13 
Q 116 13 116 89 
Q 116 166 147 197 
Q 447 209 528 303 
Q 609 397 609 781 
z
" transform="scale(0.015625)"/>
       </defs>
       <use xlink:href="#LinLibertine-43"/>
       <use xlink:href="#LinLibertine-61" x="64.599609"/>
       <use xlink:href="#LinLibertine-6d" x="110.253906"/>
       <use xlink:href="#LinLibertine-65" x="189.208984"/>
       <use xlink:href="#LinLibertine-6c" x="233.886719"/>
      </g>
     </g>
    </g>
    <g id="ytick_2">
     <g id="line2d_2">
      <g>
       <use xlink:href="#me53ac1d266" x="98.490625" y="69.57" style="stroke: #000000; stroke-width: 0.8"/>
      </g>
     </g>
     <g id="text_2">
      <!-- Groovy -->
      <g transform="translate(29.78125 76.552812) scale(0.2 -0.2)">
       <defs>
        <path id="LinLibertine-47" d="M 2413 4213 
Q 2853 4213 3261 4067 
Q 3669 3922 3809 3922 
Q 3866 3319 3950 2938 
L 3731 2900 
Q 3584 3394 3270 3684 
Q 2956 3975 2322 3975 
Q 1663 3975 1225 3450 
Q 788 2925 788 2094 
Q 788 1769 903 1434 
Q 1019 1100 1230 812 
Q 1441 525 1780 345 
Q 2119 166 2528 166 
Q 3131 166 3456 475 
L 3456 1428 
Q 3456 1606 3343 1657 
Q 3231 1709 2931 1734 
Q 2906 1766 2906 1848 
Q 2906 1931 2931 1966 
Q 3534 1953 3725 1953 
Q 3909 1953 4294 1966 
Q 4325 1934 4325 1850 
Q 4325 1766 4294 1734 
Q 4141 1722 4070 1655 
Q 4000 1588 4000 1428 
L 4000 709 
Q 4000 613 4103 531 
Q 3406 -63 2381 -63 
Q 1434 -63 820 528 
Q 206 1119 206 1966 
Q 206 2644 531 3166 
Q 856 3688 1353 3950 
Q 1850 4213 2413 4213 
z
" transform="scale(0.015625)"/>
        <path id="LinLibertine-72" d="M 1147 2291 
Q 1147 2259 1156 2246 
Q 1166 2234 1197 2278 
Q 1325 2497 1514 2653 
Q 1703 2809 1906 2809 
Q 2091 2809 2191 2711 
Q 2291 2613 2291 2503 
Q 2291 2381 2198 2281 
Q 2106 2181 1991 2181 
Q 1947 2181 1901 2204 
Q 1856 2228 1834 2250 
Q 1813 2272 1777 2314 
Q 1741 2356 1728 2369 
Q 1684 2413 1594 2413 
Q 1516 2413 1300 2100 
Q 1147 1869 1147 1672 
L 1147 781 
Q 1147 397 1233 311 
Q 1319 225 1672 197 
Q 1703 166 1703 89 
Q 1703 13 1672 -13 
Q 1122 0 897 0 
Q 706 0 166 -13 
Q 141 13 141 89 
Q 141 166 166 197 
Q 478 216 559 306 
Q 641 397 641 781 
L 641 2028 
Q 641 2297 567 2367 
Q 494 2438 225 2463 
Q 188 2572 213 2644 
Q 713 2706 1019 2828 
Q 1069 2828 1094 2778 
Q 1147 2663 1147 2291 
z
" transform="scale(0.015625)"/>
        <path id="LinLibertine-6f" d="M 263 1313 
Q 263 1947 616 2363 
Q 997 2809 1619 2809 
Q 2078 2809 2395 2582 
Q 2713 2356 2838 2042 
Q 2963 1728 2963 1369 
Q 2963 700 2547 294 
Q 2181 -66 1606 -63 
Q 966 -63 614 353 
Q 263 769 263 1313 
z
M 1522 2584 
Q 813 2584 813 1459 
Q 813 1253 861 1042 
Q 909 831 1004 626 
Q 1100 422 1279 290 
Q 1459 159 1697 159 
Q 1978 159 2195 390 
Q 2413 622 2413 1166 
Q 2413 1850 2175 2217 
Q 1938 2584 1522 2584 
z
" transform="scale(0.015625)"/>
        <path id="LinLibertine-76" d="M 2081 2547 
Q 2050 2572 2048 2648 
Q 2047 2725 2081 2759 
Q 2556 2747 2695 2747 
Q 2834 2747 3116 2759 
Q 3147 2728 3148 2650 
Q 3150 2572 3116 2547 
Q 2984 2534 2898 2503 
Q 2813 2472 2750 2398 
Q 2688 2325 2656 2265 
Q 2625 2206 2569 2075 
L 1716 72 
Q 1653 -75 1563 -78 
Q 1453 -78 1403 56 
L 584 2081 
Q 575 2103 563 2138 
Q 472 2369 392 2444 
Q 313 2519 72 2547 
Q 41 2572 39 2648 
Q 38 2725 72 2759 
Q 547 2747 634 2747 
Q 841 2747 1313 2759 
Q 1344 2728 1344 2650 
Q 1344 2572 1313 2547 
Q 1238 2541 1186 2530 
Q 1134 2519 1096 2511 
Q 1059 2503 1045 2475 
Q 1031 2447 1020 2436 
Q 1009 2425 1021 2378 
Q 1034 2331 1039 2312 
Q 1044 2294 1072 2222 
Q 1100 2150 1113 2119 
L 1575 884 
Q 1653 688 1693 680 
Q 1734 672 1813 863 
L 2328 2119 
Q 2431 2363 2384 2445 
Q 2338 2528 2081 2547 
z
" transform="scale(0.015625)"/>
        <path id="LinLibertine-79" d="M 1306 -1025 
Q 1050 -1484 684 -1484 
Q 556 -1484 470 -1417 
Q 384 -1350 384 -1247 
Q 384 -1163 464 -1067 
Q 544 -972 666 -972 
Q 697 -972 751 -981 
Q 806 -991 850 -991 
Q 1069 -991 1172 -806 
Q 1325 -494 1422 -219 
Q 1500 0 1331 384 
L 606 2069 
Q 513 2284 455 2371 
Q 397 2459 323 2496 
Q 250 2534 103 2547 
Q 78 2572 78 2648 
Q 78 2725 103 2759 
Q 359 2747 622 2747 
Q 872 2747 1344 2759 
Q 1369 2728 1369 2650 
Q 1369 2572 1344 2547 
Q 1231 2538 1167 2517 
Q 1103 2497 1072 2473 
Q 1041 2450 1045 2395 
Q 1050 2341 1065 2298 
Q 1081 2256 1119 2166 
Q 1128 2144 1134 2131 
L 1703 800 
Q 1722 753 1742 731 
Q 1763 709 1781 711 
Q 1800 713 1819 733 
Q 1838 753 1856 794 
L 2491 2259 
Q 2563 2413 2469 2470 
Q 2375 2528 2181 2547 
Q 2150 2572 2150 2648 
Q 2150 2725 2181 2759 
Q 2656 2747 2766 2747 
Q 2900 2747 3219 2759 
Q 3250 2728 3250 2650 
Q 3250 2572 3219 2547 
Q 3053 2534 2915 2412 
Q 2778 2291 2700 2138 
Q 2291 1281 1569 -475 
Q 1434 -794 1306 -1025 
z
" transform="scale(0.015625)"/>
       </defs>
       <use xlink:href="#LinLibertine-47"/>
       <use xlink:href="#LinLibertine-72" x="69.482422"/>
       <use xlink:href="#LinLibertine-6f" x="106.640625"/>
       <use xlink:href="#LinLibertine-6f" x="157.03125"/>
       <use xlink:href="#LinLibertine-76" x="207.421875"/>
       <use xlink:href="#LinLibertine-79" x="257.080078"/>
      </g>
     </g>
    </g>
    <g id="ytick_3">
     <g id="line2d_3">
      <g>
       <use xlink:href="#me53ac1d266" x="98.490625" y="111.15" style="stroke: #000000; stroke-width: 0.8"/>
      </g>
     </g>
     <g id="text_3">
      <!-- Ignite -->
      <g transform="translate(44.040625 118.09375) scale(0.2 -0.2)">
       <defs>
        <path id="LinLibertine-49" d="M 1222 781 
Q 1222 397 1322 305 
Q 1422 213 1778 197 
Q 1803 166 1804 89 
Q 1806 13 1778 -13 
Q 1138 0 953 0 
Q 747 0 122 -13 
Q 91 13 91 89 
Q 91 166 122 197 
Q 481 209 579 303 
Q 678 397 678 781 
L 678 3347 
Q 678 3731 579 3823 
Q 481 3916 122 3928 
Q 91 3953 91 4031 
Q 91 4109 122 4141 
Q 763 4128 947 4128 
Q 1153 4128 1778 4141 
Q 1803 4109 1804 4032 
Q 1806 3956 1778 3928 
Q 1419 3916 1320 3823 
Q 1222 3731 1222 3347 
L 1222 781 
z
" transform="scale(0.015625)"/>
        <path id="LinLibertine-67" d="M 2041 1784 
Q 2041 2181 1881 2397 
Q 1722 2613 1422 2613 
Q 909 2613 909 1931 
Q 909 1753 928 1622 
Q 947 1491 1005 1353 
Q 1063 1216 1188 1142 
Q 1313 1069 1503 1069 
Q 2041 1069 2041 1784 
z
M 844 -63 
Q 647 -300 647 -666 
Q 647 -953 915 -1120 
Q 1184 -1288 1416 -1288 
Q 1716 -1288 1997 -1209 
Q 2278 -1131 2473 -965 
Q 2669 -800 2669 -581 
Q 2669 -459 2598 -376 
Q 2528 -294 2344 -184 
Q 2147 -75 1569 -78 
Q 1538 -78 1377 -87 
Q 1216 -97 1100 -97 
Q 959 -94 844 -63 
z
M 2841 2478 
Q 2719 2478 2663 2591 
Q 2613 2669 2534 2669 
Q 2478 2669 2397 2617 
Q 2316 2566 2278 2516 
Q 2553 2234 2553 1850 
Q 2553 1403 2236 1137 
Q 1919 872 1472 872 
Q 1119 872 891 1006 
Q 775 847 775 634 
Q 775 450 897 359 
Q 1019 269 1184 269 
L 1375 281 
Q 1631 313 1806 313 
Q 2484 313 2741 103 
Q 3022 -128 3022 -416 
Q 3022 -747 2750 -1008 
Q 2478 -1269 2070 -1395 
Q 1663 -1522 1222 -1522 
Q 794 -1522 500 -1350 
Q 206 -1178 206 -794 
Q 206 -334 728 -19 
Q 434 128 434 475 
Q 434 647 511 830 
Q 588 1013 716 1119 
Q 384 1438 384 1838 
Q 384 2266 711 2537 
Q 1038 2809 1478 2809 
Q 1875 2809 2144 2631 
Q 2259 2784 2451 2870 
Q 2644 2956 2784 2956 
Q 2913 2956 2995 2889 
Q 3078 2822 3078 2719 
Q 3078 2622 3004 2550 
Q 2931 2478 2841 2478 
z
" transform="scale(0.015625)"/>
        <path id="LinLibertine-6e" d="M 1178 2291 
Q 1647 2809 2228 2809 
Q 2594 2809 2759 2591 
Q 2931 2359 2931 1734 
L 2931 781 
Q 2931 403 3004 314 
Q 3078 225 3359 197 
Q 3384 172 3384 95 
Q 3384 19 3359 -13 
Q 2809 0 2681 0 
Q 2566 0 2028 -13 
Q 2003 13 2003 89 
Q 2003 166 2028 197 
Q 2291 222 2358 312 
Q 2425 403 2425 781 
L 2425 1753 
Q 2425 2094 2350 2247 
Q 2228 2478 2009 2478 
Q 1619 2478 1228 2100 
Q 1119 1978 1119 1831 
L 1119 781 
Q 1119 403 1183 314 
Q 1247 225 1503 197 
Q 1534 166 1536 89 
Q 1538 13 1503 -13 
Q 966 0 872 0 
Q 694 0 166 -13 
Q 141 13 141 89 
Q 141 166 166 197 
Q 466 222 541 309 
Q 616 397 616 781 
L 616 2028 
Q 616 2297 542 2367 
Q 469 2438 197 2463 
Q 159 2572 184 2644 
Q 684 2706 991 2828 
Q 1041 2828 1069 2778 
Q 1119 2663 1119 2291 
Q 1122 2213 1178 2291 
z
" transform="scale(0.015625)"/>
        <path id="LinLibertine-69" d="M 575 3834 
Q 575 3950 684 4045 
Q 794 4141 909 4141 
Q 1031 4141 1123 4034 
Q 1216 3928 1216 3809 
Q 1216 3700 1114 3600 
Q 1013 3500 884 3500 
Q 769 3500 672 3606 
Q 575 3713 575 3834 
z
M 1159 781 
Q 1159 397 1236 308 
Q 1313 219 1619 197 
Q 1650 166 1650 89 
Q 1650 13 1619 -13 
Q 1069 0 909 0 
Q 731 0 191 -13 
Q 166 13 166 89 
Q 166 166 191 197 
Q 497 222 575 309 
Q 653 397 653 781 
L 653 2028 
Q 653 2297 579 2367 
Q 506 2438 238 2463 
Q 200 2572 225 2644 
Q 819 2722 1100 2828 
Q 1184 2828 1184 2784 
Q 1184 2769 1181 2739 
Q 1178 2709 1175 2620 
Q 1172 2531 1167 2448 
Q 1163 2366 1161 2256 
Q 1159 2147 1159 2056 
L 1159 781 
z
" transform="scale(0.015625)"/>
        <path id="LinLibertine-74" d="M 275 2747 
L 569 2747 
Q 569 2944 567 3086 
Q 566 3228 562 3293 
Q 559 3359 556 3396 
Q 553 3434 551 3453 
Q 550 3472 550 3488 
Q 550 3509 575 3528 
Q 600 3547 629 3556 
Q 659 3566 711 3581 
Q 763 3597 794 3609 
Q 831 3625 890 3656 
Q 950 3688 990 3706 
Q 1031 3725 1050 3725 
Q 1100 3725 1100 3669 
Q 1075 3413 1075 2994 
L 1075 2747 
L 1844 2747 
Q 1894 2747 1894 2706 
L 1894 2578 
Q 1894 2494 1741 2497 
L 1075 2497 
L 1075 878 
Q 1075 566 1120 427 
Q 1166 288 1288 288 
Q 1581 288 1813 469 
Q 1909 463 1925 359 
Q 1547 -63 1063 -63 
Q 569 -63 569 569 
L 569 2497 
L 191 2497 
Q 159 2497 159 2534 
L 159 2619 
Q 159 2747 275 2747 
z
" transform="scale(0.015625)"/>
       </defs>
       <use xlink:href="#LinLibertine-49"/>
       <use xlink:href="#LinLibertine-67" x="29.6875"/>
       <use xlink:href="#LinLibertine-6e" x="79.6875"/>
       <use xlink:href="#LinLibertine-69" x="133.886719"/>
       <use xlink:href="#LinLibertine-74" x="160.986328"/>
       <use xlink:href="#LinLibertine-65" x="192.578125"/>
      </g>
     </g>
    </g>
    <g id="ytick_4">
     <g id="line2d_4">
      <g>
       <use xlink:href="#me53ac1d266" x="98.490625" y="152.73" style="stroke: #000000; stroke-width: 0.8"/>
      </g>
     </g>
     <g id="text_4">
      <!-- Flink -->
      <g transform="translate(50.190625 159.712812) scale(0.2 -0.2)">
       <defs>
        <path id="LinLibertine-46" d="M 1759 2069 
L 1166 2069 
L 1166 781 
Q 1166 397 1264 305 
Q 1363 213 1722 197 
Q 1753 166 1753 89 
Q 1753 13 1722 -13 
Q 1081 0 897 0 
Q 691 0 63 -13 
Q 38 13 38 89 
Q 38 166 63 197 
Q 422 209 522 303 
Q 622 397 622 781 
L 622 3347 
Q 622 3731 522 3823 
Q 422 3916 63 3928 
Q 38 3953 38 4031 
Q 38 4109 63 4141 
L 891 4128 
L 2525 4128 
Q 2694 4128 2825 4153 
Q 2847 4153 2850 4134 
Q 2919 3766 2988 3206 
Q 2903 3175 2791 3175 
Q 2713 3425 2623 3559 
Q 2534 3694 2336 3783 
Q 2138 3872 1813 3872 
L 1394 3872 
Q 1163 3872 1166 3653 
L 1166 2309 
L 1759 2309 
Q 2150 2309 2239 2386 
Q 2328 2463 2344 2747 
Q 2369 2778 2445 2778 
Q 2522 2778 2553 2747 
Q 2541 2363 2541 2194 
Q 2541 2078 2553 1631 
Q 2522 1600 2445 1600 
Q 2369 1600 2344 1631 
Q 2331 1803 2304 1878 
Q 2278 1953 2150 2011 
Q 2022 2069 1759 2069 
z
" transform="scale(0.015625)"/>
        <path id="LinLibertine-6b" d="M 550 781 
L 550 3578 
Q 550 3784 540 3886 
Q 531 3988 461 4036 
Q 391 4084 352 4087 
Q 313 4091 141 4103 
Q 69 4175 103 4294 
Q 672 4338 997 4469 
Q 1081 4469 1081 4403 
Q 1056 4147 1056 3731 
L 1056 1500 
Q 1263 1528 1491 1697 
Q 1722 1869 2003 2222 
Q 2034 2259 2054 2301 
Q 2075 2344 2087 2400 
Q 2100 2456 2042 2498 
Q 1984 2541 1856 2547 
Q 1831 2572 1831 2648 
Q 1831 2725 1856 2759 
Q 2331 2747 2484 2747 
Q 2569 2747 3041 2759 
Q 3072 2728 3072 2650 
Q 3072 2572 3041 2547 
Q 2594 2503 2369 2266 
L 1806 1684 
Q 1781 1659 1778 1619 
Q 1778 1588 1825 1528 
L 2669 469 
Q 2784 322 2903 273 
Q 3022 225 3219 197 
Q 3250 166 3250 89 
Q 3250 13 3219 -13 
Q 2834 0 2693 0 
Q 2553 0 2297 -13 
Q 2278 -13 2272 19 
Q 2234 153 2003 469 
L 1538 1094 
Q 1434 1231 1331 1303 
Q 1247 1331 1056 1338 
L 1056 781 
Q 1056 403 1117 311 
Q 1178 219 1388 197 
Q 1419 166 1420 89 
Q 1422 13 1388 -13 
Q 838 0 806 0 
Q 659 0 122 -13 
Q 91 13 91 89 
Q 91 166 122 197 
Q 403 216 476 306 
Q 550 397 550 781 
z
" transform="scale(0.015625)"/>
       </defs>
       <use xlink:href="#LinLibertine-46"/>
       <use xlink:href="#LinLibertine-6c" x="47.65625"/>
       <use xlink:href="#LinLibertine-69" x="74.023438"/>
       <use xlink:href="#LinLibertine-6e" x="101.123047"/>
       <use xlink:href="#LinLibertine-6b" x="155.322266"/>
      </g>
     </g>
    </g>
    <g id="ytick_5">
     <g id="line2d_5">
      <g>
       <use xlink:href="#me53ac1d266" x="98.490625" y="194.31" style="stroke: #000000; stroke-width: 0.8"/>
      </g>
     </g>
     <g id="text_5">
      <!-- HBase -->
      <g transform="translate(39.271875 201.292812) scale(0.2 -0.2)">
       <defs>
        <path id="LinLibertine-48" d="M 3956 781 
Q 3956 397 4054 305 
Q 4153 213 4513 197 
Q 4544 166 4544 89 
Q 4544 13 4513 -13 
Q 3872 0 3688 0 
Q 3481 0 2853 -13 
Q 2828 13 2828 89 
Q 2828 166 2853 197 
Q 3213 209 3313 303 
Q 3413 397 3413 781 
L 3413 2053 
L 1222 2053 
L 1222 781 
Q 1222 397 1322 305 
Q 1422 213 1778 197 
Q 1803 166 1804 89 
Q 1806 13 1778 -13 
Q 1138 0 953 0 
Q 747 0 122 -13 
Q 91 13 91 89 
Q 91 166 122 197 
Q 481 209 579 303 
Q 678 397 678 781 
L 678 3347 
Q 678 3731 579 3823 
Q 481 3916 122 3928 
Q 91 3953 91 4031 
Q 91 4109 122 4141 
Q 763 4128 947 4128 
Q 1153 4128 1778 4141 
Q 1803 4109 1804 4032 
Q 1806 3956 1778 3928 
Q 1419 3916 1320 3823 
Q 1222 3731 1222 3347 
L 1222 2322 
L 3413 2322 
L 3413 3347 
Q 3413 3731 3313 3823 
Q 3213 3916 2853 3928 
Q 2828 3953 2828 4031 
Q 2828 4109 2853 4141 
Q 3494 4128 3681 4128 
Q 3888 4128 4513 4141 
Q 4544 4109 4544 4032 
Q 4544 3956 4513 3928 
Q 4153 3916 4054 3823 
Q 3956 3731 3956 3347 
L 3956 781 
z
" transform="scale(0.015625)"/>
        <path id="LinLibertine-42" d="M 1222 3647 
L 1222 2344 
L 1697 2344 
Q 2606 2344 2606 3078 
Q 2606 3519 2356 3720 
Q 2106 3922 1778 3922 
Q 1503 3922 1386 3894 
Q 1269 3866 1245 3817 
Q 1222 3769 1222 3647 
z
M 1222 2125 
L 1222 628 
Q 1222 200 1753 197 
Q 2425 197 2665 425 
Q 2906 653 2906 1056 
Q 2906 1525 2595 1825 
Q 2284 2125 1663 2125 
L 1222 2125 
z
M 947 4128 
Q 1088 4128 1363 4134 
Q 1638 4141 1747 4141 
Q 3122 4141 3122 3156 
Q 3122 2906 2947 2675 
Q 2772 2444 2516 2316 
L 2516 2303 
Q 2963 2175 3231 1894 
Q 3500 1613 3500 1178 
Q 3500 953 3423 754 
Q 3347 556 3175 376 
Q 3003 197 2673 92 
Q 2344 -13 1888 -13 
Q 1569 -13 1312 -6 
Q 1056 0 953 0 
Q 747 0 122 -13 
Q 91 13 91 89 
Q 91 166 122 197 
Q 481 209 579 303 
Q 678 397 678 781 
L 678 3347 
Q 678 3731 579 3823 
Q 481 3916 122 3928 
Q 91 3953 91 4031 
Q 91 4109 122 4141 
Q 763 4128 947 4128 
z
" transform="scale(0.015625)"/>
        <path id="LinLibertine-73" d="M 306 884 
Q 338 916 406 916 
Q 475 916 506 891 
Q 616 438 756 300 
Q 897 147 1209 147 
Q 1416 147 1584 262 
Q 1753 378 1753 594 
Q 1753 806 1622 934 
Q 1491 1063 1100 1222 
Q 716 1381 556 1567 
Q 397 1753 397 2094 
Q 397 2394 665 2601 
Q 934 2809 1300 2809 
Q 1447 2809 1600 2787 
Q 1753 2766 1923 2730 
Q 2094 2694 2138 2688 
Q 2138 2603 2119 2370 
Q 2100 2138 2100 2009 
Q 2069 1978 1997 1978 
Q 1925 1978 1894 2003 
Q 1863 2194 1789 2322 
Q 1716 2450 1616 2504 
Q 1516 2559 1442 2578 
Q 1369 2597 1300 2597 
Q 1128 2597 989 2486 
Q 850 2375 850 2188 
Q 850 2084 884 2003 
Q 919 1922 961 1870 
Q 1003 1819 1103 1764 
Q 1203 1709 1272 1681 
Q 1341 1653 1491 1594 
Q 2241 1309 2241 744 
Q 2241 519 2134 351 
Q 2028 184 1862 98 
Q 1697 13 1536 -25 
Q 1375 -63 1222 -63 
Q 909 -63 641 6 
Q 597 19 513 19 
Q 450 19 353 0 
Q 350 334 306 884 
z
" transform="scale(0.015625)"/>
       </defs>
       <use xlink:href="#LinLibertine-48"/>
       <use xlink:href="#LinLibertine-42" x="72.998047"/>
       <use xlink:href="#LinLibertine-61" x="131.787109"/>
       <use xlink:href="#LinLibertine-73" x="177.441406"/>
       <use xlink:href="#LinLibertine-65" x="216.40625"/>
      </g>
     </g>
    </g>
    <g id="ytick_6">
     <g id="line2d_6">
      <g>
       <use xlink:href="#me53ac1d266" x="98.490625" y="235.89" style="stroke: #000000; stroke-width: 0.8"/>
      </g>
     </g>
     <g id="text_6">
      <!-- Cassandra -->
      <g transform="translate(7.2 242.872812) scale(0.2 -0.2)">
       <defs>
        <path id="LinLibertine-64" d="M 2209 794 
L 2209 2009 
Q 2209 2156 2189 2217 
Q 2169 2278 2100 2356 
Q 1903 2588 1581 2584 
Q 1197 2584 984 2266 
Q 800 2003 800 1416 
Q 800 853 1011 545 
Q 1222 238 1503 238 
Q 1753 238 2106 544 
Q 2209 634 2209 794 
z
M 2138 322 
Q 1669 -63 1338 -63 
Q 831 -63 540 314 
Q 250 691 250 1300 
Q 250 1984 691 2425 
Q 1094 2809 1650 2809 
Q 1747 2809 1862 2781 
Q 1978 2753 2061 2726 
Q 2144 2700 2150 2700 
Q 2206 2700 2209 2759 
L 2209 3578 
Q 2209 3784 2198 3886 
Q 2188 3988 2117 4036 
Q 2047 4084 2009 4087 
Q 1972 4091 1797 4103 
Q 1725 4175 1759 4294 
Q 2328 4338 2656 4469 
Q 2741 4469 2741 4403 
Q 2716 4147 2713 3731 
L 2713 831 
Q 2713 581 2800 486 
Q 2888 391 3181 366 
Q 3213 334 3213 276 
Q 3213 219 3181 191 
Q 2644 128 2406 -63 
Q 2334 -81 2284 -63 
Q 2213 163 2216 313 
Q 2216 328 2208 336 
Q 2200 344 2187 344 
Q 2175 344 2162 337 
Q 2150 331 2138 322 
z
" transform="scale(0.015625)"/>
       </defs>
       <use xlink:href="#LinLibertine-43"/>
       <use xlink:href="#LinLibertine-61" x="64.599609"/>
       <use xlink:href="#LinLibertine-73" x="110.253906"/>
       <use xlink:href="#LinLibertine-73" x="149.21875"/>
       <use xlink:href="#LinLibertine-61" x="188.183594"/>
       <use xlink:href="#LinLibertine-6e" x="233.837891"/>
       <use xlink:href="#LinLibertine-64" x="288.037109"/>
       <use xlink:href="#LinLibertine-72" x="338.623047"/>
       <use xlink:href="#LinLibertine-61" x="375.78125"/>
      </g>
     </g>
    </g>
    <g id="ytick_7">
     <g id="line2d_7">
      <g>
       <use xlink:href="#me53ac1d266" x="98.490625" y="277.47" style="stroke: #000000; stroke-width: 0.8"/>
      </g>
     </g>
     <g id="text_7">
      <!-- ActiveMQ -->
      <g transform="translate(7.621875 284.452812) scale(0.2 -0.2)">
       <defs>
        <path id="LinLibertine-41" d="M 1684 1813 
L 2816 1813 
L 2216 3553 
L 2175 3553 
L 1522 1897 
Q 1513 1878 1516 1862 
Q 1519 1847 1528 1837 
Q 1538 1828 1559 1822 
Q 1581 1816 1611 1814 
Q 1641 1813 1684 1813 
z
M 991 506 
Q 984 444 971 395 
Q 959 347 1007 314 
Q 1056 281 1084 262 
Q 1113 244 1191 228 
Q 1269 213 1312 209 
Q 1356 206 1434 197 
Q 1459 166 1459 89 
Q 1459 13 1434 -13 
Q 959 0 616 0 
Q 519 0 44 -13 
Q 13 13 13 89 
Q 13 166 44 197 
Q 288 216 428 297 
Q 569 378 684 653 
L 2138 4084 
Q 2278 4084 2491 4213 
L 3809 550 
Q 3847 434 3901 364 
Q 3956 294 4051 259 
Q 4147 225 4195 219 
Q 4244 213 4384 197 
Q 4416 166 4416 89 
Q 4416 13 4384 -13 
Q 3909 0 3653 0 
Q 3288 0 2816 -13 
Q 2791 13 2791 89 
Q 2791 166 2816 197 
Q 2853 197 2914 201 
Q 2975 206 3008 209 
Q 3041 213 3092 219 
Q 3144 225 3169 231 
Q 3194 238 3228 250 
Q 3263 263 3277 281 
Q 3291 300 3300 326 
Q 3309 353 3306 384 
Q 3303 416 3291 459 
L 2919 1544 
L 1569 1544 
Q 1453 1544 1411 1520 
Q 1369 1497 1344 1434 
L 991 506 
z
" transform="scale(0.015625)"/>
        <path id="LinLibertine-63" d="M 2547 581 
Q 2322 209 2073 73 
Q 1825 -63 1503 -63 
Q 909 -63 573 317 
Q 238 697 238 1331 
Q 238 1978 641 2393 
Q 1044 2809 1550 2809 
Q 2003 2809 2265 2640 
Q 2528 2472 2528 2203 
Q 2528 2069 2428 1994 
Q 2328 1919 2216 1919 
Q 1997 1919 1972 2150 
Q 1959 2291 1929 2370 
Q 1900 2450 1798 2523 
Q 1697 2597 1516 2597 
Q 1197 2597 992 2294 
Q 788 1991 788 1472 
Q 788 922 1038 586 
Q 1288 250 1644 250 
Q 2084 250 2413 672 
Q 2516 659 2547 581 
z
" transform="scale(0.015625)"/>
        <path id="LinLibertine-4d" d="M 4241 744 
L 4078 3419 
L 4063 3419 
L 2625 31 
Q 2588 -41 2534 -38 
Q 2463 -38 2438 31 
L 1113 3353 
L 1100 3353 
L 856 788 
Q 831 488 907 356 
Q 984 225 1281 197 
Q 1306 166 1306 89 
Q 1306 13 1281 -13 
Q 897 0 678 0 
Q 513 0 128 -13 
Q 103 13 103 89 
Q 103 166 128 197 
Q 391 219 484 344 
Q 578 469 606 775 
L 863 3413 
Q 894 3766 831 3837 
Q 769 3909 428 3928 
Q 397 3953 397 4031 
Q 397 4109 428 4141 
L 1356 4128 
L 2669 878 
Q 2706 794 2719 794 
Q 2738 794 2778 884 
L 4134 4128 
L 4972 4141 
Q 5003 4109 5004 4032 
Q 5006 3956 4972 3928 
Q 4656 3909 4584 3825 
Q 4513 3741 4534 3469 
L 4725 775 
Q 4734 622 4742 547 
Q 4750 472 4773 395 
Q 4797 319 4820 292 
Q 4844 266 4905 241 
Q 4966 216 5030 209 
Q 5094 203 5216 197 
Q 5247 166 5247 89 
Q 5247 13 5216 -13 
Q 4794 0 4519 0 
Q 4434 0 3834 -13 
Q 3803 13 3803 89 
Q 3803 166 3834 197 
Q 3959 203 4012 208 
Q 4066 213 4128 234 
Q 4191 256 4208 281 
Q 4225 306 4240 376 
Q 4256 447 4253 522 
Q 4250 597 4241 744 
z
" transform="scale(0.015625)"/>
        <path id="LinLibertine-51" d="M 2119 3994 
Q 1888 3994 1670 3881 
Q 1453 3769 1267 3551 
Q 1081 3334 965 2953 
Q 850 2572 850 2094 
Q 850 1209 1298 681 
Q 1747 153 2369 153 
Q 2931 153 3289 650 
Q 3647 1147 3647 1984 
Q 3647 2925 3212 3459 
Q 2778 3994 2119 3994 
z
M 4263 2106 
Q 4263 1306 3866 744 
Q 3409 103 2619 -34 
Q 2197 -153 1781 -456 
Q 1850 -447 1906 -447 
Q 2278 -447 2854 -709 
Q 3431 -972 3694 -972 
Q 4059 -972 4250 -738 
L 4359 -813 
Q 3994 -1338 3438 -1338 
Q 3156 -1338 2884 -1242 
Q 2613 -1147 2433 -1034 
Q 2253 -922 2029 -825 
Q 1806 -728 1606 -728 
Q 1503 -728 1381 -809 
Q 1250 -950 1141 -1106 
L 891 -978 
Q 913 -941 941 -903 
Q 969 -866 1003 -831 
Q 1403 -350 1978 -50 
Q 1225 41 731 591 
Q 238 1141 238 1984 
Q 238 2831 675 3431 
Q 944 3800 1339 4006 
Q 1734 4213 2203 4213 
Q 3094 4213 3678 3642 
Q 4263 3072 4263 2106 
z
" transform="scale(0.015625)"/>
       </defs>
       <use xlink:href="#LinLibertine-41"/>
       <use xlink:href="#LinLibertine-63" x="69.482422"/>
       <use xlink:href="#LinLibertine-74" x="112.255859"/>
       <use xlink:href="#LinLibertine-69" x="143.847656"/>
       <use xlink:href="#LinLibertine-76" x="170.947266"/>
       <use xlink:href="#LinLibertine-65" x="220.605469"/>
       <use xlink:href="#LinLibertine-4d" x="265.283203"/>
       <use xlink:href="#LinLibertine-51" x="349.169922"/>
      </g>
     </g>
    </g>
    <g id="ytick_8">
     <g id="line2d_8">
      <g>
       <use xlink:href="#me53ac1d266" x="98.490625" y="319.05" style="stroke: #000000; stroke-width: 0.8"/>
      </g>
     </g>
     <g id="text_8">
      <!-- Hive -->
      <g transform="translate(52.60625 326.032813) scale(0.2 -0.2)">
       <use xlink:href="#LinLibertine-48"/>
       <use xlink:href="#LinLibertine-69" x="72.998047"/>
       <use xlink:href="#LinLibertine-76" x="100.097656"/>
       <use xlink:href="#LinLibertine-65" x="149.755859"/>
      </g>
     </g>
    </g>
   </g>
   <g id="line2d_9">
    <path clip-path="url(#p9741a20a83)" style="fill: none; stroke: #424242; stroke-width: 2.25; stroke-linecap: square"/>
   </g>
   <g id="line2d_10">
    <path clip-path="url(#p9741a20a83)" style="fill: none; stroke: #424242; stroke-width: 2.25; stroke-linecap: square"/>
   </g>
   <g id="line2d_11">
    <path clip-path="url(#p9741a20a83)" style="fill: none; stroke: #424242; stroke-width: 2.25; stroke-linecap: square"/>
   </g>
   <g id="line2d_12">
    <path clip-path="url(#p9741a20a83)" style="fill: none; stroke: #424242; stroke-width: 2.25; stroke-linecap: square"/>
   </g>
   <g id="line2d_13">
    <path clip-path="url(#p9741a20a83)" style="fill: none; stroke: #424242; stroke-width: 2.25; stroke-linecap: square"/>
   </g>
   <g id="line2d_14">
    <path clip-path="url(#p9741a20a83)" style="fill: none; stroke: #424242; stroke-width: 2.25; stroke-linecap: square"/>
   </g>
   <g id="line2d_15">
    <path clip-path="url(#p9741a20a83)" style="fill: none; stroke: #424242; stroke-width: 2.25; stroke-linecap: square"/>
   </g>
   <g id="line2d_16">
    <path clip-path="url(#p9741a20a83)" style="fill: none; stroke: #424242; stroke-width: 2.25; stroke-linecap: square"/>
   </g>
   <g id="line2d_17">
    <path clip-path="url(#p9741a20a83)" style="fill: none; stroke: #424242; stroke-width: 2.25; stroke-linecap: square"/>
   </g>
   <g id="line2d_18">
    <path clip-path="url(#p9741a20a83)" style="fill: none; stroke: #424242; stroke-width: 2.25; stroke-linecap: square"/>
   </g>
   <g id="line2d_19">
    <path clip-path="url(#p9741a20a83)" style="fill: none; stroke: #424242; stroke-width: 2.25; stroke-linecap: square"/>
   </g>
   <g id="line2d_20">
    <path clip-path="url(#p9741a20a83)" style="fill: none; stroke: #424242; stroke-width: 2.25; stroke-linecap: square"/>
   </g>
   <g id="line2d_21">
    <path clip-path="url(#p9741a20a83)" style="fill: none; stroke: #424242; stroke-width: 2.25; stroke-linecap: square"/>
   </g>
   <g id="line2d_22">
    <path clip-path="url(#p9741a20a83)" style="fill: none; stroke: #424242; stroke-width: 2.25; stroke-linecap: square"/>
   </g>
   <g id="line2d_23">
    <path clip-path="url(#p9741a20a83)" style="fill: none; stroke: #424242; stroke-width: 2.25; stroke-linecap: square"/>
   </g>
   <g id="line2d_24">
    <path clip-path="url(#p9741a20a83)" style="fill: none; stroke: #424242; stroke-width: 2.25; stroke-linecap: square"/>
   </g>
   <g id="line2d_25">
    <path clip-path="url(#p9741a20a83)" style="fill: none; stroke: #424242; stroke-width: 2.25; stroke-linecap: square"/>
   </g>
   <g id="line2d_26">
    <path clip-path="url(#p9741a20a83)" style="fill: none; stroke: #424242; stroke-width: 2.25; stroke-linecap: square"/>
   </g>
   <g id="line2d_27">
    <path clip-path="url(#p9741a20a83)" style="fill: none; stroke: #424242; stroke-width: 2.25; stroke-linecap: square"/>
   </g>
   <g id="line2d_28">
    <path clip-path="url(#p9741a20a83)" style="fill: none; stroke: #424242; stroke-width: 2.25; stroke-linecap: square"/>
   </g>
   <g id="line2d_29">
    <path clip-path="url(#p9741a20a83)" style="fill: none; stroke: #424242; stroke-width: 2.25; stroke-linecap: square"/>
   </g>
   <g id="line2d_30">
    <path clip-path="url(#p9741a20a83)" style="fill: none; stroke: #424242; stroke-width: 2.25; stroke-linecap: square"/>
   </g>
   <g id="line2d_31">
    <path clip-path="url(#p9741a20a83)" style="fill: none; stroke: #424242; stroke-width: 2.25; stroke-linecap: square"/>
   </g>
   <g id="line2d_32">
    <path clip-path="url(#p9741a20a83)" style="fill: none; stroke: #424242; stroke-width: 2.25; stroke-linecap: square"/>
   </g>
   <g id="text_9">
    <!-- 28.6 -->
    <g transform="translate(287.330402 32.63375) scale(0.2 -0.2)">
     <defs>
      <path id="LinLibertine-32" d="M 391 2994 
Q 391 3313 717 3608 
Q 1044 3903 1544 3903 
Q 1978 3903 2301 3658 
Q 2625 3413 2625 2931 
Q 2625 2700 2528 2495 
Q 2431 2291 2320 2159 
Q 2209 2028 1984 1813 
L 1338 1191 
Q 863 716 863 416 
L 2003 416 
Q 2175 416 2272 550 
Q 2369 684 2450 1031 
Q 2572 1056 2638 997 
Q 2625 550 2484 -13 
Q 2191 0 1984 0 
L 863 0 
L 331 -13 
Q 331 294 476 578 
Q 622 863 1063 1313 
L 1538 1778 
Q 2063 2309 2059 2906 
Q 2059 3322 1890 3501 
Q 1722 3681 1503 3681 
Q 1184 3681 1028 3559 
Q 872 3438 872 3291 
Q 872 3259 897 3201 
Q 922 3144 922 3138 
Q 947 3047 947 3003 
Q 947 2906 842 2826 
Q 738 2747 647 2747 
Q 544 2747 467 2819 
Q 391 2891 391 2994 
z
" transform="scale(0.015625)"/>
      <path id="LinLibertine-38" d="M 1497 3681 
Q 1222 3681 1065 3526 
Q 909 3372 909 3144 
Q 909 2966 995 2808 
Q 1081 2650 1356 2472 
L 1556 2350 
Q 2069 2728 2069 3109 
Q 2069 3353 1930 3517 
Q 1791 3681 1497 3681 
z
M 2516 3103 
Q 2516 2828 2269 2595 
Q 2022 2363 1728 2216 
L 2181 1941 
Q 2681 1641 2681 1038 
Q 2681 628 2348 282 
Q 2016 -63 1434 -63 
Q 916 -63 605 195 
Q 294 453 294 934 
Q 294 1375 666 1703 
Q 888 1897 1181 2053 
L 1019 2156 
Q 456 2509 453 3022 
Q 453 3400 751 3651 
Q 1050 3903 1528 3903 
Q 1988 3903 2252 3679 
Q 2516 3456 2516 3103 
z
M 1447 159 
Q 1741 159 1978 323 
Q 2216 488 2216 909 
Q 2216 1422 1656 1759 
L 1356 1941 
Q 997 1703 859 1425 
Q 722 1147 722 934 
Q 722 544 950 351 
Q 1178 159 1447 159 
z
" transform="scale(0.015625)"/>
      <path id="LinLibertine-2e" d="M 464 35 
Q 366 134 366 275 
Q 366 416 464 516 
Q 563 616 703 616 
Q 844 616 944 516 
Q 1044 416 1044 275 
Q 1044 134 944 35 
Q 844 -63 703 -63 
Q 563 -63 464 35 
z
" transform="scale(0.015625)"/>
      <path id="LinLibertine-36" d="M 866 1966 
Q 813 1709 813 1466 
Q 813 709 1020 431 
Q 1228 153 1581 153 
Q 1831 153 1997 415 
Q 2163 678 2163 1178 
Q 2163 1319 2128 1462 
Q 2094 1606 2017 1759 
Q 1941 1913 1780 2013 
Q 1619 2113 1394 2113 
Q 1091 2113 866 1966 
z
M 925 2197 
Q 1228 2334 1528 2338 
Q 2138 2338 2416 2045 
Q 2694 1753 2694 1294 
Q 2694 800 2387 364 
Q 2081 -72 1509 -72 
Q 1297 -72 1106 -8 
Q 916 56 717 214 
Q 519 372 400 698 
Q 281 1025 281 1484 
Q 281 2341 878 3034 
Q 1409 3656 2278 3909 
Q 2356 3859 2356 3744 
Q 1766 3522 1420 3109 
Q 1075 2697 925 2197 
z
" transform="scale(0.015625)"/>
     </defs>
     <use xlink:href="#LinLibertine-32"/>
     <use xlink:href="#LinLibertine-38" x="46.484375"/>
     <use xlink:href="#LinLibertine-2e" x="92.96875"/>
     <use xlink:href="#LinLibertine-36" x="114.941406"/>
    </g>
   </g>
   <g id="text_10">
    <!-- 21.3 -->
    <g transform="translate(295.982735 74.21375) scale(0.2 -0.2)">
     <defs>
      <path id="LinLibertine-31" d="M 1844 781 
Q 1844 397 1942 305 
Q 2041 213 2400 197 
Q 2431 166 2431 89 
Q 2431 13 2400 -13 
Q 1759 0 1619 0 
Q 1356 0 728 -13 
Q 703 13 703 89 
Q 703 166 728 197 
Q 1100 209 1225 309 
Q 1350 409 1350 781 
L 1350 2869 
Q 1350 3241 1222 3238 
Q 1050 3238 666 3078 
Q 588 3128 569 3250 
Q 1466 3666 1825 3891 
Q 1863 3891 1863 3859 
Q 1844 3713 1844 3003 
L 1844 781 
z
" transform="scale(0.015625)"/>
      <path id="LinLibertine-33" d="M 1375 3681 
Q 1259 3681 1139 3648 
Q 1019 3616 894 3497 
Q 769 3378 769 3194 
Q 769 2863 519 2859 
Q 416 2859 358 2931 
Q 300 3003 300 3078 
Q 300 3175 361 3300 
Q 422 3425 550 3569 
Q 678 3713 931 3808 
Q 1184 3903 1509 3903 
Q 1963 3903 2209 3653 
Q 2409 3450 2409 3147 
Q 2409 2878 2261 2676 
Q 2113 2475 1734 2297 
L 1741 2284 
Q 2100 2228 2372 1984 
Q 2644 1741 2644 1275 
Q 2644 666 2220 301 
Q 1797 -63 1203 -63 
Q 884 -63 582 60 
Q 281 184 281 366 
Q 281 444 367 516 
Q 453 588 550 588 
Q 703 588 825 422 
Q 831 416 854 381 
Q 878 347 887 333 
Q 897 319 919 291 
Q 941 263 959 250 
Q 978 238 1014 214 
Q 1050 191 1087 181 
Q 1125 172 1176 165 
Q 1228 159 1288 159 
Q 1391 159 1508 204 
Q 1625 250 1762 348 
Q 1900 447 1990 665 
Q 2081 884 2081 1184 
Q 2081 2009 1241 2009 
Q 1044 2009 934 1997 
L 903 2203 
Q 1347 2266 1628 2548 
Q 1909 2831 1909 3103 
Q 1909 3300 1831 3433 
Q 1753 3566 1637 3623 
Q 1522 3681 1375 3681 
z
" transform="scale(0.015625)"/>
     </defs>
     <use xlink:href="#LinLibertine-32"/>
     <use xlink:href="#LinLibertine-31" x="46.484375"/>
     <use xlink:href="#LinLibertine-2e" x="92.96875"/>
     <use xlink:href="#LinLibertine-33" x="114.941406"/>
    </g>
   </g>
   <g id="text_11">
    <!-- 47.3 -->
    <g transform="translate(264.900475 115.79375) scale(0.2 -0.2)">
     <defs>
      <path id="LinLibertine-34" d="M 1734 3244 
Q 1247 2578 513 1403 
L 1734 1403 
L 1734 3244 
z
M 2753 1403 
Q 2850 1403 2847 1300 
Q 2847 1244 2786 1172 
Q 2725 1100 2663 1100 
L 2222 1100 
L 2222 513 
Q 2222 409 2237 348 
Q 2253 288 2320 259 
Q 2388 231 2425 225 
Q 2463 219 2603 203 
Q 2647 197 2669 197 
Q 2700 166 2700 89 
Q 2700 13 2669 -13 
Q 2259 0 1972 0 
Q 1625 0 1216 -13 
Q 1191 13 1191 89 
Q 1191 166 1216 197 
Q 1559 222 1644 291 
Q 1734 363 1734 513 
L 1734 1100 
L 428 1100 
Q 231 1100 178 1369 
Q 1169 2925 1913 3834 
Q 1969 3906 2016 3903 
L 2222 3903 
L 2234 3891 
Q 2222 3834 2222 3272 
L 2222 1403 
L 2753 1403 
z
" transform="scale(0.015625)"/>
      <path id="LinLibertine-37" d="M 1088 3425 
Q 966 3425 880 3395 
Q 794 3366 694 3237 
Q 594 3109 531 2869 
Q 434 2856 325 2888 
Q 447 3688 453 3909 
Q 453 3928 481 3928 
Q 506 3922 589 3881 
Q 672 3841 800 3841 
L 2119 3841 
Q 2375 3841 2613 3909 
L 2713 3834 
Q 2022 2144 1281 -63 
L 844 -84 
L 794 -38 
Q 1269 1019 2234 3425 
L 1088 3425 
z
" transform="scale(0.015625)"/>
     </defs>
     <use xlink:href="#LinLibertine-34"/>
     <use xlink:href="#LinLibertine-37" x="46.484375"/>
     <use xlink:href="#LinLibertine-2e" x="92.96875"/>
     <use xlink:href="#LinLibertine-33" x="114.941406"/>
    </g>
   </g>
   <g id="text_12">
    <!-- 48.3 -->
    <g transform="translate(263.67982 157.37375) scale(0.2 -0.2)">
     <use xlink:href="#LinLibertine-34"/>
     <use xlink:href="#LinLibertine-38" x="46.484375"/>
     <use xlink:href="#LinLibertine-2e" x="92.96875"/>
     <use xlink:href="#LinLibertine-33" x="114.941406"/>
    </g>
   </g>
   <g id="text_13">
    <!-- 21.1 -->
    <g transform="translate(296.219223 198.95375) scale(0.2 -0.2)">
     <use xlink:href="#LinLibertine-32"/>
     <use xlink:href="#LinLibertine-31" x="46.484375"/>
     <use xlink:href="#LinLibertine-2e" x="92.96875"/>
     <use xlink:href="#LinLibertine-31" x="114.941406"/>
    </g>
   </g>
   <g id="text_14">
    <!-- 46.9 -->
    <g transform="translate(265.360771 240.53375) scale(0.2 -0.2)">
     <defs>
      <path id="LinLibertine-39" d="M 2150 1869 
Q 2203 2125 2203 2369 
Q 2203 3125 1993 3403 
Q 1784 3681 1434 3681 
Q 1184 3681 1017 3418 
Q 850 3156 850 2656 
Q 850 2516 886 2372 
Q 922 2228 998 2073 
Q 1075 1919 1234 1820 
Q 1394 1722 1619 1722 
Q 1925 1722 2150 1869 
z
M 2091 1638 
Q 1788 1500 1484 1497 
Q 875 1497 597 1789 
Q 319 2081 319 2541 
Q 319 3034 626 3468 
Q 934 3903 1503 3903 
Q 1716 3903 1908 3839 
Q 2100 3775 2298 3619 
Q 2497 3463 2614 3136 
Q 2731 2809 2731 2350 
Q 2731 1494 2138 800 
Q 1606 178 738 -78 
Q 659 -34 659 91 
Q 1250 313 1595 725 
Q 1941 1138 2091 1638 
z
" transform="scale(0.015625)"/>
     </defs>
     <use xlink:href="#LinLibertine-34"/>
     <use xlink:href="#LinLibertine-36" x="46.484375"/>
     <use xlink:href="#LinLibertine-2e" x="92.96875"/>
     <use xlink:href="#LinLibertine-39" x="114.941406"/>
    </g>
   </g>
   <g id="text_15">
    <!-- 39.3 -->
    <g transform="translate(274.464047 282.11375) scale(0.2 -0.2)">
     <use xlink:href="#LinLibertine-33"/>
     <use xlink:href="#LinLibertine-39" x="46.484375"/>
     <use xlink:href="#LinLibertine-2e" x="92.96875"/>
     <use xlink:href="#LinLibertine-33" x="114.941406"/>
    </g>
   </g>
   <g id="text_16">
    <!-- 37.3 -->
    <g transform="translate(276.843925 323.69375) scale(0.2 -0.2)">
     <use xlink:href="#LinLibertine-33"/>
     <use xlink:href="#LinLibertine-37" x="46.484375"/>
     <use xlink:href="#LinLibertine-2e" x="92.96875"/>
     <use xlink:href="#LinLibertine-33" x="114.941406"/>
    </g>
   </g>
   <g id="text_17">
    <!-- 24.0 -->
    <g transform="translate(224.472366 32.63375) scale(0.2 -0.2)">
     <defs>
      <path id="LinLibertine-30" d="M 1484 3681 
Q 1363 3681 1255 3603 
Q 1147 3525 1040 3340 
Q 934 3156 870 2762 
Q 806 2369 806 1813 
Q 806 163 1466 159 
Q 1522 159 1586 178 
Q 1650 197 1737 251 
Q 1825 306 1904 431 
Q 1984 556 2034 744 
Q 2144 1141 2144 2059 
Q 2144 3256 1772 3572 
Q 1650 3681 1484 3681 
z
M 1459 -63 
Q 1078 -63 809 206 
Q 547 466 398 916 
Q 250 1366 250 1881 
Q 250 2791 617 3347 
Q 984 3903 1484 3903 
Q 1953 3903 2266 3488 
Q 2700 2913 2700 1941 
Q 2700 1409 2578 998 
Q 2456 588 2262 367 
Q 2069 147 1862 42 
Q 1656 -63 1459 -63 
z
" transform="scale(0.015625)"/>
     </defs>
     <use xlink:href="#LinLibertine-32"/>
     <use xlink:href="#LinLibertine-34" x="46.484375"/>
     <use xlink:href="#LinLibertine-2e" x="92.96875"/>
     <use xlink:href="#LinLibertine-30" x="114.941406"/>
    </g>
   </g>
   <g id="text_18">
    <!-- 31.7 -->
    <g transform="translate(232.568597 74.21375) scale(0.2 -0.2)">
     <use xlink:href="#LinLibertine-33"/>
     <use xlink:href="#LinLibertine-31" x="46.484375"/>
     <use xlink:href="#LinLibertine-2e" x="92.96875"/>
     <use xlink:href="#LinLibertine-37" x="114.941406"/>
    </g>
   </g>
   <g id="text_19">
    <!-- 14.7 -->
    <g transform="translate(190.727461 115.79375) scale(0.2 -0.2)">
     <use xlink:href="#LinLibertine-31"/>
     <use xlink:href="#LinLibertine-34" x="46.484375"/>
     <use xlink:href="#LinLibertine-2e" x="92.96875"/>
     <use xlink:href="#LinLibertine-37" x="114.941406"/>
    </g>
   </g>
   <g id="text_20">
    <!-- 18.7 -->
    <g transform="translate(183.497718 157.37375) scale(0.2 -0.2)">
     <use xlink:href="#LinLibertine-31"/>
     <use xlink:href="#LinLibertine-38" x="46.484375"/>
     <use xlink:href="#LinLibertine-2e" x="92.96875"/>
     <use xlink:href="#LinLibertine-37" x="114.941406"/>
    </g>
   </g>
   <g id="text_21">
    <!-- 48.5 -->
    <g transform="translate(212.99734 198.95375) scale(0.2 -0.2)">
     <defs>
      <path id="LinLibertine-35" d="M 2041 1209 
Q 2041 1709 1836 1945 
Q 1631 2181 1300 2181 
Q 897 2181 488 2028 
L 703 3872 
Q 1075 3841 1394 3841 
Q 1778 3841 2444 3909 
L 2491 3884 
L 2388 3450 
Q 1991 3413 1716 3413 
Q 1497 3413 966 3469 
L 838 2400 
Q 1100 2503 1466 2503 
Q 1984 2503 2298 2158 
Q 2613 1813 2613 1325 
Q 2613 716 2231 322 
Q 1850 -72 1253 -72 
Q 959 -72 653 76 
Q 347 225 347 409 
Q 347 506 420 576 
Q 494 647 588 647 
Q 759 647 916 441 
Q 922 428 953 387 
Q 984 347 998 326 
Q 1013 306 1044 275 
Q 1075 244 1100 228 
Q 1125 213 1164 189 
Q 1203 166 1245 159 
Q 1288 153 1338 153 
Q 1631 153 1836 458 
Q 2041 763 2041 1209 
z
" transform="scale(0.015625)"/>
     </defs>
     <use xlink:href="#LinLibertine-34"/>
     <use xlink:href="#LinLibertine-38" x="46.484375"/>
     <use xlink:href="#LinLibertine-2e" x="92.96875"/>
     <use xlink:href="#LinLibertine-35" x="114.941406"/>
    </g>
   </g>
   <g id="text_22">
    <!-- 26.6 -->
    <g transform="translate(177.381856 240.53375) scale(0.2 -0.2)">
     <use xlink:href="#LinLibertine-32"/>
     <use xlink:href="#LinLibertine-36" x="46.484375"/>
     <use xlink:href="#LinLibertine-2e" x="92.96875"/>
     <use xlink:href="#LinLibertine-36" x="114.941406"/>
    </g>
   </g>
   <g id="text_23">
    <!-- 37.8 -->
    <g transform="translate(182.219647 282.11375) scale(0.2 -0.2)">
     <use xlink:href="#LinLibertine-33"/>
     <use xlink:href="#LinLibertine-37" x="46.484375"/>
     <use xlink:href="#LinLibertine-2e" x="92.96875"/>
     <use xlink:href="#LinLibertine-38" x="114.941406"/>
    </g>
   </g>
   <g id="text_24">
    <!-- 48.0 -->
    <g transform="translate(174.826792 323.69375) scale(0.2 -0.2)">
     <use xlink:href="#LinLibertine-34"/>
     <use xlink:href="#LinLibertine-38" x="46.484375"/>
     <use xlink:href="#LinLibertine-2e" x="92.96875"/>
     <use xlink:href="#LinLibertine-30" x="114.941406"/>
    </g>
   </g>
   <g id="text_25">
    <!-- 47.4 -->
    <g transform="translate(139.06183 32.63375) scale(0.2 -0.2)">
     <use xlink:href="#LinLibertine-34"/>
     <use xlink:href="#LinLibertine-37" x="46.484375"/>
     <use xlink:href="#LinLibertine-2e" x="92.96875"/>
     <use xlink:href="#LinLibertine-34" x="114.941406"/>
    </g>
   </g>
   <g id="text_26">
    <!-- 47.0 -->
    <g transform="translate(138.505728 74.21375) scale(0.2 -0.2)">
     <use xlink:href="#LinLibertine-34"/>
     <use xlink:href="#LinLibertine-37" x="46.484375"/>
     <use xlink:href="#LinLibertine-2e" x="92.96875"/>
     <use xlink:href="#LinLibertine-30" x="114.941406"/>
    </g>
   </g>
   <g id="text_27">
    <!-- 38.0 -->
    <g transform="translate(127.746852 115.79375) scale(0.2 -0.2)">
     <use xlink:href="#LinLibertine-33"/>
     <use xlink:href="#LinLibertine-38" x="46.484375"/>
     <use xlink:href="#LinLibertine-2e" x="92.96875"/>
     <use xlink:href="#LinLibertine-30" x="114.941406"/>
    </g>
   </g>
   <g id="text_28">
    <!-- 32.9 -->
    <g transform="translate(121.737764 157.37375) scale(0.2 -0.2)">
     <use xlink:href="#LinLibertine-33"/>
     <use xlink:href="#LinLibertine-32" x="46.484375"/>
     <use xlink:href="#LinLibertine-2e" x="92.96875"/>
     <use xlink:href="#LinLibertine-39" x="114.941406"/>
    </g>
   </g>
   <g id="text_29">
    <!-- 30.4 -->
    <g transform="translate(118.697983 198.95375) scale(0.2 -0.2)">
     <use xlink:href="#LinLibertine-33"/>
     <use xlink:href="#LinLibertine-30" x="46.484375"/>
     <use xlink:href="#LinLibertine-2e" x="92.96875"/>
     <use xlink:href="#LinLibertine-34" x="114.941406"/>
    </g>
   </g>
   <g id="text_30">
    <!-- 26.4 -->
    <g transform="translate(113.940951 240.53375) scale(0.2 -0.2)">
     <use xlink:href="#LinLibertine-32"/>
     <use xlink:href="#LinLibertine-36" x="46.484375"/>
     <use xlink:href="#LinLibertine-2e" x="92.96875"/>
     <use xlink:href="#LinLibertine-34" x="114.941406"/>
    </g>
   </g>
   <g id="text_31">
    <!-- 22.9 -->
    <g transform="translate(109.675466 282.11375) scale(0.2 -0.2)">
     <use xlink:href="#LinLibertine-32"/>
     <use xlink:href="#LinLibertine-32" x="46.484375"/>
     <use xlink:href="#LinLibertine-2e" x="92.96875"/>
     <use xlink:href="#LinLibertine-39" x="114.941406"/>
    </g>
   </g>
   <g id="text_32">
    <!-- 14.7 -->
    <g transform="translate(99.902733 323.69375) scale(0.2 -0.2)">
     <use xlink:href="#LinLibertine-31"/>
     <use xlink:href="#LinLibertine-34" x="46.484375"/>
     <use xlink:href="#LinLibertine-2e" x="92.96875"/>
     <use xlink:href="#LinLibertine-37" x="114.941406"/>
    </g>
   </g>
   <g id="legend_1">
    <g id="patch_27">
     <path d="M 62.633125 361.6143 
L 94.633125 361.6143 
L 94.633125 350.4143 
L 62.633125 350.4143 
z
" style="fill: #ff9f9b; stroke: #ff9f9b; stroke-width: 0.5; stroke-linejoin: miter"/>
    </g>
    <g id="text_33">
     <!-- baseline -->
     <g transform="translate(107.433125 361.6143) scale(0.16 -0.16)">
      <defs>
       <path id="LinLibertine-62" d="M 1113 2322 
Q 1003 2225 1006 2053 
L 1006 453 
Q 1250 153 1466 153 
Q 1906 153 2137 508 
Q 2369 863 2369 1434 
Q 2369 1894 2161 2211 
Q 1953 2528 1656 2528 
Q 1344 2528 1113 2322 
z
M 1069 2522 
Q 1388 2809 1784 2809 
Q 2225 2809 2572 2457 
Q 2919 2106 2919 1550 
Q 2919 834 2476 385 
Q 2034 -63 1503 -63 
Q 1128 -63 941 94 
Q 888 138 852 136 
Q 816 134 766 78 
Q 744 53 711 18 
Q 678 -16 662 -30 
Q 647 -44 616 -78 
Q 525 -78 475 0 
Q 500 122 500 453 
L 500 3578 
Q 500 3784 490 3886 
Q 481 3988 411 4036 
Q 341 4084 302 4087 
Q 263 4091 91 4103 
Q 19 4175 50 4294 
Q 619 4338 947 4469 
Q 1031 4469 1031 4403 
Q 1006 4147 1006 3731 
L 1006 2553 
Q 1006 2466 1069 2522 
z
" transform="scale(0.015625)"/>
      </defs>
      <use xlink:href="#LinLibertine-62"/>
      <use xlink:href="#LinLibertine-61" x="49.267578"/>
      <use xlink:href="#LinLibertine-73" x="94.921875"/>
      <use xlink:href="#LinLibertine-65" x="133.886719"/>
      <use xlink:href="#LinLibertine-6c" x="178.564453"/>
      <use xlink:href="#LinLibertine-69" x="204.931641"/>
      <use xlink:href="#LinLibertine-6e" x="232.03125"/>
      <use xlink:href="#LinLibertine-65" x="286.230469"/>
     </g>
    </g>
    <g id="patch_28">
     <path d="M 192.378125 361.6143 
L 224.378125 361.6143 
L 224.378125 350.4143 
L 192.378125 350.4143 
z
" style="fill: #d0bbff; stroke: #d0bbff; stroke-width: 0.5; stroke-linejoin: miter"/>
    </g>
    <g id="text_34">
     <!-- both -->
     <g transform="translate(237.178125 361.6143) scale(0.16 -0.16)">
      <defs>
       <path id="LinLibertine-68" d="M 1069 1831 
L 1069 781 
Q 1069 509 1101 395 
Q 1134 281 1203 247 
Q 1272 213 1450 197 
Q 1478 169 1479 92 
Q 1481 16 1450 -13 
Q 913 0 819 0 
Q 644 0 116 -13 
Q 88 16 88 92 
Q 88 169 116 197 
Q 275 209 345 225 
Q 416 241 475 302 
Q 534 363 548 469 
Q 563 575 563 781 
L 563 3578 
Q 563 3784 553 3886 
Q 544 3988 473 4036 
Q 403 4084 364 4087 
Q 325 4091 153 4103 
Q 81 4175 116 4294 
Q 684 4338 1013 4469 
Q 1097 4469 1094 4403 
Q 1069 4147 1069 3731 
L 1063 2291 
Q 1069 2222 1125 2291 
Q 1594 2809 2216 2809 
Q 2581 2809 2747 2591 
Q 2919 2366 2919 1734 
L 2919 781 
Q 2919 403 2992 314 
Q 3066 225 3347 197 
Q 3372 172 3372 95 
Q 3372 19 3347 -13 
Q 2797 0 2669 0 
Q 2553 0 2016 -13 
Q 1991 13 1991 89 
Q 1991 166 2016 197 
Q 2278 222 2345 312 
Q 2413 403 2413 781 
L 2413 1753 
Q 2413 2094 2338 2247 
Q 2222 2478 1997 2478 
Q 1563 2478 1178 2100 
Q 1069 1981 1069 1831 
z
" transform="scale(0.015625)"/>
      </defs>
      <use xlink:href="#LinLibertine-62"/>
      <use xlink:href="#LinLibertine-6f" x="49.267578"/>
      <use xlink:href="#LinLibertine-74" x="99.658203"/>
      <use xlink:href="#LinLibertine-68" x="131.25"/>
     </g>
    </g>
    <g id="patch_29">
     <path d="M 298.780625 361.6143 
L 330.780625 361.6143 
L 330.780625 350.4143 
L 298.780625 350.4143 
z
" style="fill: #8de5a1; stroke: #8de5a1; stroke-width: 0.5; stroke-linejoin: miter"/>
    </g>
    <g id="text_35">
     <!-- under. -->
     <g transform="translate(343.580625 361.6143) scale(0.16 -0.16)">
      <defs>
       <path id="LinLibertine-75" d="M 1388 -63 
Q 947 -63 755 182 
Q 563 428 563 806 
L 563 2034 
Q 563 2334 483 2431 
Q 403 2528 166 2547 
Q 141 2572 141 2648 
Q 141 2725 166 2759 
Q 641 2747 819 2747 
Q 978 2747 1044 2759 
Q 1094 2759 1094 2719 
Q 1069 2250 1069 2059 
L 1069 897 
Q 1069 519 1225 378 
Q 1381 238 1581 238 
Q 1869 238 2222 544 
Q 2325 634 2322 794 
L 2322 2028 
Q 2322 2334 2245 2434 
Q 2169 2534 1925 2547 
Q 1894 2572 1894 2648 
Q 1894 2725 1925 2759 
Q 2400 2747 2578 2747 
Q 2738 2747 2803 2759 
Q 2853 2759 2853 2719 
Q 2828 2250 2828 2059 
L 2828 831 
Q 2828 581 2915 486 
Q 3003 391 3297 366 
Q 3328 334 3328 276 
Q 3328 219 3297 191 
Q 2759 128 2522 -63 
Q 2450 -81 2400 -63 
Q 2328 169 2328 313 
Q 2328 384 2253 319 
Q 1784 -63 1388 -63 
z
" transform="scale(0.015625)"/>
      </defs>
      <use xlink:href="#LinLibertine-75"/>
      <use xlink:href="#LinLibertine-6e" x="53.076172"/>
      <use xlink:href="#LinLibertine-64" x="107.275391"/>
      <use xlink:href="#LinLibertine-65" x="157.861328"/>
      <use xlink:href="#LinLibertine-72" x="202.539062"/>
      <use xlink:href="#LinLibertine-2e" x="239.697266"/>
     </g>
    </g>
   </g>
  </g>
 </g>
 <defs>
  <clipPath id="p9741a20a83">
   <rect x="98.490625" y="7.2" width="251.1" height="332.64"/>
  </clipPath>
 </defs>
</svg>
