<?xml version="1.0" encoding="utf-8" standalone="no"?>
<!DOCTYPE svg PUBLIC "-//W3C//DTD SVG 1.1//EN"
  "http://www.w3.org/Graphics/SVG/1.1/DTD/svg11.dtd">
<svg xmlns:xlink="http://www.w3.org/1999/xlink" width="457.92pt" height="457.92pt" viewBox="0 0 457.92 457.92" xmlns="http://www.w3.org/2000/svg" version="1.1">
 <metadata>
  <rdf:RDF xmlns:dc="http://purl.org/dc/elements/1.1/" xmlns:cc="http://creativecommons.org/ns#" xmlns:rdf="http://www.w3.org/1999/02/22-rdf-syntax-ns#">
   <cc:Work>
    <dc:type rdf:resource="http://purl.org/dc/dcmitype/StillImage"/>
    <dc:date>2024-06-06T15:33:17.340326</dc:date>
    <dc:format>image/svg+xml</dc:format>
    <dc:creator>
     <cc:Agent>
      <dc:title>Matplotlib v3.8.4, https://matplotlib.org/</dc:title>
     </cc:Agent>
    </dc:creator>
   </cc:Work>
  </rdf:RDF>
 </metadata>
 <defs>
  <style type="text/css">*{stroke-linejoin: round; stroke-linecap: butt}</style>
 </defs>
 <g id="figure_1">
  <g id="patch_1">
   <path d="M 0 457.92 
L 457.92 457.92 
L 457.92 0 
L 0 0 
z
" style="fill: #ffffff"/>
  </g>
  <g id="axes_1">
   <g id="patch_2">
    <path d="M 228.96 7.2 
L 72.152 72.152 
L 7.2 228.96 
L 72.152 385.768 
L 228.96 450.72 
L 385.768 385.768 
L 450.72 228.96 
L 385.768 72.152 
z
" style="fill: #ffffff"/>
   </g>
   <g id="patch_3">
    <path d="M 228.96 137.134803 
L 197.365216 197.365216 
L 138.297627 228.96 
L 181.07412 276.84588 
L 228.96 343.854844 
L 323.485156 323.485156 
L 402.243563 228.96 
L 297.911236 160.008764 
z
" clip-path="url(#p866652cbc2)" style="fill: #ffb482; opacity: 0.3; stroke: #ffb482; stroke-linejoin: miter"/>
   </g>
   <g id="patch_4">
    <path d="M 228.96 146.657386 
L 176.239703 176.239703 
L 122.078356 228.96 
L 150.927402 306.992598 
L 228.96 360.677522 
L 332.771393 332.771393 
L 442.287703 228.96 
L 296.183407 161.736593 
z
" clip-path="url(#p866652cbc2)" style="fill: #ffffff; stroke: #ffffff; stroke-linejoin: miter"/>
   </g>
   <g id="patch_5">
    <path d="M 228.96 146.657386 
L 176.239703 176.239703 
L 122.078356 228.96 
L 150.927402 306.992598 
L 228.96 360.677522 
L 332.771393 332.771393 
L 442.287703 228.96 
L 296.183407 161.736593 
z
" clip-path="url(#p866652cbc2)" style="fill: #a1c9f4; opacity: 0.3; stroke: #a1c9f4; stroke-linejoin: miter"/>
   </g>
   <g id="matplotlib.axis_1">
    <g id="xtick_1">
     <g id="line2d_1">
      <path d="M 228.96 228.96 
L 228.96 201.24 
L 228.96 173.52 
L 228.96 145.8 
L 228.96 118.08 
L 228.96 90.36 
L 228.96 62.64 
L 228.96 34.92 
L 228.96 7.2 
" clip-path="url(#p866652cbc2)" style="fill: none; stroke: #b0b0b0; stroke-width: 0.8; stroke-linecap: square"/>
     </g>
    </g>
    <g id="xtick_2">
     <g id="line2d_2">
      <path d="M 228.96 228.96 
L 209.359 209.359 
L 189.758 189.758 
L 170.157 170.157 
L 150.556 150.556 
L 130.955 130.955 
L 111.354 111.354 
L 91.753 91.753 
L 72.152 72.152 
" clip-path="url(#p866652cbc2)" style="fill: none; stroke: #b0b0b0; stroke-width: 0.8; stroke-linecap: square"/>
     </g>
    </g>
    <g id="xtick_3">
     <g id="line2d_3">
      <path d="M 228.96 228.96 
L 201.24 228.96 
L 173.52 228.96 
L 145.8 228.96 
L 118.08 228.96 
L 90.36 228.96 
L 62.64 228.96 
L 34.92 228.96 
L 7.2 228.96 
" clip-path="url(#p866652cbc2)" style="fill: none; stroke: #b0b0b0; stroke-width: 0.8; stroke-linecap: square"/>
     </g>
    </g>
    <g id="xtick_4">
     <g id="line2d_4">
      <path d="M 228.96 228.96 
L 209.359 248.561 
L 189.758 268.162 
L 170.157 287.763 
L 150.556 307.364 
L 130.955 326.965 
L 111.354 346.566 
L 91.753 366.167 
L 72.152 385.768 
" clip-path="url(#p866652cbc2)" style="fill: none; stroke: #b0b0b0; stroke-width: 0.8; stroke-linecap: square"/>
     </g>
    </g>
    <g id="xtick_5">
     <g id="line2d_5">
      <path d="M 228.96 228.96 
L 228.96 256.68 
L 228.96 284.4 
L 228.96 312.12 
L 228.96 339.84 
L 228.96 367.56 
L 228.96 395.28 
L 228.96 423 
L 228.96 450.72 
" clip-path="url(#p866652cbc2)" style="fill: none; stroke: #b0b0b0; stroke-width: 0.8; stroke-linecap: square"/>
     </g>
    </g>
    <g id="xtick_6">
     <g id="line2d_6">
      <path d="M 228.96 228.96 
L 248.561 248.561 
L 268.162 268.162 
L 287.763 287.763 
L 307.364 307.364 
L 326.965 326.965 
L 346.566 346.566 
L 366.167 366.167 
L 385.768 385.768 
" clip-path="url(#p866652cbc2)" style="fill: none; stroke: #b0b0b0; stroke-width: 0.8; stroke-linecap: square"/>
     </g>
    </g>
    <g id="xtick_7">
     <g id="line2d_7">
      <path d="M 228.96 228.96 
L 256.68 228.96 
L 284.4 228.96 
L 312.12 228.96 
L 339.84 228.96 
L 367.56 228.96 
L 395.28 228.96 
L 423 228.96 
L 450.72 228.96 
" clip-path="url(#p866652cbc2)" style="fill: none; stroke: #b0b0b0; stroke-width: 0.8; stroke-linecap: square"/>
     </g>
    </g>
    <g id="xtick_8">
     <g id="line2d_8">
      <path d="M 228.96 228.96 
L 248.561 209.359 
L 268.162 189.758 
L 287.763 170.157 
L 307.364 150.556 
L 326.965 130.955 
L 346.566 111.354 
L 366.167 91.753 
L 385.768 72.152 
" clip-path="url(#p866652cbc2)" style="fill: none; stroke: #b0b0b0; stroke-width: 0.8; stroke-linecap: square"/>
     </g>
    </g>
   </g>
   <g id="matplotlib.axis_2">
    <g id="ytick_1">
     <g id="line2d_9">
      <path d="M 228.96 181.30702 
L 195.264255 195.264255 
L 181.30702 228.96 
L 195.264255 262.655745 
L 228.96 276.61298 
L 262.655745 262.655745 
L 276.61298 228.96 
L 262.655745 195.264255 
L 228.96 181.30702 
" clip-path="url(#p866652cbc2)" style="fill: none; stroke: #b0b0b0; stroke-width: 0.8; stroke-linecap: square"/>
     </g>
     <g id="text_1">
      <!-- 0.1 -->
      <g style="fill: #959595" transform="translate(210.723994 181.511887) scale(0.16 -0.16)">
       <defs>
        <path id="TimesNewRomanPSMT-30" d="M 231 2094 
Q 231 2819 450 3342 
Q 669 3866 1031 4122 
Q 1313 4325 1613 4325 
Q 2100 4325 2488 3828 
Q 2972 3213 2972 2159 
Q 2972 1422 2759 906 
Q 2547 391 2217 158 
Q 1888 -75 1581 -75 
Q 975 -75 572 641 
Q 231 1244 231 2094 
z
M 844 2016 
Q 844 1141 1059 588 
Q 1238 122 1591 122 
Q 1759 122 1940 273 
Q 2122 425 2216 781 
Q 2359 1319 2359 2297 
Q 2359 3022 2209 3506 
Q 2097 3866 1919 4016 
Q 1791 4119 1609 4119 
Q 1397 4119 1231 3928 
Q 1006 3669 925 3112 
Q 844 2556 844 2016 
z
" transform="scale(0.015625)"/>
        <path id="TimesNewRomanPSMT-2e" d="M 800 606 
Q 947 606 1047 504 
Q 1147 403 1147 259 
Q 1147 116 1045 14 
Q 944 -88 800 -88 
Q 656 -88 554 14 
Q 453 116 453 259 
Q 453 406 554 506 
Q 656 606 800 606 
z
" transform="scale(0.015625)"/>
        <path id="TimesNewRomanPSMT-31" d="M 750 3822 
L 1781 4325 
L 1884 4325 
L 1884 747 
Q 1884 391 1914 303 
Q 1944 216 2037 169 
Q 2131 122 2419 116 
L 2419 0 
L 825 0 
L 825 116 
Q 1125 122 1212 167 
Q 1300 213 1334 289 
Q 1369 366 1369 747 
L 1369 3034 
Q 1369 3497 1338 3628 
Q 1316 3728 1258 3775 
Q 1200 3822 1119 3822 
Q 1003 3822 797 3725 
L 750 3822 
z
" transform="scale(0.015625)"/>
       </defs>
       <use xlink:href="#TimesNewRomanPSMT-30"/>
       <use xlink:href="#TimesNewRomanPSMT-2e" x="50"/>
       <use xlink:href="#TimesNewRomanPSMT-31" x="75"/>
      </g>
     </g>
    </g>
    <g id="ytick_2">
     <g id="line2d_10">
      <path d="M 228.96 133.65404 
L 161.568509 161.568509 
L 133.65404 228.96 
L 161.568509 296.351491 
L 228.96 324.26596 
L 296.351491 296.351491 
L 324.26596 228.96 
L 296.351491 161.568509 
L 228.96 133.65404 
" clip-path="url(#p866652cbc2)" style="fill: none; stroke: #b0b0b0; stroke-width: 0.8; stroke-linecap: square"/>
     </g>
     <g id="text_2">
      <!-- 0.2 -->
      <g style="fill: #959595" transform="translate(192.487988 137.486274) scale(0.16 -0.16)">
       <defs>
        <path id="TimesNewRomanPSMT-32" d="M 2934 816 
L 2638 0 
L 138 0 
L 138 116 
Q 1241 1122 1691 1759 
Q 2141 2397 2141 2925 
Q 2141 3328 1894 3587 
Q 1647 3847 1303 3847 
Q 991 3847 742 3664 
Q 494 3481 375 3128 
L 259 3128 
Q 338 3706 661 4015 
Q 984 4325 1469 4325 
Q 1984 4325 2329 3994 
Q 2675 3663 2675 3213 
Q 2675 2891 2525 2569 
Q 2294 2063 1775 1497 
Q 997 647 803 472 
L 1909 472 
Q 2247 472 2383 497 
Q 2519 522 2628 598 
Q 2738 675 2819 816 
L 2934 816 
z
" transform="scale(0.015625)"/>
       </defs>
       <use xlink:href="#TimesNewRomanPSMT-30"/>
       <use xlink:href="#TimesNewRomanPSMT-2e" x="50"/>
       <use xlink:href="#TimesNewRomanPSMT-32" x="75"/>
      </g>
     </g>
    </g>
    <g id="ytick_3">
     <g id="line2d_11">
      <path d="M 228.96 86.00106 
L 127.872764 127.872764 
L 86.00106 228.96 
L 127.872764 330.047236 
L 228.96 371.91894 
L 330.047236 330.047236 
L 371.91894 228.96 
L 330.047236 127.872764 
L 228.96 86.00106 
" clip-path="url(#p866652cbc2)" style="fill: none; stroke: #b0b0b0; stroke-width: 0.8; stroke-linecap: square"/>
     </g>
     <g id="text_3">
      <!-- 0.3 -->
      <g style="fill: #959595" transform="translate(174.251982 93.460662) scale(0.16 -0.16)">
       <defs>
        <path id="TimesNewRomanPSMT-33" d="M 325 3431 
Q 506 3859 782 4092 
Q 1059 4325 1472 4325 
Q 1981 4325 2253 3994 
Q 2459 3747 2459 3466 
Q 2459 3003 1878 2509 
Q 2269 2356 2469 2072 
Q 2669 1788 2669 1403 
Q 2669 853 2319 450 
Q 1863 -75 997 -75 
Q 569 -75 414 31 
Q 259 138 259 259 
Q 259 350 332 419 
Q 406 488 509 488 
Q 588 488 669 463 
Q 722 447 909 348 
Q 1097 250 1169 231 
Q 1284 197 1416 197 
Q 1734 197 1970 444 
Q 2206 691 2206 1028 
Q 2206 1275 2097 1509 
Q 2016 1684 1919 1775 
Q 1784 1900 1550 2001 
Q 1316 2103 1072 2103 
L 972 2103 
L 972 2197 
Q 1219 2228 1467 2375 
Q 1716 2522 1828 2728 
Q 1941 2934 1941 3181 
Q 1941 3503 1739 3701 
Q 1538 3900 1238 3900 
Q 753 3900 428 3381 
L 325 3431 
z
" transform="scale(0.015625)"/>
       </defs>
       <use xlink:href="#TimesNewRomanPSMT-30"/>
       <use xlink:href="#TimesNewRomanPSMT-2e" x="50"/>
       <use xlink:href="#TimesNewRomanPSMT-33" x="75"/>
      </g>
     </g>
    </g>
    <g id="ytick_4">
     <g id="line2d_12">
      <path d="M 228.96 38.34808 
L 94.177019 94.177019 
L 38.34808 228.96 
L 94.177019 363.742981 
L 228.96 419.57192 
L 363.742981 363.742981 
L 419.57192 228.96 
L 363.742981 94.177019 
L 228.96 38.34808 
" clip-path="url(#p866652cbc2)" style="fill: none; stroke: #b0b0b0; stroke-width: 0.8; stroke-linecap: square"/>
     </g>
     <g id="text_4">
      <!-- 0.4 -->
      <g style="fill: #959595" transform="translate(156.015976 49.435049) scale(0.16 -0.16)">
       <defs>
        <path id="TimesNewRomanPSMT-34" d="M 2978 1563 
L 2978 1119 
L 2409 1119 
L 2409 0 
L 1894 0 
L 1894 1119 
L 100 1119 
L 100 1519 
L 2066 4325 
L 2409 4325 
L 2409 1563 
L 2978 1563 
z
M 1894 1563 
L 1894 3666 
L 406 1563 
L 1894 1563 
z
" transform="scale(0.015625)"/>
       </defs>
       <use xlink:href="#TimesNewRomanPSMT-30"/>
       <use xlink:href="#TimesNewRomanPSMT-2e" x="50"/>
       <use xlink:href="#TimesNewRomanPSMT-34" x="75"/>
      </g>
     </g>
    </g>
   </g>
   <g id="line2d_13">
    <path d="M 228.96 137.134803 
L 197.365216 197.365216 
L 138.297627 228.96 
L 181.07412 276.84588 
L 228.96 343.854844 
L 323.485156 323.485156 
L 402.243563 228.96 
L 297.911236 160.008764 
L 228.96 137.134803 
" clip-path="url(#p866652cbc2)" style="fill: none; stroke: #ffb482; stroke-width: 3; stroke-linecap: square"/>
   </g>
   <g id="line2d_14">
    <path d="M 228.96 146.657386 
L 176.239703 176.239703 
L 122.078356 228.96 
L 150.927402 306.992598 
L 228.96 360.677522 
L 332.771393 332.771393 
L 442.287703 228.96 
L 296.183407 161.736593 
L 228.96 146.657386 
" clip-path="url(#p866652cbc2)" style="fill: none; stroke: #a1c9f4; stroke-width: 3; stroke-linecap: square"/>
   </g>
   <g id="patch_6">
    <path d="M 228.96 7.2 
L 72.152 72.152 
L 7.2 228.96 
L 72.152 385.768 
L 228.96 450.72 
L 385.768 385.768 
L 450.72 228.96 
L 385.768 72.152 
L 228.96 7.2 
z
" style="fill: none; stroke: #000000; stroke-width: 0.8; stroke-linejoin: miter; stroke-linecap: square"/>
   </g>
  </g>
 </g>
 <defs>
  <clipPath id="p866652cbc2">
   <path d="M 228.96 7.2 
L 72.152 72.152 
L 7.2 228.96 
L 72.152 385.768 
L 228.96 450.72 
L 385.768 385.768 
L 450.72 228.96 
L 385.768 72.152 
z
"/>
  </clipPath>
 </defs>
</svg>
