<?xml version="1.0" encoding="utf-8" standalone="no"?>
<!DOCTYPE svg PUBLIC "-//W3C//DTD SVG 1.1//EN"
  "http://www.w3.org/Graphics/SVG/1.1/DTD/svg11.dtd">
<svg xmlns:xlink="http://www.w3.org/1999/xlink" width="208.685pt" height="244.595pt" viewBox="0 0 208.685 244.595" xmlns="http://www.w3.org/2000/svg" version="1.1">
 <metadata>
  <rdf:RDF xmlns:dc="http://purl.org/dc/elements/1.1/" xmlns:cc="http://creativecommons.org/ns#" xmlns:rdf="http://www.w3.org/1999/02/22-rdf-syntax-ns#">
   <cc:Work>
    <dc:type rdf:resource="http://purl.org/dc/dcmitype/StillImage"/>
    <dc:date>2024-06-08T15:02:39.877410</dc:date>
    <dc:format>image/svg+xml</dc:format>
    <dc:creator>
     <cc:Agent>
      <dc:title>Matplotlib v3.8.4, https://matplotlib.org/</dc:title>
     </cc:Agent>
    </dc:creator>
   </cc:Work>
  </rdf:RDF>
 </metadata>
 <defs>
  <style type="text/css">*{stroke-linejoin: round; stroke-linecap: butt}</style>
 </defs>
 <g id="figure_1">
  <g id="patch_1">
   <path d="M 0 244.595 
L 208.685 244.595 
L 208.685 0 
L 0 0 
z
" style="fill: #ffffff"/>
  </g>
  <g id="axes_1">
   <g id="patch_2">
    <path d="M 67.005 215.48 
L 201.485 215.48 
L 201.485 7.2 
L 67.005 7.2 
z
" style="fill: #ffffff"/>
   </g>
   <g id="matplotlib.axis_1">
    <g id="xtick_1">
     <g id="line2d_1">
      <defs>
       <path id="m3c5b45acc0" d="M 0 0 
L 0 3.5 
" style="stroke: #000000; stroke-width: 0.8"/>
      </defs>
      <g>
       <use xlink:href="#m3c5b45acc0" x="84.718801" y="215.48" style="stroke: #000000; stroke-width: 0.8"/>
      </g>
     </g>
     <g id="text_1">
      <!-- 1.0 -->
      <g transform="translate(75.523801 233.6525) scale(0.16 -0.16)">
       <defs>
        <path id="LinLibertine-31" d="M 1844 781 
Q 1844 397 1942 305 
Q 2041 213 2400 197 
Q 2431 166 2431 89 
Q 2431 13 2400 -13 
Q 1759 0 1619 0 
Q 1356 0 728 -13 
Q 703 13 703 89 
Q 703 166 728 197 
Q 1100 209 1225 309 
Q 1350 409 1350 781 
L 1350 2869 
Q 1350 3241 1222 3238 
Q 1050 3238 666 3078 
Q 588 3128 569 3250 
Q 1466 3666 1825 3891 
Q 1863 3891 1863 3859 
Q 1844 3713 1844 3003 
L 1844 781 
z
" transform="scale(0.015625)"/>
        <path id="LinLibertine-2e" d="M 464 35 
Q 366 134 366 275 
Q 366 416 464 516 
Q 563 616 703 616 
Q 844 616 944 516 
Q 1044 416 1044 275 
Q 1044 134 944 35 
Q 844 -63 703 -63 
Q 563 -63 464 35 
z
" transform="scale(0.015625)"/>
        <path id="LinLibertine-30" d="M 1484 3681 
Q 1363 3681 1255 3603 
Q 1147 3525 1040 3340 
Q 934 3156 870 2762 
Q 806 2369 806 1813 
Q 806 163 1466 159 
Q 1522 159 1586 178 
Q 1650 197 1737 251 
Q 1825 306 1904 431 
Q 1984 556 2034 744 
Q 2144 1141 2144 2059 
Q 2144 3256 1772 3572 
Q 1650 3681 1484 3681 
z
M 1459 -63 
Q 1078 -63 809 206 
Q 547 466 398 916 
Q 250 1366 250 1881 
Q 250 2791 617 3347 
Q 984 3903 1484 3903 
Q 1953 3903 2266 3488 
Q 2700 2913 2700 1941 
Q 2700 1409 2578 998 
Q 2456 588 2262 367 
Q 2069 147 1862 42 
Q 1656 -63 1459 -63 
z
" transform="scale(0.015625)"/>
       </defs>
       <use xlink:href="#LinLibertine-31"/>
       <use xlink:href="#LinLibertine-2e" x="46.484375"/>
       <use xlink:href="#LinLibertine-30" x="68.457031"/>
      </g>
     </g>
    </g>
    <g id="xtick_2">
     <g id="line2d_2">
      <g>
       <use xlink:href="#m3c5b45acc0" x="127.028649" y="215.48" style="stroke: #000000; stroke-width: 0.8"/>
      </g>
     </g>
     <g id="text_2">
      <!-- 1.2 -->
      <g transform="translate(117.833649 233.6525) scale(0.16 -0.16)">
       <defs>
        <path id="LinLibertine-32" d="M 391 2994 
Q 391 3313 717 3608 
Q 1044 3903 1544 3903 
Q 1978 3903 2301 3658 
Q 2625 3413 2625 2931 
Q 2625 2700 2528 2495 
Q 2431 2291 2320 2159 
Q 2209 2028 1984 1813 
L 1338 1191 
Q 863 716 863 416 
L 2003 416 
Q 2175 416 2272 550 
Q 2369 684 2450 1031 
Q 2572 1056 2638 997 
Q 2625 550 2484 -13 
Q 2191 0 1984 0 
L 863 0 
L 331 -13 
Q 331 294 476 578 
Q 622 863 1063 1313 
L 1538 1778 
Q 2063 2309 2059 2906 
Q 2059 3322 1890 3501 
Q 1722 3681 1503 3681 
Q 1184 3681 1028 3559 
Q 872 3438 872 3291 
Q 872 3259 897 3201 
Q 922 3144 922 3138 
Q 947 3047 947 3003 
Q 947 2906 842 2826 
Q 738 2747 647 2747 
Q 544 2747 467 2819 
Q 391 2891 391 2994 
z
" transform="scale(0.015625)"/>
       </defs>
       <use xlink:href="#LinLibertine-31"/>
       <use xlink:href="#LinLibertine-2e" x="46.484375"/>
       <use xlink:href="#LinLibertine-32" x="68.457031"/>
      </g>
     </g>
    </g>
    <g id="xtick_3">
     <g id="line2d_3">
      <g>
       <use xlink:href="#m3c5b45acc0" x="169.338497" y="215.48" style="stroke: #000000; stroke-width: 0.8"/>
      </g>
     </g>
     <g id="text_3">
      <!-- 1.4 -->
      <g transform="translate(160.143497 233.6525) scale(0.16 -0.16)">
       <defs>
        <path id="LinLibertine-34" d="M 1734 3244 
Q 1247 2578 513 1403 
L 1734 1403 
L 1734 3244 
z
M 2753 1403 
Q 2850 1403 2847 1300 
Q 2847 1244 2786 1172 
Q 2725 1100 2663 1100 
L 2222 1100 
L 2222 513 
Q 2222 409 2237 348 
Q 2253 288 2320 259 
Q 2388 231 2425 225 
Q 2463 219 2603 203 
Q 2647 197 2669 197 
Q 2700 166 2700 89 
Q 2700 13 2669 -13 
Q 2259 0 1972 0 
Q 1625 0 1216 -13 
Q 1191 13 1191 89 
Q 1191 166 1216 197 
Q 1559 222 1644 291 
Q 1734 363 1734 513 
L 1734 1100 
L 428 1100 
Q 231 1100 178 1369 
Q 1169 2925 1913 3834 
Q 1969 3906 2016 3903 
L 2222 3903 
L 2234 3891 
Q 2222 3834 2222 3272 
L 2222 1403 
L 2753 1403 
z
" transform="scale(0.015625)"/>
       </defs>
       <use xlink:href="#LinLibertine-31"/>
       <use xlink:href="#LinLibertine-2e" x="46.484375"/>
       <use xlink:href="#LinLibertine-34" x="68.457031"/>
      </g>
     </g>
    </g>
   </g>
   <g id="matplotlib.axis_2">
    <g id="ytick_1">
     <g id="line2d_4">
      <defs>
       <path id="mc663979f35" d="M 0 0 
L -3.5 0 
" style="stroke: #000000; stroke-width: 0.8"/>
      </defs>
      <g>
       <use xlink:href="#mc663979f35" x="67.005" y="18.771111" style="stroke: #000000; stroke-width: 0.8"/>
      </g>
     </g>
     <g id="text_4">
      <!-- II -->
      <g transform="translate(48.27 24.357361) scale(0.16 -0.16)">
       <defs>
        <path id="LinLibertineB-49" d="M 728 3347 
Q 728 3538 700 3656 
Q 672 3775 592 3829 
Q 513 3884 436 3900 
Q 359 3916 197 3922 
Q 153 3953 153 4034 
Q 153 4116 197 4141 
Q 709 4128 1184 4128 
Q 1644 4128 2156 4141 
Q 2200 4116 2201 4036 
Q 2203 3956 2156 3922 
Q 1997 3916 1920 3900 
Q 1844 3884 1764 3829 
Q 1684 3775 1654 3658 
Q 1625 3541 1625 3347 
L 1625 781 
Q 1625 591 1654 472 
Q 1684 353 1764 298 
Q 1844 244 1920 228 
Q 1997 213 2156 206 
Q 2200 175 2201 97 
Q 2203 19 2156 -13 
Q 1644 0 1184 0 
Q 709 0 197 -13 
Q 153 19 153 98 
Q 153 178 197 206 
Q 356 213 434 228 
Q 513 244 592 298 
Q 672 353 700 470 
Q 728 588 728 781 
L 728 3347 
z
" transform="scale(0.015625)"/>
       </defs>
       <use xlink:href="#LinLibertineB-49"/>
       <use xlink:href="#LinLibertineB-49" x="36.669922"/>
      </g>
     </g>
    </g>
    <g id="ytick_2">
     <g id="line2d_5">
      <g>
       <use xlink:href="#mc663979f35" x="67.005" y="41.913333" style="stroke: #000000; stroke-width: 0.8"/>
      </g>
     </g>
     <g id="text_5">
      <!-- TE -->
      <g transform="translate(39.9175 47.499583) scale(0.16 -0.16)">
       <defs>
        <path id="LinLibertineB-54" d="M 2591 788 
Q 2591 403 2700 311 
Q 2809 219 3213 206 
Q 3238 181 3238 97 
Q 3238 13 3213 -13 
Q 2572 0 2131 0 
Q 1703 0 1075 -13 
Q 1050 13 1050 95 
Q 1050 178 1075 206 
Q 1478 219 1587 311 
Q 1697 403 1697 788 
L 1697 3238 
Q 1697 3550 1630 3711 
Q 1563 3872 1394 3872 
L 1081 3872 
Q 756 3872 561 3719 
Q 366 3566 269 3194 
Q 103 3194 19 3225 
Q 147 3775 178 4159 
Q 178 4178 206 4178 
Q 853 4128 1697 4128 
L 2597 4128 
Q 3447 4128 4031 4178 
Q 4050 4178 4050 4159 
Q 4056 3731 4134 3244 
Q 4063 3213 3884 3213 
Q 3806 3572 3601 3722 
Q 3397 3872 3028 3872 
L 2888 3872 
Q 2722 3872 2656 3709 
Q 2591 3547 2591 3219 
L 2591 788 
z
" transform="scale(0.015625)"/>
        <path id="LinLibertineB-45" d="M 2034 2338 
Q 2366 2338 2486 2414 
Q 2606 2491 2619 2747 
Q 2650 2778 2759 2778 
Q 2869 2778 2894 2747 
Q 2881 2363 2881 2194 
Q 2881 2078 2894 1631 
Q 2869 1600 2759 1600 
Q 2650 1600 2619 1631 
Q 2606 1856 2481 1948 
Q 2356 2041 2034 2041 
L 1516 2041 
L 1516 575 
Q 1516 447 1594 358 
Q 1672 269 1778 269 
L 2425 269 
Q 3097 269 3328 1088 
Q 3488 1125 3616 1056 
Q 3603 959 3575 726 
Q 3547 494 3514 311 
Q 3481 128 3444 -13 
Q 2869 0 2559 0 
L 1056 0 
Q 378 -6 63 -13 
Q 38 13 38 95 
Q 38 178 63 206 
Q 422 219 522 311 
Q 622 403 622 781 
L 622 3341 
Q 622 3725 522 3817 
Q 422 3909 63 3922 
Q 38 3953 38 4031 
Q 38 4109 63 4141 
L 1050 4128 
L 2938 4128 
Q 3103 4128 3250 4153 
Q 3275 4153 3278 4134 
Q 3284 4116 3296 3939 
Q 3309 3763 3325 3539 
Q 3341 3316 3353 3206 
Q 3238 3150 3078 3175 
Q 2963 3547 2809 3703 
Q 2656 3859 2322 3859 
L 1778 3859 
Q 1669 3859 1592 3764 
Q 1516 3669 1516 3547 
L 1516 2338 
L 2034 2338 
z
" transform="scale(0.015625)"/>
       </defs>
       <use xlink:href="#LinLibertineB-54"/>
       <use xlink:href="#LinLibertineB-45" x="65.185547"/>
      </g>
     </g>
    </g>
    <g id="ytick_3">
     <g id="line2d_6">
      <g>
       <use xlink:href="#mc663979f35" x="67.005" y="65.055556" style="stroke: #000000; stroke-width: 0.8"/>
      </g>
     </g>
     <g id="text_6">
      <!-- EC -->
      <g transform="translate(39.0575 70.641806) scale(0.16 -0.16)">
       <defs>
        <path id="LinLibertineB-43" d="M 4166 800 
Q 3506 -63 2540 -63 
Q 1575 -63 1013 341 
Q 641 603 439 1070 
Q 238 1538 238 2016 
Q 238 3034 900 3623 
Q 1563 4213 2547 4213 
Q 3006 4213 3445 4070 
Q 3884 3928 3950 3922 
Q 4059 3250 4091 2931 
Q 3950 2853 3816 2900 
Q 3669 3394 3373 3669 
Q 3078 3944 2478 3944 
Q 1916 3944 1559 3422 
Q 1203 2900 1203 2138 
Q 1203 1381 1593 825 
Q 1984 269 2534 269 
Q 3347 269 3956 934 
Q 4006 934 4073 889 
Q 4141 844 4166 800 
z
" transform="scale(0.015625)"/>
       </defs>
       <use xlink:href="#LinLibertineB-45"/>
       <use xlink:href="#LinLibertineB-43" x="60.351562"/>
      </g>
     </g>
    </g>
    <g id="ytick_4">
     <g id="line2d_7">
      <g>
       <use xlink:href="#mc663979f35" x="67.005" y="88.197778" style="stroke: #000000; stroke-width: 0.8"/>
      </g>
     </g>
     <g id="text_7">
      <!-- NOGV -->
      <g transform="translate(13.2175 93.784028) scale(0.16 -0.16)">
       <defs>
        <path id="LinLibertineB-4e" d="M 4038 0 
Q 3878 -78 3634 -78 
Q 3503 44 3378 206 
L 1234 2753 
Q 1128 2881 1081 2881 
Q 1031 2881 1031 2753 
L 1031 850 
Q 1031 556 1086 428 
Q 1141 300 1236 265 
Q 1331 231 1588 206 
Q 1613 181 1613 97 
Q 1613 13 1588 -13 
Q 947 0 872 0 
Q 781 0 153 -13 
Q 128 13 128 95 
Q 128 178 153 206 
Q 409 231 506 268 
Q 603 306 656 434 
Q 709 563 709 850 
L 709 3519 
Q 678 3659 537 3784 
Q 397 3909 206 3922 
Q 181 3953 179 4031 
Q 178 4109 206 4141 
L 1247 4128 
L 1819 3456 
L 3516 1456 
Q 3588 1372 3633 1369 
Q 3678 1366 3688 1478 
L 3688 3278 
Q 3688 3572 3633 3700 
Q 3578 3828 3481 3862 
Q 3384 3897 3128 3922 
Q 3097 3953 3097 4031 
Q 3097 4109 3128 4141 
Q 3769 4128 3872 4128 
Q 3934 4128 4563 4141 
Q 4594 4109 4594 4032 
Q 4594 3956 4563 3922 
Q 4306 3897 4211 3859 
Q 4116 3822 4061 3694 
Q 4006 3566 4006 3278 
L 4006 653 
L 4038 0 
z
" transform="scale(0.015625)"/>
        <path id="LinLibertineB-4f" d="M 2247 3944 
Q 1788 3944 1495 3489 
Q 1203 3034 1203 2106 
Q 1203 1228 1558 717 
Q 1913 206 2456 206 
Q 2938 206 3206 686 
Q 3475 1166 3475 1972 
Q 3475 2913 3129 3428 
Q 2784 3944 2247 3944 
z
M 4441 2106 
Q 4441 1166 3891 569 
Q 3303 -66 2328 -63 
Q 1478 -63 858 500 
Q 238 1063 238 1978 
Q 238 2878 756 3494 
Q 1041 3831 1445 4022 
Q 1850 4213 2322 4213 
Q 3219 4213 3830 3627 
Q 4441 3041 4441 2106 
z
" transform="scale(0.015625)"/>
        <path id="LinLibertineB-47" d="M 2606 4213 
Q 3047 4213 3548 4100 
Q 4050 3988 4191 3988 
Q 4263 3272 4331 2938 
L 4050 2900 
Q 3909 3359 3536 3651 
Q 3163 3944 2516 3944 
Q 1906 3944 1544 3469 
Q 1172 2981 1172 2094 
Q 1172 1753 1258 1436 
Q 1344 1119 1517 834 
Q 1691 550 2000 378 
Q 2309 206 2719 206 
Q 2981 206 3154 262 
Q 3328 319 3488 475 
L 3488 1428 
Q 3488 1606 3375 1657 
Q 3263 1709 2963 1734 
Q 2931 1766 2931 1856 
Q 2931 1947 2963 1972 
Q 3566 1959 3916 1959 
Q 4294 1959 4678 1972 
Q 4709 1947 4709 1856 
Q 4709 1766 4678 1734 
Q 4531 1722 4457 1655 
Q 4384 1588 4384 1428 
L 4384 678 
Q 4384 581 4488 500 
Q 4169 238 3653 87 
Q 3138 -63 2572 -63 
Q 1509 -63 909 422 
Q 569 697 387 1109 
Q 206 1522 206 1966 
Q 206 3022 909 3619 
Q 1603 4213 2606 4213 
z
" transform="scale(0.015625)"/>
        <path id="LinLibertineB-56" d="M 3803 3475 
Q 3913 3738 4052 3820 
Q 4191 3903 4441 3922 
Q 4466 3953 4467 4031 
Q 4469 4109 4441 4141 
Q 3966 4128 3841 4128 
Q 3463 4128 2988 4141 
Q 2956 4109 2956 4032 
Q 2956 3956 2988 3922 
Q 3141 3909 3237 3890 
Q 3334 3872 3404 3805 
Q 3475 3738 3431 3622 
L 2547 1344 
L 2441 1094 
L 2344 1381 
L 1550 3669 
Q 1525 3747 1547 3794 
Q 1569 3841 1648 3866 
Q 1728 3891 1808 3903 
Q 1888 3916 2022 3922 
Q 2047 3953 2047 4031 
Q 2047 4109 2022 4141 
Q 1547 4128 897 4128 
Q 513 4128 38 4141 
Q 13 4109 13 4032 
Q 13 3956 38 3922 
Q 197 3903 278 3887 
Q 359 3872 457 3795 
Q 556 3719 616 3578 
L 2009 72 
Q 2066 -75 2222 -78 
Q 2381 -78 2438 72 
L 3803 3475 
z
" transform="scale(0.015625)"/>
       </defs>
       <use xlink:href="#LinLibertineB-4e"/>
       <use xlink:href="#LinLibertineB-4f" x="73.974609"/>
       <use xlink:href="#LinLibertineB-47" x="146.972656"/>
       <use xlink:href="#LinLibertineB-56" x="222.460938"/>
      </g>
     </g>
    </g>
    <g id="ytick_5">
     <g id="line2d_8">
      <g>
       <use xlink:href="#mc663979f35" x="67.005" y="111.34" style="stroke: #000000; stroke-width: 0.8"/>
      </g>
     </g>
     <g id="text_8">
      <!-- NOMT -->
      <g transform="translate(11.6775 116.92625) scale(0.16 -0.16)">
       <defs>
        <path id="LinLibertineB-4d" d="M 4241 744 
L 4078 3419 
L 4063 3419 
L 2625 31 
Q 2588 -53 2503 -50 
Q 2406 -50 2375 31 
L 1116 3188 
L 1091 3188 
L 922 788 
Q 897 488 973 359 
Q 1050 231 1344 206 
Q 1369 181 1369 97 
Q 1369 13 1344 -13 
Q 959 0 616 0 
Q 450 0 63 -13 
Q 38 13 38 95 
Q 38 178 63 206 
Q 325 228 419 350 
Q 513 472 544 775 
L 800 3413 
Q 831 3766 767 3834 
Q 703 3903 366 3922 
Q 334 3953 332 4031 
Q 331 4109 366 4141 
L 1678 4128 
L 2822 1288 
L 2853 1288 
L 4072 4128 
L 5356 4141 
Q 5388 4109 5388 4032 
Q 5388 3956 5356 3922 
Q 5041 3903 4969 3820 
Q 4897 3738 4916 3469 
L 5109 775 
Q 5119 625 5125 548 
Q 5131 472 5156 397 
Q 5181 322 5203 297 
Q 5225 272 5289 245 
Q 5353 219 5414 214 
Q 5475 209 5600 206 
Q 5631 181 5631 97 
Q 5631 13 5600 -13 
Q 5178 0 4903 0 
Q 4434 0 3834 -13 
Q 3803 13 3803 95 
Q 3803 178 3834 206 
Q 3963 213 4013 214 
Q 4063 216 4128 239 
Q 4194 263 4208 286 
Q 4222 309 4239 378 
Q 4256 447 4253 522 
Q 4250 597 4241 744 
z
" transform="scale(0.015625)"/>
       </defs>
       <use xlink:href="#LinLibertineB-4e"/>
       <use xlink:href="#LinLibertineB-4f" x="73.974609"/>
       <use xlink:href="#LinLibertineB-4d" x="146.972656"/>
       <use xlink:href="#LinLibertineB-54" x="236.865234"/>
      </g>
     </g>
    </g>
    <g id="ytick_6">
     <g id="line2d_9">
      <g>
       <use xlink:href="#mc663979f35" x="67.005" y="134.482222" style="stroke: #000000; stroke-width: 0.8"/>
      </g>
     </g>
     <g id="text_9">
      <!-- NOP -->
      <g transform="translate(26.67 140.068472) scale(0.16 -0.16)">
       <defs>
        <path id="LinLibertineB-50" d="M 2216 4184 
Q 2925 4184 3284 3975 
Q 3778 3681 3775 3097 
Q 3775 2431 3347 2081 
Q 2975 1775 2131 1772 
Q 2041 1772 1906 1791 
Q 1778 1875 1778 2059 
Q 1913 2041 2100 2041 
Q 2491 2041 2650 2262 
Q 2809 2484 2809 2988 
Q 2809 3922 2009 3922 
Q 1766 3922 1695 3808 
Q 1625 3694 1625 3353 
L 1625 781 
Q 1625 591 1654 472 
Q 1684 353 1764 298 
Q 1844 244 1920 228 
Q 1997 213 2156 206 
Q 2200 175 2201 97 
Q 2203 19 2156 -13 
Q 1644 0 1184 0 
Q 709 0 197 -13 
Q 153 19 153 98 
Q 153 178 197 206 
Q 356 213 434 228 
Q 513 244 592 298 
Q 672 353 700 470 
Q 728 588 728 781 
L 728 3347 
Q 728 3538 700 3656 
Q 672 3775 592 3829 
Q 513 3884 436 3900 
Q 359 3916 197 3922 
Q 153 3953 153 4034 
Q 153 4116 197 4141 
Q 325 4141 1206 4162 
Q 2088 4184 2216 4184 
z
" transform="scale(0.015625)"/>
       </defs>
       <use xlink:href="#LinLibertineB-4e"/>
       <use xlink:href="#LinLibertineB-4f" x="73.974609"/>
       <use xlink:href="#LinLibertineB-50" x="146.972656"/>
      </g>
     </g>
    </g>
    <g id="ytick_7">
     <g id="line2d_10">
      <g>
       <use xlink:href="#mc663979f35" x="67.005" y="157.624444" style="stroke: #000000; stroke-width: 0.8"/>
      </g>
     </g>
     <g id="text_10">
      <!-- DD/HV -->
      <g transform="translate(7.2 163.210694) scale(0.16 -0.16)">
       <defs>
        <path id="LinLibertineB-44" d="M 1625 763 
Q 1625 456 1756 356 
Q 1888 256 2241 256 
Q 2438 256 2633 339 
Q 2828 422 3011 595 
Q 3194 769 3309 1086 
Q 3425 1403 3425 1819 
Q 3425 2150 3401 2406 
Q 3378 2663 3292 2950 
Q 3206 3238 3062 3427 
Q 2919 3616 2653 3741 
Q 2388 3866 2022 3866 
Q 1625 3866 1625 3384 
L 1625 763 
z
M 1184 0 
L 197 -13 
Q 153 19 153 98 
Q 153 178 197 206 
Q 356 213 434 228 
Q 513 244 592 298 
Q 672 353 700 470 
Q 728 588 728 781 
L 728 3347 
Q 728 3538 700 3656 
Q 672 3775 592 3829 
Q 513 3884 436 3900 
Q 359 3916 197 3922 
Q 153 3953 153 4034 
Q 153 4116 197 4141 
Q 925 4128 1184 4128 
Q 1300 4128 1584 4131 
Q 1869 4134 2047 4134 
Q 3178 4134 3784 3526 
Q 4391 2919 4391 1978 
Q 4391 1497 4250 1112 
Q 4109 728 3872 525 
Q 3256 -13 2222 -13 
Q 2094 -13 1703 -6 
Q 1313 0 1184 0 
z
" transform="scale(0.015625)"/>
        <path id="LinLibertineB-2f" d="M 1931 4366 
L 416 -134 
L 13 -134 
L 1528 4366 
L 1931 4366 
z
" transform="scale(0.015625)"/>
        <path id="LinLibertineB-48" d="M 3609 3347 
Q 3609 3538 3581 3656 
Q 3553 3775 3472 3829 
Q 3391 3884 3314 3900 
Q 3238 3916 3078 3922 
Q 3034 3953 3034 4034 
Q 3034 4116 3078 4141 
Q 3591 4128 4063 4128 
Q 4522 4128 5038 4141 
Q 5081 4116 5081 4036 
Q 5081 3956 5038 3922 
Q 4878 3916 4800 3900 
Q 4722 3884 4642 3829 
Q 4563 3775 4534 3658 
Q 4506 3541 4506 3347 
L 4506 781 
Q 4506 591 4534 472 
Q 4563 353 4642 298 
Q 4722 244 4800 228 
Q 4878 213 5038 206 
Q 5081 181 5081 97 
Q 5081 13 5038 -13 
Q 4525 0 4063 0 
Q 3588 0 3078 -13 
Q 3034 19 3034 95 
Q 3034 172 3078 206 
Q 3238 213 3314 228 
Q 3391 244 3472 298 
Q 3553 353 3581 470 
Q 3609 588 3609 781 
L 3609 2041 
L 1625 2041 
L 1625 781 
Q 1625 591 1654 472 
Q 1684 353 1764 298 
Q 1844 244 1920 228 
Q 1997 213 2156 206 
Q 2200 175 2201 97 
Q 2203 19 2156 -13 
Q 1644 0 1184 0 
Q 709 0 197 -13 
Q 153 19 153 98 
Q 153 178 197 206 
Q 356 213 434 228 
Q 513 244 592 298 
Q 672 353 700 470 
Q 728 588 728 781 
L 728 3347 
Q 728 3538 700 3656 
Q 672 3775 592 3829 
Q 513 3884 436 3900 
Q 359 3916 197 3922 
Q 153 3953 153 4034 
Q 153 4116 197 4141 
Q 709 4128 1184 4128 
Q 1644 4128 2156 4141 
Q 2200 4116 2201 4036 
Q 2203 3956 2156 3922 
Q 1997 3916 1920 3900 
Q 1844 3884 1764 3829 
Q 1684 3775 1654 3658 
Q 1625 3541 1625 3347 
L 1625 2350 
L 3609 2350 
L 3609 3347 
z
" transform="scale(0.015625)"/>
       </defs>
       <use xlink:href="#LinLibertineB-44"/>
       <use xlink:href="#LinLibertineB-44" x="73.388672"/>
       <use xlink:href="#LinLibertineB-2f" x="146.777344"/>
       <use xlink:href="#LinLibertineB-48" x="178.369141"/>
       <use xlink:href="#LinLibertineB-56" x="260.058594"/>
      </g>
     </g>
    </g>
    <g id="ytick_8">
     <g id="line2d_11">
      <g>
       <use xlink:href="#mc663979f35" x="67.005" y="180.766667" style="stroke: #000000; stroke-width: 0.8"/>
      </g>
     </g>
     <g id="text_11">
      <!-- MDNL -->
      <g transform="translate(15.7775 186.352917) scale(0.16 -0.16)">
       <defs>
        <path id="LinLibertine-4d" d="M 4241 744 
L 4078 3419 
L 4063 3419 
L 2625 31 
Q 2588 -41 2534 -38 
Q 2463 -38 2438 31 
L 1113 3353 
L 1100 3353 
L 856 788 
Q 831 488 907 356 
Q 984 225 1281 197 
Q 1306 166 1306 89 
Q 1306 13 1281 -13 
Q 897 0 678 0 
Q 513 0 128 -13 
Q 103 13 103 89 
Q 103 166 128 197 
Q 391 219 484 344 
Q 578 469 606 775 
L 863 3413 
Q 894 3766 831 3837 
Q 769 3909 428 3928 
Q 397 3953 397 4031 
Q 397 4109 428 4141 
L 1356 4128 
L 2669 878 
Q 2706 794 2719 794 
Q 2738 794 2778 884 
L 4134 4128 
L 4972 4141 
Q 5003 4109 5004 4032 
Q 5006 3956 4972 3928 
Q 4656 3909 4584 3825 
Q 4513 3741 4534 3469 
L 4725 775 
Q 4734 622 4742 547 
Q 4750 472 4773 395 
Q 4797 319 4820 292 
Q 4844 266 4905 241 
Q 4966 216 5030 209 
Q 5094 203 5216 197 
Q 5247 166 5247 89 
Q 5247 13 5216 -13 
Q 4794 0 4519 0 
Q 4434 0 3834 -13 
Q 3803 13 3803 89 
Q 3803 166 3834 197 
Q 3959 203 4012 208 
Q 4066 213 4128 234 
Q 4191 256 4208 281 
Q 4225 306 4240 376 
Q 4256 447 4253 522 
Q 4250 597 4241 744 
z
" transform="scale(0.015625)"/>
        <path id="LinLibertine-44" d="M 1222 531 
Q 1222 359 1353 282 
Q 1484 206 1919 206 
Q 2284 206 2565 279 
Q 2847 353 3090 525 
Q 3334 697 3465 1023 
Q 3597 1350 3597 1819 
Q 3597 2209 3501 2567 
Q 3406 2925 3200 3239 
Q 2994 3553 2623 3737 
Q 2253 3922 1759 3922 
Q 1222 3922 1222 3609 
L 1222 531 
z
M 947 4128 
Q 1050 4128 1414 4134 
Q 1778 4141 2003 4141 
Q 2925 4141 3569 3505 
Q 4213 2869 4213 1972 
Q 4213 1409 4017 1001 
Q 3822 594 3498 383 
Q 3175 172 2833 79 
Q 2491 -13 2119 -13 
Q 1734 -13 1376 -6 
Q 1019 0 953 0 
Q 747 0 122 -13 
Q 91 13 91 89 
Q 91 166 122 197 
Q 481 209 579 303 
Q 678 397 678 781 
L 678 3347 
Q 678 3731 579 3823 
Q 481 3916 122 3928 
Q 91 3953 91 4031 
Q 91 4109 122 4141 
Q 763 4128 947 4128 
z
" transform="scale(0.015625)"/>
        <path id="LinLibertine-4e" d="M 3559 3278 
Q 3559 3503 3539 3620 
Q 3519 3738 3442 3805 
Q 3366 3872 3283 3890 
Q 3200 3909 3003 3928 
Q 2972 3953 2970 4031 
Q 2969 4109 3003 4141 
Q 3644 4128 3713 4128 
Q 3803 4128 4428 4141 
Q 4453 4109 4453 4032 
Q 4453 3956 4428 3928 
Q 4069 3891 3970 3789 
Q 3872 3688 3872 3278 
L 3872 134 
Q 3872 -63 3725 -63 
Q 3584 -63 3469 91 
L 1234 2913 
Q 1069 3125 1017 3123 
Q 966 3122 966 2809 
L 966 850 
Q 966 625 986 508 
Q 1006 391 1082 323 
Q 1159 256 1242 237 
Q 1325 219 1522 197 
Q 1547 166 1548 89 
Q 1550 13 1522 -13 
Q 881 0 813 0 
Q 722 0 97 -13 
Q 66 13 64 89 
Q 63 166 97 197 
Q 456 234 554 337 
Q 653 441 653 850 
L 653 3519 
Q 622 3659 481 3787 
Q 341 3916 147 3928 
Q 116 3953 116 4031 
Q 116 4109 147 4141 
L 1013 4128 
L 3206 1300 
Q 3250 1244 3301 1172 
Q 3353 1100 3379 1069 
Q 3406 1038 3434 1005 
Q 3463 972 3481 959 
Q 3500 947 3513 947 
Q 3556 947 3559 1141 
L 3559 3278 
z
" transform="scale(0.015625)"/>
        <path id="LinLibertine-4c" d="M 941 0 
Q 422 -6 109 -13 
Q 78 13 78 89 
Q 78 166 109 197 
Q 469 209 567 303 
Q 666 397 666 781 
L 666 3347 
Q 666 3731 567 3823 
Q 469 3916 109 3928 
Q 78 3953 78 4031 
Q 78 4109 109 4141 
Q 750 4128 934 4128 
Q 1141 4128 1766 4141 
Q 1791 4109 1791 4032 
Q 1791 3956 1766 3928 
Q 1406 3916 1307 3823 
Q 1209 3731 1209 3347 
L 1209 569 
Q 1209 422 1289 336 
Q 1369 250 1509 250 
L 1978 250 
Q 2447 250 2680 470 
Q 2913 691 3022 1088 
Q 3131 1106 3231 1056 
Q 3169 500 3066 -13 
Q 2475 0 2303 0 
L 941 0 
z
" transform="scale(0.015625)"/>
       </defs>
       <use xlink:href="#LinLibertine-4d"/>
       <use xlink:href="#LinLibertine-44" x="83.886719"/>
       <use xlink:href="#LinLibertine-4e" x="153.955078"/>
       <use xlink:href="#LinLibertine-4c" x="223.828125"/>
      </g>
     </g>
    </g>
    <g id="ytick_9">
     <g id="line2d_12">
      <g>
       <use xlink:href="#mc663979f35" x="67.005" y="203.908889" style="stroke: #000000; stroke-width: 0.8"/>
      </g>
     </g>
     <g id="text_12">
      <!-- NB -->
      <g transform="translate(39.4175 209.495139) scale(0.16 -0.16)">
       <defs>
        <path id="LinLibertine-42" d="M 1222 3647 
L 1222 2344 
L 1697 2344 
Q 2606 2344 2606 3078 
Q 2606 3519 2356 3720 
Q 2106 3922 1778 3922 
Q 1503 3922 1386 3894 
Q 1269 3866 1245 3817 
Q 1222 3769 1222 3647 
z
M 1222 2125 
L 1222 628 
Q 1222 200 1753 197 
Q 2425 197 2665 425 
Q 2906 653 2906 1056 
Q 2906 1525 2595 1825 
Q 2284 2125 1663 2125 
L 1222 2125 
z
M 947 4128 
Q 1088 4128 1363 4134 
Q 1638 4141 1747 4141 
Q 3122 4141 3122 3156 
Q 3122 2906 2947 2675 
Q 2772 2444 2516 2316 
L 2516 2303 
Q 2963 2175 3231 1894 
Q 3500 1613 3500 1178 
Q 3500 953 3423 754 
Q 3347 556 3175 376 
Q 3003 197 2673 92 
Q 2344 -13 1888 -13 
Q 1569 -13 1312 -6 
Q 1056 0 953 0 
Q 747 0 122 -13 
Q 91 13 91 89 
Q 91 166 122 197 
Q 481 209 579 303 
Q 678 397 678 781 
L 678 3347 
Q 678 3731 579 3823 
Q 481 3916 122 3928 
Q 91 3953 91 4031 
Q 91 4109 122 4141 
Q 763 4128 947 4128 
z
" transform="scale(0.015625)"/>
       </defs>
       <use xlink:href="#LinLibertine-4e"/>
       <use xlink:href="#LinLibertine-42" x="69.873047"/>
      </g>
     </g>
    </g>
   </g>
   <g id="LineCollection_1">
    <path d="M 176.078198 18.771111 
L 195.372273 18.771111 
" clip-path="url(#p48cbbe8bf9)" style="fill: none; stroke: #404040; stroke-width: 1.5"/>
   </g>
   <g id="LineCollection_2">
    <path d="M 126.004991 41.913333 
L 153.047316 41.913333 
" clip-path="url(#p48cbbe8bf9)" style="fill: none; stroke: #404040; stroke-width: 1.5"/>
   </g>
   <g id="LineCollection_3">
    <path d="M 100.139297 65.055556 
L 118.294969 65.055556 
" clip-path="url(#p48cbbe8bf9)" style="fill: none; stroke: #404040; stroke-width: 1.5"/>
   </g>
   <g id="LineCollection_4">
    <path d="M 98.202548 88.197778 
L 116.071935 88.197778 
" clip-path="url(#p48cbbe8bf9)" style="fill: none; stroke: #404040; stroke-width: 1.5"/>
   </g>
   <g id="LineCollection_5">
    <path d="M 91.738049 111.34 
L 110.266461 111.34 
" clip-path="url(#p48cbbe8bf9)" style="fill: none; stroke: #404040; stroke-width: 1.5"/>
   </g>
   <g id="LineCollection_6">
    <path d="M 91.815539 134.482222 
L 107.076971 134.482222 
" clip-path="url(#p48cbbe8bf9)" style="fill: none; stroke: #404040; stroke-width: 1.5"/>
   </g>
   <g id="LineCollection_7">
    <path d="M 86.040711 157.624444 
L 104.517932 157.624444 
" clip-path="url(#p48cbbe8bf9)" style="fill: none; stroke: #404040; stroke-width: 1.5"/>
   </g>
   <g id="LineCollection_8">
    <path d="M 83.265466 180.766667 
L 100.19151 180.766667 
" clip-path="url(#p48cbbe8bf9)" style="fill: none; stroke: #404040; stroke-width: 1.5"/>
   </g>
   <g id="LineCollection_9">
    <path d="M 73.117727 203.908889 
L 88.533642 203.908889 
" clip-path="url(#p48cbbe8bf9)" style="fill: none; stroke: #404040; stroke-width: 1.5"/>
   </g>
   <g id="line2d_13">
    <defs>
     <path id="mec99db0625" d="M 0 3.383948 
C 0.897434 3.383948 1.758231 3.027394 2.392813 2.392813 
C 3.027394 1.758231 3.383948 0.897434 3.383948 0 
C 3.383948 -0.897434 3.027394 -1.758231 2.392813 -2.392813 
C 1.758231 -3.027394 0.897434 -3.383948 0 -3.383948 
C -0.897434 -3.383948 -1.758231 -3.027394 -2.392813 -2.392813 
C -3.027394 -1.758231 -3.383948 -0.897434 -3.383948 0 
C -3.383948 0.897434 -3.027394 1.758231 -2.392813 2.392813 
C -1.758231 3.027394 -0.897434 3.383948 0 3.383948 
z
" style="stroke: #8de5a1; stroke-width: 2.025"/>
    </defs>
    <g clip-path="url(#p48cbbe8bf9)">
     <use xlink:href="#mec99db0625" x="185.576322" y="18.771111" style="fill: #8de5a1; stroke: #8de5a1; stroke-width: 2.025"/>
     <use xlink:href="#mec99db0625" x="139.182742" y="41.913333" style="fill: #8de5a1; stroke: #8de5a1; stroke-width: 2.025"/>
     <use xlink:href="#mec99db0625" x="109.042513" y="65.055556" style="fill: #8de5a1; stroke: #8de5a1; stroke-width: 2.025"/>
     <use xlink:href="#mec99db0625" x="106.966581" y="88.197778" style="fill: #8de5a1; stroke: #8de5a1; stroke-width: 2.025"/>
     <use xlink:href="#mec99db0625" x="100.813825" y="111.34" style="fill: #8de5a1; stroke: #8de5a1; stroke-width: 2.025"/>
     <use xlink:href="#mec99db0625" x="99.317553" y="134.482222" style="fill: #8de5a1; stroke: #8de5a1; stroke-width: 2.025"/>
     <use xlink:href="#mec99db0625" x="95.087099" y="157.624444" style="fill: #8de5a1; stroke: #8de5a1; stroke-width: 2.025"/>
     <use xlink:href="#mec99db0625" x="91.564574" y="180.766667" style="fill: #8de5a1; stroke: #8de5a1; stroke-width: 2.025"/>
     <use xlink:href="#mec99db0625" x="80.68258" y="203.908889" style="fill: #8de5a1; stroke: #8de5a1; stroke-width: 2.025"/>
    </g>
   </g>
   <g id="line2d_14">
    <path d="M 84.718801 215.48 
L 84.718801 7.2 
" clip-path="url(#p48cbbe8bf9)" style="fill: none; stroke-dasharray: 5.55,2.4; stroke-dashoffset: 0; stroke: #1d1d1d; stroke-width: 1.5"/>
   </g>
   <g id="patch_3">
    <path d="M 67.005 215.48 
L 67.005 7.2 
" style="fill: none; stroke: #000000; stroke-width: 0.8; stroke-linejoin: miter; stroke-linecap: square"/>
   </g>
   <g id="patch_4">
    <path d="M 67.005 215.48 
L 201.485 215.48 
" style="fill: none; stroke: #000000; stroke-width: 0.8; stroke-linejoin: miter; stroke-linecap: square"/>
   </g>
  </g>
 </g>
 <defs>
  <clipPath id="p48cbbe8bf9">
   <rect x="67.005" y="7.2" width="134.48" height="208.28"/>
  </clipPath>
 </defs>
</svg>
