<?xml version="1.0" encoding="utf-8" standalone="no"?>
<!DOCTYPE svg PUBLIC "-//W3C//DTD SVG 1.1//EN"
  "http://www.w3.org/Graphics/SVG/1.1/DTD/svg11.dtd">
<svg xmlns:xlink="http://www.w3.org/1999/xlink" width="303.49pt" height="233.638pt" viewBox="0 0 303.49 233.638" xmlns="http://www.w3.org/2000/svg" version="1.1">
 <metadata>
  <rdf:RDF xmlns:dc="http://purl.org/dc/elements/1.1/" xmlns:cc="http://creativecommons.org/ns#" xmlns:rdf="http://www.w3.org/1999/02/22-rdf-syntax-ns#">
   <cc:Work>
    <dc:type rdf:resource="http://purl.org/dc/dcmitype/StillImage"/>
    <dc:date>2024-06-08T15:02:40.000664</dc:date>
    <dc:format>image/svg+xml</dc:format>
    <dc:creator>
     <cc:Agent>
      <dc:title>Matplotlib v3.8.4, https://matplotlib.org/</dc:title>
     </cc:Agent>
    </dc:creator>
   </cc:Work>
  </rdf:RDF>
 </metadata>
 <defs>
  <style type="text/css">*{stroke-linejoin: round; stroke-linecap: butt}</style>
 </defs>
 <g id="figure_1">
  <g id="patch_1">
   <path d="M 0 233.638 
L 303.49 233.638 
L 303.49 0 
L 0 0 
z
" style="fill: #ffffff"/>
  </g>
  <g id="axes_1">
   <g id="patch_2">
    <path d="M 63.895 184.608 
L 287.095 184.608 
L 287.095 7.2 
L 63.895 7.2 
z
" style="fill: #ffffff"/>
   </g>
   <g id="patch_3">
    <path d="M 63.895 9.1712 
L 256.809759 9.1712 
L 256.809759 24.9408 
L 63.895 24.9408 
z
" clip-path="url(#pacb2d872ea)" style="fill: #98daa7"/>
   </g>
   <g id="patch_4">
    <path d="M 63.895 28.8832 
L 247.898368 28.8832 
L 247.898368 44.6528 
L 63.895 44.6528 
z
" clip-path="url(#pacb2d872ea)" style="fill: #98daa7"/>
   </g>
   <g id="patch_5">
    <path d="M 63.895 48.5952 
L 216.714516 48.5952 
L 216.714516 64.3648 
L 63.895 64.3648 
z
" clip-path="url(#pacb2d872ea)" style="fill: #98daa7"/>
   </g>
   <g id="patch_6">
    <path d="M 63.895 68.3072 
L 214.114465 68.3072 
L 214.114465 84.0768 
L 63.895 84.0768 
z
" clip-path="url(#pacb2d872ea)" style="fill: #98daa7"/>
   </g>
   <g id="patch_7">
    <path d="M 63.895 88.0192 
L 193.890023 88.0192 
L 193.890023 103.7888 
L 63.895 103.7888 
z
" clip-path="url(#pacb2d872ea)" style="fill: #98daa7"/>
   </g>
   <g id="patch_8">
    <path d="M 63.895 107.7312 
L 186.084563 107.7312 
L 186.084563 123.5008 
L 63.895 123.5008 
z
" clip-path="url(#pacb2d872ea)" style="fill: #98daa7"/>
   </g>
   <g id="patch_9">
    <path d="M 63.895 127.4432 
L 147.519832 127.4432 
L 147.519832 143.2128 
L 63.895 143.2128 
z
" clip-path="url(#pacb2d872ea)" style="fill: #98daa7"/>
   </g>
   <g id="patch_10">
    <path d="M 63.895 147.1552 
L 123.526369 147.1552 
L 123.526369 162.9248 
L 63.895 162.9248 
z
" clip-path="url(#pacb2d872ea)" style="fill: #98daa7"/>
   </g>
   <g id="patch_11">
    <path d="M 63.895 166.8672 
L 104.497104 166.8672 
L 104.497104 182.6368 
L 63.895 182.6368 
z
" clip-path="url(#pacb2d872ea)" style="fill: #98daa7"/>
   </g>
   <g id="matplotlib.axis_1">
    <g id="xtick_1">
     <g id="line2d_1">
      <defs>
       <path id="m633bdd0b57" d="M 0 0 
L 0 3.5 
" style="stroke: #000000; stroke-width: 0.8"/>
      </defs>
      <g>
       <use xlink:href="#m633bdd0b57" x="63.895" y="184.608" style="stroke: #000000; stroke-width: 0.8"/>
      </g>
     </g>
     <g id="text_1">
      <!-- 0.0 -->
      <g transform="translate(54.7 202.7805) scale(0.16 -0.16)">
       <defs>
        <path id="LinLibertine-30" d="M 1484 3681 
Q 1363 3681 1255 3603 
Q 1147 3525 1040 3340 
Q 934 3156 870 2762 
Q 806 2369 806 1813 
Q 806 163 1466 159 
Q 1522 159 1586 178 
Q 1650 197 1737 251 
Q 1825 306 1904 431 
Q 1984 556 2034 744 
Q 2144 1141 2144 2059 
Q 2144 3256 1772 3572 
Q 1650 3681 1484 3681 
z
M 1459 -63 
Q 1078 -63 809 206 
Q 547 466 398 916 
Q 250 1366 250 1881 
Q 250 2791 617 3347 
Q 984 3903 1484 3903 
Q 1953 3903 2266 3488 
Q 2700 2913 2700 1941 
Q 2700 1409 2578 998 
Q 2456 588 2262 367 
Q 2069 147 1862 42 
Q 1656 -63 1459 -63 
z
" transform="scale(0.015625)"/>
        <path id="LinLibertine-2e" d="M 464 35 
Q 366 134 366 275 
Q 366 416 464 516 
Q 563 616 703 616 
Q 844 616 944 516 
Q 1044 416 1044 275 
Q 1044 134 944 35 
Q 844 -63 703 -63 
Q 563 -63 464 35 
z
" transform="scale(0.015625)"/>
       </defs>
       <use xlink:href="#LinLibertine-30"/>
       <use xlink:href="#LinLibertine-2e" x="46.484375"/>
       <use xlink:href="#LinLibertine-30" x="68.457031"/>
      </g>
     </g>
    </g>
    <g id="xtick_2">
     <g id="line2d_2">
      <g>
       <use xlink:href="#m633bdd0b57" x="175.495" y="184.608" style="stroke: #000000; stroke-width: 0.8"/>
      </g>
     </g>
     <g id="text_2">
      <!-- 0.1 -->
      <g transform="translate(166.3 202.7805) scale(0.16 -0.16)">
       <defs>
        <path id="LinLibertine-31" d="M 1844 781 
Q 1844 397 1942 305 
Q 2041 213 2400 197 
Q 2431 166 2431 89 
Q 2431 13 2400 -13 
Q 1759 0 1619 0 
Q 1356 0 728 -13 
Q 703 13 703 89 
Q 703 166 728 197 
Q 1100 209 1225 309 
Q 1350 409 1350 781 
L 1350 2869 
Q 1350 3241 1222 3238 
Q 1050 3238 666 3078 
Q 588 3128 569 3250 
Q 1466 3666 1825 3891 
Q 1863 3891 1863 3859 
Q 1844 3713 1844 3003 
L 1844 781 
z
" transform="scale(0.015625)"/>
       </defs>
       <use xlink:href="#LinLibertine-30"/>
       <use xlink:href="#LinLibertine-2e" x="46.484375"/>
       <use xlink:href="#LinLibertine-31" x="68.457031"/>
      </g>
     </g>
    </g>
    <g id="xtick_3">
     <g id="line2d_3">
      <g>
       <use xlink:href="#m633bdd0b57" x="287.095" y="184.608" style="stroke: #000000; stroke-width: 0.8"/>
      </g>
     </g>
     <g id="text_3">
      <!-- 0.2 -->
      <g transform="translate(277.9 202.7805) scale(0.16 -0.16)">
       <defs>
        <path id="LinLibertine-32" d="M 391 2994 
Q 391 3313 717 3608 
Q 1044 3903 1544 3903 
Q 1978 3903 2301 3658 
Q 2625 3413 2625 2931 
Q 2625 2700 2528 2495 
Q 2431 2291 2320 2159 
Q 2209 2028 1984 1813 
L 1338 1191 
Q 863 716 863 416 
L 2003 416 
Q 2175 416 2272 550 
Q 2369 684 2450 1031 
Q 2572 1056 2638 997 
Q 2625 550 2484 -13 
Q 2191 0 1984 0 
L 863 0 
L 331 -13 
Q 331 294 476 578 
Q 622 863 1063 1313 
L 1538 1778 
Q 2063 2309 2059 2906 
Q 2059 3322 1890 3501 
Q 1722 3681 1503 3681 
Q 1184 3681 1028 3559 
Q 872 3438 872 3291 
Q 872 3259 897 3201 
Q 922 3144 922 3138 
Q 947 3047 947 3003 
Q 947 2906 842 2826 
Q 738 2747 647 2747 
Q 544 2747 467 2819 
Q 391 2891 391 2994 
z
" transform="scale(0.015625)"/>
       </defs>
       <use xlink:href="#LinLibertine-30"/>
       <use xlink:href="#LinLibertine-2e" x="46.484375"/>
       <use xlink:href="#LinLibertine-32" x="68.457031"/>
      </g>
     </g>
    </g>
    <g id="text_4">
     <!-- Gini Importance -->
     <g transform="translate(121.90875 222.6955) scale(0.16 -0.16)">
      <defs>
       <path id="LinLibertine-47" d="M 2413 4213 
Q 2853 4213 3261 4067 
Q 3669 3922 3809 3922 
Q 3866 3319 3950 2938 
L 3731 2900 
Q 3584 3394 3270 3684 
Q 2956 3975 2322 3975 
Q 1663 3975 1225 3450 
Q 788 2925 788 2094 
Q 788 1769 903 1434 
Q 1019 1100 1230 812 
Q 1441 525 1780 345 
Q 2119 166 2528 166 
Q 3131 166 3456 475 
L 3456 1428 
Q 3456 1606 3343 1657 
Q 3231 1709 2931 1734 
Q 2906 1766 2906 1848 
Q 2906 1931 2931 1966 
Q 3534 1953 3725 1953 
Q 3909 1953 4294 1966 
Q 4325 1934 4325 1850 
Q 4325 1766 4294 1734 
Q 4141 1722 4070 1655 
Q 4000 1588 4000 1428 
L 4000 709 
Q 4000 613 4103 531 
Q 3406 -63 2381 -63 
Q 1434 -63 820 528 
Q 206 1119 206 1966 
Q 206 2644 531 3166 
Q 856 3688 1353 3950 
Q 1850 4213 2413 4213 
z
" transform="scale(0.015625)"/>
       <path id="LinLibertine-69" d="M 575 3834 
Q 575 3950 684 4045 
Q 794 4141 909 4141 
Q 1031 4141 1123 4034 
Q 1216 3928 1216 3809 
Q 1216 3700 1114 3600 
Q 1013 3500 884 3500 
Q 769 3500 672 3606 
Q 575 3713 575 3834 
z
M 1159 781 
Q 1159 397 1236 308 
Q 1313 219 1619 197 
Q 1650 166 1650 89 
Q 1650 13 1619 -13 
Q 1069 0 909 0 
Q 731 0 191 -13 
Q 166 13 166 89 
Q 166 166 191 197 
Q 497 222 575 309 
Q 653 397 653 781 
L 653 2028 
Q 653 2297 579 2367 
Q 506 2438 238 2463 
Q 200 2572 225 2644 
Q 819 2722 1100 2828 
Q 1184 2828 1184 2784 
Q 1184 2769 1181 2739 
Q 1178 2709 1175 2620 
Q 1172 2531 1167 2448 
Q 1163 2366 1161 2256 
Q 1159 2147 1159 2056 
L 1159 781 
z
" transform="scale(0.015625)"/>
       <path id="LinLibertine-6e" d="M 1178 2291 
Q 1647 2809 2228 2809 
Q 2594 2809 2759 2591 
Q 2931 2359 2931 1734 
L 2931 781 
Q 2931 403 3004 314 
Q 3078 225 3359 197 
Q 3384 172 3384 95 
Q 3384 19 3359 -13 
Q 2809 0 2681 0 
Q 2566 0 2028 -13 
Q 2003 13 2003 89 
Q 2003 166 2028 197 
Q 2291 222 2358 312 
Q 2425 403 2425 781 
L 2425 1753 
Q 2425 2094 2350 2247 
Q 2228 2478 2009 2478 
Q 1619 2478 1228 2100 
Q 1119 1978 1119 1831 
L 1119 781 
Q 1119 403 1183 314 
Q 1247 225 1503 197 
Q 1534 166 1536 89 
Q 1538 13 1503 -13 
Q 966 0 872 0 
Q 694 0 166 -13 
Q 141 13 141 89 
Q 141 166 166 197 
Q 466 222 541 309 
Q 616 397 616 781 
L 616 2028 
Q 616 2297 542 2367 
Q 469 2438 197 2463 
Q 159 2572 184 2644 
Q 684 2706 991 2828 
Q 1041 2828 1069 2778 
Q 1119 2663 1119 2291 
Q 1122 2213 1178 2291 
z
" transform="scale(0.015625)"/>
       <path id="LinLibertine-20" transform="scale(0.015625)"/>
       <path id="LinLibertine-49" d="M 1222 781 
Q 1222 397 1322 305 
Q 1422 213 1778 197 
Q 1803 166 1804 89 
Q 1806 13 1778 -13 
Q 1138 0 953 0 
Q 747 0 122 -13 
Q 91 13 91 89 
Q 91 166 122 197 
Q 481 209 579 303 
Q 678 397 678 781 
L 678 3347 
Q 678 3731 579 3823 
Q 481 3916 122 3928 
Q 91 3953 91 4031 
Q 91 4109 122 4141 
Q 763 4128 947 4128 
Q 1153 4128 1778 4141 
Q 1803 4109 1804 4032 
Q 1806 3956 1778 3928 
Q 1419 3916 1320 3823 
Q 1222 3731 1222 3347 
L 1222 781 
z
" transform="scale(0.015625)"/>
       <path id="LinLibertine-6d" d="M 1106 2291 
Q 1106 2213 1150 2275 
Q 1159 2284 1166 2291 
Q 1659 2809 2138 2809 
Q 2381 2809 2556 2676 
Q 2731 2544 2778 2341 
Q 2794 2278 2847 2338 
Q 3006 2506 3197 2615 
Q 3388 2725 3559 2767 
Q 3731 2809 3903 2809 
Q 4294 2809 4428 2546 
Q 4563 2284 4563 1791 
L 4563 781 
Q 4563 397 4630 308 
Q 4697 219 4972 197 
Q 4997 172 4997 95 
Q 4997 19 4972 -13 
Q 4422 0 4313 0 
Q 4197 0 3659 -13 
Q 3634 19 3634 95 
Q 3634 172 3659 197 
Q 3922 216 3989 309 
Q 4056 403 4056 781 
L 4056 1906 
Q 4056 2213 3961 2345 
Q 3866 2478 3675 2478 
Q 3216 2478 2828 2053 
Q 2834 1975 2834 1797 
L 2834 781 
Q 2834 397 2898 308 
Q 2963 219 3213 197 
Q 3238 172 3238 92 
Q 3238 13 3213 -13 
Q 2663 0 2584 0 
Q 2469 0 1931 -13 
Q 1906 13 1906 89 
Q 1906 166 1931 197 
Q 2200 216 2264 306 
Q 2328 397 2328 781 
L 2328 1894 
Q 2328 2475 1906 2478 
Q 1600 2478 1216 2100 
Q 1106 1984 1106 1831 
L 1106 781 
Q 1106 513 1139 400 
Q 1172 288 1240 252 
Q 1309 216 1491 197 
Q 1519 169 1519 92 
Q 1519 16 1491 -13 
Q 953 0 856 0 
Q 691 0 166 -13 
Q 141 13 141 89 
Q 141 166 166 197 
Q 447 216 525 309 
Q 603 403 603 781 
L 603 2028 
Q 603 2297 528 2367 
Q 453 2438 184 2463 
Q 147 2572 172 2644 
Q 672 2706 978 2828 
Q 1028 2828 1056 2778 
Q 1106 2663 1106 2291 
z
" transform="scale(0.015625)"/>
       <path id="LinLibertine-70" d="M 1119 2119 
Q 1016 1991 1019 1838 
L 1019 672 
Q 1019 553 1031 492 
Q 1044 431 1072 392 
Q 1100 353 1172 288 
Q 1250 219 1383 186 
Q 1516 153 1625 153 
Q 1881 153 2067 259 
Q 2253 366 2348 547 
Q 2444 728 2486 920 
Q 2528 1113 2528 1331 
Q 2528 1856 2308 2186 
Q 2088 2516 1766 2516 
Q 1631 2516 1439 2397 
Q 1247 2278 1119 2119 
z
M 1019 2356 
Q 1019 2325 1037 2317 
Q 1056 2309 1069 2328 
Q 1478 2809 1947 2809 
Q 2428 2809 2753 2418 
Q 3078 2028 3078 1503 
Q 3078 753 2606 294 
Q 2228 -66 1663 -63 
Q 1350 -63 1106 34 
Q 1056 59 1037 53 
Q 1019 47 1019 -13 
L 1019 -703 
Q 1019 -1088 1105 -1178 
Q 1191 -1269 1544 -1288 
Q 1575 -1319 1575 -1395 
Q 1575 -1472 1544 -1497 
Q 994 -1484 769 -1484 
Q 591 -1484 50 -1497 
Q 25 -1472 25 -1395 
Q 25 -1319 50 -1288 
Q 350 -1275 431 -1181 
Q 513 -1088 513 -703 
L 513 2028 
Q 513 2297 439 2367 
Q 366 2438 97 2463 
Q 59 2572 84 2644 
Q 584 2706 891 2828 
Q 941 2828 966 2778 
Q 1019 2663 1019 2356 
z
" transform="scale(0.015625)"/>
       <path id="LinLibertine-6f" d="M 263 1313 
Q 263 1947 616 2363 
Q 997 2809 1619 2809 
Q 2078 2809 2395 2582 
Q 2713 2356 2838 2042 
Q 2963 1728 2963 1369 
Q 2963 700 2547 294 
Q 2181 -66 1606 -63 
Q 966 -63 614 353 
Q 263 769 263 1313 
z
M 1522 2584 
Q 813 2584 813 1459 
Q 813 1253 861 1042 
Q 909 831 1004 626 
Q 1100 422 1279 290 
Q 1459 159 1697 159 
Q 1978 159 2195 390 
Q 2413 622 2413 1166 
Q 2413 1850 2175 2217 
Q 1938 2584 1522 2584 
z
" transform="scale(0.015625)"/>
       <path id="LinLibertine-72" d="M 1147 2291 
Q 1147 2259 1156 2246 
Q 1166 2234 1197 2278 
Q 1325 2497 1514 2653 
Q 1703 2809 1906 2809 
Q 2091 2809 2191 2711 
Q 2291 2613 2291 2503 
Q 2291 2381 2198 2281 
Q 2106 2181 1991 2181 
Q 1947 2181 1901 2204 
Q 1856 2228 1834 2250 
Q 1813 2272 1777 2314 
Q 1741 2356 1728 2369 
Q 1684 2413 1594 2413 
Q 1516 2413 1300 2100 
Q 1147 1869 1147 1672 
L 1147 781 
Q 1147 397 1233 311 
Q 1319 225 1672 197 
Q 1703 166 1703 89 
Q 1703 13 1672 -13 
Q 1122 0 897 0 
Q 706 0 166 -13 
Q 141 13 141 89 
Q 141 166 166 197 
Q 478 216 559 306 
Q 641 397 641 781 
L 641 2028 
Q 641 2297 567 2367 
Q 494 2438 225 2463 
Q 188 2572 213 2644 
Q 713 2706 1019 2828 
Q 1069 2828 1094 2778 
Q 1147 2663 1147 2291 
z
" transform="scale(0.015625)"/>
       <path id="LinLibertine-74" d="M 275 2747 
L 569 2747 
Q 569 2944 567 3086 
Q 566 3228 562 3293 
Q 559 3359 556 3396 
Q 553 3434 551 3453 
Q 550 3472 550 3488 
Q 550 3509 575 3528 
Q 600 3547 629 3556 
Q 659 3566 711 3581 
Q 763 3597 794 3609 
Q 831 3625 890 3656 
Q 950 3688 990 3706 
Q 1031 3725 1050 3725 
Q 1100 3725 1100 3669 
Q 1075 3413 1075 2994 
L 1075 2747 
L 1844 2747 
Q 1894 2747 1894 2706 
L 1894 2578 
Q 1894 2494 1741 2497 
L 1075 2497 
L 1075 878 
Q 1075 566 1120 427 
Q 1166 288 1288 288 
Q 1581 288 1813 469 
Q 1909 463 1925 359 
Q 1547 -63 1063 -63 
Q 569 -63 569 569 
L 569 2497 
L 191 2497 
Q 159 2497 159 2534 
L 159 2619 
Q 159 2747 275 2747 
z
" transform="scale(0.015625)"/>
       <path id="LinLibertine-61" d="M 1875 1491 
L 1369 1356 
Q 759 1203 763 653 
Q 763 481 880 339 
Q 997 197 1222 197 
Q 1447 197 1784 475 
Q 1875 538 1875 641 
L 1875 1491 
z
M 1875 306 
L 1863 306 
L 1734 206 
Q 1522 41 1387 -11 
Q 1253 -63 1038 -63 
Q 672 -63 451 103 
Q 231 269 231 628 
Q 231 947 522 1190 
Q 813 1434 1288 1556 
L 1838 1691 
Q 1875 1703 1875 1766 
Q 1875 2597 1356 2597 
Q 1144 2597 984 2530 
Q 825 2463 825 2328 
Q 825 2238 838 2203 
Q 856 2166 856 2088 
Q 856 2016 779 1945 
Q 703 1875 575 1875 
Q 350 1875 353 2100 
Q 353 2363 686 2586 
Q 1019 2809 1409 2809 
Q 2375 2809 2375 1728 
L 2375 775 
Q 2375 591 2384 494 
Q 2394 397 2455 314 
Q 2516 231 2631 231 
Q 2709 231 2765 281 
Q 2822 331 2828 331 
Q 2847 331 2880 293 
Q 2913 256 2913 225 
Q 2913 206 2845 139 
Q 2778 72 2643 4 
Q 2509 -63 2369 -63 
Q 1984 -66 1875 306 
z
" transform="scale(0.015625)"/>
       <path id="LinLibertine-63" d="M 2547 581 
Q 2322 209 2073 73 
Q 1825 -63 1503 -63 
Q 909 -63 573 317 
Q 238 697 238 1331 
Q 238 1978 641 2393 
Q 1044 2809 1550 2809 
Q 2003 2809 2265 2640 
Q 2528 2472 2528 2203 
Q 2528 2069 2428 1994 
Q 2328 1919 2216 1919 
Q 1997 1919 1972 2150 
Q 1959 2291 1929 2370 
Q 1900 2450 1798 2523 
Q 1697 2597 1516 2597 
Q 1197 2597 992 2294 
Q 788 1991 788 1472 
Q 788 922 1038 586 
Q 1288 250 1644 250 
Q 2084 250 2413 672 
Q 2516 659 2547 581 
z
" transform="scale(0.015625)"/>
       <path id="LinLibertine-65" d="M 794 1806 
L 1953 1825 
Q 2050 1825 2047 1913 
Q 2047 2278 1890 2431 
Q 1734 2584 1516 2584 
Q 1431 2584 1350 2562 
Q 1269 2541 1150 2470 
Q 1031 2400 934 2228 
Q 838 2056 794 1806 
z
M 2472 594 
Q 2581 588 2606 494 
Q 2178 -63 1516 -63 
Q 881 -63 538 347 
Q 238 694 238 1294 
Q 238 1972 644 2384 
Q 1050 2797 1516 2797 
Q 2597 2797 2597 1684 
Q 2597 1575 2478 1575 
L 775 1588 
Q 775 1050 978 709 
Q 1259 250 1678 250 
Q 1947 250 2117 326 
Q 2288 403 2472 594 
z
" transform="scale(0.015625)"/>
      </defs>
      <use xlink:href="#LinLibertine-47"/>
      <use xlink:href="#LinLibertine-69" x="69.482422"/>
      <use xlink:href="#LinLibertine-6e" x="96.582031"/>
      <use xlink:href="#LinLibertine-69" x="150.78125"/>
      <use xlink:href="#LinLibertine-20" x="177.880859"/>
      <use xlink:href="#LinLibertine-49" x="202.880859"/>
      <use xlink:href="#LinLibertine-6d" x="232.568359"/>
      <use xlink:href="#LinLibertine-70" x="311.523438"/>
      <use xlink:href="#LinLibertine-6f" x="363.378906"/>
      <use xlink:href="#LinLibertine-72" x="413.769531"/>
      <use xlink:href="#LinLibertine-74" x="450.927734"/>
      <use xlink:href="#LinLibertine-61" x="482.519531"/>
      <use xlink:href="#LinLibertine-6e" x="528.173828"/>
      <use xlink:href="#LinLibertine-63" x="582.373047"/>
      <use xlink:href="#LinLibertine-65" x="625.146484"/>
     </g>
    </g>
   </g>
   <g id="matplotlib.axis_2">
    <g id="ytick_1">
     <g id="line2d_4">
      <defs>
       <path id="mdd2eb447db" d="M 0 0 
L -3.5 0 
" style="stroke: #000000; stroke-width: 0.8"/>
      </defs>
      <g>
       <use xlink:href="#mdd2eb447db" x="63.895" y="17.056" style="stroke: #000000; stroke-width: 0.8"/>
      </g>
     </g>
     <g id="text_5">
      <!-- TE -->
      <g transform="translate(38.565 22.64225) scale(0.16 -0.16)">
       <defs>
        <path id="LinLibertine-54" d="M 2241 781 
Q 2241 397 2348 305 
Q 2456 213 2859 197 
Q 2891 166 2892 89 
Q 2894 13 2859 -13 
Q 2219 0 1972 0 
Q 1703 0 1075 -13 
Q 1050 13 1050 89 
Q 1050 166 1075 197 
Q 1478 209 1587 303 
Q 1697 397 1697 781 
L 1697 3244 
Q 1697 3556 1630 3717 
Q 1563 3878 1394 3878 
L 1081 3878 
Q 750 3878 537 3725 
Q 325 3572 238 3200 
Q 103 3200 19 3231 
Q 147 3781 178 4159 
Q 178 4178 206 4178 
Q 853 4128 1697 4128 
L 2247 4128 
Q 3097 4128 3681 4178 
Q 3700 4178 3700 4159 
Q 3706 3738 3781 3250 
Q 3709 3219 3566 3219 
Q 3488 3578 3270 3728 
Q 3053 3878 2675 3878 
L 2534 3878 
Q 2369 3878 2305 3715 
Q 2241 3553 2241 3225 
L 2241 781 
z
" transform="scale(0.015625)"/>
        <path id="LinLibertine-45" d="M 1747 2309 
Q 2138 2309 2227 2386 
Q 2316 2463 2328 2747 
Q 2353 2778 2431 2778 
Q 2509 2778 2541 2747 
Q 2528 2363 2528 2194 
Q 2528 2078 2541 1631 
Q 2509 1600 2432 1600 
Q 2356 1600 2328 1631 
Q 2316 1803 2291 1878 
Q 2266 1953 2137 2011 
Q 2009 2069 1747 2069 
L 1166 2069 
L 1166 525 
Q 1166 250 1394 250 
L 2266 250 
Q 2875 250 3103 1088 
Q 3219 1113 3328 1056 
Q 3250 550 3091 -13 
Q 2578 0 2272 0 
L 897 0 
Q 378 -6 63 -13 
Q 38 13 38 89 
Q 38 166 63 197 
Q 422 209 522 303 
Q 622 397 622 781 
L 622 3347 
Q 622 3731 522 3823 
Q 422 3916 63 3928 
Q 38 3953 38 4031 
Q 38 4109 63 4141 
L 891 4128 
L 2522 4128 
Q 2688 4128 2834 4153 
Q 2859 4153 2859 4134 
Q 2909 3916 3003 3206 
Q 2900 3156 2791 3175 
Q 2669 3559 2534 3715 
Q 2400 3872 2069 3872 
L 1394 3872 
Q 1284 3872 1225 3792 
Q 1166 3713 1166 3591 
L 1166 2309 
L 1747 2309 
z
" transform="scale(0.015625)"/>
       </defs>
       <use xlink:href="#LinLibertine-54"/>
       <use xlink:href="#LinLibertine-45" x="59.667969"/>
      </g>
     </g>
    </g>
    <g id="ytick_2">
     <g id="line2d_5">
      <g>
       <use xlink:href="#mdd2eb447db" x="63.895" y="36.768" style="stroke: #000000; stroke-width: 0.8"/>
      </g>
     </g>
     <g id="text_6">
      <!-- DD/HV -->
      <g transform="translate(7.2 42.35425) scale(0.16 -0.16)">
       <defs>
        <path id="LinLibertine-44" d="M 1222 531 
Q 1222 359 1353 282 
Q 1484 206 1919 206 
Q 2284 206 2565 279 
Q 2847 353 3090 525 
Q 3334 697 3465 1023 
Q 3597 1350 3597 1819 
Q 3597 2209 3501 2567 
Q 3406 2925 3200 3239 
Q 2994 3553 2623 3737 
Q 2253 3922 1759 3922 
Q 1222 3922 1222 3609 
L 1222 531 
z
M 947 4128 
Q 1050 4128 1414 4134 
Q 1778 4141 2003 4141 
Q 2925 4141 3569 3505 
Q 4213 2869 4213 1972 
Q 4213 1409 4017 1001 
Q 3822 594 3498 383 
Q 3175 172 2833 79 
Q 2491 -13 2119 -13 
Q 1734 -13 1376 -6 
Q 1019 0 953 0 
Q 747 0 122 -13 
Q 91 13 91 89 
Q 91 166 122 197 
Q 481 209 579 303 
Q 678 397 678 781 
L 678 3347 
Q 678 3731 579 3823 
Q 481 3916 122 3928 
Q 91 3953 91 4031 
Q 91 4109 122 4141 
Q 763 4128 947 4128 
z
" transform="scale(0.015625)"/>
        <path id="LinLibertine-2f" d="M 1875 4134 
L 359 -378 
L 97 -378 
L 1613 4134 
L 1875 4134 
z
" transform="scale(0.015625)"/>
        <path id="LinLibertine-48" d="M 3956 781 
Q 3956 397 4054 305 
Q 4153 213 4513 197 
Q 4544 166 4544 89 
Q 4544 13 4513 -13 
Q 3872 0 3688 0 
Q 3481 0 2853 -13 
Q 2828 13 2828 89 
Q 2828 166 2853 197 
Q 3213 209 3313 303 
Q 3413 397 3413 781 
L 3413 2053 
L 1222 2053 
L 1222 781 
Q 1222 397 1322 305 
Q 1422 213 1778 197 
Q 1803 166 1804 89 
Q 1806 13 1778 -13 
Q 1138 0 953 0 
Q 747 0 122 -13 
Q 91 13 91 89 
Q 91 166 122 197 
Q 481 209 579 303 
Q 678 397 678 781 
L 678 3347 
Q 678 3731 579 3823 
Q 481 3916 122 3928 
Q 91 3953 91 4031 
Q 91 4109 122 4141 
Q 763 4128 947 4128 
Q 1153 4128 1778 4141 
Q 1803 4109 1804 4032 
Q 1806 3956 1778 3928 
Q 1419 3916 1320 3823 
Q 1222 3731 1222 3347 
L 1222 2322 
L 3413 2322 
L 3413 3347 
Q 3413 3731 3313 3823 
Q 3213 3916 2853 3928 
Q 2828 3953 2828 4031 
Q 2828 4109 2853 4141 
Q 3494 4128 3681 4128 
Q 3888 4128 4513 4141 
Q 4544 4109 4544 4032 
Q 4544 3956 4513 3928 
Q 4153 3916 4054 3823 
Q 3956 3731 3956 3347 
L 3956 781 
z
" transform="scale(0.015625)"/>
        <path id="LinLibertine-56" d="M 2869 3928 
Q 2844 3953 2842 4031 
Q 2841 4109 2869 4141 
Q 3472 4128 3566 4128 
Q 3616 4128 4128 4141 
Q 4159 4109 4159 4032 
Q 4159 3956 4128 3928 
Q 4006 3913 3911 3870 
Q 3816 3828 3761 3789 
Q 3706 3750 3650 3654 
Q 3594 3559 3573 3512 
Q 3553 3466 3500 3334 
L 2175 72 
Q 2119 -75 2022 -78 
Q 1931 -78 1875 72 
L 613 3347 
Q 466 3722 383 3814 
Q 300 3906 38 3928 
Q 6 3959 6 4034 
Q 6 4109 31 4141 
Q 634 4128 697 4128 
Q 869 4128 1472 4141 
Q 1497 4109 1497 4032 
Q 1497 3956 1472 3928 
Q 1150 3894 1090 3798 
Q 1031 3703 1147 3419 
L 2166 813 
L 2197 813 
L 3206 3378 
Q 3328 3641 3264 3772 
Q 3200 3903 2869 3928 
z
" transform="scale(0.015625)"/>
       </defs>
       <use xlink:href="#LinLibertine-44"/>
       <use xlink:href="#LinLibertine-44" x="70.068359"/>
       <use xlink:href="#LinLibertine-2f" x="140.136719"/>
       <use xlink:href="#LinLibertine-48" x="172.412109"/>
       <use xlink:href="#LinLibertine-56" x="245.410156"/>
      </g>
     </g>
    </g>
    <g id="ytick_3">
     <g id="line2d_6">
      <g>
       <use xlink:href="#mdd2eb447db" x="63.895" y="56.48" style="stroke: #000000; stroke-width: 0.8"/>
      </g>
     </g>
     <g id="text_7">
      <!-- EC -->
      <g transform="translate(37.7775 62.06625) scale(0.16 -0.16)">
       <defs>
        <path id="LinLibertine-43" d="M 2284 -63 
Q 1625 -63 1148 246 
Q 672 556 455 1017 
Q 238 1478 238 2016 
Q 238 3047 916 3669 
Q 1509 4213 2291 4213 
Q 2750 4213 3189 4070 
Q 3628 3928 3694 3922 
Q 3803 3250 3834 2931 
Q 3713 2869 3622 2900 
Q 3297 3975 2222 3975 
Q 1663 3975 1200 3406 
Q 1019 3184 919 2862 
Q 819 2541 819 2138 
Q 819 1644 972 1216 
Q 1125 788 1465 492 
Q 1806 197 2278 197 
Q 2725 197 3075 361 
Q 3425 525 3763 897 
Q 3859 897 3909 800 
Q 3250 -63 2284 -63 
z
" transform="scale(0.015625)"/>
       </defs>
       <use xlink:href="#LinLibertine-45"/>
       <use xlink:href="#LinLibertine-43" x="54.882812"/>
      </g>
     </g>
    </g>
    <g id="ytick_4">
     <g id="line2d_7">
      <g>
       <use xlink:href="#mdd2eb447db" x="63.895" y="76.192" style="stroke: #000000; stroke-width: 0.8"/>
      </g>
     </g>
     <g id="text_8">
      <!-- NOGV -->
      <g transform="translate(12.94 81.77825) scale(0.16 -0.16)">
       <defs>
        <path id="LinLibertine-4e" d="M 3559 3278 
Q 3559 3503 3539 3620 
Q 3519 3738 3442 3805 
Q 3366 3872 3283 3890 
Q 3200 3909 3003 3928 
Q 2972 3953 2970 4031 
Q 2969 4109 3003 4141 
Q 3644 4128 3713 4128 
Q 3803 4128 4428 4141 
Q 4453 4109 4453 4032 
Q 4453 3956 4428 3928 
Q 4069 3891 3970 3789 
Q 3872 3688 3872 3278 
L 3872 134 
Q 3872 -63 3725 -63 
Q 3584 -63 3469 91 
L 1234 2913 
Q 1069 3125 1017 3123 
Q 966 3122 966 2809 
L 966 850 
Q 966 625 986 508 
Q 1006 391 1082 323 
Q 1159 256 1242 237 
Q 1325 219 1522 197 
Q 1547 166 1548 89 
Q 1550 13 1522 -13 
Q 881 0 813 0 
Q 722 0 97 -13 
Q 66 13 64 89 
Q 63 166 97 197 
Q 456 234 554 337 
Q 653 441 653 850 
L 653 3519 
Q 622 3659 481 3787 
Q 341 3916 147 3928 
Q 116 3953 116 4031 
Q 116 4109 147 4141 
L 1013 4128 
L 3206 1300 
Q 3250 1244 3301 1172 
Q 3353 1100 3379 1069 
Q 3406 1038 3434 1005 
Q 3463 972 3481 959 
Q 3500 947 3513 947 
Q 3556 947 3559 1141 
L 3559 3278 
z
" transform="scale(0.015625)"/>
        <path id="LinLibertine-4f" d="M 2119 3994 
Q 1888 3994 1670 3881 
Q 1453 3769 1267 3551 
Q 1081 3334 965 2953 
Q 850 2572 850 2094 
Q 850 1209 1298 681 
Q 1747 153 2369 153 
Q 2931 153 3289 650 
Q 3647 1147 3647 1984 
Q 3647 2925 3212 3459 
Q 2778 3994 2119 3994 
z
M 4263 2106 
Q 4263 1306 3866 744 
Q 3597 359 3180 148 
Q 2763 -63 2241 -63 
Q 1397 -63 817 500 
Q 238 1063 238 1984 
Q 238 2831 675 3431 
Q 944 3800 1339 4006 
Q 1734 4213 2203 4213 
Q 3094 4213 3678 3642 
Q 4263 3072 4263 2106 
z
" transform="scale(0.015625)"/>
       </defs>
       <use xlink:href="#LinLibertine-4e"/>
       <use xlink:href="#LinLibertine-4f" x="69.873047"/>
       <use xlink:href="#LinLibertine-47" x="140.039062"/>
       <use xlink:href="#LinLibertine-56" x="209.521484"/>
      </g>
     </g>
    </g>
    <g id="ytick_5">
     <g id="line2d_8">
      <g>
       <use xlink:href="#mdd2eb447db" x="63.895" y="95.904" style="stroke: #000000; stroke-width: 0.8"/>
      </g>
     </g>
     <g id="text_9">
      <!-- NOMT -->
      <g transform="translate(11.5175 101.49025) scale(0.16 -0.16)">
       <defs>
        <path id="LinLibertine-4d" d="M 4241 744 
L 4078 3419 
L 4063 3419 
L 2625 31 
Q 2588 -41 2534 -38 
Q 2463 -38 2438 31 
L 1113 3353 
L 1100 3353 
L 856 788 
Q 831 488 907 356 
Q 984 225 1281 197 
Q 1306 166 1306 89 
Q 1306 13 1281 -13 
Q 897 0 678 0 
Q 513 0 128 -13 
Q 103 13 103 89 
Q 103 166 128 197 
Q 391 219 484 344 
Q 578 469 606 775 
L 863 3413 
Q 894 3766 831 3837 
Q 769 3909 428 3928 
Q 397 3953 397 4031 
Q 397 4109 428 4141 
L 1356 4128 
L 2669 878 
Q 2706 794 2719 794 
Q 2738 794 2778 884 
L 4134 4128 
L 4972 4141 
Q 5003 4109 5004 4032 
Q 5006 3956 4972 3928 
Q 4656 3909 4584 3825 
Q 4513 3741 4534 3469 
L 4725 775 
Q 4734 622 4742 547 
Q 4750 472 4773 395 
Q 4797 319 4820 292 
Q 4844 266 4905 241 
Q 4966 216 5030 209 
Q 5094 203 5216 197 
Q 5247 166 5247 89 
Q 5247 13 5216 -13 
Q 4794 0 4519 0 
Q 4434 0 3834 -13 
Q 3803 13 3803 89 
Q 3803 166 3834 197 
Q 3959 203 4012 208 
Q 4066 213 4128 234 
Q 4191 256 4208 281 
Q 4225 306 4240 376 
Q 4256 447 4253 522 
Q 4250 597 4241 744 
z
" transform="scale(0.015625)"/>
       </defs>
       <use xlink:href="#LinLibertine-4e"/>
       <use xlink:href="#LinLibertine-4f" x="69.873047"/>
       <use xlink:href="#LinLibertine-4d" x="140.039062"/>
       <use xlink:href="#LinLibertine-54" x="223.925781"/>
      </g>
     </g>
    </g>
    <g id="ytick_6">
     <g id="line2d_9">
      <g>
       <use xlink:href="#mdd2eb447db" x="63.895" y="115.616" style="stroke: #000000; stroke-width: 0.8"/>
      </g>
     </g>
     <g id="text_10">
      <!-- II -->
      <g transform="translate(47.395 121.20225) scale(0.16 -0.16)">
       <use xlink:href="#LinLibertine-49"/>
       <use xlink:href="#LinLibertine-49" x="29.6875"/>
      </g>
     </g>
    </g>
    <g id="ytick_7">
     <g id="line2d_10">
      <g>
       <use xlink:href="#mdd2eb447db" x="63.895" y="135.328" style="stroke: #000000; stroke-width: 0.8"/>
      </g>
     </g>
     <g id="text_11">
      <!-- NOP -->
      <g transform="translate(25.995 140.91425) scale(0.16 -0.16)">
       <defs>
        <path id="LinLibertine-50" d="M 1209 3547 
L 1209 2053 
Q 1325 2022 1697 2022 
Q 2172 2022 2411 2256 
Q 2650 2491 2650 2994 
Q 2650 3550 2406 3753 
Q 2163 3956 1766 3956 
Q 1209 3956 1209 3547 
z
M 666 3347 
Q 666 3731 567 3823 
Q 469 3916 109 3928 
Q 78 3953 78 4031 
Q 78 4109 109 4141 
Q 750 4128 934 4128 
Q 1075 4128 1408 4150 
Q 1741 4172 1813 4172 
Q 2228 4172 2528 4064 
Q 2828 3956 2975 3779 
Q 3122 3603 3183 3440 
Q 3244 3278 3244 3109 
Q 3244 2884 3167 2670 
Q 3091 2456 2928 2254 
Q 2766 2053 2455 1929 
Q 2144 1806 1728 1806 
Q 1409 1806 1209 1869 
L 1209 781 
Q 1209 403 1331 311 
Q 1453 219 1863 197 
Q 1894 166 1894 89 
Q 1894 13 1863 -13 
Q 1222 0 941 0 
Q 734 0 109 -13 
Q 78 13 78 89 
Q 78 166 109 197 
Q 469 209 567 303 
Q 666 397 666 781 
L 666 3347 
z
" transform="scale(0.015625)"/>
       </defs>
       <use xlink:href="#LinLibertine-4e"/>
       <use xlink:href="#LinLibertine-4f" x="69.873047"/>
       <use xlink:href="#LinLibertine-50" x="140.039062"/>
      </g>
     </g>
    </g>
    <g id="ytick_8">
     <g id="line2d_11">
      <g>
       <use xlink:href="#mdd2eb447db" x="63.895" y="155.04" style="stroke: #000000; stroke-width: 0.8"/>
      </g>
     </g>
     <g id="text_12">
      <!-- MDNL -->
      <g transform="translate(12.6675 160.62625) scale(0.16 -0.16)">
       <defs>
        <path id="LinLibertine-4c" d="M 941 0 
Q 422 -6 109 -13 
Q 78 13 78 89 
Q 78 166 109 197 
Q 469 209 567 303 
Q 666 397 666 781 
L 666 3347 
Q 666 3731 567 3823 
Q 469 3916 109 3928 
Q 78 3953 78 4031 
Q 78 4109 109 4141 
Q 750 4128 934 4128 
Q 1141 4128 1766 4141 
Q 1791 4109 1791 4032 
Q 1791 3956 1766 3928 
Q 1406 3916 1307 3823 
Q 1209 3731 1209 3347 
L 1209 569 
Q 1209 422 1289 336 
Q 1369 250 1509 250 
L 1978 250 
Q 2447 250 2680 470 
Q 2913 691 3022 1088 
Q 3131 1106 3231 1056 
Q 3169 500 3066 -13 
Q 2475 0 2303 0 
L 941 0 
z
" transform="scale(0.015625)"/>
       </defs>
       <use xlink:href="#LinLibertine-4d"/>
       <use xlink:href="#LinLibertine-44" x="83.886719"/>
       <use xlink:href="#LinLibertine-4e" x="153.955078"/>
       <use xlink:href="#LinLibertine-4c" x="223.828125"/>
      </g>
     </g>
    </g>
    <g id="ytick_9">
     <g id="line2d_12">
      <g>
       <use xlink:href="#mdd2eb447db" x="63.895" y="174.752" style="stroke: #000000; stroke-width: 0.8"/>
      </g>
     </g>
     <g id="text_13">
      <!-- NB -->
      <g transform="translate(36.3075 180.33825) scale(0.16 -0.16)">
       <defs>
        <path id="LinLibertine-42" d="M 1222 3647 
L 1222 2344 
L 1697 2344 
Q 2606 2344 2606 3078 
Q 2606 3519 2356 3720 
Q 2106 3922 1778 3922 
Q 1503 3922 1386 3894 
Q 1269 3866 1245 3817 
Q 1222 3769 1222 3647 
z
M 1222 2125 
L 1222 628 
Q 1222 200 1753 197 
Q 2425 197 2665 425 
Q 2906 653 2906 1056 
Q 2906 1525 2595 1825 
Q 2284 2125 1663 2125 
L 1222 2125 
z
M 947 4128 
Q 1088 4128 1363 4134 
Q 1638 4141 1747 4141 
Q 3122 4141 3122 3156 
Q 3122 2906 2947 2675 
Q 2772 2444 2516 2316 
L 2516 2303 
Q 2963 2175 3231 1894 
Q 3500 1613 3500 1178 
Q 3500 953 3423 754 
Q 3347 556 3175 376 
Q 3003 197 2673 92 
Q 2344 -13 1888 -13 
Q 1569 -13 1312 -6 
Q 1056 0 953 0 
Q 747 0 122 -13 
Q 91 13 91 89 
Q 91 166 122 197 
Q 481 209 579 303 
Q 678 397 678 781 
L 678 3347 
Q 678 3731 579 3823 
Q 481 3916 122 3928 
Q 91 3953 91 4031 
Q 91 4109 122 4141 
Q 763 4128 947 4128 
z
" transform="scale(0.015625)"/>
       </defs>
       <use xlink:href="#LinLibertine-4e"/>
       <use xlink:href="#LinLibertine-42" x="69.873047"/>
      </g>
     </g>
    </g>
   </g>
   <g id="patch_12">
    <path d="M 63.895 184.608 
L 63.895 7.2 
" style="fill: none; stroke: #000000; stroke-width: 0.8; stroke-linejoin: miter; stroke-linecap: square"/>
   </g>
   <g id="patch_13">
    <path d="M 63.895 184.608 
L 287.095 184.608 
" style="fill: none; stroke: #000000; stroke-width: 0.8; stroke-linejoin: miter; stroke-linecap: square"/>
   </g>
  </g>
 </g>
 <defs>
  <clipPath id="pacb2d872ea">
   <rect x="63.895" y="7.2" width="223.2" height="177.408"/>
  </clipPath>
 </defs>
</svg>
