<?xml version="1.0" encoding="utf-8" standalone="no"?>
<!DOCTYPE svg PUBLIC "-//W3C//DTD SVG 1.1//EN"
  "http://www.w3.org/Graphics/SVG/1.1/DTD/svg11.dtd">
<svg xmlns:xlink="http://www.w3.org/1999/xlink" width="352.613438pt" height="352.613437pt" viewBox="0 0 352.613438 352.613437" xmlns="http://www.w3.org/2000/svg" version="1.1">
 <metadata>
  <rdf:RDF xmlns:dc="http://purl.org/dc/elements/1.1/" xmlns:cc="http://creativecommons.org/ns#" xmlns:rdf="http://www.w3.org/1999/02/22-rdf-syntax-ns#">
   <cc:Work>
    <dc:type rdf:resource="http://purl.org/dc/dcmitype/StillImage"/>
    <dc:date>2024-06-07T19:11:05.290405</dc:date>
    <dc:format>image/svg+xml</dc:format>
    <dc:creator>
     <cc:Agent>
      <dc:title>Matplotlib v3.8.4, https://matplotlib.org/</dc:title>
     </cc:Agent>
    </dc:creator>
   </cc:Work>
  </rdf:RDF>
 </metadata>
 <defs>
  <style type="text/css">*{stroke-linejoin: round; stroke-linecap: butt}</style>
 </defs>
 <g id="figure_1">
  <g id="patch_1">
   <path d="M 0 352.613437 
L 352.613438 352.613437 
L 352.613438 0 
L 0 0 
z
" style="fill: #ffffff"/>
  </g>
  <g id="axes_1">
   <g id="patch_2">
    <path d="M 62.523438 290.09 
L 345.413437 290.09 
L 345.413437 7.2 
L 62.523438 7.2 
z
" style="fill: #ffffff"/>
   </g>
   <g id="QuadMesh_1">
    <path d="M 62.523438 7.2 
L 93.95566 7.2 
L 93.95566 38.632222 
L 62.523438 38.632222 
L 62.523438 7.2 
" clip-path="url(#p8a3af5eeb8)" style="fill: none"/>
    <path d="M 93.95566 7.2 
L 125.387882 7.2 
L 125.387882 38.632222 
L 93.95566 38.632222 
L 93.95566 7.2 
" clip-path="url(#p8a3af5eeb8)" style="fill: none"/>
    <path d="M 125.387882 7.2 
L 156.820104 7.2 
L 156.820104 38.632222 
L 125.387882 38.632222 
L 125.387882 7.2 
" clip-path="url(#p8a3af5eeb8)" style="fill: none"/>
    <path d="M 156.820104 7.2 
L 188.252326 7.2 
L 188.252326 38.632222 
L 156.820104 38.632222 
L 156.820104 7.2 
" clip-path="url(#p8a3af5eeb8)" style="fill: none"/>
    <path d="M 188.252326 7.2 
L 219.684549 7.2 
L 219.684549 38.632222 
L 188.252326 38.632222 
L 188.252326 7.2 
" clip-path="url(#p8a3af5eeb8)" style="fill: none"/>
    <path d="M 219.684549 7.2 
L 251.116771 7.2 
L 251.116771 38.632222 
L 219.684549 38.632222 
L 219.684549 7.2 
" clip-path="url(#p8a3af5eeb8)" style="fill: none"/>
    <path d="M 251.116771 7.2 
L 282.548993 7.2 
L 282.548993 38.632222 
L 251.116771 38.632222 
L 251.116771 7.2 
" clip-path="url(#p8a3af5eeb8)" style="fill: none"/>
    <path d="M 282.548993 7.2 
L 313.981215 7.2 
L 313.981215 38.632222 
L 282.548993 38.632222 
L 282.548993 7.2 
" clip-path="url(#p8a3af5eeb8)" style="fill: none"/>
    <path d="M 313.981215 7.2 
L 345.413437 7.2 
L 345.413437 38.632222 
L 313.981215 38.632222 
L 313.981215 7.2 
" clip-path="url(#p8a3af5eeb8)" style="fill: none"/>
    <path d="M 62.523438 38.632222 
L 93.95566 38.632222 
L 93.95566 70.064444 
L 62.523438 70.064444 
L 62.523438 38.632222 
" clip-path="url(#p8a3af5eeb8)" style="fill: #d1dae9"/>
    <path d="M 93.95566 38.632222 
L 125.387882 38.632222 
L 125.387882 70.064444 
L 93.95566 70.064444 
L 93.95566 38.632222 
" clip-path="url(#p8a3af5eeb8)" style="fill: none"/>
    <path d="M 125.387882 38.632222 
L 156.820104 38.632222 
L 156.820104 70.064444 
L 125.387882 70.064444 
L 125.387882 38.632222 
" clip-path="url(#p8a3af5eeb8)" style="fill: none"/>
    <path d="M 156.820104 38.632222 
L 188.252326 38.632222 
L 188.252326 70.064444 
L 156.820104 70.064444 
L 156.820104 38.632222 
" clip-path="url(#p8a3af5eeb8)" style="fill: none"/>
    <path d="M 188.252326 38.632222 
L 219.684549 38.632222 
L 219.684549 70.064444 
L 188.252326 70.064444 
L 188.252326 38.632222 
" clip-path="url(#p8a3af5eeb8)" style="fill: none"/>
    <path d="M 219.684549 38.632222 
L 251.116771 38.632222 
L 251.116771 70.064444 
L 219.684549 70.064444 
L 219.684549 38.632222 
" clip-path="url(#p8a3af5eeb8)" style="fill: none"/>
    <path d="M 251.116771 38.632222 
L 282.548993 38.632222 
L 282.548993 70.064444 
L 251.116771 70.064444 
L 251.116771 38.632222 
" clip-path="url(#p8a3af5eeb8)" style="fill: none"/>
    <path d="M 282.548993 38.632222 
L 313.981215 38.632222 
L 313.981215 70.064444 
L 282.548993 70.064444 
L 282.548993 38.632222 
" clip-path="url(#p8a3af5eeb8)" style="fill: none"/>
    <path d="M 313.981215 38.632222 
L 345.413437 38.632222 
L 345.413437 70.064444 
L 313.981215 70.064444 
L 313.981215 38.632222 
" clip-path="url(#p8a3af5eeb8)" style="fill: none"/>
    <path d="M 62.523438 70.064444 
L 93.95566 70.064444 
L 93.95566 101.496667 
L 62.523438 101.496667 
L 62.523438 70.064444 
" clip-path="url(#p8a3af5eeb8)" style="fill: #f39577"/>
    <path d="M 93.95566 70.064444 
L 125.387882 70.064444 
L 125.387882 101.496667 
L 93.95566 101.496667 
L 93.95566 70.064444 
" clip-path="url(#p8a3af5eeb8)" style="fill: #d4dbe6"/>
    <path d="M 125.387882 70.064444 
L 156.820104 70.064444 
L 156.820104 101.496667 
L 125.387882 101.496667 
L 125.387882 70.064444 
" clip-path="url(#p8a3af5eeb8)" style="fill: none"/>
    <path d="M 156.820104 70.064444 
L 188.252326 70.064444 
L 188.252326 101.496667 
L 156.820104 101.496667 
L 156.820104 70.064444 
" clip-path="url(#p8a3af5eeb8)" style="fill: none"/>
    <path d="M 188.252326 70.064444 
L 219.684549 70.064444 
L 219.684549 101.496667 
L 188.252326 101.496667 
L 188.252326 70.064444 
" clip-path="url(#p8a3af5eeb8)" style="fill: none"/>
    <path d="M 219.684549 70.064444 
L 251.116771 70.064444 
L 251.116771 101.496667 
L 219.684549 101.496667 
L 219.684549 70.064444 
" clip-path="url(#p8a3af5eeb8)" style="fill: none"/>
    <path d="M 251.116771 70.064444 
L 282.548993 70.064444 
L 282.548993 101.496667 
L 251.116771 101.496667 
L 251.116771 70.064444 
" clip-path="url(#p8a3af5eeb8)" style="fill: none"/>
    <path d="M 282.548993 70.064444 
L 313.981215 70.064444 
L 313.981215 101.496667 
L 282.548993 101.496667 
L 282.548993 70.064444 
" clip-path="url(#p8a3af5eeb8)" style="fill: none"/>
    <path d="M 313.981215 70.064444 
L 345.413437 70.064444 
L 345.413437 101.496667 
L 313.981215 101.496667 
L 313.981215 70.064444 
" clip-path="url(#p8a3af5eeb8)" style="fill: none"/>
    <path d="M 62.523438 101.496667 
L 93.95566 101.496667 
L 93.95566 132.928889 
L 62.523438 132.928889 
L 62.523438 101.496667 
" clip-path="url(#p8a3af5eeb8)" style="fill: #e7d7ce"/>
    <path d="M 93.95566 101.496667 
L 125.387882 101.496667 
L 125.387882 132.928889 
L 93.95566 132.928889 
L 93.95566 101.496667 
" clip-path="url(#p8a3af5eeb8)" style="fill: #b6cefa"/>
    <path d="M 125.387882 101.496667 
L 156.820104 101.496667 
L 156.820104 132.928889 
L 125.387882 132.928889 
L 125.387882 101.496667 
" clip-path="url(#p8a3af5eeb8)" style="fill: #f5c4ac"/>
    <path d="M 156.820104 101.496667 
L 188.252326 101.496667 
L 188.252326 132.928889 
L 156.820104 132.928889 
L 156.820104 101.496667 
" clip-path="url(#p8a3af5eeb8)" style="fill: none"/>
    <path d="M 188.252326 101.496667 
L 219.684549 101.496667 
L 219.684549 132.928889 
L 188.252326 132.928889 
L 188.252326 101.496667 
" clip-path="url(#p8a3af5eeb8)" style="fill: none"/>
    <path d="M 219.684549 101.496667 
L 251.116771 101.496667 
L 251.116771 132.928889 
L 219.684549 132.928889 
L 219.684549 101.496667 
" clip-path="url(#p8a3af5eeb8)" style="fill: none"/>
    <path d="M 251.116771 101.496667 
L 282.548993 101.496667 
L 282.548993 132.928889 
L 251.116771 132.928889 
L 251.116771 101.496667 
" clip-path="url(#p8a3af5eeb8)" style="fill: none"/>
    <path d="M 282.548993 101.496667 
L 313.981215 101.496667 
L 313.981215 132.928889 
L 282.548993 132.928889 
L 282.548993 101.496667 
" clip-path="url(#p8a3af5eeb8)" style="fill: none"/>
    <path d="M 313.981215 101.496667 
L 345.413437 101.496667 
L 345.413437 132.928889 
L 313.981215 132.928889 
L 313.981215 101.496667 
" clip-path="url(#p8a3af5eeb8)" style="fill: none"/>
    <path d="M 62.523438 132.928889 
L 93.95566 132.928889 
L 93.95566 164.361111 
L 62.523438 164.361111 
L 62.523438 132.928889 
" clip-path="url(#p8a3af5eeb8)" style="fill: #e1dad6"/>
    <path d="M 93.95566 132.928889 
L 125.387882 132.928889 
L 125.387882 164.361111 
L 93.95566 164.361111 
L 93.95566 132.928889 
" clip-path="url(#p8a3af5eeb8)" style="fill: #e8765c"/>
    <path d="M 125.387882 132.928889 
L 156.820104 132.928889 
L 156.820104 164.361111 
L 125.387882 164.361111 
L 125.387882 132.928889 
" clip-path="url(#p8a3af5eeb8)" style="fill: #d4dbe6"/>
    <path d="M 156.820104 132.928889 
L 188.252326 132.928889 
L 188.252326 164.361111 
L 156.820104 164.361111 
L 156.820104 132.928889 
" clip-path="url(#p8a3af5eeb8)" style="fill: #dbdcde"/>
    <path d="M 188.252326 132.928889 
L 219.684549 132.928889 
L 219.684549 164.361111 
L 188.252326 164.361111 
L 188.252326 132.928889 
" clip-path="url(#p8a3af5eeb8)" style="fill: none"/>
    <path d="M 219.684549 132.928889 
L 251.116771 132.928889 
L 251.116771 164.361111 
L 219.684549 164.361111 
L 219.684549 132.928889 
" clip-path="url(#p8a3af5eeb8)" style="fill: none"/>
    <path d="M 251.116771 132.928889 
L 282.548993 132.928889 
L 282.548993 164.361111 
L 251.116771 164.361111 
L 251.116771 132.928889 
" clip-path="url(#p8a3af5eeb8)" style="fill: none"/>
    <path d="M 282.548993 132.928889 
L 313.981215 132.928889 
L 313.981215 164.361111 
L 282.548993 164.361111 
L 282.548993 132.928889 
" clip-path="url(#p8a3af5eeb8)" style="fill: none"/>
    <path d="M 313.981215 132.928889 
L 345.413437 132.928889 
L 345.413437 164.361111 
L 313.981215 164.361111 
L 313.981215 132.928889 
" clip-path="url(#p8a3af5eeb8)" style="fill: none"/>
    <path d="M 62.523438 164.361111 
L 93.95566 164.361111 
L 93.95566 195.793333 
L 62.523438 195.793333 
L 62.523438 164.361111 
" clip-path="url(#p8a3af5eeb8)" style="fill: #dedcdb"/>
    <path d="M 93.95566 164.361111 
L 125.387882 164.361111 
L 125.387882 195.793333 
L 93.95566 195.793333 
L 93.95566 164.361111 
" clip-path="url(#p8a3af5eeb8)" style="fill: #c9d7f0"/>
    <path d="M 125.387882 164.361111 
L 156.820104 164.361111 
L 156.820104 195.793333 
L 125.387882 195.793333 
L 125.387882 164.361111 
" clip-path="url(#p8a3af5eeb8)" style="fill: #f2cbb7"/>
    <path d="M 156.820104 164.361111 
L 188.252326 164.361111 
L 188.252326 195.793333 
L 156.820104 195.793333 
L 156.820104 164.361111 
" clip-path="url(#p8a3af5eeb8)" style="fill: #f29274"/>
    <path d="M 188.252326 164.361111 
L 219.684549 164.361111 
L 219.684549 195.793333 
L 188.252326 195.793333 
L 188.252326 164.361111 
" clip-path="url(#p8a3af5eeb8)" style="fill: #d8dce2"/>
    <path d="M 219.684549 164.361111 
L 251.116771 164.361111 
L 251.116771 195.793333 
L 219.684549 195.793333 
L 219.684549 164.361111 
" clip-path="url(#p8a3af5eeb8)" style="fill: none"/>
    <path d="M 251.116771 164.361111 
L 282.548993 164.361111 
L 282.548993 195.793333 
L 251.116771 195.793333 
L 251.116771 164.361111 
" clip-path="url(#p8a3af5eeb8)" style="fill: none"/>
    <path d="M 282.548993 164.361111 
L 313.981215 164.361111 
L 313.981215 195.793333 
L 282.548993 195.793333 
L 282.548993 164.361111 
" clip-path="url(#p8a3af5eeb8)" style="fill: none"/>
    <path d="M 313.981215 164.361111 
L 345.413437 164.361111 
L 345.413437 195.793333 
L 313.981215 195.793333 
L 313.981215 164.361111 
" clip-path="url(#p8a3af5eeb8)" style="fill: none"/>
    <path d="M 62.523438 195.793333 
L 93.95566 195.793333 
L 93.95566 227.225556 
L 62.523438 227.225556 
L 62.523438 195.793333 
" clip-path="url(#p8a3af5eeb8)" style="fill: #d6dce4"/>
    <path d="M 93.95566 195.793333 
L 125.387882 195.793333 
L 125.387882 227.225556 
L 93.95566 227.225556 
L 93.95566 195.793333 
" clip-path="url(#p8a3af5eeb8)" style="fill: #cfdaea"/>
    <path d="M 125.387882 195.793333 
L 156.820104 195.793333 
L 156.820104 227.225556 
L 125.387882 227.225556 
L 125.387882 195.793333 
" clip-path="url(#p8a3af5eeb8)" style="fill: #eed0c0"/>
    <path d="M 156.820104 195.793333 
L 188.252326 195.793333 
L 188.252326 227.225556 
L 156.820104 227.225556 
L 156.820104 195.793333 
" clip-path="url(#p8a3af5eeb8)" style="fill: #f6a385"/>
    <path d="M 188.252326 195.793333 
L 219.684549 195.793333 
L 219.684549 227.225556 
L 188.252326 227.225556 
L 188.252326 195.793333 
" clip-path="url(#p8a3af5eeb8)" style="fill: #dddcdc"/>
    <path d="M 219.684549 195.793333 
L 251.116771 195.793333 
L 251.116771 227.225556 
L 219.684549 227.225556 
L 219.684549 195.793333 
" clip-path="url(#p8a3af5eeb8)" style="fill: #ef886b"/>
    <path d="M 251.116771 195.793333 
L 282.548993 195.793333 
L 282.548993 227.225556 
L 251.116771 227.225556 
L 251.116771 195.793333 
" clip-path="url(#p8a3af5eeb8)" style="fill: none"/>
    <path d="M 282.548993 195.793333 
L 313.981215 195.793333 
L 313.981215 227.225556 
L 282.548993 227.225556 
L 282.548993 195.793333 
" clip-path="url(#p8a3af5eeb8)" style="fill: none"/>
    <path d="M 313.981215 195.793333 
L 345.413437 195.793333 
L 345.413437 227.225556 
L 313.981215 227.225556 
L 313.981215 195.793333 
" clip-path="url(#p8a3af5eeb8)" style="fill: none"/>
    <path d="M 62.523438 227.225556 
L 93.95566 227.225556 
L 93.95566 258.657778 
L 62.523438 258.657778 
L 62.523438 227.225556 
" clip-path="url(#p8a3af5eeb8)" style="fill: #f7ba9f"/>
    <path d="M 93.95566 227.225556 
L 125.387882 227.225556 
L 125.387882 258.657778 
L 93.95566 258.657778 
L 93.95566 227.225556 
" clip-path="url(#p8a3af5eeb8)" style="fill: #7da0f9"/>
    <path d="M 125.387882 227.225556 
L 156.820104 227.225556 
L 156.820104 258.657778 
L 125.387882 258.657778 
L 125.387882 227.225556 
" clip-path="url(#p8a3af5eeb8)" style="fill: #ead4c8"/>
    <path d="M 156.820104 227.225556 
L 188.252326 227.225556 
L 188.252326 258.657778 
L 156.820104 258.657778 
L 156.820104 227.225556 
" clip-path="url(#p8a3af5eeb8)" style="fill: #f59d7e"/>
    <path d="M 188.252326 227.225556 
L 219.684549 227.225556 
L 219.684549 258.657778 
L 188.252326 258.657778 
L 188.252326 227.225556 
" clip-path="url(#p8a3af5eeb8)" style="fill: #d8dce2"/>
    <path d="M 219.684549 227.225556 
L 251.116771 227.225556 
L 251.116771 258.657778 
L 219.684549 258.657778 
L 219.684549 227.225556 
" clip-path="url(#p8a3af5eeb8)" style="fill: #f5c4ac"/>
    <path d="M 251.116771 227.225556 
L 282.548993 227.225556 
L 282.548993 258.657778 
L 251.116771 258.657778 
L 251.116771 227.225556 
" clip-path="url(#p8a3af5eeb8)" style="fill: #f1cdba"/>
    <path d="M 282.548993 227.225556 
L 313.981215 227.225556 
L 313.981215 258.657778 
L 282.548993 258.657778 
L 282.548993 227.225556 
" clip-path="url(#p8a3af5eeb8)" style="fill: none"/>
    <path d="M 313.981215 227.225556 
L 345.413437 227.225556 
L 345.413437 258.657778 
L 313.981215 258.657778 
L 313.981215 227.225556 
" clip-path="url(#p8a3af5eeb8)" style="fill: none"/>
    <path d="M 62.523438 258.657778 
L 93.95566 258.657778 
L 93.95566 290.09 
L 62.523438 290.09 
L 62.523438 258.657778 
" clip-path="url(#p8a3af5eeb8)" style="fill: #d4dbe6"/>
    <path d="M 93.95566 258.657778 
L 125.387882 258.657778 
L 125.387882 290.09 
L 93.95566 290.09 
L 93.95566 258.657778 
" clip-path="url(#p8a3af5eeb8)" style="fill: #d1dae9"/>
    <path d="M 125.387882 258.657778 
L 156.820104 258.657778 
L 156.820104 290.09 
L 125.387882 290.09 
L 125.387882 258.657778 
" clip-path="url(#p8a3af5eeb8)" style="fill: #ccd9ed"/>
    <path d="M 156.820104 258.657778 
L 188.252326 258.657778 
L 188.252326 290.09 
L 156.820104 290.09 
L 156.820104 258.657778 
" clip-path="url(#p8a3af5eeb8)" style="fill: #f2cbb7"/>
    <path d="M 188.252326 258.657778 
L 219.684549 258.657778 
L 219.684549 290.09 
L 188.252326 290.09 
L 188.252326 258.657778 
" clip-path="url(#p8a3af5eeb8)" style="fill: #d8dce2"/>
    <path d="M 219.684549 258.657778 
L 251.116771 258.657778 
L 251.116771 290.09 
L 219.684549 290.09 
L 219.684549 258.657778 
" clip-path="url(#p8a3af5eeb8)" style="fill: #edd1c2"/>
    <path d="M 251.116771 258.657778 
L 282.548993 258.657778 
L 282.548993 290.09 
L 251.116771 290.09 
L 251.116771 258.657778 
" clip-path="url(#p8a3af5eeb8)" style="fill: #e5d8d1"/>
    <path d="M 282.548993 258.657778 
L 313.981215 258.657778 
L 313.981215 290.09 
L 282.548993 290.09 
L 282.548993 258.657778 
" clip-path="url(#p8a3af5eeb8)" style="fill: #e8d6cc"/>
    <path d="M 313.981215 258.657778 
L 345.413437 258.657778 
L 345.413437 290.09 
L 313.981215 290.09 
L 313.981215 258.657778 
" clip-path="url(#p8a3af5eeb8)" style="fill: none"/>
   </g>
   <g id="matplotlib.axis_1">
    <g id="xtick_1">
     <g id="line2d_1">
      <defs>
       <path id="m6ccd84d5c3" d="M 0 0 
L 0 3.5 
" style="stroke: #000000; stroke-width: 0.8"/>
      </defs>
      <g>
       <use xlink:href="#m6ccd84d5c3" x="78.239549" y="290.09" style="stroke: #000000; stroke-width: 0.8"/>
      </g>
     </g>
     <g id="text_1">
      <!-- NUC -->
      <g transform="translate(81.843064 328.761094) rotate(-90) scale(0.15 -0.15)">
       <defs>
        <path id="TimesNewRomanPSMT-4e" d="M -84 4238 
L 1066 4238 
L 3656 1059 
L 3656 3503 
Q 3656 3894 3569 3991 
Q 3453 4122 3203 4122 
L 3056 4122 
L 3056 4238 
L 4531 4238 
L 4531 4122 
L 4381 4122 
Q 4113 4122 4000 3959 
Q 3931 3859 3931 3503 
L 3931 -69 
L 3819 -69 
L 1025 3344 
L 1025 734 
Q 1025 344 1109 247 
Q 1228 116 1475 116 
L 1625 116 
L 1625 0 
L 150 0 
L 150 116 
L 297 116 
Q 569 116 681 278 
Q 750 378 750 734 
L 750 3681 
Q 566 3897 470 3965 
Q 375 4034 191 4094 
Q 100 4122 -84 4122 
L -84 4238 
z
" transform="scale(0.015625)"/>
        <path id="TimesNewRomanPSMT-55" d="M 3053 4122 
L 3053 4238 
L 4553 4238 
L 4553 4122 
L 4394 4122 
Q 4144 4122 4009 3913 
Q 3944 3816 3944 3463 
L 3944 1744 
Q 3944 1106 3817 754 
Q 3691 403 3320 151 
Q 2950 -100 2313 -100 
Q 1619 -100 1259 140 
Q 900 381 750 788 
Q 650 1066 650 1831 
L 650 3488 
Q 650 3878 542 4000 
Q 434 4122 194 4122 
L 34 4122 
L 34 4238 
L 1866 4238 
L 1866 4122 
L 1703 4122 
Q 1441 4122 1328 3956 
Q 1250 3844 1250 3488 
L 1250 1641 
Q 1250 1394 1295 1075 
Q 1341 756 1459 578 
Q 1578 400 1801 284 
Q 2025 169 2350 169 
Q 2766 169 3094 350 
Q 3422 531 3542 814 
Q 3663 1097 3663 1772 
L 3663 3488 
Q 3663 3884 3575 3984 
Q 3453 4122 3213 4122 
L 3053 4122 
z
" transform="scale(0.015625)"/>
        <path id="TimesNewRomanPSMT-43" d="M 3853 4334 
L 3950 2894 
L 3853 2894 
Q 3659 3541 3300 3825 
Q 2941 4109 2438 4109 
Q 2016 4109 1675 3895 
Q 1334 3681 1139 3212 
Q 944 2744 944 2047 
Q 944 1472 1128 1050 
Q 1313 628 1683 403 
Q 2053 178 2528 178 
Q 2941 178 3256 354 
Q 3572 531 3950 1056 
L 4047 994 
Q 3728 428 3303 165 
Q 2878 -97 2294 -97 
Q 1241 -97 663 684 
Q 231 1266 231 2053 
Q 231 2688 515 3219 
Q 800 3750 1298 4042 
Q 1797 4334 2388 4334 
Q 2847 4334 3294 4109 
Q 3425 4041 3481 4041 
Q 3566 4041 3628 4100 
Q 3709 4184 3744 4334 
L 3853 4334 
z
" transform="scale(0.015625)"/>
       </defs>
       <use xlink:href="#TimesNewRomanPSMT-4e"/>
       <use xlink:href="#TimesNewRomanPSMT-55" x="72.216797"/>
       <use xlink:href="#TimesNewRomanPSMT-43" x="144.433594"/>
      </g>
     </g>
    </g>
    <g id="xtick_2">
     <g id="line2d_2">
      <g>
       <use xlink:href="#m6ccd84d5c3" x="109.671771" y="290.09" style="stroke: #000000; stroke-width: 0.8"/>
      </g>
     </g>
     <g id="text_2">
      <!-- SEXP -->
      <g transform="translate(113.275286 333.767344) rotate(-90) scale(0.15 -0.15)">
       <defs>
        <path id="TimesNewRomanPSMT-53" d="M 2934 4334 
L 2934 2869 
L 2819 2869 
Q 2763 3291 2617 3541 
Q 2472 3791 2203 3937 
Q 1934 4084 1647 4084 
Q 1322 4084 1109 3886 
Q 897 3688 897 3434 
Q 897 3241 1031 3081 
Q 1225 2847 1953 2456 
Q 2547 2138 2764 1967 
Q 2981 1797 3098 1565 
Q 3216 1334 3216 1081 
Q 3216 600 2842 251 
Q 2469 -97 1881 -97 
Q 1697 -97 1534 -69 
Q 1438 -53 1133 45 
Q 828 144 747 144 
Q 669 144 623 97 
Q 578 50 556 -97 
L 441 -97 
L 441 1356 
L 556 1356 
Q 638 900 775 673 
Q 913 447 1195 297 
Q 1478 147 1816 147 
Q 2206 147 2432 353 
Q 2659 559 2659 841 
Q 2659 997 2573 1156 
Q 2488 1316 2306 1453 
Q 2184 1547 1640 1851 
Q 1097 2156 867 2337 
Q 638 2519 519 2737 
Q 400 2956 400 3219 
Q 400 3675 750 4004 
Q 1100 4334 1641 4334 
Q 1978 4334 2356 4169 
Q 2531 4091 2603 4091 
Q 2684 4091 2736 4139 
Q 2788 4188 2819 4334 
L 2934 4334 
z
" transform="scale(0.015625)"/>
        <path id="TimesNewRomanPSMT-45" d="M 1338 4006 
L 1338 2331 
L 2269 2331 
Q 2631 2331 2753 2441 
Q 2916 2584 2934 2947 
L 3050 2947 
L 3050 1472 
L 2934 1472 
Q 2891 1781 2847 1869 
Q 2791 1978 2662 2040 
Q 2534 2103 2269 2103 
L 1338 2103 
L 1338 706 
Q 1338 425 1363 364 
Q 1388 303 1450 267 
Q 1513 231 1688 231 
L 2406 231 
Q 2766 231 2928 281 
Q 3091 331 3241 478 
Q 3434 672 3638 1063 
L 3763 1063 
L 3397 0 
L 131 0 
L 131 116 
L 281 116 
Q 431 116 566 188 
Q 666 238 702 338 
Q 738 438 738 747 
L 738 3500 
Q 738 3903 656 3997 
Q 544 4122 281 4122 
L 131 4122 
L 131 4238 
L 3397 4238 
L 3444 3309 
L 3322 3309 
Q 3256 3644 3176 3769 
Q 3097 3894 2941 3959 
Q 2816 4006 2500 4006 
L 1338 4006 
z
" transform="scale(0.015625)"/>
        <path id="TimesNewRomanPSMT-58" d="M 2613 2347 
L 3522 991 
Q 3900 428 4083 279 
Q 4266 131 4547 116 
L 4547 0 
L 2728 0 
L 2728 116 
Q 2909 119 2997 153 
Q 3063 181 3105 239 
Q 3147 297 3147 356 
Q 3147 428 3119 500 
Q 3097 553 2947 775 
L 2228 1863 
L 1341 725 
Q 1200 544 1172 483 
Q 1144 422 1144 356 
Q 1144 256 1228 190 
Q 1313 125 1550 116 
L 1550 0 
L 47 0 
L 47 116 
Q 206 131 322 181 
Q 516 263 691 400 
Q 866 538 1091 822 
L 2091 2084 
L 1256 3306 
Q 916 3803 678 3958 
Q 441 4113 131 4122 
L 131 4238 
L 2091 4238 
L 2091 4122 
Q 1841 4113 1748 4041 
Q 1656 3969 1656 3881 
Q 1656 3766 1806 3544 
L 2456 2572 
L 3209 3525 
Q 3341 3694 3370 3756 
Q 3400 3819 3400 3884 
Q 3400 3950 3363 4000 
Q 3316 4066 3244 4092 
Q 3172 4119 2947 4122 
L 2947 4238 
L 4450 4238 
L 4450 4122 
Q 4272 4113 4159 4066 
Q 3991 3994 3850 3872 
Q 3709 3750 3453 3422 
L 2613 2347 
z
" transform="scale(0.015625)"/>
        <path id="TimesNewRomanPSMT-50" d="M 1313 1984 
L 1313 750 
Q 1313 350 1400 253 
Q 1519 116 1759 116 
L 1922 116 
L 1922 0 
L 106 0 
L 106 116 
L 266 116 
Q 534 116 650 291 
Q 713 388 713 750 
L 713 3488 
Q 713 3888 628 3984 
Q 506 4122 266 4122 
L 106 4122 
L 106 4238 
L 1659 4238 
Q 2228 4238 2556 4120 
Q 2884 4003 3109 3725 
Q 3334 3447 3334 3066 
Q 3334 2547 2992 2222 
Q 2650 1897 2025 1897 
Q 1872 1897 1694 1919 
Q 1516 1941 1313 1984 
z
M 1313 2163 
Q 1478 2131 1606 2115 
Q 1734 2100 1825 2100 
Q 2150 2100 2386 2351 
Q 2622 2603 2622 3003 
Q 2622 3278 2509 3514 
Q 2397 3750 2190 3867 
Q 1984 3984 1722 3984 
Q 1563 3984 1313 3925 
L 1313 2163 
z
" transform="scale(0.015625)"/>
       </defs>
       <use xlink:href="#TimesNewRomanPSMT-53"/>
       <use xlink:href="#TimesNewRomanPSMT-45" x="55.615234"/>
       <use xlink:href="#TimesNewRomanPSMT-58" x="116.699219"/>
       <use xlink:href="#TimesNewRomanPSMT-50" x="188.916016"/>
      </g>
     </g>
    </g>
    <g id="xtick_3">
     <g id="line2d_3">
      <g>
       <use xlink:href="#m6ccd84d5c3" x="141.103993" y="290.09" style="stroke: #000000; stroke-width: 0.8"/>
      </g>
     </g>
     <g id="text_3">
      <!-- LT -->
      <g transform="translate(144.707509 314.044687) rotate(-90) scale(0.15 -0.15)">
       <defs>
        <path id="TimesNewRomanPSMT-4c" d="M 3669 1172 
L 3772 1150 
L 3409 0 
L 128 0 
L 128 116 
L 288 116 
Q 556 116 672 291 
Q 738 391 738 753 
L 738 3488 
Q 738 3884 650 3984 
Q 528 4122 288 4122 
L 128 4122 
L 128 4238 
L 2047 4238 
L 2047 4122 
Q 1709 4125 1573 4059 
Q 1438 3994 1388 3894 
Q 1338 3794 1338 3416 
L 1338 753 
Q 1338 494 1388 397 
Q 1425 331 1503 300 
Q 1581 269 1991 269 
L 2300 269 
Q 2788 269 2984 341 
Q 3181 413 3343 595 
Q 3506 778 3669 1172 
z
" transform="scale(0.015625)"/>
        <path id="TimesNewRomanPSMT-54" d="M 3703 4238 
L 3750 3244 
L 3631 3244 
Q 3597 3506 3538 3619 
Q 3441 3800 3280 3886 
Q 3119 3972 2856 3972 
L 2259 3972 
L 2259 734 
Q 2259 344 2344 247 
Q 2463 116 2709 116 
L 2856 116 
L 2856 0 
L 1059 0 
L 1059 116 
L 1209 116 
Q 1478 116 1591 278 
Q 1659 378 1659 734 
L 1659 3972 
L 1150 3972 
Q 853 3972 728 3928 
Q 566 3869 450 3700 
Q 334 3531 313 3244 
L 194 3244 
L 244 4238 
L 3703 4238 
z
" transform="scale(0.015625)"/>
       </defs>
       <use xlink:href="#TimesNewRomanPSMT-4c"/>
       <use xlink:href="#TimesNewRomanPSMT-54" x="51.958984"/>
      </g>
     </g>
    </g>
    <g id="xtick_4">
     <g id="line2d_4">
      <g>
       <use xlink:href="#m6ccd84d5c3" x="172.536215" y="290.09" style="stroke: #000000; stroke-width: 0.8"/>
      </g>
     </g>
     <g id="text_4">
      <!-- Entropy -->
      <g transform="translate(176.111606 345.413437) rotate(-90) scale(0.15 -0.15)">
       <defs>
        <path id="TimesNewRomanPSMT-6e" d="M 1034 2341 
Q 1538 2947 1994 2947 
Q 2228 2947 2397 2830 
Q 2566 2713 2666 2444 
Q 2734 2256 2734 1869 
L 2734 647 
Q 2734 375 2778 278 
Q 2813 200 2889 156 
Q 2966 113 3172 113 
L 3172 0 
L 1756 0 
L 1756 113 
L 1816 113 
Q 2016 113 2095 173 
Q 2175 234 2206 353 
Q 2219 400 2219 647 
L 2219 1819 
Q 2219 2209 2117 2386 
Q 2016 2563 1775 2563 
Q 1403 2563 1034 2156 
L 1034 647 
Q 1034 356 1069 288 
Q 1113 197 1189 155 
Q 1266 113 1500 113 
L 1500 0 
L 84 0 
L 84 113 
L 147 113 
Q 366 113 442 223 
Q 519 334 519 647 
L 519 1709 
Q 519 2225 495 2337 
Q 472 2450 423 2490 
Q 375 2531 294 2531 
Q 206 2531 84 2484 
L 38 2597 
L 900 2947 
L 1034 2947 
L 1034 2341 
z
" transform="scale(0.015625)"/>
        <path id="TimesNewRomanPSMT-74" d="M 1031 3803 
L 1031 2863 
L 1700 2863 
L 1700 2644 
L 1031 2644 
L 1031 788 
Q 1031 509 1111 412 
Q 1191 316 1316 316 
Q 1419 316 1516 380 
Q 1613 444 1666 569 
L 1788 569 
Q 1678 263 1478 108 
Q 1278 -47 1066 -47 
Q 922 -47 784 33 
Q 647 113 581 261 
Q 516 409 516 719 
L 516 2644 
L 63 2644 
L 63 2747 
Q 234 2816 414 2980 
Q 594 3144 734 3369 
Q 806 3488 934 3803 
L 1031 3803 
z
" transform="scale(0.015625)"/>
        <path id="TimesNewRomanPSMT-72" d="M 1038 2947 
L 1038 2303 
Q 1397 2947 1775 2947 
Q 1947 2947 2059 2842 
Q 2172 2738 2172 2600 
Q 2172 2478 2090 2393 
Q 2009 2309 1897 2309 
Q 1788 2309 1652 2417 
Q 1516 2525 1450 2525 
Q 1394 2525 1328 2463 
Q 1188 2334 1038 2041 
L 1038 669 
Q 1038 431 1097 309 
Q 1138 225 1241 169 
Q 1344 113 1538 113 
L 1538 0 
L 72 0 
L 72 113 
Q 291 113 397 181 
Q 475 231 506 341 
Q 522 394 522 644 
L 522 1753 
Q 522 2253 501 2348 
Q 481 2444 426 2487 
Q 372 2531 291 2531 
Q 194 2531 72 2484 
L 41 2597 
L 906 2947 
L 1038 2947 
z
" transform="scale(0.015625)"/>
        <path id="TimesNewRomanPSMT-6f" d="M 1600 2947 
Q 2250 2947 2644 2453 
Q 2978 2031 2978 1484 
Q 2978 1100 2793 706 
Q 2609 313 2286 112 
Q 1963 -88 1566 -88 
Q 919 -88 538 428 
Q 216 863 216 1403 
Q 216 1797 411 2186 
Q 606 2575 925 2761 
Q 1244 2947 1600 2947 
z
M 1503 2744 
Q 1338 2744 1170 2645 
Q 1003 2547 900 2300 
Q 797 2053 797 1666 
Q 797 1041 1045 587 
Q 1294 134 1700 134 
Q 2003 134 2200 384 
Q 2397 634 2397 1244 
Q 2397 2006 2069 2444 
Q 1847 2744 1503 2744 
z
" transform="scale(0.015625)"/>
        <path id="TimesNewRomanPSMT-70" d="M -6 2578 
L 875 2934 
L 994 2934 
L 994 2266 
Q 1216 2644 1439 2795 
Q 1663 2947 1909 2947 
Q 2341 2947 2628 2609 
Q 2981 2197 2981 1534 
Q 2981 794 2556 309 
Q 2206 -88 1675 -88 
Q 1444 -88 1275 -22 
Q 1150 25 994 166 
L 994 -706 
Q 994 -1000 1030 -1079 
Q 1066 -1159 1155 -1206 
Q 1244 -1253 1478 -1253 
L 1478 -1369 
L -22 -1369 
L -22 -1253 
L 56 -1253 
Q 228 -1256 350 -1188 
Q 409 -1153 442 -1076 
Q 475 -1000 475 -688 
L 475 2019 
Q 475 2297 450 2372 
Q 425 2447 370 2484 
Q 316 2522 222 2522 
Q 147 2522 31 2478 
L -6 2578 
z
M 994 2081 
L 994 1013 
Q 994 666 1022 556 
Q 1066 375 1236 237 
Q 1406 100 1666 100 
Q 1978 100 2172 344 
Q 2425 663 2425 1241 
Q 2425 1897 2138 2250 
Q 1938 2494 1663 2494 
Q 1513 2494 1366 2419 
Q 1253 2363 994 2081 
z
" transform="scale(0.015625)"/>
        <path id="TimesNewRomanPSMT-79" d="M 38 2863 
L 1372 2863 
L 1372 2747 
L 1306 2747 
Q 1166 2747 1095 2686 
Q 1025 2625 1025 2534 
Q 1025 2413 1128 2197 
L 1825 753 
L 2466 2334 
Q 2519 2463 2519 2588 
Q 2519 2644 2497 2672 
Q 2472 2706 2419 2726 
Q 2366 2747 2231 2747 
L 2231 2863 
L 3163 2863 
L 3163 2747 
Q 3047 2734 2984 2696 
Q 2922 2659 2847 2556 
Q 2819 2513 2741 2316 
L 1575 -541 
Q 1406 -956 1132 -1168 
Q 859 -1381 606 -1381 
Q 422 -1381 303 -1275 
Q 184 -1169 184 -1031 
Q 184 -900 270 -820 
Q 356 -741 506 -741 
Q 609 -741 788 -809 
Q 913 -856 944 -856 
Q 1038 -856 1148 -759 
Q 1259 -663 1372 -384 
L 1575 113 
L 547 2272 
Q 500 2369 397 2513 
Q 319 2622 269 2659 
Q 197 2709 38 2747 
L 38 2863 
z
" transform="scale(0.015625)"/>
       </defs>
       <use xlink:href="#TimesNewRomanPSMT-45"/>
       <use xlink:href="#TimesNewRomanPSMT-6e" x="61.083984"/>
       <use xlink:href="#TimesNewRomanPSMT-74" x="111.083984"/>
       <use xlink:href="#TimesNewRomanPSMT-72" x="138.867188"/>
       <use xlink:href="#TimesNewRomanPSMT-6f" x="172.167969"/>
       <use xlink:href="#TimesNewRomanPSMT-70" x="222.167969"/>
       <use xlink:href="#TimesNewRomanPSMT-79" x="272.167969"/>
      </g>
     </g>
    </g>
    <g id="xtick_5">
     <g id="line2d_5">
      <g>
       <use xlink:href="#m6ccd84d5c3" x="203.968437" y="290.09" style="stroke: #000000; stroke-width: 0.8"/>
      </g>
     </g>
     <g id="text_5">
      <!-- EXP -->
      <g transform="translate(207.571953 325.425937) rotate(-90) scale(0.15 -0.15)">
       <use xlink:href="#TimesNewRomanPSMT-45"/>
       <use xlink:href="#TimesNewRomanPSMT-58" x="61.083984"/>
       <use xlink:href="#TimesNewRomanPSMT-50" x="133.300781"/>
      </g>
     </g>
    </g>
    <g id="xtick_6">
     <g id="line2d_6">
      <g>
       <use xlink:href="#m6ccd84d5c3" x="235.40066" y="290.09" style="stroke: #000000; stroke-width: 0.8"/>
      </g>
     </g>
     <g id="text_6">
      <!-- LA -->
      <g transform="translate(239.004175 317.084531) rotate(-90) scale(0.15 -0.15)">
       <defs>
        <path id="TimesNewRomanPSMT-41" d="M 2928 1419 
L 1288 1419 
L 1000 750 
Q 894 503 894 381 
Q 894 284 986 211 
Q 1078 138 1384 116 
L 1384 0 
L 50 0 
L 50 116 
Q 316 163 394 238 
Q 553 388 747 847 
L 2238 4334 
L 2347 4334 
L 3822 809 
Q 4000 384 4145 257 
Q 4291 131 4550 116 
L 4550 0 
L 2878 0 
L 2878 116 
Q 3131 128 3220 200 
Q 3309 272 3309 375 
Q 3309 513 3184 809 
L 2928 1419 
z
M 2841 1650 
L 2122 3363 
L 1384 1650 
L 2841 1650 
z
" transform="scale(0.015625)"/>
       </defs>
       <use xlink:href="#TimesNewRomanPSMT-4c"/>
       <use xlink:href="#TimesNewRomanPSMT-41" x="61.083984"/>
      </g>
     </g>
    </g>
    <g id="xtick_7">
     <g id="line2d_7">
      <g>
       <use xlink:href="#m6ccd84d5c3" x="266.832882" y="290.09" style="stroke: #000000; stroke-width: 0.8"/>
      </g>
     </g>
     <g id="text_7">
      <!-- LD -->
      <g transform="translate(270.436398 317.084531) rotate(-90) scale(0.15 -0.15)">
       <defs>
        <path id="TimesNewRomanPSMT-44" d="M 109 0 
L 109 116 
L 269 116 
Q 538 116 650 288 
Q 719 391 719 750 
L 719 3488 
Q 719 3884 631 3984 
Q 509 4122 269 4122 
L 109 4122 
L 109 4238 
L 1834 4238 
Q 2784 4238 3279 4022 
Q 3775 3806 4076 3303 
Q 4378 2800 4378 2141 
Q 4378 1256 3841 663 
Q 3238 0 2003 0 
L 109 0 
z
M 1319 306 
Q 1716 219 1984 219 
Q 2709 219 3187 728 
Q 3666 1238 3666 2109 
Q 3666 2988 3187 3494 
Q 2709 4000 1959 4000 
Q 1678 4000 1319 3909 
L 1319 306 
z
" transform="scale(0.015625)"/>
       </defs>
       <use xlink:href="#TimesNewRomanPSMT-4c"/>
       <use xlink:href="#TimesNewRomanPSMT-44" x="61.083984"/>
      </g>
     </g>
    </g>
    <g id="xtick_8">
     <g id="line2d_8">
      <g>
       <use xlink:href="#m6ccd84d5c3" x="298.265104" y="290.09" style="stroke: #000000; stroke-width: 0.8"/>
      </g>
     </g>
     <g id="text_8">
      <!-- NS -->
      <g transform="translate(301.86862 316.264219) rotate(-90) scale(0.15 -0.15)">
       <use xlink:href="#TimesNewRomanPSMT-4e"/>
       <use xlink:href="#TimesNewRomanPSMT-53" x="72.216797"/>
      </g>
     </g>
    </g>
    <g id="xtick_9">
     <g id="line2d_9">
      <g>
       <use xlink:href="#m6ccd84d5c3" x="329.697326" y="290.09" style="stroke: #000000; stroke-width: 0.8"/>
      </g>
     </g>
     <g id="text_9">
      <!-- AGE -->
      <g transform="translate(333.300842 327.917344) rotate(-90) scale(0.15 -0.15)">
       <defs>
        <path id="TimesNewRomanPSMT-47" d="M 3928 4334 
L 4038 2997 
L 3928 2997 
Q 3763 3497 3500 3750 
Q 3122 4116 2528 4116 
Q 1719 4116 1297 3475 
Q 944 2934 944 2188 
Q 944 1581 1178 1081 
Q 1413 581 1792 348 
Q 2172 116 2572 116 
Q 2806 116 3025 175 
Q 3244 234 3447 350 
L 3447 1575 
Q 3447 1894 3398 1992 
Q 3350 2091 3248 2142 
Q 3147 2194 2891 2194 
L 2891 2313 
L 4531 2313 
L 4531 2194 
L 4453 2194 
Q 4209 2194 4119 2031 
Q 4056 1916 4056 1575 
L 4056 278 
Q 3697 84 3347 -6 
Q 2997 -97 2569 -97 
Q 1341 -97 703 691 
Q 225 1281 225 2053 
Q 225 2613 494 3125 
Q 813 3734 1369 4063 
Q 1834 4334 2469 4334 
Q 2700 4334 2889 4296 
Q 3078 4259 3425 4131 
Q 3600 4066 3659 4066 
Q 3719 4066 3761 4120 
Q 3803 4175 3813 4334 
L 3928 4334 
z
" transform="scale(0.015625)"/>
       </defs>
       <use xlink:href="#TimesNewRomanPSMT-41"/>
       <use xlink:href="#TimesNewRomanPSMT-47" x="72.216797"/>
       <use xlink:href="#TimesNewRomanPSMT-45" x="144.433594"/>
      </g>
     </g>
    </g>
   </g>
   <g id="matplotlib.axis_2">
    <g id="ytick_1">
     <g id="line2d_10">
      <defs>
       <path id="m71272dcd8c" d="M 0 0 
L -3.5 0 
" style="stroke: #000000; stroke-width: 0.8"/>
      </defs>
      <g>
       <use xlink:href="#m71272dcd8c" x="62.523438" y="22.916111" style="stroke: #000000; stroke-width: 0.8"/>
      </g>
     </g>
     <g id="text_10">
      <!-- NUC -->
      <g transform="translate(23.852344 26.519627) scale(0.15 -0.15)">
       <use xlink:href="#TimesNewRomanPSMT-4e"/>
       <use xlink:href="#TimesNewRomanPSMT-55" x="72.216797"/>
       <use xlink:href="#TimesNewRomanPSMT-43" x="144.433594"/>
      </g>
     </g>
    </g>
    <g id="ytick_2">
     <g id="line2d_11">
      <g>
       <use xlink:href="#m71272dcd8c" x="62.523438" y="54.348333" style="stroke: #000000; stroke-width: 0.8"/>
      </g>
     </g>
     <g id="text_11">
      <!-- SEXP -->
      <g transform="translate(18.846094 57.951849) scale(0.15 -0.15)">
       <use xlink:href="#TimesNewRomanPSMT-53"/>
       <use xlink:href="#TimesNewRomanPSMT-45" x="55.615234"/>
       <use xlink:href="#TimesNewRomanPSMT-58" x="116.699219"/>
       <use xlink:href="#TimesNewRomanPSMT-50" x="188.916016"/>
      </g>
     </g>
    </g>
    <g id="ytick_3">
     <g id="line2d_12">
      <g>
       <use xlink:href="#m71272dcd8c" x="62.523438" y="85.780556" style="stroke: #000000; stroke-width: 0.8"/>
      </g>
     </g>
     <g id="text_12">
      <!-- LT -->
      <g transform="translate(38.56875 89.384071) scale(0.15 -0.15)">
       <use xlink:href="#TimesNewRomanPSMT-4c"/>
       <use xlink:href="#TimesNewRomanPSMT-54" x="51.958984"/>
      </g>
     </g>
    </g>
    <g id="ytick_4">
     <g id="line2d_13">
      <g>
       <use xlink:href="#m71272dcd8c" x="62.523438" y="117.212778" style="stroke: #000000; stroke-width: 0.8"/>
      </g>
     </g>
     <g id="text_13">
      <!-- Entropy -->
      <g transform="translate(7.2 120.788168) scale(0.15 -0.15)">
       <use xlink:href="#TimesNewRomanPSMT-45"/>
       <use xlink:href="#TimesNewRomanPSMT-6e" x="61.083984"/>
       <use xlink:href="#TimesNewRomanPSMT-74" x="111.083984"/>
       <use xlink:href="#TimesNewRomanPSMT-72" x="138.867188"/>
       <use xlink:href="#TimesNewRomanPSMT-6f" x="172.167969"/>
       <use xlink:href="#TimesNewRomanPSMT-70" x="222.167969"/>
       <use xlink:href="#TimesNewRomanPSMT-79" x="272.167969"/>
      </g>
     </g>
    </g>
    <g id="ytick_5">
     <g id="line2d_14">
      <g>
       <use xlink:href="#m71272dcd8c" x="62.523438" y="148.645" style="stroke: #000000; stroke-width: 0.8"/>
      </g>
     </g>
     <g id="text_14">
      <!-- EXP -->
      <g transform="translate(27.1875 152.248516) scale(0.15 -0.15)">
       <use xlink:href="#TimesNewRomanPSMT-45"/>
       <use xlink:href="#TimesNewRomanPSMT-58" x="61.083984"/>
       <use xlink:href="#TimesNewRomanPSMT-50" x="133.300781"/>
      </g>
     </g>
    </g>
    <g id="ytick_6">
     <g id="line2d_15">
      <g>
       <use xlink:href="#m71272dcd8c" x="62.523438" y="180.077222" style="stroke: #000000; stroke-width: 0.8"/>
      </g>
     </g>
     <g id="text_15">
      <!-- LA -->
      <g transform="translate(35.528906 183.680738) scale(0.15 -0.15)">
       <use xlink:href="#TimesNewRomanPSMT-4c"/>
       <use xlink:href="#TimesNewRomanPSMT-41" x="61.083984"/>
      </g>
     </g>
    </g>
    <g id="ytick_7">
     <g id="line2d_16">
      <g>
       <use xlink:href="#m71272dcd8c" x="62.523438" y="211.509444" style="stroke: #000000; stroke-width: 0.8"/>
      </g>
     </g>
     <g id="text_16">
      <!-- LD -->
      <g transform="translate(35.528906 215.11296) scale(0.15 -0.15)">
       <use xlink:href="#TimesNewRomanPSMT-4c"/>
       <use xlink:href="#TimesNewRomanPSMT-44" x="61.083984"/>
      </g>
     </g>
    </g>
    <g id="ytick_8">
     <g id="line2d_17">
      <g>
       <use xlink:href="#m71272dcd8c" x="62.523438" y="242.941667" style="stroke: #000000; stroke-width: 0.8"/>
      </g>
     </g>
     <g id="text_17">
      <!-- NS -->
      <g transform="translate(36.349219 246.545182) scale(0.15 -0.15)">
       <use xlink:href="#TimesNewRomanPSMT-4e"/>
       <use xlink:href="#TimesNewRomanPSMT-53" x="72.216797"/>
      </g>
     </g>
    </g>
    <g id="ytick_9">
     <g id="line2d_18">
      <g>
       <use xlink:href="#m71272dcd8c" x="62.523438" y="274.373889" style="stroke: #000000; stroke-width: 0.8"/>
      </g>
     </g>
     <g id="text_18">
      <!-- AGE -->
      <g transform="translate(24.696094 277.977405) scale(0.15 -0.15)">
       <use xlink:href="#TimesNewRomanPSMT-41"/>
       <use xlink:href="#TimesNewRomanPSMT-47" x="72.216797"/>
       <use xlink:href="#TimesNewRomanPSMT-45" x="144.433594"/>
      </g>
     </g>
    </g>
   </g>
  </g>
 </g>
 <defs>
  <clipPath id="p8a3af5eeb8">
   <rect x="62.523438" y="7.2" width="282.89" height="282.89"/>
  </clipPath>
 </defs>
</svg>
