<?xml version="1.0" encoding="utf-8" standalone="no"?>
<!DOCTYPE svg PUBLIC "-//W3C//DTD SVG 1.1//EN"
  "http://www.w3.org/Graphics/SVG/1.1/DTD/svg11.dtd">
<svg xmlns:xlink="http://www.w3.org/1999/xlink" width="352.679062pt" height="352.679062pt" viewBox="0 0 352.679062 352.679062" xmlns="http://www.w3.org/2000/svg" version="1.1">
 <metadata>
  <rdf:RDF xmlns:dc="http://purl.org/dc/elements/1.1/" xmlns:cc="http://creativecommons.org/ns#" xmlns:rdf="http://www.w3.org/1999/02/22-rdf-syntax-ns#">
   <cc:Work>
    <dc:type rdf:resource="http://purl.org/dc/dcmitype/StillImage"/>
    <dc:date>2024-06-08T11:05:25.401109</dc:date>
    <dc:format>image/svg+xml</dc:format>
    <dc:creator>
     <cc:Agent>
      <dc:title>Matplotlib v3.8.4, https://matplotlib.org/</dc:title>
     </cc:Agent>
    </dc:creator>
   </cc:Work>
  </rdf:RDF>
 </metadata>
 <defs>
  <style type="text/css">*{stroke-linejoin: round; stroke-linecap: butt}</style>
 </defs>
 <g id="figure_1">
  <g id="patch_1">
   <path d="M 0 352.679062 
L 352.679062 352.679062 
L 352.679062 0 
L 0 0 
z
" style="fill: #ffffff"/>
  </g>
  <g id="axes_1">
   <g id="patch_2">
    <path d="M 60.789062 291.89 
L 345.479062 291.89 
L 345.479062 7.2 
L 60.789062 7.2 
z
" style="fill: #ffffff"/>
   </g>
   <g id="QuadMesh_1">
    <path d="M 60.789062 7.2 
L 82.688293 7.2 
L 82.688293 29.099231 
L 60.789062 29.099231 
L 60.789062 7.2 
" clip-path="url(#p433eb58b4b)" style="fill: none"/>
    <path d="M 82.688293 7.2 
L 104.587524 7.2 
L 104.587524 29.099231 
L 82.688293 29.099231 
L 82.688293 7.2 
" clip-path="url(#p433eb58b4b)" style="fill: none"/>
    <path d="M 104.587524 7.2 
L 126.486755 7.2 
L 126.486755 29.099231 
L 104.587524 29.099231 
L 104.587524 7.2 
" clip-path="url(#p433eb58b4b)" style="fill: none"/>
    <path d="M 126.486755 7.2 
L 148.385986 7.2 
L 148.385986 29.099231 
L 126.486755 29.099231 
L 126.486755 7.2 
" clip-path="url(#p433eb58b4b)" style="fill: none"/>
    <path d="M 148.385986 7.2 
L 170.285216 7.2 
L 170.285216 29.099231 
L 148.385986 29.099231 
L 148.385986 7.2 
" clip-path="url(#p433eb58b4b)" style="fill: none"/>
    <path d="M 170.285216 7.2 
L 192.184447 7.2 
L 192.184447 29.099231 
L 170.285216 29.099231 
L 170.285216 7.2 
" clip-path="url(#p433eb58b4b)" style="fill: none"/>
    <path d="M 192.184447 7.2 
L 214.083678 7.2 
L 214.083678 29.099231 
L 192.184447 29.099231 
L 192.184447 7.2 
" clip-path="url(#p433eb58b4b)" style="fill: none"/>
    <path d="M 214.083678 7.2 
L 235.982909 7.2 
L 235.982909 29.099231 
L 214.083678 29.099231 
L 214.083678 7.2 
" clip-path="url(#p433eb58b4b)" style="fill: none"/>
    <path d="M 235.982909 7.2 
L 257.882139 7.2 
L 257.882139 29.099231 
L 235.982909 29.099231 
L 235.982909 7.2 
" clip-path="url(#p433eb58b4b)" style="fill: none"/>
    <path d="M 257.882139 7.2 
L 279.78137 7.2 
L 279.78137 29.099231 
L 257.882139 29.099231 
L 257.882139 7.2 
" clip-path="url(#p433eb58b4b)" style="fill: none"/>
    <path d="M 279.78137 7.2 
L 301.680601 7.2 
L 301.680601 29.099231 
L 279.78137 29.099231 
L 279.78137 7.2 
" clip-path="url(#p433eb58b4b)" style="fill: none"/>
    <path d="M 301.680601 7.2 
L 323.579832 7.2 
L 323.579832 29.099231 
L 301.680601 29.099231 
L 301.680601 7.2 
" clip-path="url(#p433eb58b4b)" style="fill: none"/>
    <path d="M 323.579832 7.2 
L 345.479062 7.2 
L 345.479062 29.099231 
L 323.579832 29.099231 
L 323.579832 7.2 
" clip-path="url(#p433eb58b4b)" style="fill: none"/>
    <path d="M 60.789062 29.099231 
L 82.688293 29.099231 
L 82.688293 50.998462 
L 60.789062 50.998462 
L 60.789062 29.099231 
" clip-path="url(#p433eb58b4b)" style="fill: #c12b30"/>
    <path d="M 82.688293 29.099231 
L 104.587524 29.099231 
L 104.587524 50.998462 
L 82.688293 50.998462 
L 82.688293 29.099231 
" clip-path="url(#p433eb58b4b)" style="fill: none"/>
    <path d="M 104.587524 29.099231 
L 126.486755 29.099231 
L 126.486755 50.998462 
L 104.587524 50.998462 
L 104.587524 29.099231 
" clip-path="url(#p433eb58b4b)" style="fill: none"/>
    <path d="M 126.486755 29.099231 
L 148.385986 29.099231 
L 148.385986 50.998462 
L 126.486755 50.998462 
L 126.486755 29.099231 
" clip-path="url(#p433eb58b4b)" style="fill: none"/>
    <path d="M 148.385986 29.099231 
L 170.285216 29.099231 
L 170.285216 50.998462 
L 148.385986 50.998462 
L 148.385986 29.099231 
" clip-path="url(#p433eb58b4b)" style="fill: none"/>
    <path d="M 170.285216 29.099231 
L 192.184447 29.099231 
L 192.184447 50.998462 
L 170.285216 50.998462 
L 170.285216 29.099231 
" clip-path="url(#p433eb58b4b)" style="fill: none"/>
    <path d="M 192.184447 29.099231 
L 214.083678 29.099231 
L 214.083678 50.998462 
L 192.184447 50.998462 
L 192.184447 29.099231 
" clip-path="url(#p433eb58b4b)" style="fill: none"/>
    <path d="M 214.083678 29.099231 
L 235.982909 29.099231 
L 235.982909 50.998462 
L 214.083678 50.998462 
L 214.083678 29.099231 
" clip-path="url(#p433eb58b4b)" style="fill: none"/>
    <path d="M 235.982909 29.099231 
L 257.882139 29.099231 
L 257.882139 50.998462 
L 235.982909 50.998462 
L 235.982909 29.099231 
" clip-path="url(#p433eb58b4b)" style="fill: none"/>
    <path d="M 257.882139 29.099231 
L 279.78137 29.099231 
L 279.78137 50.998462 
L 257.882139 50.998462 
L 257.882139 29.099231 
" clip-path="url(#p433eb58b4b)" style="fill: none"/>
    <path d="M 279.78137 29.099231 
L 301.680601 29.099231 
L 301.680601 50.998462 
L 279.78137 50.998462 
L 279.78137 29.099231 
" clip-path="url(#p433eb58b4b)" style="fill: none"/>
    <path d="M 301.680601 29.099231 
L 323.579832 29.099231 
L 323.579832 50.998462 
L 301.680601 50.998462 
L 301.680601 29.099231 
" clip-path="url(#p433eb58b4b)" style="fill: none"/>
    <path d="M 323.579832 29.099231 
L 345.479062 29.099231 
L 345.479062 50.998462 
L 323.579832 50.998462 
L 323.579832 29.099231 
" clip-path="url(#p433eb58b4b)" style="fill: none"/>
    <path d="M 60.789062 50.998462 
L 82.688293 50.998462 
L 82.688293 72.897692 
L 60.789062 72.897692 
L 60.789062 50.998462 
" clip-path="url(#p433eb58b4b)" style="fill: #f59c7d"/>
    <path d="M 82.688293 50.998462 
L 104.587524 50.998462 
L 104.587524 72.897692 
L 82.688293 72.897692 
L 82.688293 50.998462 
" clip-path="url(#p433eb58b4b)" style="fill: #f39475"/>
    <path d="M 104.587524 50.998462 
L 126.486755 50.998462 
L 126.486755 72.897692 
L 104.587524 72.897692 
L 104.587524 50.998462 
" clip-path="url(#p433eb58b4b)" style="fill: none"/>
    <path d="M 126.486755 50.998462 
L 148.385986 50.998462 
L 148.385986 72.897692 
L 126.486755 72.897692 
L 126.486755 50.998462 
" clip-path="url(#p433eb58b4b)" style="fill: none"/>
    <path d="M 148.385986 50.998462 
L 170.285216 50.998462 
L 170.285216 72.897692 
L 148.385986 72.897692 
L 148.385986 50.998462 
" clip-path="url(#p433eb58b4b)" style="fill: none"/>
    <path d="M 170.285216 50.998462 
L 192.184447 50.998462 
L 192.184447 72.897692 
L 170.285216 72.897692 
L 170.285216 50.998462 
" clip-path="url(#p433eb58b4b)" style="fill: none"/>
    <path d="M 192.184447 50.998462 
L 214.083678 50.998462 
L 214.083678 72.897692 
L 192.184447 72.897692 
L 192.184447 50.998462 
" clip-path="url(#p433eb58b4b)" style="fill: none"/>
    <path d="M 214.083678 50.998462 
L 235.982909 50.998462 
L 235.982909 72.897692 
L 214.083678 72.897692 
L 214.083678 50.998462 
" clip-path="url(#p433eb58b4b)" style="fill: none"/>
    <path d="M 235.982909 50.998462 
L 257.882139 50.998462 
L 257.882139 72.897692 
L 235.982909 72.897692 
L 235.982909 50.998462 
" clip-path="url(#p433eb58b4b)" style="fill: none"/>
    <path d="M 257.882139 50.998462 
L 279.78137 50.998462 
L 279.78137 72.897692 
L 257.882139 72.897692 
L 257.882139 50.998462 
" clip-path="url(#p433eb58b4b)" style="fill: none"/>
    <path d="M 279.78137 50.998462 
L 301.680601 50.998462 
L 301.680601 72.897692 
L 279.78137 72.897692 
L 279.78137 50.998462 
" clip-path="url(#p433eb58b4b)" style="fill: none"/>
    <path d="M 301.680601 50.998462 
L 323.579832 50.998462 
L 323.579832 72.897692 
L 301.680601 72.897692 
L 301.680601 50.998462 
" clip-path="url(#p433eb58b4b)" style="fill: none"/>
    <path d="M 323.579832 50.998462 
L 345.479062 50.998462 
L 345.479062 72.897692 
L 323.579832 72.897692 
L 323.579832 50.998462 
" clip-path="url(#p433eb58b4b)" style="fill: none"/>
    <path d="M 60.789062 72.897692 
L 82.688293 72.897692 
L 82.688293 94.796923 
L 60.789062 94.796923 
L 60.789062 72.897692 
" clip-path="url(#p433eb58b4b)" style="fill: #f7b194"/>
    <path d="M 82.688293 72.897692 
L 104.587524 72.897692 
L 104.587524 94.796923 
L 82.688293 94.796923 
L 82.688293 72.897692 
" clip-path="url(#p433eb58b4b)" style="fill: #f7b396"/>
    <path d="M 104.587524 72.897692 
L 126.486755 72.897692 
L 126.486755 94.796923 
L 104.587524 94.796923 
L 104.587524 72.897692 
" clip-path="url(#p433eb58b4b)" style="fill: #f39778"/>
    <path d="M 126.486755 72.897692 
L 148.385986 72.897692 
L 148.385986 94.796923 
L 126.486755 94.796923 
L 126.486755 72.897692 
" clip-path="url(#p433eb58b4b)" style="fill: none"/>
    <path d="M 148.385986 72.897692 
L 170.285216 72.897692 
L 170.285216 94.796923 
L 148.385986 94.796923 
L 148.385986 72.897692 
" clip-path="url(#p433eb58b4b)" style="fill: none"/>
    <path d="M 170.285216 72.897692 
L 192.184447 72.897692 
L 192.184447 94.796923 
L 170.285216 94.796923 
L 170.285216 72.897692 
" clip-path="url(#p433eb58b4b)" style="fill: none"/>
    <path d="M 192.184447 72.897692 
L 214.083678 72.897692 
L 214.083678 94.796923 
L 192.184447 94.796923 
L 192.184447 72.897692 
" clip-path="url(#p433eb58b4b)" style="fill: none"/>
    <path d="M 214.083678 72.897692 
L 235.982909 72.897692 
L 235.982909 94.796923 
L 214.083678 94.796923 
L 214.083678 72.897692 
" clip-path="url(#p433eb58b4b)" style="fill: none"/>
    <path d="M 235.982909 72.897692 
L 257.882139 72.897692 
L 257.882139 94.796923 
L 235.982909 94.796923 
L 235.982909 72.897692 
" clip-path="url(#p433eb58b4b)" style="fill: none"/>
    <path d="M 257.882139 72.897692 
L 279.78137 72.897692 
L 279.78137 94.796923 
L 257.882139 94.796923 
L 257.882139 72.897692 
" clip-path="url(#p433eb58b4b)" style="fill: none"/>
    <path d="M 279.78137 72.897692 
L 301.680601 72.897692 
L 301.680601 94.796923 
L 279.78137 94.796923 
L 279.78137 72.897692 
" clip-path="url(#p433eb58b4b)" style="fill: none"/>
    <path d="M 301.680601 72.897692 
L 323.579832 72.897692 
L 323.579832 94.796923 
L 301.680601 94.796923 
L 301.680601 72.897692 
" clip-path="url(#p433eb58b4b)" style="fill: none"/>
    <path d="M 323.579832 72.897692 
L 345.479062 72.897692 
L 345.479062 94.796923 
L 323.579832 94.796923 
L 323.579832 72.897692 
" clip-path="url(#p433eb58b4b)" style="fill: none"/>
    <path d="M 60.789062 94.796923 
L 82.688293 94.796923 
L 82.688293 116.696154 
L 60.789062 116.696154 
L 60.789062 94.796923 
" clip-path="url(#p433eb58b4b)" style="fill: #eed0c0"/>
    <path d="M 82.688293 94.796923 
L 104.587524 94.796923 
L 104.587524 116.696154 
L 82.688293 116.696154 
L 82.688293 94.796923 
" clip-path="url(#p433eb58b4b)" style="fill: #f4c6af"/>
    <path d="M 104.587524 94.796923 
L 126.486755 94.796923 
L 126.486755 116.696154 
L 104.587524 116.696154 
L 104.587524 94.796923 
" clip-path="url(#p433eb58b4b)" style="fill: #edd2c3"/>
    <path d="M 126.486755 94.796923 
L 148.385986 94.796923 
L 148.385986 116.696154 
L 126.486755 116.696154 
L 126.486755 94.796923 
" clip-path="url(#p433eb58b4b)" style="fill: #e4d9d2"/>
    <path d="M 148.385986 94.796923 
L 170.285216 94.796923 
L 170.285216 116.696154 
L 148.385986 116.696154 
L 148.385986 94.796923 
" clip-path="url(#p433eb58b4b)" style="fill: none"/>
    <path d="M 170.285216 94.796923 
L 192.184447 94.796923 
L 192.184447 116.696154 
L 170.285216 116.696154 
L 170.285216 94.796923 
" clip-path="url(#p433eb58b4b)" style="fill: none"/>
    <path d="M 192.184447 94.796923 
L 214.083678 94.796923 
L 214.083678 116.696154 
L 192.184447 116.696154 
L 192.184447 94.796923 
" clip-path="url(#p433eb58b4b)" style="fill: none"/>
    <path d="M 214.083678 94.796923 
L 235.982909 94.796923 
L 235.982909 116.696154 
L 214.083678 116.696154 
L 214.083678 94.796923 
" clip-path="url(#p433eb58b4b)" style="fill: none"/>
    <path d="M 235.982909 94.796923 
L 257.882139 94.796923 
L 257.882139 116.696154 
L 235.982909 116.696154 
L 235.982909 94.796923 
" clip-path="url(#p433eb58b4b)" style="fill: none"/>
    <path d="M 257.882139 94.796923 
L 279.78137 94.796923 
L 279.78137 116.696154 
L 257.882139 116.696154 
L 257.882139 94.796923 
" clip-path="url(#p433eb58b4b)" style="fill: none"/>
    <path d="M 279.78137 94.796923 
L 301.680601 94.796923 
L 301.680601 116.696154 
L 279.78137 116.696154 
L 279.78137 94.796923 
" clip-path="url(#p433eb58b4b)" style="fill: none"/>
    <path d="M 301.680601 94.796923 
L 323.579832 94.796923 
L 323.579832 116.696154 
L 301.680601 116.696154 
L 301.680601 94.796923 
" clip-path="url(#p433eb58b4b)" style="fill: none"/>
    <path d="M 323.579832 94.796923 
L 345.479062 94.796923 
L 345.479062 116.696154 
L 323.579832 116.696154 
L 323.579832 94.796923 
" clip-path="url(#p433eb58b4b)" style="fill: none"/>
    <path d="M 60.789062 116.696154 
L 82.688293 116.696154 
L 82.688293 138.595385 
L 60.789062 138.595385 
L 60.789062 116.696154 
" clip-path="url(#p433eb58b4b)" style="fill: #f1cdba"/>
    <path d="M 82.688293 116.696154 
L 104.587524 116.696154 
L 104.587524 138.595385 
L 82.688293 138.595385 
L 82.688293 116.696154 
" clip-path="url(#p433eb58b4b)" style="fill: #f5c0a7"/>
    <path d="M 104.587524 116.696154 
L 126.486755 116.696154 
L 126.486755 138.595385 
L 104.587524 138.595385 
L 104.587524 116.696154 
" clip-path="url(#p433eb58b4b)" style="fill: #edd1c2"/>
    <path d="M 126.486755 116.696154 
L 148.385986 116.696154 
L 148.385986 138.595385 
L 126.486755 138.595385 
L 126.486755 116.696154 
" clip-path="url(#p433eb58b4b)" style="fill: #edd2c3"/>
    <path d="M 148.385986 116.696154 
L 170.285216 116.696154 
L 170.285216 138.595385 
L 148.385986 138.595385 
L 148.385986 116.696154 
" clip-path="url(#p433eb58b4b)" style="fill: #ebd3c6"/>
    <path d="M 170.285216 116.696154 
L 192.184447 116.696154 
L 192.184447 138.595385 
L 170.285216 138.595385 
L 170.285216 116.696154 
" clip-path="url(#p433eb58b4b)" style="fill: none"/>
    <path d="M 192.184447 116.696154 
L 214.083678 116.696154 
L 214.083678 138.595385 
L 192.184447 138.595385 
L 192.184447 116.696154 
" clip-path="url(#p433eb58b4b)" style="fill: none"/>
    <path d="M 214.083678 116.696154 
L 235.982909 116.696154 
L 235.982909 138.595385 
L 214.083678 138.595385 
L 214.083678 116.696154 
" clip-path="url(#p433eb58b4b)" style="fill: none"/>
    <path d="M 235.982909 116.696154 
L 257.882139 116.696154 
L 257.882139 138.595385 
L 235.982909 138.595385 
L 235.982909 116.696154 
" clip-path="url(#p433eb58b4b)" style="fill: none"/>
    <path d="M 257.882139 116.696154 
L 279.78137 116.696154 
L 279.78137 138.595385 
L 257.882139 138.595385 
L 257.882139 116.696154 
" clip-path="url(#p433eb58b4b)" style="fill: none"/>
    <path d="M 279.78137 116.696154 
L 301.680601 116.696154 
L 301.680601 138.595385 
L 279.78137 138.595385 
L 279.78137 116.696154 
" clip-path="url(#p433eb58b4b)" style="fill: none"/>
    <path d="M 301.680601 116.696154 
L 323.579832 116.696154 
L 323.579832 138.595385 
L 301.680601 138.595385 
L 301.680601 116.696154 
" clip-path="url(#p433eb58b4b)" style="fill: none"/>
    <path d="M 323.579832 116.696154 
L 345.479062 116.696154 
L 345.479062 138.595385 
L 323.579832 138.595385 
L 323.579832 116.696154 
" clip-path="url(#p433eb58b4b)" style="fill: none"/>
    <path d="M 60.789062 138.595385 
L 82.688293 138.595385 
L 82.688293 160.494615 
L 60.789062 160.494615 
L 60.789062 138.595385 
" clip-path="url(#p433eb58b4b)" style="fill: #d8dce2"/>
    <path d="M 82.688293 138.595385 
L 104.587524 138.595385 
L 104.587524 160.494615 
L 82.688293 160.494615 
L 82.688293 138.595385 
" clip-path="url(#p433eb58b4b)" style="fill: #dadce0"/>
    <path d="M 104.587524 138.595385 
L 126.486755 138.595385 
L 126.486755 160.494615 
L 104.587524 160.494615 
L 104.587524 138.595385 
" clip-path="url(#p433eb58b4b)" style="fill: #cdd9ec"/>
    <path d="M 126.486755 138.595385 
L 148.385986 138.595385 
L 148.385986 160.494615 
L 126.486755 160.494615 
L 126.486755 138.595385 
" clip-path="url(#p433eb58b4b)" style="fill: #d9dce1"/>
    <path d="M 148.385986 138.595385 
L 170.285216 138.595385 
L 170.285216 160.494615 
L 148.385986 160.494615 
L 148.385986 138.595385 
" clip-path="url(#p433eb58b4b)" style="fill: #e8d6cc"/>
    <path d="M 170.285216 138.595385 
L 192.184447 138.595385 
L 192.184447 160.494615 
L 170.285216 160.494615 
L 170.285216 138.595385 
" clip-path="url(#p433eb58b4b)" style="fill: #a9c6fd"/>
    <path d="M 192.184447 138.595385 
L 214.083678 138.595385 
L 214.083678 160.494615 
L 192.184447 160.494615 
L 192.184447 138.595385 
" clip-path="url(#p433eb58b4b)" style="fill: none"/>
    <path d="M 214.083678 138.595385 
L 235.982909 138.595385 
L 235.982909 160.494615 
L 214.083678 160.494615 
L 214.083678 138.595385 
" clip-path="url(#p433eb58b4b)" style="fill: none"/>
    <path d="M 235.982909 138.595385 
L 257.882139 138.595385 
L 257.882139 160.494615 
L 235.982909 160.494615 
L 235.982909 138.595385 
" clip-path="url(#p433eb58b4b)" style="fill: none"/>
    <path d="M 257.882139 138.595385 
L 279.78137 138.595385 
L 279.78137 160.494615 
L 257.882139 160.494615 
L 257.882139 138.595385 
" clip-path="url(#p433eb58b4b)" style="fill: none"/>
    <path d="M 279.78137 138.595385 
L 301.680601 138.595385 
L 301.680601 160.494615 
L 279.78137 160.494615 
L 279.78137 138.595385 
" clip-path="url(#p433eb58b4b)" style="fill: none"/>
    <path d="M 301.680601 138.595385 
L 323.579832 138.595385 
L 323.579832 160.494615 
L 301.680601 160.494615 
L 301.680601 138.595385 
" clip-path="url(#p433eb58b4b)" style="fill: none"/>
    <path d="M 323.579832 138.595385 
L 345.479062 138.595385 
L 345.479062 160.494615 
L 323.579832 160.494615 
L 323.579832 138.595385 
" clip-path="url(#p433eb58b4b)" style="fill: none"/>
    <path d="M 60.789062 160.494615 
L 82.688293 160.494615 
L 82.688293 182.393846 
L 60.789062 182.393846 
L 60.789062 160.494615 
" clip-path="url(#p433eb58b4b)" style="fill: #ee8468"/>
    <path d="M 82.688293 160.494615 
L 104.587524 160.494615 
L 104.587524 182.393846 
L 82.688293 182.393846 
L 82.688293 160.494615 
" clip-path="url(#p433eb58b4b)" style="fill: #f39475"/>
    <path d="M 104.587524 160.494615 
L 126.486755 160.494615 
L 126.486755 182.393846 
L 104.587524 182.393846 
L 104.587524 160.494615 
" clip-path="url(#p433eb58b4b)" style="fill: #f7af91"/>
    <path d="M 126.486755 160.494615 
L 148.385986 160.494615 
L 148.385986 182.393846 
L 126.486755 182.393846 
L 126.486755 160.494615 
" clip-path="url(#p433eb58b4b)" style="fill: #f2c9b4"/>
    <path d="M 148.385986 160.494615 
L 170.285216 160.494615 
L 170.285216 182.393846 
L 148.385986 182.393846 
L 148.385986 160.494615 
" clip-path="url(#p433eb58b4b)" style="fill: #e5d8d1"/>
    <path d="M 170.285216 160.494615 
L 192.184447 160.494615 
L 192.184447 182.393846 
L 170.285216 182.393846 
L 170.285216 160.494615 
" clip-path="url(#p433eb58b4b)" style="fill: #f5c4ac"/>
    <path d="M 192.184447 160.494615 
L 214.083678 160.494615 
L 214.083678 182.393846 
L 192.184447 182.393846 
L 192.184447 160.494615 
" clip-path="url(#p433eb58b4b)" style="fill: #cedaeb"/>
    <path d="M 214.083678 160.494615 
L 235.982909 160.494615 
L 235.982909 182.393846 
L 214.083678 182.393846 
L 214.083678 160.494615 
" clip-path="url(#p433eb58b4b)" style="fill: none"/>
    <path d="M 235.982909 160.494615 
L 257.882139 160.494615 
L 257.882139 182.393846 
L 235.982909 182.393846 
L 235.982909 160.494615 
" clip-path="url(#p433eb58b4b)" style="fill: none"/>
    <path d="M 257.882139 160.494615 
L 279.78137 160.494615 
L 279.78137 182.393846 
L 257.882139 182.393846 
L 257.882139 160.494615 
" clip-path="url(#p433eb58b4b)" style="fill: none"/>
    <path d="M 279.78137 160.494615 
L 301.680601 160.494615 
L 301.680601 182.393846 
L 279.78137 182.393846 
L 279.78137 160.494615 
" clip-path="url(#p433eb58b4b)" style="fill: none"/>
    <path d="M 301.680601 160.494615 
L 323.579832 160.494615 
L 323.579832 182.393846 
L 301.680601 182.393846 
L 301.680601 160.494615 
" clip-path="url(#p433eb58b4b)" style="fill: none"/>
    <path d="M 323.579832 160.494615 
L 345.479062 160.494615 
L 345.479062 182.393846 
L 323.579832 182.393846 
L 323.579832 160.494615 
" clip-path="url(#p433eb58b4b)" style="fill: none"/>
    <path d="M 60.789062 182.393846 
L 82.688293 182.393846 
L 82.688293 204.293077 
L 60.789062 204.293077 
L 60.789062 182.393846 
" clip-path="url(#p433eb58b4b)" style="fill: #ecd3c5"/>
    <path d="M 82.688293 182.393846 
L 104.587524 182.393846 
L 104.587524 204.293077 
L 82.688293 204.293077 
L 82.688293 182.393846 
" clip-path="url(#p433eb58b4b)" style="fill: #eed0c0"/>
    <path d="M 104.587524 182.393846 
L 126.486755 182.393846 
L 126.486755 204.293077 
L 104.587524 204.293077 
L 104.587524 182.393846 
" clip-path="url(#p433eb58b4b)" style="fill: #ecd3c5"/>
    <path d="M 126.486755 182.393846 
L 148.385986 182.393846 
L 148.385986 204.293077 
L 126.486755 204.293077 
L 126.486755 182.393846 
" clip-path="url(#p433eb58b4b)" style="fill: #ebd3c6"/>
    <path d="M 148.385986 182.393846 
L 170.285216 182.393846 
L 170.285216 204.293077 
L 148.385986 204.293077 
L 148.385986 182.393846 
" clip-path="url(#p433eb58b4b)" style="fill: #e4d9d2"/>
    <path d="M 170.285216 182.393846 
L 192.184447 182.393846 
L 192.184447 204.293077 
L 170.285216 204.293077 
L 170.285216 182.393846 
" clip-path="url(#p433eb58b4b)" style="fill: #e7d7ce"/>
    <path d="M 192.184447 182.393846 
L 214.083678 182.393846 
L 214.083678 204.293077 
L 192.184447 204.293077 
L 192.184447 182.393846 
" clip-path="url(#p433eb58b4b)" style="fill: #e7d7ce"/>
    <path d="M 214.083678 182.393846 
L 235.982909 182.393846 
L 235.982909 204.293077 
L 214.083678 204.293077 
L 214.083678 182.393846 
" clip-path="url(#p433eb58b4b)" style="fill: #d9dce1"/>
    <path d="M 235.982909 182.393846 
L 257.882139 182.393846 
L 257.882139 204.293077 
L 235.982909 204.293077 
L 235.982909 182.393846 
" clip-path="url(#p433eb58b4b)" style="fill: none"/>
    <path d="M 257.882139 182.393846 
L 279.78137 182.393846 
L 279.78137 204.293077 
L 257.882139 204.293077 
L 257.882139 182.393846 
" clip-path="url(#p433eb58b4b)" style="fill: none"/>
    <path d="M 279.78137 182.393846 
L 301.680601 182.393846 
L 301.680601 204.293077 
L 279.78137 204.293077 
L 279.78137 182.393846 
" clip-path="url(#p433eb58b4b)" style="fill: none"/>
    <path d="M 301.680601 182.393846 
L 323.579832 182.393846 
L 323.579832 204.293077 
L 301.680601 204.293077 
L 301.680601 182.393846 
" clip-path="url(#p433eb58b4b)" style="fill: none"/>
    <path d="M 323.579832 182.393846 
L 345.479062 182.393846 
L 345.479062 204.293077 
L 323.579832 204.293077 
L 323.579832 182.393846 
" clip-path="url(#p433eb58b4b)" style="fill: none"/>
    <path d="M 60.789062 204.293077 
L 82.688293 204.293077 
L 82.688293 226.192308 
L 60.789062 226.192308 
L 60.789062 204.293077 
" clip-path="url(#p433eb58b4b)" style="fill: #d85646"/>
    <path d="M 82.688293 204.293077 
L 104.587524 204.293077 
L 104.587524 226.192308 
L 82.688293 226.192308 
L 82.688293 204.293077 
" clip-path="url(#p433eb58b4b)" style="fill: #de614d"/>
    <path d="M 104.587524 204.293077 
L 126.486755 204.293077 
L 126.486755 226.192308 
L 104.587524 226.192308 
L 104.587524 204.293077 
" clip-path="url(#p433eb58b4b)" style="fill: #f39475"/>
    <path d="M 126.486755 204.293077 
L 148.385986 204.293077 
L 148.385986 226.192308 
L 126.486755 226.192308 
L 126.486755 204.293077 
" clip-path="url(#p433eb58b4b)" style="fill: #f7b89c"/>
    <path d="M 148.385986 204.293077 
L 170.285216 204.293077 
L 170.285216 226.192308 
L 148.385986 226.192308 
L 148.385986 204.293077 
" clip-path="url(#p433eb58b4b)" style="fill: #f1ccb8"/>
    <path d="M 170.285216 204.293077 
L 192.184447 204.293077 
L 192.184447 226.192308 
L 170.285216 226.192308 
L 170.285216 204.293077 
" clip-path="url(#p433eb58b4b)" style="fill: #f6bda2"/>
    <path d="M 192.184447 204.293077 
L 214.083678 204.293077 
L 214.083678 226.192308 
L 192.184447 226.192308 
L 192.184447 204.293077 
" clip-path="url(#p433eb58b4b)" style="fill: #cedaeb"/>
    <path d="M 214.083678 204.293077 
L 235.982909 204.293077 
L 235.982909 226.192308 
L 214.083678 226.192308 
L 214.083678 204.293077 
" clip-path="url(#p433eb58b4b)" style="fill: #ed8366"/>
    <path d="M 235.982909 204.293077 
L 257.882139 204.293077 
L 257.882139 226.192308 
L 235.982909 226.192308 
L 235.982909 204.293077 
" clip-path="url(#p433eb58b4b)" style="fill: #efcebd"/>
    <path d="M 257.882139 204.293077 
L 279.78137 204.293077 
L 279.78137 226.192308 
L 257.882139 226.192308 
L 257.882139 204.293077 
" clip-path="url(#p433eb58b4b)" style="fill: none"/>
    <path d="M 279.78137 204.293077 
L 301.680601 204.293077 
L 301.680601 226.192308 
L 279.78137 226.192308 
L 279.78137 204.293077 
" clip-path="url(#p433eb58b4b)" style="fill: none"/>
    <path d="M 301.680601 204.293077 
L 323.579832 204.293077 
L 323.579832 226.192308 
L 301.680601 226.192308 
L 301.680601 204.293077 
" clip-path="url(#p433eb58b4b)" style="fill: none"/>
    <path d="M 323.579832 204.293077 
L 345.479062 204.293077 
L 345.479062 226.192308 
L 323.579832 226.192308 
L 323.579832 204.293077 
" clip-path="url(#p433eb58b4b)" style="fill: none"/>
    <path d="M 60.789062 226.192308 
L 82.688293 226.192308 
L 82.688293 248.091538 
L 60.789062 248.091538 
L 60.789062 226.192308 
" clip-path="url(#p433eb58b4b)" style="fill: #4961d2"/>
    <path d="M 82.688293 226.192308 
L 104.587524 226.192308 
L 104.587524 248.091538 
L 82.688293 248.091538 
L 82.688293 226.192308 
" clip-path="url(#p433eb58b4b)" style="fill: #5470de"/>
    <path d="M 104.587524 226.192308 
L 126.486755 226.192308 
L 126.486755 248.091538 
L 104.587524 248.091538 
L 104.587524 226.192308 
" clip-path="url(#p433eb58b4b)" style="fill: #9abbff"/>
    <path d="M 126.486755 226.192308 
L 148.385986 226.192308 
L 148.385986 248.091538 
L 126.486755 248.091538 
L 126.486755 226.192308 
" clip-path="url(#p433eb58b4b)" style="fill: #b5cdfa"/>
    <path d="M 148.385986 226.192308 
L 170.285216 226.192308 
L 170.285216 248.091538 
L 148.385986 248.091538 
L 148.385986 226.192308 
" clip-path="url(#p433eb58b4b)" style="fill: #c3d5f4"/>
    <path d="M 170.285216 226.192308 
L 192.184447 226.192308 
L 192.184447 248.091538 
L 170.285216 248.091538 
L 170.285216 226.192308 
" clip-path="url(#p433eb58b4b)" style="fill: #c9d7f0"/>
    <path d="M 192.184447 226.192308 
L 214.083678 226.192308 
L 214.083678 248.091538 
L 192.184447 248.091538 
L 192.184447 226.192308 
" clip-path="url(#p433eb58b4b)" style="fill: #e2dad5"/>
    <path d="M 214.083678 226.192308 
L 235.982909 226.192308 
L 235.982909 248.091538 
L 214.083678 248.091538 
L 214.083678 226.192308 
" clip-path="url(#p433eb58b4b)" style="fill: #7da0f9"/>
    <path d="M 235.982909 226.192308 
L 257.882139 226.192308 
L 257.882139 248.091538 
L 235.982909 248.091538 
L 235.982909 226.192308 
" clip-path="url(#p433eb58b4b)" style="fill: #d1dae9"/>
    <path d="M 257.882139 226.192308 
L 279.78137 226.192308 
L 279.78137 248.091538 
L 257.882139 248.091538 
L 257.882139 226.192308 
" clip-path="url(#p433eb58b4b)" style="fill: #5d7ce6"/>
    <path d="M 279.78137 226.192308 
L 301.680601 226.192308 
L 301.680601 248.091538 
L 279.78137 248.091538 
L 279.78137 226.192308 
" clip-path="url(#p433eb58b4b)" style="fill: none"/>
    <path d="M 301.680601 226.192308 
L 323.579832 226.192308 
L 323.579832 248.091538 
L 301.680601 248.091538 
L 301.680601 226.192308 
" clip-path="url(#p433eb58b4b)" style="fill: none"/>
    <path d="M 323.579832 226.192308 
L 345.479062 226.192308 
L 345.479062 248.091538 
L 323.579832 248.091538 
L 323.579832 226.192308 
" clip-path="url(#p433eb58b4b)" style="fill: none"/>
    <path d="M 60.789062 248.091538 
L 82.688293 248.091538 
L 82.688293 269.990769 
L 60.789062 269.990769 
L 60.789062 248.091538 
" clip-path="url(#p433eb58b4b)" style="fill: #a3c2fe"/>
    <path d="M 82.688293 248.091538 
L 104.587524 248.091538 
L 104.587524 269.990769 
L 82.688293 269.990769 
L 82.688293 248.091538 
" clip-path="url(#p433eb58b4b)" style="fill: #d1dae9"/>
    <path d="M 104.587524 248.091538 
L 126.486755 248.091538 
L 126.486755 269.990769 
L 104.587524 269.990769 
L 104.587524 248.091538 
" clip-path="url(#p433eb58b4b)" style="fill: #d2dbe8"/>
    <path d="M 126.486755 248.091538 
L 148.385986 248.091538 
L 148.385986 269.990769 
L 126.486755 269.990769 
L 126.486755 248.091538 
" clip-path="url(#p433eb58b4b)" style="fill: #d2dbe8"/>
    <path d="M 148.385986 248.091538 
L 170.285216 248.091538 
L 170.285216 269.990769 
L 148.385986 269.990769 
L 148.385986 248.091538 
" clip-path="url(#p433eb58b4b)" style="fill: #f2cab5"/>
    <path d="M 170.285216 248.091538 
L 192.184447 248.091538 
L 192.184447 269.990769 
L 170.285216 269.990769 
L 170.285216 248.091538 
" clip-path="url(#p433eb58b4b)" style="fill: #f3c8b2"/>
    <path d="M 192.184447 248.091538 
L 214.083678 248.091538 
L 214.083678 269.990769 
L 192.184447 269.990769 
L 192.184447 248.091538 
" clip-path="url(#p433eb58b4b)" style="fill: #e9d5cb"/>
    <path d="M 214.083678 248.091538 
L 235.982909 248.091538 
L 235.982909 269.990769 
L 214.083678 269.990769 
L 214.083678 248.091538 
" clip-path="url(#p433eb58b4b)" style="fill: #adc9fd"/>
    <path d="M 235.982909 248.091538 
L 257.882139 248.091538 
L 257.882139 269.990769 
L 235.982909 269.990769 
L 235.982909 248.091538 
" clip-path="url(#p433eb58b4b)" style="fill: #e2dad5"/>
    <path d="M 257.882139 248.091538 
L 279.78137 248.091538 
L 279.78137 269.990769 
L 257.882139 269.990769 
L 257.882139 248.091538 
" clip-path="url(#p433eb58b4b)" style="fill: #b3cdfb"/>
    <path d="M 279.78137 248.091538 
L 301.680601 248.091538 
L 301.680601 269.990769 
L 279.78137 269.990769 
L 279.78137 248.091538 
" clip-path="url(#p433eb58b4b)" style="fill: #f7ac8e"/>
    <path d="M 301.680601 248.091538 
L 323.579832 248.091538 
L 323.579832 269.990769 
L 301.680601 269.990769 
L 301.680601 248.091538 
" clip-path="url(#p433eb58b4b)" style="fill: none"/>
    <path d="M 323.579832 248.091538 
L 345.479062 248.091538 
L 345.479062 269.990769 
L 323.579832 269.990769 
L 323.579832 248.091538 
" clip-path="url(#p433eb58b4b)" style="fill: none"/>
    <path d="M 60.789062 269.990769 
L 82.688293 269.990769 
L 82.688293 291.89 
L 60.789062 291.89 
L 60.789062 269.990769 
" clip-path="url(#p433eb58b4b)" style="fill: #f7a889"/>
    <path d="M 82.688293 269.990769 
L 104.587524 269.990769 
L 104.587524 291.89 
L 82.688293 291.89 
L 82.688293 269.990769 
" clip-path="url(#p433eb58b4b)" style="fill: #f7ad90"/>
    <path d="M 104.587524 269.990769 
L 126.486755 269.990769 
L 126.486755 291.89 
L 104.587524 291.89 
L 104.587524 269.990769 
" clip-path="url(#p433eb58b4b)" style="fill: #f7b99e"/>
    <path d="M 126.486755 269.990769 
L 148.385986 269.990769 
L 148.385986 291.89 
L 126.486755 291.89 
L 126.486755 269.990769 
" clip-path="url(#p433eb58b4b)" style="fill: #f4c5ad"/>
    <path d="M 148.385986 269.990769 
L 170.285216 269.990769 
L 170.285216 291.89 
L 148.385986 291.89 
L 148.385986 269.990769 
" clip-path="url(#p433eb58b4b)" style="fill: #e6d7cf"/>
    <path d="M 170.285216 269.990769 
L 192.184447 269.990769 
L 192.184447 291.89 
L 170.285216 291.89 
L 170.285216 269.990769 
" clip-path="url(#p433eb58b4b)" style="fill: #eed0c0"/>
    <path d="M 192.184447 269.990769 
L 214.083678 269.990769 
L 214.083678 291.89 
L 192.184447 291.89 
L 192.184447 269.990769 
" clip-path="url(#p433eb58b4b)" style="fill: #d3dbe7"/>
    <path d="M 214.083678 269.990769 
L 235.982909 269.990769 
L 235.982909 291.89 
L 214.083678 291.89 
L 214.083678 269.990769 
" clip-path="url(#p433eb58b4b)" style="fill: #f7b497"/>
    <path d="M 235.982909 269.990769 
L 257.882139 269.990769 
L 257.882139 291.89 
L 235.982909 291.89 
L 235.982909 269.990769 
" clip-path="url(#p433eb58b4b)" style="fill: #e7d7ce"/>
    <path d="M 257.882139 269.990769 
L 279.78137 269.990769 
L 279.78137 291.89 
L 257.882139 291.89 
L 257.882139 269.990769 
" clip-path="url(#p433eb58b4b)" style="fill: #f6a385"/>
    <path d="M 279.78137 269.990769 
L 301.680601 269.990769 
L 301.680601 291.89 
L 279.78137 291.89 
L 279.78137 269.990769 
" clip-path="url(#p433eb58b4b)" style="fill: #a5c3fe"/>
    <path d="M 301.680601 269.990769 
L 323.579832 269.990769 
L 323.579832 291.89 
L 301.680601 291.89 
L 301.680601 269.990769 
" clip-path="url(#p433eb58b4b)" style="fill: #c6d6f1"/>
    <path d="M 323.579832 269.990769 
L 345.479062 269.990769 
L 345.479062 291.89 
L 323.579832 291.89 
L 323.579832 269.990769 
" clip-path="url(#p433eb58b4b)" style="fill: none"/>
   </g>
   <g id="matplotlib.axis_1">
    <g id="xtick_1">
     <g id="line2d_1">
      <defs>
       <path id="mbc63cc037f" d="M 0 0 
L 0 3.5 
" style="stroke: #000000; stroke-width: 0.8"/>
      </defs>
      <g>
       <use xlink:href="#mbc63cc037f" x="71.738678" y="291.89" style="stroke: #000000; stroke-width: 0.8"/>
      </g>
     </g>
     <g id="text_1">
      <!-- HV -->
      <g transform="translate(75.22149 319.618125) rotate(-90) scale(0.15 -0.15)">
       <defs>
        <path id="LinLibertine-48" d="M 3956 781 
Q 3956 397 4054 305 
Q 4153 213 4513 197 
Q 4544 166 4544 89 
Q 4544 13 4513 -13 
Q 3872 0 3688 0 
Q 3481 0 2853 -13 
Q 2828 13 2828 89 
Q 2828 166 2853 197 
Q 3213 209 3313 303 
Q 3413 397 3413 781 
L 3413 2053 
L 1222 2053 
L 1222 781 
Q 1222 397 1322 305 
Q 1422 213 1778 197 
Q 1803 166 1804 89 
Q 1806 13 1778 -13 
Q 1138 0 953 0 
Q 747 0 122 -13 
Q 91 13 91 89 
Q 91 166 122 197 
Q 481 209 579 303 
Q 678 397 678 781 
L 678 3347 
Q 678 3731 579 3823 
Q 481 3916 122 3928 
Q 91 3953 91 4031 
Q 91 4109 122 4141 
Q 763 4128 947 4128 
Q 1153 4128 1778 4141 
Q 1803 4109 1804 4032 
Q 1806 3956 1778 3928 
Q 1419 3916 1320 3823 
Q 1222 3731 1222 3347 
L 1222 2322 
L 3413 2322 
L 3413 3347 
Q 3413 3731 3313 3823 
Q 3213 3916 2853 3928 
Q 2828 3953 2828 4031 
Q 2828 4109 2853 4141 
Q 3494 4128 3681 4128 
Q 3888 4128 4513 4141 
Q 4544 4109 4544 4032 
Q 4544 3956 4513 3928 
Q 4153 3916 4054 3823 
Q 3956 3731 3956 3347 
L 3956 781 
z
" transform="scale(0.015625)"/>
        <path id="LinLibertine-56" d="M 2869 3928 
Q 2844 3953 2842 4031 
Q 2841 4109 2869 4141 
Q 3472 4128 3566 4128 
Q 3616 4128 4128 4141 
Q 4159 4109 4159 4032 
Q 4159 3956 4128 3928 
Q 4006 3913 3911 3870 
Q 3816 3828 3761 3789 
Q 3706 3750 3650 3654 
Q 3594 3559 3573 3512 
Q 3553 3466 3500 3334 
L 2175 72 
Q 2119 -75 2022 -78 
Q 1931 -78 1875 72 
L 613 3347 
Q 466 3722 383 3814 
Q 300 3906 38 3928 
Q 6 3959 6 4034 
Q 6 4109 31 4141 
Q 634 4128 697 4128 
Q 869 4128 1472 4141 
Q 1497 4109 1497 4032 
Q 1497 3956 1472 3928 
Q 1150 3894 1090 3798 
Q 1031 3703 1147 3419 
L 2166 813 
L 2197 813 
L 3206 3378 
Q 3328 3641 3264 3772 
Q 3200 3903 2869 3928 
z
" transform="scale(0.015625)"/>
       </defs>
       <use xlink:href="#LinLibertine-48"/>
       <use xlink:href="#LinLibertine-56" x="72.998047"/>
      </g>
     </g>
    </g>
    <g id="xtick_2">
     <g id="line2d_2">
      <g>
       <use xlink:href="#mbc63cc037f" x="93.637909" y="291.89" style="stroke: #000000; stroke-width: 0.8"/>
      </g>
     </g>
     <g id="text_2">
      <!-- DD -->
      <g transform="translate(97.120721 319.90875) rotate(-90) scale(0.15 -0.15)">
       <defs>
        <path id="LinLibertine-44" d="M 1222 531 
Q 1222 359 1353 282 
Q 1484 206 1919 206 
Q 2284 206 2565 279 
Q 2847 353 3090 525 
Q 3334 697 3465 1023 
Q 3597 1350 3597 1819 
Q 3597 2209 3501 2567 
Q 3406 2925 3200 3239 
Q 2994 3553 2623 3737 
Q 2253 3922 1759 3922 
Q 1222 3922 1222 3609 
L 1222 531 
z
M 947 4128 
Q 1050 4128 1414 4134 
Q 1778 4141 2003 4141 
Q 2925 4141 3569 3505 
Q 4213 2869 4213 1972 
Q 4213 1409 4017 1001 
Q 3822 594 3498 383 
Q 3175 172 2833 79 
Q 2491 -13 2119 -13 
Q 1734 -13 1376 -6 
Q 1019 0 953 0 
Q 747 0 122 -13 
Q 91 13 91 89 
Q 91 166 122 197 
Q 481 209 579 303 
Q 678 397 678 781 
L 678 3347 
Q 678 3731 579 3823 
Q 481 3916 122 3928 
Q 91 3953 91 4031 
Q 91 4109 122 4141 
Q 763 4128 947 4128 
z
" transform="scale(0.015625)"/>
       </defs>
       <use xlink:href="#LinLibertine-44"/>
       <use xlink:href="#LinLibertine-44" x="70.068359"/>
      </g>
     </g>
    </g>
    <g id="xtick_3">
     <g id="line2d_3">
      <g>
       <use xlink:href="#mbc63cc037f" x="115.537139" y="291.89" style="stroke: #000000; stroke-width: 0.8"/>
      </g>
     </g>
     <g id="text_3">
      <!-- MDNL -->
      <g transform="translate(119.019952 340.353281) rotate(-90) scale(0.15 -0.15)">
       <defs>
        <path id="LinLibertine-4d" d="M 4241 744 
L 4078 3419 
L 4063 3419 
L 2625 31 
Q 2588 -41 2534 -38 
Q 2463 -38 2438 31 
L 1113 3353 
L 1100 3353 
L 856 788 
Q 831 488 907 356 
Q 984 225 1281 197 
Q 1306 166 1306 89 
Q 1306 13 1281 -13 
Q 897 0 678 0 
Q 513 0 128 -13 
Q 103 13 103 89 
Q 103 166 128 197 
Q 391 219 484 344 
Q 578 469 606 775 
L 863 3413 
Q 894 3766 831 3837 
Q 769 3909 428 3928 
Q 397 3953 397 4031 
Q 397 4109 428 4141 
L 1356 4128 
L 2669 878 
Q 2706 794 2719 794 
Q 2738 794 2778 884 
L 4134 4128 
L 4972 4141 
Q 5003 4109 5004 4032 
Q 5006 3956 4972 3928 
Q 4656 3909 4584 3825 
Q 4513 3741 4534 3469 
L 4725 775 
Q 4734 622 4742 547 
Q 4750 472 4773 395 
Q 4797 319 4820 292 
Q 4844 266 4905 241 
Q 4966 216 5030 209 
Q 5094 203 5216 197 
Q 5247 166 5247 89 
Q 5247 13 5216 -13 
Q 4794 0 4519 0 
Q 4434 0 3834 -13 
Q 3803 13 3803 89 
Q 3803 166 3834 197 
Q 3959 203 4012 208 
Q 4066 213 4128 234 
Q 4191 256 4208 281 
Q 4225 306 4240 376 
Q 4256 447 4253 522 
Q 4250 597 4241 744 
z
" transform="scale(0.015625)"/>
        <path id="LinLibertine-4e" d="M 3559 3278 
Q 3559 3503 3539 3620 
Q 3519 3738 3442 3805 
Q 3366 3872 3283 3890 
Q 3200 3909 3003 3928 
Q 2972 3953 2970 4031 
Q 2969 4109 3003 4141 
Q 3644 4128 3713 4128 
Q 3803 4128 4428 4141 
Q 4453 4109 4453 4032 
Q 4453 3956 4428 3928 
Q 4069 3891 3970 3789 
Q 3872 3688 3872 3278 
L 3872 134 
Q 3872 -63 3725 -63 
Q 3584 -63 3469 91 
L 1234 2913 
Q 1069 3125 1017 3123 
Q 966 3122 966 2809 
L 966 850 
Q 966 625 986 508 
Q 1006 391 1082 323 
Q 1159 256 1242 237 
Q 1325 219 1522 197 
Q 1547 166 1548 89 
Q 1550 13 1522 -13 
Q 881 0 813 0 
Q 722 0 97 -13 
Q 66 13 64 89 
Q 63 166 97 197 
Q 456 234 554 337 
Q 653 441 653 850 
L 653 3519 
Q 622 3659 481 3787 
Q 341 3916 147 3928 
Q 116 3953 116 4031 
Q 116 4109 147 4141 
L 1013 4128 
L 3206 1300 
Q 3250 1244 3301 1172 
Q 3353 1100 3379 1069 
Q 3406 1038 3434 1005 
Q 3463 972 3481 959 
Q 3500 947 3513 947 
Q 3556 947 3559 1141 
L 3559 3278 
z
" transform="scale(0.015625)"/>
        <path id="LinLibertine-4c" d="M 941 0 
Q 422 -6 109 -13 
Q 78 13 78 89 
Q 78 166 109 197 
Q 469 209 567 303 
Q 666 397 666 781 
L 666 3347 
Q 666 3731 567 3823 
Q 469 3916 109 3928 
Q 78 3953 78 4031 
Q 78 4109 109 4141 
Q 750 4128 934 4128 
Q 1141 4128 1766 4141 
Q 1791 4109 1791 4032 
Q 1791 3956 1766 3928 
Q 1406 3916 1307 3823 
Q 1209 3731 1209 3347 
L 1209 569 
Q 1209 422 1289 336 
Q 1369 250 1509 250 
L 1978 250 
Q 2447 250 2680 470 
Q 2913 691 3022 1088 
Q 3131 1106 3231 1056 
Q 3169 500 3066 -13 
Q 2475 0 2303 0 
L 941 0 
z
" transform="scale(0.015625)"/>
       </defs>
       <use xlink:href="#LinLibertine-4d"/>
       <use xlink:href="#LinLibertine-44" x="83.886719"/>
       <use xlink:href="#LinLibertine-4e" x="153.955078"/>
       <use xlink:href="#LinLibertine-4c" x="223.828125"/>
      </g>
     </g>
    </g>
    <g id="xtick_4">
     <g id="line2d_4">
      <g>
       <use xlink:href="#mbc63cc037f" x="137.43637" y="291.89" style="stroke: #000000; stroke-width: 0.8"/>
      </g>
     </g>
     <g id="text_4">
      <!-- NB -->
      <g transform="translate(140.919183 318.190781) rotate(-90) scale(0.15 -0.15)">
       <defs>
        <path id="LinLibertine-42" d="M 1222 3647 
L 1222 2344 
L 1697 2344 
Q 2606 2344 2606 3078 
Q 2606 3519 2356 3720 
Q 2106 3922 1778 3922 
Q 1503 3922 1386 3894 
Q 1269 3866 1245 3817 
Q 1222 3769 1222 3647 
z
M 1222 2125 
L 1222 628 
Q 1222 200 1753 197 
Q 2425 197 2665 425 
Q 2906 653 2906 1056 
Q 2906 1525 2595 1825 
Q 2284 2125 1663 2125 
L 1222 2125 
z
M 947 4128 
Q 1088 4128 1363 4134 
Q 1638 4141 1747 4141 
Q 3122 4141 3122 3156 
Q 3122 2906 2947 2675 
Q 2772 2444 2516 2316 
L 2516 2303 
Q 2963 2175 3231 1894 
Q 3500 1613 3500 1178 
Q 3500 953 3423 754 
Q 3347 556 3175 376 
Q 3003 197 2673 92 
Q 2344 -13 1888 -13 
Q 1569 -13 1312 -6 
Q 1056 0 953 0 
Q 747 0 122 -13 
Q 91 13 91 89 
Q 91 166 122 197 
Q 481 209 579 303 
Q 678 397 678 781 
L 678 3347 
Q 678 3731 579 3823 
Q 481 3916 122 3928 
Q 91 3953 91 4031 
Q 91 4109 122 4141 
Q 763 4128 947 4128 
z
" transform="scale(0.015625)"/>
       </defs>
       <use xlink:href="#LinLibertine-4e"/>
       <use xlink:href="#LinLibertine-42" x="69.873047"/>
      </g>
     </g>
    </g>
    <g id="xtick_5">
     <g id="line2d_5">
      <g>
       <use xlink:href="#mbc63cc037f" x="159.335601" y="291.89" style="stroke: #000000; stroke-width: 0.8"/>
      </g>
     </g>
     <g id="text_5">
      <!-- EC -->
      <g transform="translate(162.818413 316.812656) rotate(-90) scale(0.15 -0.15)">
       <defs>
        <path id="LinLibertine-45" d="M 1747 2309 
Q 2138 2309 2227 2386 
Q 2316 2463 2328 2747 
Q 2353 2778 2431 2778 
Q 2509 2778 2541 2747 
Q 2528 2363 2528 2194 
Q 2528 2078 2541 1631 
Q 2509 1600 2432 1600 
Q 2356 1600 2328 1631 
Q 2316 1803 2291 1878 
Q 2266 1953 2137 2011 
Q 2009 2069 1747 2069 
L 1166 2069 
L 1166 525 
Q 1166 250 1394 250 
L 2266 250 
Q 2875 250 3103 1088 
Q 3219 1113 3328 1056 
Q 3250 550 3091 -13 
Q 2578 0 2272 0 
L 897 0 
Q 378 -6 63 -13 
Q 38 13 38 89 
Q 38 166 63 197 
Q 422 209 522 303 
Q 622 397 622 781 
L 622 3347 
Q 622 3731 522 3823 
Q 422 3916 63 3928 
Q 38 3953 38 4031 
Q 38 4109 63 4141 
L 891 4128 
L 2522 4128 
Q 2688 4128 2834 4153 
Q 2859 4153 2859 4134 
Q 2909 3916 3003 3206 
Q 2900 3156 2791 3175 
Q 2669 3559 2534 3715 
Q 2400 3872 2069 3872 
L 1394 3872 
Q 1284 3872 1225 3792 
Q 1166 3713 1166 3591 
L 1166 2309 
L 1747 2309 
z
" transform="scale(0.015625)"/>
        <path id="LinLibertine-43" d="M 2284 -63 
Q 1625 -63 1148 246 
Q 672 556 455 1017 
Q 238 1478 238 2016 
Q 238 3047 916 3669 
Q 1509 4213 2291 4213 
Q 2750 4213 3189 4070 
Q 3628 3928 3694 3922 
Q 3803 3250 3834 2931 
Q 3713 2869 3622 2900 
Q 3297 3975 2222 3975 
Q 1663 3975 1200 3406 
Q 1019 3184 919 2862 
Q 819 2541 819 2138 
Q 819 1644 972 1216 
Q 1125 788 1465 492 
Q 1806 197 2278 197 
Q 2725 197 3075 361 
Q 3425 525 3763 897 
Q 3859 897 3909 800 
Q 3250 -63 2284 -63 
z
" transform="scale(0.015625)"/>
       </defs>
       <use xlink:href="#LinLibertine-45"/>
       <use xlink:href="#LinLibertine-43" x="54.882812"/>
      </g>
     </g>
    </g>
    <g id="xtick_6">
     <g id="line2d_6">
      <g>
       <use xlink:href="#mbc63cc037f" x="181.234832" y="291.89" style="stroke: #000000; stroke-width: 0.8"/>
      </g>
     </g>
     <g id="text_6">
      <!-- NOP -->
      <g transform="translate(184.717644 327.85875) rotate(-90) scale(0.15 -0.15)">
       <defs>
        <path id="LinLibertine-4f" d="M 2119 3994 
Q 1888 3994 1670 3881 
Q 1453 3769 1267 3551 
Q 1081 3334 965 2953 
Q 850 2572 850 2094 
Q 850 1209 1298 681 
Q 1747 153 2369 153 
Q 2931 153 3289 650 
Q 3647 1147 3647 1984 
Q 3647 2925 3212 3459 
Q 2778 3994 2119 3994 
z
M 4263 2106 
Q 4263 1306 3866 744 
Q 3597 359 3180 148 
Q 2763 -63 2241 -63 
Q 1397 -63 817 500 
Q 238 1063 238 1984 
Q 238 2831 675 3431 
Q 944 3800 1339 4006 
Q 1734 4213 2203 4213 
Q 3094 4213 3678 3642 
Q 4263 3072 4263 2106 
z
" transform="scale(0.015625)"/>
        <path id="LinLibertine-50" d="M 1209 3547 
L 1209 2053 
Q 1325 2022 1697 2022 
Q 2172 2022 2411 2256 
Q 2650 2491 2650 2994 
Q 2650 3550 2406 3753 
Q 2163 3956 1766 3956 
Q 1209 3956 1209 3547 
z
M 666 3347 
Q 666 3731 567 3823 
Q 469 3916 109 3928 
Q 78 3953 78 4031 
Q 78 4109 109 4141 
Q 750 4128 934 4128 
Q 1075 4128 1408 4150 
Q 1741 4172 1813 4172 
Q 2228 4172 2528 4064 
Q 2828 3956 2975 3779 
Q 3122 3603 3183 3440 
Q 3244 3278 3244 3109 
Q 3244 2884 3167 2670 
Q 3091 2456 2928 2254 
Q 2766 2053 2455 1929 
Q 2144 1806 1728 1806 
Q 1409 1806 1209 1869 
L 1209 781 
Q 1209 403 1331 311 
Q 1453 219 1863 197 
Q 1894 166 1894 89 
Q 1894 13 1863 -13 
Q 1222 0 941 0 
Q 734 0 109 -13 
Q 78 13 78 89 
Q 78 166 109 197 
Q 469 209 567 303 
Q 666 397 666 781 
L 666 3347 
z
" transform="scale(0.015625)"/>
       </defs>
       <use xlink:href="#LinLibertine-4e"/>
       <use xlink:href="#LinLibertine-4f" x="69.873047"/>
       <use xlink:href="#LinLibertine-50" x="140.039062"/>
      </g>
     </g>
    </g>
    <g id="xtick_7">
     <g id="line2d_7">
      <g>
       <use xlink:href="#mbc63cc037f" x="203.134062" y="291.89" style="stroke: #000000; stroke-width: 0.8"/>
      </g>
     </g>
     <g id="text_7">
      <!-- NOGV -->
      <g transform="translate(206.616875 340.097812) rotate(-90) scale(0.15 -0.15)">
       <defs>
        <path id="LinLibertine-47" d="M 2413 4213 
Q 2853 4213 3261 4067 
Q 3669 3922 3809 3922 
Q 3866 3319 3950 2938 
L 3731 2900 
Q 3584 3394 3270 3684 
Q 2956 3975 2322 3975 
Q 1663 3975 1225 3450 
Q 788 2925 788 2094 
Q 788 1769 903 1434 
Q 1019 1100 1230 812 
Q 1441 525 1780 345 
Q 2119 166 2528 166 
Q 3131 166 3456 475 
L 3456 1428 
Q 3456 1606 3343 1657 
Q 3231 1709 2931 1734 
Q 2906 1766 2906 1848 
Q 2906 1931 2931 1966 
Q 3534 1953 3725 1953 
Q 3909 1953 4294 1966 
Q 4325 1934 4325 1850 
Q 4325 1766 4294 1734 
Q 4141 1722 4070 1655 
Q 4000 1588 4000 1428 
L 4000 709 
Q 4000 613 4103 531 
Q 3406 -63 2381 -63 
Q 1434 -63 820 528 
Q 206 1119 206 1966 
Q 206 2644 531 3166 
Q 856 3688 1353 3950 
Q 1850 4213 2413 4213 
z
" transform="scale(0.015625)"/>
       </defs>
       <use xlink:href="#LinLibertine-4e"/>
       <use xlink:href="#LinLibertine-4f" x="69.873047"/>
       <use xlink:href="#LinLibertine-47" x="140.039062"/>
       <use xlink:href="#LinLibertine-56" x="209.521484"/>
      </g>
     </g>
    </g>
    <g id="xtick_8">
     <g id="line2d_8">
      <g>
       <use xlink:href="#mbc63cc037f" x="225.033293" y="291.89" style="stroke: #000000; stroke-width: 0.8"/>
      </g>
     </g>
     <g id="text_8">
      <!-- NOMT -->
      <g transform="translate(228.516106 341.431406) rotate(-90) scale(0.15 -0.15)">
       <defs>
        <path id="LinLibertine-54" d="M 2241 781 
Q 2241 397 2348 305 
Q 2456 213 2859 197 
Q 2891 166 2892 89 
Q 2894 13 2859 -13 
Q 2219 0 1972 0 
Q 1703 0 1075 -13 
Q 1050 13 1050 89 
Q 1050 166 1075 197 
Q 1478 209 1587 303 
Q 1697 397 1697 781 
L 1697 3244 
Q 1697 3556 1630 3717 
Q 1563 3878 1394 3878 
L 1081 3878 
Q 750 3878 537 3725 
Q 325 3572 238 3200 
Q 103 3200 19 3231 
Q 147 3781 178 4159 
Q 178 4178 206 4178 
Q 853 4128 1697 4128 
L 2247 4128 
Q 3097 4128 3681 4178 
Q 3700 4178 3700 4159 
Q 3706 3738 3781 3250 
Q 3709 3219 3566 3219 
Q 3488 3578 3270 3728 
Q 3053 3878 2675 3878 
L 2534 3878 
Q 2369 3878 2305 3715 
Q 2241 3553 2241 3225 
L 2241 781 
z
" transform="scale(0.015625)"/>
       </defs>
       <use xlink:href="#LinLibertine-4e"/>
       <use xlink:href="#LinLibertine-4f" x="69.873047"/>
       <use xlink:href="#LinLibertine-4d" x="140.039062"/>
       <use xlink:href="#LinLibertine-54" x="223.925781"/>
      </g>
     </g>
    </g>
    <g id="xtick_9">
     <g id="line2d_9">
      <g>
       <use xlink:href="#mbc63cc037f" x="246.932524" y="291.89" style="stroke: #000000; stroke-width: 0.8"/>
      </g>
     </g>
     <g id="text_9">
      <!-- II -->
      <g transform="translate(250.415337 307.79625) rotate(-90) scale(0.15 -0.15)">
       <defs>
        <path id="LinLibertine-49" d="M 1222 781 
Q 1222 397 1322 305 
Q 1422 213 1778 197 
Q 1803 166 1804 89 
Q 1806 13 1778 -13 
Q 1138 0 953 0 
Q 747 0 122 -13 
Q 91 13 91 89 
Q 91 166 122 197 
Q 481 209 579 303 
Q 678 397 678 781 
L 678 3347 
Q 678 3731 579 3823 
Q 481 3916 122 3928 
Q 91 3953 91 4031 
Q 91 4109 122 4141 
Q 763 4128 947 4128 
Q 1153 4128 1778 4141 
Q 1803 4109 1804 4032 
Q 1806 3956 1778 3928 
Q 1419 3916 1320 3823 
Q 1222 3731 1222 3347 
L 1222 781 
z
" transform="scale(0.015625)"/>
       </defs>
       <use xlink:href="#LinLibertine-49"/>
       <use xlink:href="#LinLibertine-49" x="29.6875"/>
      </g>
     </g>
    </g>
    <g id="xtick_10">
     <g id="line2d_10">
      <g>
       <use xlink:href="#mbc63cc037f" x="268.831755" y="291.89" style="stroke: #000000; stroke-width: 0.8"/>
      </g>
     </g>
     <g id="text_10">
      <!-- TE -->
      <g transform="translate(272.314567 316.074375) rotate(-90) scale(0.15 -0.15)">
       <use xlink:href="#LinLibertine-54"/>
       <use xlink:href="#LinLibertine-45" x="59.667969"/>
      </g>
     </g>
    </g>
    <g id="xtick_11">
     <g id="line2d_11">
      <g>
       <use xlink:href="#mbc63cc037f" x="290.730986" y="291.89" style="stroke: #000000; stroke-width: 0.8"/>
      </g>
     </g>
     <g id="text_11">
      <!-- E/HV -->
      <g transform="translate(294.213798 332.693906) rotate(-90) scale(0.15 -0.15)">
       <defs>
        <path id="LinLibertine-2f" d="M 1875 4134 
L 359 -378 
L 97 -378 
L 1613 4134 
L 1875 4134 
z
" transform="scale(0.015625)"/>
       </defs>
       <use xlink:href="#LinLibertine-45"/>
       <use xlink:href="#LinLibertine-2f" x="54.882812"/>
       <use xlink:href="#LinLibertine-48" x="87.158203"/>
       <use xlink:href="#LinLibertine-56" x="160.15625"/>
      </g>
     </g>
    </g>
    <g id="xtick_12">
     <g id="line2d_12">
      <g>
       <use xlink:href="#mbc63cc037f" x="312.630216" y="291.89" style="stroke: #000000; stroke-width: 0.8"/>
      </g>
     </g>
     <g id="text_12">
      <!-- DD/HV -->
      <g transform="translate(316.113029 345.479062) rotate(-90) scale(0.15 -0.15)">
       <use xlink:href="#LinLibertine-44"/>
       <use xlink:href="#LinLibertine-44" x="70.068359"/>
       <use xlink:href="#LinLibertine-2f" x="140.136719"/>
       <use xlink:href="#LinLibertine-48" x="172.412109"/>
       <use xlink:href="#LinLibertine-56" x="245.410156"/>
      </g>
     </g>
    </g>
    <g id="xtick_13">
     <g id="line2d_13">
      <g>
       <use xlink:href="#mbc63cc037f" x="334.529447" y="291.89" style="stroke: #000000; stroke-width: 0.8"/>
      </g>
     </g>
     <g id="text_13">
      <!-- TS -->
      <g transform="translate(338.01226 315.113437) rotate(-90) scale(0.15 -0.15)">
       <defs>
        <path id="LinLibertine-53" d="M 2525 4038 
Q 2613 3597 2641 3213 
Q 2594 3178 2431 3175 
Q 2400 3275 2370 3354 
Q 2341 3434 2297 3521 
Q 2253 3609 2201 3675 
Q 2150 3741 2078 3803 
Q 2006 3866 1922 3906 
Q 1838 3947 1727 3970 
Q 1616 3994 1484 3994 
Q 1206 3994 995 3772 
Q 784 3550 784 3278 
Q 784 3128 853 2995 
Q 922 2863 1015 2773 
Q 1109 2684 1261 2596 
Q 1413 2509 1516 2467 
Q 1619 2425 1772 2365 
Q 1925 2306 1966 2291 
Q 2153 2209 2298 2117 
Q 2444 2025 2573 1892 
Q 2703 1759 2772 1578 
Q 2841 1397 2841 1178 
Q 2841 875 2678 597 
Q 2516 319 2241 147 
Q 1903 -63 1450 -63 
Q 1147 -63 814 10 
Q 481 84 300 84 
Q 203 488 172 1056 
Q 272 1109 381 1075 
Q 581 166 1503 166 
Q 1888 166 2095 367 
Q 2303 569 2303 953 
Q 2303 1128 2248 1273 
Q 2194 1419 2123 1508 
Q 2053 1597 1923 1680 
Q 1794 1763 1708 1800 
Q 1622 1838 1464 1898 
Q 1306 1959 1250 1984 
Q 972 2106 784 2239 
Q 597 2372 461 2597 
Q 325 2822 325 3103 
Q 325 3597 683 3905 
Q 1041 4213 1544 4213 
Q 1909 4213 2173 4131 
Q 2438 4050 2525 4038 
z
" transform="scale(0.015625)"/>
       </defs>
       <use xlink:href="#LinLibertine-54"/>
       <use xlink:href="#LinLibertine-53" x="59.667969"/>
      </g>
     </g>
    </g>
   </g>
   <g id="matplotlib.axis_2">
    <g id="ytick_1">
     <g id="line2d_14">
      <defs>
       <path id="m285ba97cf4" d="M 0 0 
L -3.5 0 
" style="stroke: #000000; stroke-width: 0.8"/>
      </defs>
      <g>
       <use xlink:href="#m285ba97cf4" x="60.789062" y="18.149615" style="stroke: #000000; stroke-width: 0.8"/>
      </g>
     </g>
     <g id="text_14">
      <!-- HV -->
      <g transform="translate(33.060938 21.632428) scale(0.15 -0.15)">
       <use xlink:href="#LinLibertine-48"/>
       <use xlink:href="#LinLibertine-56" x="72.998047"/>
      </g>
     </g>
    </g>
    <g id="ytick_2">
     <g id="line2d_15">
      <g>
       <use xlink:href="#m285ba97cf4" x="60.789062" y="40.048846" style="stroke: #000000; stroke-width: 0.8"/>
      </g>
     </g>
     <g id="text_15">
      <!-- DD -->
      <g transform="translate(32.770313 43.531659) scale(0.15 -0.15)">
       <use xlink:href="#LinLibertine-44"/>
       <use xlink:href="#LinLibertine-44" x="70.068359"/>
      </g>
     </g>
    </g>
    <g id="ytick_3">
     <g id="line2d_16">
      <g>
       <use xlink:href="#m285ba97cf4" x="60.789062" y="61.948077" style="stroke: #000000; stroke-width: 0.8"/>
      </g>
     </g>
     <g id="text_16">
      <!-- MDNL -->
      <g transform="translate(12.325781 65.430889) scale(0.15 -0.15)">
       <use xlink:href="#LinLibertine-4d"/>
       <use xlink:href="#LinLibertine-44" x="83.886719"/>
       <use xlink:href="#LinLibertine-4e" x="153.955078"/>
       <use xlink:href="#LinLibertine-4c" x="223.828125"/>
      </g>
     </g>
    </g>
    <g id="ytick_4">
     <g id="line2d_17">
      <g>
       <use xlink:href="#m285ba97cf4" x="60.789062" y="83.847308" style="stroke: #000000; stroke-width: 0.8"/>
      </g>
     </g>
     <g id="text_17">
      <!-- NB -->
      <g transform="translate(34.488281 87.33012) scale(0.15 -0.15)">
       <use xlink:href="#LinLibertine-4e"/>
       <use xlink:href="#LinLibertine-42" x="69.873047"/>
      </g>
     </g>
    </g>
    <g id="ytick_5">
     <g id="line2d_18">
      <g>
       <use xlink:href="#m285ba97cf4" x="60.789062" y="105.746538" style="stroke: #000000; stroke-width: 0.8"/>
      </g>
     </g>
     <g id="text_18">
      <!-- EC -->
      <g transform="translate(35.866406 109.229351) scale(0.15 -0.15)">
       <use xlink:href="#LinLibertine-45"/>
       <use xlink:href="#LinLibertine-43" x="54.882812"/>
      </g>
     </g>
    </g>
    <g id="ytick_6">
     <g id="line2d_19">
      <g>
       <use xlink:href="#m285ba97cf4" x="60.789062" y="127.645769" style="stroke: #000000; stroke-width: 0.8"/>
      </g>
     </g>
     <g id="text_19">
      <!-- NOP -->
      <g transform="translate(24.820312 131.128582) scale(0.15 -0.15)">
       <use xlink:href="#LinLibertine-4e"/>
       <use xlink:href="#LinLibertine-4f" x="69.873047"/>
       <use xlink:href="#LinLibertine-50" x="140.039062"/>
      </g>
     </g>
    </g>
    <g id="ytick_7">
     <g id="line2d_20">
      <g>
       <use xlink:href="#m285ba97cf4" x="60.789062" y="149.545" style="stroke: #000000; stroke-width: 0.8"/>
      </g>
     </g>
     <g id="text_20">
      <!-- NOGV -->
      <g transform="translate(12.58125 153.027812) scale(0.15 -0.15)">
       <use xlink:href="#LinLibertine-4e"/>
       <use xlink:href="#LinLibertine-4f" x="69.873047"/>
       <use xlink:href="#LinLibertine-47" x="140.039062"/>
       <use xlink:href="#LinLibertine-56" x="209.521484"/>
      </g>
     </g>
    </g>
    <g id="ytick_8">
     <g id="line2d_21">
      <g>
       <use xlink:href="#m285ba97cf4" x="60.789062" y="171.444231" style="stroke: #000000; stroke-width: 0.8"/>
      </g>
     </g>
     <g id="text_21">
      <!-- NOMT -->
      <g transform="translate(11.247656 174.927043) scale(0.15 -0.15)">
       <use xlink:href="#LinLibertine-4e"/>
       <use xlink:href="#LinLibertine-4f" x="69.873047"/>
       <use xlink:href="#LinLibertine-4d" x="140.039062"/>
       <use xlink:href="#LinLibertine-54" x="223.925781"/>
      </g>
     </g>
    </g>
    <g id="ytick_9">
     <g id="line2d_22">
      <g>
       <use xlink:href="#m285ba97cf4" x="60.789062" y="193.343462" style="stroke: #000000; stroke-width: 0.8"/>
      </g>
     </g>
     <g id="text_22">
      <!-- II -->
      <g transform="translate(44.882812 196.826274) scale(0.15 -0.15)">
       <use xlink:href="#LinLibertine-49"/>
       <use xlink:href="#LinLibertine-49" x="29.6875"/>
      </g>
     </g>
    </g>
    <g id="ytick_10">
     <g id="line2d_23">
      <g>
       <use xlink:href="#m285ba97cf4" x="60.789062" y="215.242692" style="stroke: #000000; stroke-width: 0.8"/>
      </g>
     </g>
     <g id="text_23">
      <!-- TE -->
      <g transform="translate(36.604687 218.725505) scale(0.15 -0.15)">
       <use xlink:href="#LinLibertine-54"/>
       <use xlink:href="#LinLibertine-45" x="59.667969"/>
      </g>
     </g>
    </g>
    <g id="ytick_11">
     <g id="line2d_24">
      <g>
       <use xlink:href="#m285ba97cf4" x="60.789062" y="237.141923" style="stroke: #000000; stroke-width: 0.8"/>
      </g>
     </g>
     <g id="text_24">
      <!-- E/HV -->
      <g transform="translate(19.985156 240.624736) scale(0.15 -0.15)">
       <use xlink:href="#LinLibertine-45"/>
       <use xlink:href="#LinLibertine-2f" x="54.882812"/>
       <use xlink:href="#LinLibertine-48" x="87.158203"/>
       <use xlink:href="#LinLibertine-56" x="160.15625"/>
      </g>
     </g>
    </g>
    <g id="ytick_12">
     <g id="line2d_25">
      <g>
       <use xlink:href="#m285ba97cf4" x="60.789062" y="259.041154" style="stroke: #000000; stroke-width: 0.8"/>
      </g>
     </g>
     <g id="text_25">
      <!-- DD/HV -->
      <g transform="translate(7.2 262.523966) scale(0.15 -0.15)">
       <use xlink:href="#LinLibertine-44"/>
       <use xlink:href="#LinLibertine-44" x="70.068359"/>
       <use xlink:href="#LinLibertine-2f" x="140.136719"/>
       <use xlink:href="#LinLibertine-48" x="172.412109"/>
       <use xlink:href="#LinLibertine-56" x="245.410156"/>
      </g>
     </g>
    </g>
    <g id="ytick_13">
     <g id="line2d_26">
      <g>
       <use xlink:href="#m285ba97cf4" x="60.789062" y="280.940385" style="stroke: #000000; stroke-width: 0.8"/>
      </g>
     </g>
     <g id="text_26">
      <!-- TS -->
      <g transform="translate(37.565625 284.423197) scale(0.15 -0.15)">
       <use xlink:href="#LinLibertine-54"/>
       <use xlink:href="#LinLibertine-53" x="59.667969"/>
      </g>
     </g>
    </g>
   </g>
   <g id="text_27">
    <!-- 92 -->
    <g style="fill: #404040" transform="translate(64.766022 43.531659) scale(0.15 -0.15)">
     <defs>
      <path id="LinLibertine-39" d="M 2150 1869 
Q 2203 2125 2203 2369 
Q 2203 3125 1993 3403 
Q 1784 3681 1434 3681 
Q 1184 3681 1017 3418 
Q 850 3156 850 2656 
Q 850 2516 886 2372 
Q 922 2228 998 2073 
Q 1075 1919 1234 1820 
Q 1394 1722 1619 1722 
Q 1925 1722 2150 1869 
z
M 2091 1638 
Q 1788 1500 1484 1497 
Q 875 1497 597 1789 
Q 319 2081 319 2541 
Q 319 3034 626 3468 
Q 934 3903 1503 3903 
Q 1716 3903 1908 3839 
Q 2100 3775 2298 3619 
Q 2497 3463 2614 3136 
Q 2731 2809 2731 2350 
Q 2731 1494 2138 800 
Q 1606 178 738 -78 
Q 659 -34 659 91 
Q 1250 313 1595 725 
Q 1941 1138 2091 1638 
z
" transform="scale(0.015625)"/>
      <path id="LinLibertine-32" d="M 391 2994 
Q 391 3313 717 3608 
Q 1044 3903 1544 3903 
Q 1978 3903 2301 3658 
Q 2625 3413 2625 2931 
Q 2625 2700 2528 2495 
Q 2431 2291 2320 2159 
Q 2209 2028 1984 1813 
L 1338 1191 
Q 863 716 863 416 
L 2003 416 
Q 2175 416 2272 550 
Q 2369 684 2450 1031 
Q 2572 1056 2638 997 
Q 2625 550 2484 -13 
Q 2191 0 1984 0 
L 863 0 
L 331 -13 
Q 331 294 476 578 
Q 622 863 1063 1313 
L 1538 1778 
Q 2063 2309 2059 2906 
Q 2059 3322 1890 3501 
Q 1722 3681 1503 3681 
Q 1184 3681 1028 3559 
Q 872 3438 872 3291 
Q 872 3259 897 3201 
Q 922 3144 922 3138 
Q 947 3047 947 3003 
Q 947 2906 842 2826 
Q 738 2747 647 2747 
Q 544 2747 467 2819 
Q 391 2891 391 2994 
z
" transform="scale(0.015625)"/>
     </defs>
     <use xlink:href="#LinLibertine-39"/>
     <use xlink:href="#LinLibertine-32" x="46.484375"/>
    </g>
   </g>
   <g id="text_28">
    <!-- 49 -->
    <g style="fill: #959595" transform="translate(64.766022 65.430889) scale(0.15 -0.15)">
     <defs>
      <path id="LinLibertine-34" d="M 1734 3244 
Q 1247 2578 513 1403 
L 1734 1403 
L 1734 3244 
z
M 2753 1403 
Q 2850 1403 2847 1300 
Q 2847 1244 2786 1172 
Q 2725 1100 2663 1100 
L 2222 1100 
L 2222 513 
Q 2222 409 2237 348 
Q 2253 288 2320 259 
Q 2388 231 2425 225 
Q 2463 219 2603 203 
Q 2647 197 2669 197 
Q 2700 166 2700 89 
Q 2700 13 2669 -13 
Q 2259 0 1972 0 
Q 1625 0 1216 -13 
Q 1191 13 1191 89 
Q 1191 166 1216 197 
Q 1559 222 1644 291 
Q 1734 363 1734 513 
L 1734 1100 
L 428 1100 
Q 231 1100 178 1369 
Q 1169 2925 1913 3834 
Q 1969 3906 2016 3903 
L 2222 3903 
L 2234 3891 
Q 2222 3834 2222 3272 
L 2222 1403 
L 2753 1403 
z
" transform="scale(0.015625)"/>
     </defs>
     <use xlink:href="#LinLibertine-34"/>
     <use xlink:href="#LinLibertine-39" x="46.484375"/>
    </g>
   </g>
   <g id="text_29">
    <!-- 53 -->
    <g style="fill: #404040" transform="translate(86.665252 65.430889) scale(0.15 -0.15)">
     <defs>
      <path id="LinLibertine-35" d="M 2041 1209 
Q 2041 1709 1836 1945 
Q 1631 2181 1300 2181 
Q 897 2181 488 2028 
L 703 3872 
Q 1075 3841 1394 3841 
Q 1778 3841 2444 3909 
L 2491 3884 
L 2388 3450 
Q 1991 3413 1716 3413 
Q 1497 3413 966 3469 
L 838 2400 
Q 1100 2503 1466 2503 
Q 1984 2503 2298 2158 
Q 2613 1813 2613 1325 
Q 2613 716 2231 322 
Q 1850 -72 1253 -72 
Q 959 -72 653 76 
Q 347 225 347 409 
Q 347 506 420 576 
Q 494 647 588 647 
Q 759 647 916 441 
Q 922 428 953 387 
Q 984 347 998 326 
Q 1013 306 1044 275 
Q 1075 244 1100 228 
Q 1125 213 1164 189 
Q 1203 166 1245 159 
Q 1288 153 1338 153 
Q 1631 153 1836 458 
Q 2041 763 2041 1209 
z
" transform="scale(0.015625)"/>
      <path id="LinLibertine-33" d="M 1375 3681 
Q 1259 3681 1139 3648 
Q 1019 3616 894 3497 
Q 769 3378 769 3194 
Q 769 2863 519 2859 
Q 416 2859 358 2931 
Q 300 3003 300 3078 
Q 300 3175 361 3300 
Q 422 3425 550 3569 
Q 678 3713 931 3808 
Q 1184 3903 1509 3903 
Q 1963 3903 2209 3653 
Q 2409 3450 2409 3147 
Q 2409 2878 2261 2676 
Q 2113 2475 1734 2297 
L 1741 2284 
Q 2100 2228 2372 1984 
Q 2644 1741 2644 1275 
Q 2644 666 2220 301 
Q 1797 -63 1203 -63 
Q 884 -63 582 60 
Q 281 184 281 366 
Q 281 444 367 516 
Q 453 588 550 588 
Q 703 588 825 422 
Q 831 416 854 381 
Q 878 347 887 333 
Q 897 319 919 291 
Q 941 263 959 250 
Q 978 238 1014 214 
Q 1050 191 1087 181 
Q 1125 172 1176 165 
Q 1228 159 1288 159 
Q 1391 159 1508 204 
Q 1625 250 1762 348 
Q 1900 447 1990 665 
Q 2081 884 2081 1184 
Q 2081 2009 1241 2009 
Q 1044 2009 934 1997 
L 903 2203 
Q 1347 2266 1628 2548 
Q 1909 2831 1909 3103 
Q 1909 3300 1831 3433 
Q 1753 3566 1637 3623 
Q 1522 3681 1375 3681 
z
" transform="scale(0.015625)"/>
     </defs>
     <use xlink:href="#LinLibertine-35"/>
     <use xlink:href="#LinLibertine-33" x="46.484375"/>
    </g>
   </g>
   <g id="text_30">
    <!-- 37 -->
    <g style="fill: #959595" transform="translate(64.766022 87.33012) scale(0.15 -0.15)">
     <defs>
      <path id="LinLibertine-37" d="M 1088 3425 
Q 966 3425 880 3395 
Q 794 3366 694 3237 
Q 594 3109 531 2869 
Q 434 2856 325 2888 
Q 447 3688 453 3909 
Q 453 3928 481 3928 
Q 506 3922 589 3881 
Q 672 3841 800 3841 
L 2119 3841 
Q 2375 3841 2613 3909 
L 2713 3834 
Q 2022 2144 1281 -63 
L 844 -84 
L 794 -38 
Q 1269 1019 2234 3425 
L 1088 3425 
z
" transform="scale(0.015625)"/>
     </defs>
     <use xlink:href="#LinLibertine-33"/>
     <use xlink:href="#LinLibertine-37" x="46.484375"/>
    </g>
   </g>
   <g id="text_31">
    <!-- 37 -->
    <g style="fill: #959595" transform="translate(86.665252 87.33012) scale(0.15 -0.15)">
     <use xlink:href="#LinLibertine-33"/>
     <use xlink:href="#LinLibertine-37" x="46.484375"/>
    </g>
   </g>
   <g id="text_32">
    <!-- 51 -->
    <g style="fill: #404040" transform="translate(108.564483 87.33012) scale(0.15 -0.15)">
     <defs>
      <path id="LinLibertine-31" d="M 1844 781 
Q 1844 397 1942 305 
Q 2041 213 2400 197 
Q 2431 166 2431 89 
Q 2431 13 2400 -13 
Q 1759 0 1619 0 
Q 1356 0 728 -13 
Q 703 13 703 89 
Q 703 166 728 197 
Q 1100 209 1225 309 
Q 1350 409 1350 781 
L 1350 2869 
Q 1350 3241 1222 3238 
Q 1050 3238 666 3078 
Q 588 3128 569 3250 
Q 1466 3666 1825 3891 
Q 1863 3891 1863 3859 
Q 1844 3713 1844 3003 
L 1844 781 
z
" transform="scale(0.015625)"/>
     </defs>
     <use xlink:href="#LinLibertine-35"/>
     <use xlink:href="#LinLibertine-31" x="46.484375"/>
    </g>
   </g>
   <g id="text_33">
    <!-- 15 -->
    <g style="fill: #959595" transform="translate(64.766022 109.229351) scale(0.15 -0.15)">
     <use xlink:href="#LinLibertine-31"/>
     <use xlink:href="#LinLibertine-35" x="46.484375"/>
    </g>
   </g>
   <g id="text_34">
    <!-- 24 -->
    <g style="fill: #959595" transform="translate(86.665252 109.229351) scale(0.15 -0.15)">
     <use xlink:href="#LinLibertine-32"/>
     <use xlink:href="#LinLibertine-34" x="46.484375"/>
    </g>
   </g>
   <g id="text_35">
    <!-- 14 -->
    <g style="fill: #959595" transform="translate(108.564483 109.229351) scale(0.15 -0.15)">
     <use xlink:href="#LinLibertine-31"/>
     <use xlink:href="#LinLibertine-34" x="46.484375"/>
    </g>
   </g>
   <g id="text_36">
    <!-- 06 -->
    <g style="fill: #959595" transform="translate(130.463714 109.229351) scale(0.15 -0.15)">
     <defs>
      <path id="LinLibertine-30" d="M 1484 3681 
Q 1363 3681 1255 3603 
Q 1147 3525 1040 3340 
Q 934 3156 870 2762 
Q 806 2369 806 1813 
Q 806 163 1466 159 
Q 1522 159 1586 178 
Q 1650 197 1737 251 
Q 1825 306 1904 431 
Q 1984 556 2034 744 
Q 2144 1141 2144 2059 
Q 2144 3256 1772 3572 
Q 1650 3681 1484 3681 
z
M 1459 -63 
Q 1078 -63 809 206 
Q 547 466 398 916 
Q 250 1366 250 1881 
Q 250 2791 617 3347 
Q 984 3903 1484 3903 
Q 1953 3903 2266 3488 
Q 2700 2913 2700 1941 
Q 2700 1409 2578 998 
Q 2456 588 2262 367 
Q 2069 147 1862 42 
Q 1656 -63 1459 -63 
z
" transform="scale(0.015625)"/>
      <path id="LinLibertine-36" d="M 866 1966 
Q 813 1709 813 1466 
Q 813 709 1020 431 
Q 1228 153 1581 153 
Q 1831 153 1997 415 
Q 2163 678 2163 1178 
Q 2163 1319 2128 1462 
Q 2094 1606 2017 1759 
Q 1941 1913 1780 2013 
Q 1619 2113 1394 2113 
Q 1091 2113 866 1966 
z
M 925 2197 
Q 1228 2334 1528 2338 
Q 2138 2338 2416 2045 
Q 2694 1753 2694 1294 
Q 2694 800 2387 364 
Q 2081 -72 1509 -72 
Q 1297 -72 1106 -8 
Q 916 56 717 214 
Q 519 372 400 698 
Q 281 1025 281 1484 
Q 281 2341 878 3034 
Q 1409 3656 2278 3909 
Q 2356 3859 2356 3744 
Q 1766 3522 1420 3109 
Q 1075 2697 925 2197 
z
" transform="scale(0.015625)"/>
     </defs>
     <use xlink:href="#LinLibertine-30"/>
     <use xlink:href="#LinLibertine-36" x="46.484375"/>
    </g>
   </g>
   <g id="text_37">
    <!-- 19 -->
    <g style="fill: #959595" transform="translate(64.766022 131.128582) scale(0.15 -0.15)">
     <use xlink:href="#LinLibertine-31"/>
     <use xlink:href="#LinLibertine-39" x="46.484375"/>
    </g>
   </g>
   <g id="text_38">
    <!-- 27 -->
    <g style="fill: #959595" transform="translate(86.665252 131.128582) scale(0.15 -0.15)">
     <use xlink:href="#LinLibertine-32"/>
     <use xlink:href="#LinLibertine-37" x="46.484375"/>
    </g>
   </g>
   <g id="text_39">
    <!-- 15 -->
    <g style="fill: #959595" transform="translate(108.564483 131.128582) scale(0.15 -0.15)">
     <use xlink:href="#LinLibertine-31"/>
     <use xlink:href="#LinLibertine-35" x="46.484375"/>
    </g>
   </g>
   <g id="text_40">
    <!-- 14 -->
    <g style="fill: #959595" transform="translate(130.463714 131.128582) scale(0.15 -0.15)">
     <use xlink:href="#LinLibertine-31"/>
     <use xlink:href="#LinLibertine-34" x="46.484375"/>
    </g>
   </g>
   <g id="text_41">
    <!-- 12 -->
    <g style="fill: #959595" transform="translate(152.362945 131.128582) scale(0.15 -0.15)">
     <use xlink:href="#LinLibertine-31"/>
     <use xlink:href="#LinLibertine-32" x="46.484375"/>
    </g>
   </g>
   <g id="text_42">
    <!-- -04 -->
    <g style="fill: #959595" transform="translate(62.231256 153.027812) scale(0.15 -0.15)">
     <defs>
      <path id="LinLibertine-2d" d="M 1734 1428 
L 353 1428 
Q 256 1428 256 1550 
Q 256 1641 307 1727 
Q 359 1813 416 1813 
L 1819 1813 
Q 1909 1813 1906 1684 
Q 1906 1622 1848 1525 
Q 1791 1428 1734 1428 
z
" transform="scale(0.015625)"/>
     </defs>
     <use xlink:href="#LinLibertine-2d"/>
     <use xlink:href="#LinLibertine-30" x="33.789062"/>
     <use xlink:href="#LinLibertine-34" x="80.273438"/>
    </g>
   </g>
   <g id="text_43">
    <!-- -02 -->
    <g style="fill: #959595" transform="translate(84.130487 153.027812) scale(0.15 -0.15)">
     <use xlink:href="#LinLibertine-2d"/>
     <use xlink:href="#LinLibertine-30" x="33.789062"/>
     <use xlink:href="#LinLibertine-32" x="80.273438"/>
    </g>
   </g>
   <g id="text_44">
    <!-- -11 -->
    <g style="fill: #959595" transform="translate(106.029718 153.027812) scale(0.15 -0.15)">
     <use xlink:href="#LinLibertine-2d"/>
     <use xlink:href="#LinLibertine-31" x="33.789062"/>
     <use xlink:href="#LinLibertine-31" x="80.273438"/>
    </g>
   </g>
   <g id="text_45">
    <!-- -03 -->
    <g style="fill: #959595" transform="translate(127.928948 153.027812) scale(0.15 -0.15)">
     <use xlink:href="#LinLibertine-2d"/>
     <use xlink:href="#LinLibertine-30" x="33.789062"/>
     <use xlink:href="#LinLibertine-33" x="80.273438"/>
    </g>
   </g>
   <g id="text_46">
    <!-- 09 -->
    <g style="fill: #959595" transform="translate(152.362945 153.027812) scale(0.15 -0.15)">
     <use xlink:href="#LinLibertine-30"/>
     <use xlink:href="#LinLibertine-39" x="46.484375"/>
    </g>
   </g>
   <g id="text_47">
    <!-- -34 -->
    <g style="fill: #959595" transform="translate(171.72741 153.027812) scale(0.15 -0.15)">
     <use xlink:href="#LinLibertine-2d"/>
     <use xlink:href="#LinLibertine-33" x="33.789062"/>
     <use xlink:href="#LinLibertine-34" x="80.273438"/>
    </g>
   </g>
   <g id="text_48">
    <!-- 59 -->
    <g style="fill: #404040" transform="translate(64.766022 174.927043) scale(0.15 -0.15)">
     <use xlink:href="#LinLibertine-35"/>
     <use xlink:href="#LinLibertine-39" x="46.484375"/>
    </g>
   </g>
   <g id="text_49">
    <!-- 53 -->
    <g style="fill: #404040" transform="translate(86.665252 174.927043) scale(0.15 -0.15)">
     <use xlink:href="#LinLibertine-35"/>
     <use xlink:href="#LinLibertine-33" x="46.484375"/>
    </g>
   </g>
   <g id="text_50">
    <!-- 39 -->
    <g style="fill: #959595" transform="translate(108.564483 174.927043) scale(0.15 -0.15)">
     <use xlink:href="#LinLibertine-33"/>
     <use xlink:href="#LinLibertine-39" x="46.484375"/>
    </g>
   </g>
   <g id="text_51">
    <!-- 21 -->
    <g style="fill: #959595" transform="translate(130.463714 174.927043) scale(0.15 -0.15)">
     <use xlink:href="#LinLibertine-32"/>
     <use xlink:href="#LinLibertine-31" x="46.484375"/>
    </g>
   </g>
   <g id="text_52">
    <!-- 06 -->
    <g style="fill: #959595" transform="translate(152.362945 174.927043) scale(0.15 -0.15)">
     <use xlink:href="#LinLibertine-30"/>
     <use xlink:href="#LinLibertine-36" x="46.484375"/>
    </g>
   </g>
   <g id="text_53">
    <!-- 25 -->
    <g style="fill: #959595" transform="translate(174.262175 174.927043) scale(0.15 -0.15)">
     <use xlink:href="#LinLibertine-32"/>
     <use xlink:href="#LinLibertine-35" x="46.484375"/>
    </g>
   </g>
   <g id="text_54">
    <!-- -10 -->
    <g style="fill: #959595" transform="translate(193.626641 174.927043) scale(0.15 -0.15)">
     <use xlink:href="#LinLibertine-2d"/>
     <use xlink:href="#LinLibertine-31" x="33.789062"/>
     <use xlink:href="#LinLibertine-30" x="80.273438"/>
    </g>
   </g>
   <g id="text_55">
    <!-- 13 -->
    <g style="fill: #959595" transform="translate(64.766022 196.826274) scale(0.15 -0.15)">
     <use xlink:href="#LinLibertine-31"/>
     <use xlink:href="#LinLibertine-33" x="46.484375"/>
    </g>
   </g>
   <g id="text_56">
    <!-- 15 -->
    <g style="fill: #959595" transform="translate(86.665252 196.826274) scale(0.15 -0.15)">
     <use xlink:href="#LinLibertine-31"/>
     <use xlink:href="#LinLibertine-35" x="46.484375"/>
    </g>
   </g>
   <g id="text_57">
    <!-- 13 -->
    <g style="fill: #959595" transform="translate(108.564483 196.826274) scale(0.15 -0.15)">
     <use xlink:href="#LinLibertine-31"/>
     <use xlink:href="#LinLibertine-33" x="46.484375"/>
    </g>
   </g>
   <g id="text_58">
    <!-- 12 -->
    <g style="fill: #959595" transform="translate(130.463714 196.826274) scale(0.15 -0.15)">
     <use xlink:href="#LinLibertine-31"/>
     <use xlink:href="#LinLibertine-32" x="46.484375"/>
    </g>
   </g>
   <g id="text_59">
    <!-- 05 -->
    <g style="fill: #959595" transform="translate(152.362945 196.826274) scale(0.15 -0.15)">
     <use xlink:href="#LinLibertine-30"/>
     <use xlink:href="#LinLibertine-35" x="46.484375"/>
    </g>
   </g>
   <g id="text_60">
    <!-- 09 -->
    <g style="fill: #959595" transform="translate(174.262175 196.826274) scale(0.15 -0.15)">
     <use xlink:href="#LinLibertine-30"/>
     <use xlink:href="#LinLibertine-39" x="46.484375"/>
    </g>
   </g>
   <g id="text_61">
    <!-- 08 -->
    <g style="fill: #959595" transform="translate(196.161406 196.826274) scale(0.15 -0.15)">
     <defs>
      <path id="LinLibertine-38" d="M 1497 3681 
Q 1222 3681 1065 3526 
Q 909 3372 909 3144 
Q 909 2966 995 2808 
Q 1081 2650 1356 2472 
L 1556 2350 
Q 2069 2728 2069 3109 
Q 2069 3353 1930 3517 
Q 1791 3681 1497 3681 
z
M 2516 3103 
Q 2516 2828 2269 2595 
Q 2022 2363 1728 2216 
L 2181 1941 
Q 2681 1641 2681 1038 
Q 2681 628 2348 282 
Q 2016 -63 1434 -63 
Q 916 -63 605 195 
Q 294 453 294 934 
Q 294 1375 666 1703 
Q 888 1897 1181 2053 
L 1019 2156 
Q 456 2509 453 3022 
Q 453 3400 751 3651 
Q 1050 3903 1528 3903 
Q 1988 3903 2252 3679 
Q 2516 3456 2516 3103 
z
M 1447 159 
Q 1741 159 1978 323 
Q 2216 488 2216 909 
Q 2216 1422 1656 1759 
L 1356 1941 
Q 997 1703 859 1425 
Q 722 1147 722 934 
Q 722 544 950 351 
Q 1178 159 1447 159 
z
" transform="scale(0.015625)"/>
     </defs>
     <use xlink:href="#LinLibertine-30"/>
     <use xlink:href="#LinLibertine-38" x="46.484375"/>
    </g>
   </g>
   <g id="text_62">
    <!-- -03 -->
    <g style="fill: #959595" transform="translate(215.525871 196.826274) scale(0.15 -0.15)">
     <use xlink:href="#LinLibertine-2d"/>
     <use xlink:href="#LinLibertine-30" x="33.789062"/>
     <use xlink:href="#LinLibertine-33" x="80.273438"/>
    </g>
   </g>
   <g id="text_63">
    <!-- 78 -->
    <g style="fill: #404040" transform="translate(64.766022 218.725505) scale(0.15 -0.15)">
     <use xlink:href="#LinLibertine-37"/>
     <use xlink:href="#LinLibertine-38" x="46.484375"/>
    </g>
   </g>
   <g id="text_64">
    <!-- 75 -->
    <g style="fill: #404040" transform="translate(86.665252 218.725505) scale(0.15 -0.15)">
     <use xlink:href="#LinLibertine-37"/>
     <use xlink:href="#LinLibertine-35" x="46.484375"/>
    </g>
   </g>
   <g id="text_65">
    <!-- 53 -->
    <g style="fill: #404040" transform="translate(108.564483 218.725505) scale(0.15 -0.15)">
     <use xlink:href="#LinLibertine-35"/>
     <use xlink:href="#LinLibertine-33" x="46.484375"/>
    </g>
   </g>
   <g id="text_66">
    <!-- 33 -->
    <g style="fill: #959595" transform="translate(130.463714 218.725505) scale(0.15 -0.15)">
     <use xlink:href="#LinLibertine-33"/>
     <use xlink:href="#LinLibertine-33" x="46.484375"/>
    </g>
   </g>
   <g id="text_67">
    <!-- 19 -->
    <g style="fill: #959595" transform="translate(152.362945 218.725505) scale(0.15 -0.15)">
     <use xlink:href="#LinLibertine-31"/>
     <use xlink:href="#LinLibertine-39" x="46.484375"/>
    </g>
   </g>
   <g id="text_68">
    <!-- 30 -->
    <g style="fill: #959595" transform="translate(174.262175 218.725505) scale(0.15 -0.15)">
     <use xlink:href="#LinLibertine-33"/>
     <use xlink:href="#LinLibertine-30" x="46.484375"/>
    </g>
   </g>
   <g id="text_69">
    <!-- -11 -->
    <g style="fill: #959595" transform="translate(193.626641 218.725505) scale(0.15 -0.15)">
     <use xlink:href="#LinLibertine-2d"/>
     <use xlink:href="#LinLibertine-31" x="33.789062"/>
     <use xlink:href="#LinLibertine-31" x="80.273438"/>
    </g>
   </g>
   <g id="text_70">
    <!-- 61 -->
    <g style="fill: #404040" transform="translate(218.060637 218.725505) scale(0.15 -0.15)">
     <use xlink:href="#LinLibertine-36"/>
     <use xlink:href="#LinLibertine-31" x="46.484375"/>
    </g>
   </g>
   <g id="text_71">
    <!-- 17 -->
    <g style="fill: #959595" transform="translate(239.959868 218.725505) scale(0.15 -0.15)">
     <use xlink:href="#LinLibertine-31"/>
     <use xlink:href="#LinLibertine-37" x="46.484375"/>
    </g>
   </g>
   <g id="text_72">
    <!-- -90 -->
    <g style="fill: #404040" transform="translate(62.231256 240.624736) scale(0.15 -0.15)">
     <use xlink:href="#LinLibertine-2d"/>
     <use xlink:href="#LinLibertine-39" x="33.789062"/>
     <use xlink:href="#LinLibertine-30" x="80.273438"/>
    </g>
   </g>
   <g id="text_73">
    <!-- -84 -->
    <g style="fill: #404040" transform="translate(84.130487 240.624736) scale(0.15 -0.15)">
     <use xlink:href="#LinLibertine-2d"/>
     <use xlink:href="#LinLibertine-38" x="33.789062"/>
     <use xlink:href="#LinLibertine-34" x="80.273438"/>
    </g>
   </g>
   <g id="text_74">
    <!-- -43 -->
    <g style="fill: #959595" transform="translate(106.029718 240.624736) scale(0.15 -0.15)">
     <use xlink:href="#LinLibertine-2d"/>
     <use xlink:href="#LinLibertine-34" x="33.789062"/>
     <use xlink:href="#LinLibertine-33" x="80.273438"/>
    </g>
   </g>
   <g id="text_75">
    <!-- -27 -->
    <g style="fill: #959595" transform="translate(127.928948 240.624736) scale(0.15 -0.15)">
     <use xlink:href="#LinLibertine-2d"/>
     <use xlink:href="#LinLibertine-32" x="33.789062"/>
     <use xlink:href="#LinLibertine-37" x="80.273438"/>
    </g>
   </g>
   <g id="text_76">
    <!-- -19 -->
    <g style="fill: #959595" transform="translate(149.828179 240.624736) scale(0.15 -0.15)">
     <use xlink:href="#LinLibertine-2d"/>
     <use xlink:href="#LinLibertine-31" x="33.789062"/>
     <use xlink:href="#LinLibertine-39" x="80.273438"/>
    </g>
   </g>
   <g id="text_77">
    <!-- -15 -->
    <g style="fill: #959595" transform="translate(171.72741 240.624736) scale(0.15 -0.15)">
     <use xlink:href="#LinLibertine-2d"/>
     <use xlink:href="#LinLibertine-31" x="33.789062"/>
     <use xlink:href="#LinLibertine-35" x="80.273438"/>
    </g>
   </g>
   <g id="text_78">
    <!-- 05 -->
    <g style="fill: #959595" transform="translate(196.161406 240.624736) scale(0.15 -0.15)">
     <use xlink:href="#LinLibertine-30"/>
     <use xlink:href="#LinLibertine-35" x="46.484375"/>
    </g>
   </g>
   <g id="text_79">
    <!-- -59 -->
    <g style="fill: #404040" transform="translate(215.525871 240.624736) scale(0.15 -0.15)">
     <use xlink:href="#LinLibertine-2d"/>
     <use xlink:href="#LinLibertine-35" x="33.789062"/>
     <use xlink:href="#LinLibertine-39" x="80.273438"/>
    </g>
   </g>
   <g id="text_80">
    <!-- -09 -->
    <g style="fill: #959595" transform="translate(237.425102 240.624736) scale(0.15 -0.15)">
     <use xlink:href="#LinLibertine-2d"/>
     <use xlink:href="#LinLibertine-30" x="33.789062"/>
     <use xlink:href="#LinLibertine-39" x="80.273438"/>
    </g>
   </g>
   <g id="text_81">
    <!-- -78 -->
    <g style="fill: #404040" transform="translate(259.324333 240.624736) scale(0.15 -0.15)">
     <use xlink:href="#LinLibertine-2d"/>
     <use xlink:href="#LinLibertine-37" x="33.789062"/>
     <use xlink:href="#LinLibertine-38" x="80.273438"/>
    </g>
   </g>
   <g id="text_82">
    <!-- -37 -->
    <g style="fill: #959595" transform="translate(62.231256 262.523966) scale(0.15 -0.15)">
     <use xlink:href="#LinLibertine-2d"/>
     <use xlink:href="#LinLibertine-33" x="33.789062"/>
     <use xlink:href="#LinLibertine-37" x="80.273438"/>
    </g>
   </g>
   <g id="text_83">
    <!-- -09 -->
    <g style="fill: #959595" transform="translate(84.130487 262.523966) scale(0.15 -0.15)">
     <use xlink:href="#LinLibertine-2d"/>
     <use xlink:href="#LinLibertine-30" x="33.789062"/>
     <use xlink:href="#LinLibertine-39" x="80.273438"/>
    </g>
   </g>
   <g id="text_84">
    <!-- -08 -->
    <g style="fill: #959595" transform="translate(106.029718 262.523966) scale(0.15 -0.15)">
     <use xlink:href="#LinLibertine-2d"/>
     <use xlink:href="#LinLibertine-30" x="33.789062"/>
     <use xlink:href="#LinLibertine-38" x="80.273438"/>
    </g>
   </g>
   <g id="text_85">
    <!-- -08 -->
    <g style="fill: #959595" transform="translate(127.928948 262.523966) scale(0.15 -0.15)">
     <use xlink:href="#LinLibertine-2d"/>
     <use xlink:href="#LinLibertine-30" x="33.789062"/>
     <use xlink:href="#LinLibertine-38" x="80.273438"/>
    </g>
   </g>
   <g id="text_86">
    <!-- 21 -->
    <g style="fill: #959595" transform="translate(152.362945 262.523966) scale(0.15 -0.15)">
     <use xlink:href="#LinLibertine-32"/>
     <use xlink:href="#LinLibertine-31" x="46.484375"/>
    </g>
   </g>
   <g id="text_87">
    <!-- 22 -->
    <g style="fill: #959595" transform="translate(174.262175 262.523966) scale(0.15 -0.15)">
     <use xlink:href="#LinLibertine-32"/>
     <use xlink:href="#LinLibertine-32" x="46.484375"/>
    </g>
   </g>
   <g id="text_88">
    <!-- 10 -->
    <g style="fill: #959595" transform="translate(196.161406 262.523966) scale(0.15 -0.15)">
     <use xlink:href="#LinLibertine-31"/>
     <use xlink:href="#LinLibertine-30" x="46.484375"/>
    </g>
   </g>
   <g id="text_89">
    <!-- -31 -->
    <g style="fill: #959595" transform="translate(215.525871 262.523966) scale(0.15 -0.15)">
     <use xlink:href="#LinLibertine-2d"/>
     <use xlink:href="#LinLibertine-33" x="33.789062"/>
     <use xlink:href="#LinLibertine-31" x="80.273438"/>
    </g>
   </g>
   <g id="text_90">
    <!-- 04 -->
    <g style="fill: #959595" transform="translate(239.959868 262.523966) scale(0.15 -0.15)">
     <use xlink:href="#LinLibertine-30"/>
     <use xlink:href="#LinLibertine-34" x="46.484375"/>
    </g>
   </g>
   <g id="text_91">
    <!-- -28 -->
    <g style="fill: #959595" transform="translate(259.324333 262.523966) scale(0.15 -0.15)">
     <use xlink:href="#LinLibertine-2d"/>
     <use xlink:href="#LinLibertine-32" x="33.789062"/>
     <use xlink:href="#LinLibertine-38" x="80.273438"/>
    </g>
   </g>
   <g id="text_92">
    <!-- 40 -->
    <g style="fill: #959595" transform="translate(283.758329 262.523966) scale(0.15 -0.15)">
     <use xlink:href="#LinLibertine-34"/>
     <use xlink:href="#LinLibertine-30" x="46.484375"/>
    </g>
   </g>
   <g id="text_93">
    <!-- 43 -->
    <g style="fill: #959595" transform="translate(64.766022 284.423197) scale(0.15 -0.15)">
     <use xlink:href="#LinLibertine-34"/>
     <use xlink:href="#LinLibertine-33" x="46.484375"/>
    </g>
   </g>
   <g id="text_94">
    <!-- 39 -->
    <g style="fill: #959595" transform="translate(86.665252 284.423197) scale(0.15 -0.15)">
     <use xlink:href="#LinLibertine-33"/>
     <use xlink:href="#LinLibertine-39" x="46.484375"/>
    </g>
   </g>
   <g id="text_95">
    <!-- 33 -->
    <g style="fill: #959595" transform="translate(108.564483 284.423197) scale(0.15 -0.15)">
     <use xlink:href="#LinLibertine-33"/>
     <use xlink:href="#LinLibertine-33" x="46.484375"/>
    </g>
   </g>
   <g id="text_96">
    <!-- 25 -->
    <g style="fill: #959595" transform="translate(130.463714 284.423197) scale(0.15 -0.15)">
     <use xlink:href="#LinLibertine-32"/>
     <use xlink:href="#LinLibertine-35" x="46.484375"/>
    </g>
   </g>
   <g id="text_97">
    <!-- 07 -->
    <g style="fill: #959595" transform="translate(152.362945 284.423197) scale(0.15 -0.15)">
     <use xlink:href="#LinLibertine-30"/>
     <use xlink:href="#LinLibertine-37" x="46.484375"/>
    </g>
   </g>
   <g id="text_98">
    <!-- 16 -->
    <g style="fill: #959595" transform="translate(174.262175 284.423197) scale(0.15 -0.15)">
     <use xlink:href="#LinLibertine-31"/>
     <use xlink:href="#LinLibertine-36" x="46.484375"/>
    </g>
   </g>
   <g id="text_99">
    <!-- -07 -->
    <g style="fill: #959595" transform="translate(193.626641 284.423197) scale(0.15 -0.15)">
     <use xlink:href="#LinLibertine-2d"/>
     <use xlink:href="#LinLibertine-30" x="33.789062"/>
     <use xlink:href="#LinLibertine-37" x="80.273438"/>
    </g>
   </g>
   <g id="text_100">
    <!-- 36 -->
    <g style="fill: #959595" transform="translate(218.060637 284.423197) scale(0.15 -0.15)">
     <use xlink:href="#LinLibertine-33"/>
     <use xlink:href="#LinLibertine-36" x="46.484375"/>
    </g>
   </g>
   <g id="text_101">
    <!-- 08 -->
    <g style="fill: #959595" transform="translate(239.959868 284.423197) scale(0.15 -0.15)">
     <use xlink:href="#LinLibertine-30"/>
     <use xlink:href="#LinLibertine-38" x="46.484375"/>
    </g>
   </g>
   <g id="text_102">
    <!-- 45 -->
    <g style="fill: #959595" transform="translate(261.859099 284.423197) scale(0.15 -0.15)">
     <use xlink:href="#LinLibertine-34"/>
     <use xlink:href="#LinLibertine-35" x="46.484375"/>
    </g>
   </g>
   <g id="text_103">
    <!-- -36 -->
    <g style="fill: #959595" transform="translate(281.223564 284.423197) scale(0.15 -0.15)">
     <use xlink:href="#LinLibertine-2d"/>
     <use xlink:href="#LinLibertine-33" x="33.789062"/>
     <use xlink:href="#LinLibertine-36" x="80.273438"/>
    </g>
   </g>
   <g id="text_104">
    <!-- -16 -->
    <g style="fill: #959595" transform="translate(303.122794 284.423197) scale(0.15 -0.15)">
     <use xlink:href="#LinLibertine-2d"/>
     <use xlink:href="#LinLibertine-31" x="33.789062"/>
     <use xlink:href="#LinLibertine-36" x="80.273438"/>
    </g>
   </g>
  </g>
 </g>
 <defs>
  <clipPath id="p433eb58b4b">
   <rect x="60.789062" y="7.2" width="284.69" height="284.69"/>
  </clipPath>
 </defs>
</svg>
