<?xml version="1.0" encoding="utf-8" standalone="no"?>
<!DOCTYPE svg PUBLIC "-//W3C//DTD SVG 1.1//EN"
  "http://www.w3.org/Graphics/SVG/1.1/DTD/svg11.dtd">
<svg xmlns:xlink="http://www.w3.org/1999/xlink" width="352.764375pt" height="352.764375pt" viewBox="0 0 352.764375 352.764375" xmlns="http://www.w3.org/2000/svg" version="1.1">
 <metadata>
  <rdf:RDF xmlns:dc="http://purl.org/dc/elements/1.1/" xmlns:cc="http://creativecommons.org/ns#" xmlns:rdf="http://www.w3.org/1999/02/22-rdf-syntax-ns#">
   <cc:Work>
    <dc:type rdf:resource="http://purl.org/dc/dcmitype/StillImage"/>
    <dc:date>2024-06-08T11:05:25.558401</dc:date>
    <dc:format>image/svg+xml</dc:format>
    <dc:creator>
     <cc:Agent>
      <dc:title>Matplotlib v3.8.4, https://matplotlib.org/</dc:title>
     </cc:Agent>
    </dc:creator>
   </cc:Work>
  </rdf:RDF>
 </metadata>
 <defs>
  <style type="text/css">*{stroke-linejoin: round; stroke-linecap: butt}</style>
 </defs>
 <g id="figure_1">
  <g id="patch_1">
   <path d="M 0 352.764375 
L 352.764375 352.764375 
L 352.764375 0 
L 0 0 
z
" style="fill: #ffffff"/>
  </g>
  <g id="axes_1">
   <g id="patch_2">
    <path d="M 63.934375 288.83 
L 345.564375 288.83 
L 345.564375 7.2 
L 63.934375 7.2 
z
" style="fill: #ffffff"/>
   </g>
   <g id="QuadMesh_1">
    <path d="M 63.934375 7.2 
L 87.403542 7.2 
L 87.403542 30.669167 
L 63.934375 30.669167 
L 63.934375 7.2 
" clip-path="url(#pb4deff1967)" style="fill: none"/>
    <path d="M 87.403542 7.2 
L 110.872708 7.2 
L 110.872708 30.669167 
L 87.403542 30.669167 
L 87.403542 7.2 
" clip-path="url(#pb4deff1967)" style="fill: none"/>
    <path d="M 110.872708 7.2 
L 134.341875 7.2 
L 134.341875 30.669167 
L 110.872708 30.669167 
L 110.872708 7.2 
" clip-path="url(#pb4deff1967)" style="fill: none"/>
    <path d="M 134.341875 7.2 
L 157.811042 7.2 
L 157.811042 30.669167 
L 134.341875 30.669167 
L 134.341875 7.2 
" clip-path="url(#pb4deff1967)" style="fill: none"/>
    <path d="M 157.811042 7.2 
L 181.280208 7.2 
L 181.280208 30.669167 
L 157.811042 30.669167 
L 157.811042 7.2 
" clip-path="url(#pb4deff1967)" style="fill: none"/>
    <path d="M 181.280208 7.2 
L 204.749375 7.2 
L 204.749375 30.669167 
L 181.280208 30.669167 
L 181.280208 7.2 
" clip-path="url(#pb4deff1967)" style="fill: none"/>
    <path d="M 204.749375 7.2 
L 228.218542 7.2 
L 228.218542 30.669167 
L 204.749375 30.669167 
L 204.749375 7.2 
" clip-path="url(#pb4deff1967)" style="fill: none"/>
    <path d="M 228.218542 7.2 
L 251.687708 7.2 
L 251.687708 30.669167 
L 228.218542 30.669167 
L 228.218542 7.2 
" clip-path="url(#pb4deff1967)" style="fill: none"/>
    <path d="M 251.687708 7.2 
L 275.156875 7.2 
L 275.156875 30.669167 
L 251.687708 30.669167 
L 251.687708 7.2 
" clip-path="url(#pb4deff1967)" style="fill: none"/>
    <path d="M 275.156875 7.2 
L 298.626042 7.2 
L 298.626042 30.669167 
L 275.156875 30.669167 
L 275.156875 7.2 
" clip-path="url(#pb4deff1967)" style="fill: none"/>
    <path d="M 298.626042 7.2 
L 322.095208 7.2 
L 322.095208 30.669167 
L 298.626042 30.669167 
L 298.626042 7.2 
" clip-path="url(#pb4deff1967)" style="fill: none"/>
    <path d="M 322.095208 7.2 
L 345.564375 7.2 
L 345.564375 30.669167 
L 322.095208 30.669167 
L 322.095208 7.2 
" clip-path="url(#pb4deff1967)" style="fill: none"/>
    <path d="M 63.934375 30.669167 
L 87.403542 30.669167 
L 87.403542 54.138333 
L 63.934375 54.138333 
L 63.934375 30.669167 
" clip-path="url(#pb4deff1967)" style="fill: #d1dae9"/>
    <path d="M 87.403542 30.669167 
L 110.872708 30.669167 
L 110.872708 54.138333 
L 87.403542 54.138333 
L 87.403542 30.669167 
" clip-path="url(#pb4deff1967)" style="fill: none"/>
    <path d="M 110.872708 30.669167 
L 134.341875 30.669167 
L 134.341875 54.138333 
L 110.872708 54.138333 
L 110.872708 30.669167 
" clip-path="url(#pb4deff1967)" style="fill: none"/>
    <path d="M 134.341875 30.669167 
L 157.811042 30.669167 
L 157.811042 54.138333 
L 134.341875 54.138333 
L 134.341875 30.669167 
" clip-path="url(#pb4deff1967)" style="fill: none"/>
    <path d="M 157.811042 30.669167 
L 181.280208 30.669167 
L 181.280208 54.138333 
L 157.811042 54.138333 
L 157.811042 30.669167 
" clip-path="url(#pb4deff1967)" style="fill: none"/>
    <path d="M 181.280208 30.669167 
L 204.749375 30.669167 
L 204.749375 54.138333 
L 181.280208 54.138333 
L 181.280208 30.669167 
" clip-path="url(#pb4deff1967)" style="fill: none"/>
    <path d="M 204.749375 30.669167 
L 228.218542 30.669167 
L 228.218542 54.138333 
L 204.749375 54.138333 
L 204.749375 30.669167 
" clip-path="url(#pb4deff1967)" style="fill: none"/>
    <path d="M 228.218542 30.669167 
L 251.687708 30.669167 
L 251.687708 54.138333 
L 228.218542 54.138333 
L 228.218542 30.669167 
" clip-path="url(#pb4deff1967)" style="fill: none"/>
    <path d="M 251.687708 30.669167 
L 275.156875 30.669167 
L 275.156875 54.138333 
L 251.687708 54.138333 
L 251.687708 30.669167 
" clip-path="url(#pb4deff1967)" style="fill: none"/>
    <path d="M 275.156875 30.669167 
L 298.626042 30.669167 
L 298.626042 54.138333 
L 275.156875 54.138333 
L 275.156875 30.669167 
" clip-path="url(#pb4deff1967)" style="fill: none"/>
    <path d="M 298.626042 30.669167 
L 322.095208 30.669167 
L 322.095208 54.138333 
L 298.626042 54.138333 
L 298.626042 30.669167 
" clip-path="url(#pb4deff1967)" style="fill: none"/>
    <path d="M 322.095208 30.669167 
L 345.564375 30.669167 
L 345.564375 54.138333 
L 322.095208 54.138333 
L 322.095208 30.669167 
" clip-path="url(#pb4deff1967)" style="fill: none"/>
    <path d="M 63.934375 54.138333 
L 87.403542 54.138333 
L 87.403542 77.6075 
L 63.934375 77.6075 
L 63.934375 54.138333 
" clip-path="url(#pb4deff1967)" style="fill: #f39577"/>
    <path d="M 87.403542 54.138333 
L 110.872708 54.138333 
L 110.872708 77.6075 
L 87.403542 77.6075 
L 87.403542 54.138333 
" clip-path="url(#pb4deff1967)" style="fill: #d4dbe6"/>
    <path d="M 110.872708 54.138333 
L 134.341875 54.138333 
L 134.341875 77.6075 
L 110.872708 77.6075 
L 110.872708 54.138333 
" clip-path="url(#pb4deff1967)" style="fill: none"/>
    <path d="M 134.341875 54.138333 
L 157.811042 54.138333 
L 157.811042 77.6075 
L 134.341875 77.6075 
L 134.341875 54.138333 
" clip-path="url(#pb4deff1967)" style="fill: none"/>
    <path d="M 157.811042 54.138333 
L 181.280208 54.138333 
L 181.280208 77.6075 
L 157.811042 77.6075 
L 157.811042 54.138333 
" clip-path="url(#pb4deff1967)" style="fill: none"/>
    <path d="M 181.280208 54.138333 
L 204.749375 54.138333 
L 204.749375 77.6075 
L 181.280208 77.6075 
L 181.280208 54.138333 
" clip-path="url(#pb4deff1967)" style="fill: none"/>
    <path d="M 204.749375 54.138333 
L 228.218542 54.138333 
L 228.218542 77.6075 
L 204.749375 77.6075 
L 204.749375 54.138333 
" clip-path="url(#pb4deff1967)" style="fill: none"/>
    <path d="M 228.218542 54.138333 
L 251.687708 54.138333 
L 251.687708 77.6075 
L 228.218542 77.6075 
L 228.218542 54.138333 
" clip-path="url(#pb4deff1967)" style="fill: none"/>
    <path d="M 251.687708 54.138333 
L 275.156875 54.138333 
L 275.156875 77.6075 
L 251.687708 77.6075 
L 251.687708 54.138333 
" clip-path="url(#pb4deff1967)" style="fill: none"/>
    <path d="M 275.156875 54.138333 
L 298.626042 54.138333 
L 298.626042 77.6075 
L 275.156875 77.6075 
L 275.156875 54.138333 
" clip-path="url(#pb4deff1967)" style="fill: none"/>
    <path d="M 298.626042 54.138333 
L 322.095208 54.138333 
L 322.095208 77.6075 
L 298.626042 77.6075 
L 298.626042 54.138333 
" clip-path="url(#pb4deff1967)" style="fill: none"/>
    <path d="M 322.095208 54.138333 
L 345.564375 54.138333 
L 345.564375 77.6075 
L 322.095208 77.6075 
L 322.095208 54.138333 
" clip-path="url(#pb4deff1967)" style="fill: none"/>
    <path d="M 63.934375 77.6075 
L 87.403542 77.6075 
L 87.403542 101.076667 
L 63.934375 101.076667 
L 63.934375 77.6075 
" clip-path="url(#pb4deff1967)" style="fill: #e7d7ce"/>
    <path d="M 87.403542 77.6075 
L 110.872708 77.6075 
L 110.872708 101.076667 
L 87.403542 101.076667 
L 87.403542 77.6075 
" clip-path="url(#pb4deff1967)" style="fill: #b6cefa"/>
    <path d="M 110.872708 77.6075 
L 134.341875 77.6075 
L 134.341875 101.076667 
L 110.872708 101.076667 
L 110.872708 77.6075 
" clip-path="url(#pb4deff1967)" style="fill: #f5c4ac"/>
    <path d="M 134.341875 77.6075 
L 157.811042 77.6075 
L 157.811042 101.076667 
L 134.341875 101.076667 
L 134.341875 77.6075 
" clip-path="url(#pb4deff1967)" style="fill: none"/>
    <path d="M 157.811042 77.6075 
L 181.280208 77.6075 
L 181.280208 101.076667 
L 157.811042 101.076667 
L 157.811042 77.6075 
" clip-path="url(#pb4deff1967)" style="fill: none"/>
    <path d="M 181.280208 77.6075 
L 204.749375 77.6075 
L 204.749375 101.076667 
L 181.280208 101.076667 
L 181.280208 77.6075 
" clip-path="url(#pb4deff1967)" style="fill: none"/>
    <path d="M 204.749375 77.6075 
L 228.218542 77.6075 
L 228.218542 101.076667 
L 204.749375 101.076667 
L 204.749375 77.6075 
" clip-path="url(#pb4deff1967)" style="fill: none"/>
    <path d="M 228.218542 77.6075 
L 251.687708 77.6075 
L 251.687708 101.076667 
L 228.218542 101.076667 
L 228.218542 77.6075 
" clip-path="url(#pb4deff1967)" style="fill: none"/>
    <path d="M 251.687708 77.6075 
L 275.156875 77.6075 
L 275.156875 101.076667 
L 251.687708 101.076667 
L 251.687708 77.6075 
" clip-path="url(#pb4deff1967)" style="fill: none"/>
    <path d="M 275.156875 77.6075 
L 298.626042 77.6075 
L 298.626042 101.076667 
L 275.156875 101.076667 
L 275.156875 77.6075 
" clip-path="url(#pb4deff1967)" style="fill: none"/>
    <path d="M 298.626042 77.6075 
L 322.095208 77.6075 
L 322.095208 101.076667 
L 298.626042 101.076667 
L 298.626042 77.6075 
" clip-path="url(#pb4deff1967)" style="fill: none"/>
    <path d="M 322.095208 77.6075 
L 345.564375 77.6075 
L 345.564375 101.076667 
L 322.095208 101.076667 
L 322.095208 77.6075 
" clip-path="url(#pb4deff1967)" style="fill: none"/>
    <path d="M 63.934375 101.076667 
L 87.403542 101.076667 
L 87.403542 124.545833 
L 63.934375 124.545833 
L 63.934375 101.076667 
" clip-path="url(#pb4deff1967)" style="fill: #e1dad6"/>
    <path d="M 87.403542 101.076667 
L 110.872708 101.076667 
L 110.872708 124.545833 
L 87.403542 124.545833 
L 87.403542 101.076667 
" clip-path="url(#pb4deff1967)" style="fill: #e8765c"/>
    <path d="M 110.872708 101.076667 
L 134.341875 101.076667 
L 134.341875 124.545833 
L 110.872708 124.545833 
L 110.872708 101.076667 
" clip-path="url(#pb4deff1967)" style="fill: #d4dbe6"/>
    <path d="M 134.341875 101.076667 
L 157.811042 101.076667 
L 157.811042 124.545833 
L 134.341875 124.545833 
L 134.341875 101.076667 
" clip-path="url(#pb4deff1967)" style="fill: #dbdcde"/>
    <path d="M 157.811042 101.076667 
L 181.280208 101.076667 
L 181.280208 124.545833 
L 157.811042 124.545833 
L 157.811042 101.076667 
" clip-path="url(#pb4deff1967)" style="fill: none"/>
    <path d="M 181.280208 101.076667 
L 204.749375 101.076667 
L 204.749375 124.545833 
L 181.280208 124.545833 
L 181.280208 101.076667 
" clip-path="url(#pb4deff1967)" style="fill: none"/>
    <path d="M 204.749375 101.076667 
L 228.218542 101.076667 
L 228.218542 124.545833 
L 204.749375 124.545833 
L 204.749375 101.076667 
" clip-path="url(#pb4deff1967)" style="fill: none"/>
    <path d="M 228.218542 101.076667 
L 251.687708 101.076667 
L 251.687708 124.545833 
L 228.218542 124.545833 
L 228.218542 101.076667 
" clip-path="url(#pb4deff1967)" style="fill: none"/>
    <path d="M 251.687708 101.076667 
L 275.156875 101.076667 
L 275.156875 124.545833 
L 251.687708 124.545833 
L 251.687708 101.076667 
" clip-path="url(#pb4deff1967)" style="fill: none"/>
    <path d="M 275.156875 101.076667 
L 298.626042 101.076667 
L 298.626042 124.545833 
L 275.156875 124.545833 
L 275.156875 101.076667 
" clip-path="url(#pb4deff1967)" style="fill: none"/>
    <path d="M 298.626042 101.076667 
L 322.095208 101.076667 
L 322.095208 124.545833 
L 298.626042 124.545833 
L 298.626042 101.076667 
" clip-path="url(#pb4deff1967)" style="fill: none"/>
    <path d="M 322.095208 101.076667 
L 345.564375 101.076667 
L 345.564375 124.545833 
L 322.095208 124.545833 
L 322.095208 101.076667 
" clip-path="url(#pb4deff1967)" style="fill: none"/>
    <path d="M 63.934375 124.545833 
L 87.403542 124.545833 
L 87.403542 148.015 
L 63.934375 148.015 
L 63.934375 124.545833 
" clip-path="url(#pb4deff1967)" style="fill: #dedcdb"/>
    <path d="M 87.403542 124.545833 
L 110.872708 124.545833 
L 110.872708 148.015 
L 87.403542 148.015 
L 87.403542 124.545833 
" clip-path="url(#pb4deff1967)" style="fill: #c9d7f0"/>
    <path d="M 110.872708 124.545833 
L 134.341875 124.545833 
L 134.341875 148.015 
L 110.872708 148.015 
L 110.872708 124.545833 
" clip-path="url(#pb4deff1967)" style="fill: #f2cbb7"/>
    <path d="M 134.341875 124.545833 
L 157.811042 124.545833 
L 157.811042 148.015 
L 134.341875 148.015 
L 134.341875 124.545833 
" clip-path="url(#pb4deff1967)" style="fill: #f29274"/>
    <path d="M 157.811042 124.545833 
L 181.280208 124.545833 
L 181.280208 148.015 
L 157.811042 148.015 
L 157.811042 124.545833 
" clip-path="url(#pb4deff1967)" style="fill: #d8dce2"/>
    <path d="M 181.280208 124.545833 
L 204.749375 124.545833 
L 204.749375 148.015 
L 181.280208 148.015 
L 181.280208 124.545833 
" clip-path="url(#pb4deff1967)" style="fill: none"/>
    <path d="M 204.749375 124.545833 
L 228.218542 124.545833 
L 228.218542 148.015 
L 204.749375 148.015 
L 204.749375 124.545833 
" clip-path="url(#pb4deff1967)" style="fill: none"/>
    <path d="M 228.218542 124.545833 
L 251.687708 124.545833 
L 251.687708 148.015 
L 228.218542 148.015 
L 228.218542 124.545833 
" clip-path="url(#pb4deff1967)" style="fill: none"/>
    <path d="M 251.687708 124.545833 
L 275.156875 124.545833 
L 275.156875 148.015 
L 251.687708 148.015 
L 251.687708 124.545833 
" clip-path="url(#pb4deff1967)" style="fill: none"/>
    <path d="M 275.156875 124.545833 
L 298.626042 124.545833 
L 298.626042 148.015 
L 275.156875 148.015 
L 275.156875 124.545833 
" clip-path="url(#pb4deff1967)" style="fill: none"/>
    <path d="M 298.626042 124.545833 
L 322.095208 124.545833 
L 322.095208 148.015 
L 298.626042 148.015 
L 298.626042 124.545833 
" clip-path="url(#pb4deff1967)" style="fill: none"/>
    <path d="M 322.095208 124.545833 
L 345.564375 124.545833 
L 345.564375 148.015 
L 322.095208 148.015 
L 322.095208 124.545833 
" clip-path="url(#pb4deff1967)" style="fill: none"/>
    <path d="M 63.934375 148.015 
L 87.403542 148.015 
L 87.403542 171.484167 
L 63.934375 171.484167 
L 63.934375 148.015 
" clip-path="url(#pb4deff1967)" style="fill: #d6dce4"/>
    <path d="M 87.403542 148.015 
L 110.872708 148.015 
L 110.872708 171.484167 
L 87.403542 171.484167 
L 87.403542 148.015 
" clip-path="url(#pb4deff1967)" style="fill: #cfdaea"/>
    <path d="M 110.872708 148.015 
L 134.341875 148.015 
L 134.341875 171.484167 
L 110.872708 171.484167 
L 110.872708 148.015 
" clip-path="url(#pb4deff1967)" style="fill: #eed0c0"/>
    <path d="M 134.341875 148.015 
L 157.811042 148.015 
L 157.811042 171.484167 
L 134.341875 171.484167 
L 134.341875 148.015 
" clip-path="url(#pb4deff1967)" style="fill: #f6a385"/>
    <path d="M 157.811042 148.015 
L 181.280208 148.015 
L 181.280208 171.484167 
L 157.811042 171.484167 
L 157.811042 148.015 
" clip-path="url(#pb4deff1967)" style="fill: #dddcdc"/>
    <path d="M 181.280208 148.015 
L 204.749375 148.015 
L 204.749375 171.484167 
L 181.280208 171.484167 
L 181.280208 148.015 
" clip-path="url(#pb4deff1967)" style="fill: #ef886b"/>
    <path d="M 204.749375 148.015 
L 228.218542 148.015 
L 228.218542 171.484167 
L 204.749375 171.484167 
L 204.749375 148.015 
" clip-path="url(#pb4deff1967)" style="fill: none"/>
    <path d="M 228.218542 148.015 
L 251.687708 148.015 
L 251.687708 171.484167 
L 228.218542 171.484167 
L 228.218542 148.015 
" clip-path="url(#pb4deff1967)" style="fill: none"/>
    <path d="M 251.687708 148.015 
L 275.156875 148.015 
L 275.156875 171.484167 
L 251.687708 171.484167 
L 251.687708 148.015 
" clip-path="url(#pb4deff1967)" style="fill: none"/>
    <path d="M 275.156875 148.015 
L 298.626042 148.015 
L 298.626042 171.484167 
L 275.156875 171.484167 
L 275.156875 148.015 
" clip-path="url(#pb4deff1967)" style="fill: none"/>
    <path d="M 298.626042 148.015 
L 322.095208 148.015 
L 322.095208 171.484167 
L 298.626042 171.484167 
L 298.626042 148.015 
" clip-path="url(#pb4deff1967)" style="fill: none"/>
    <path d="M 322.095208 148.015 
L 345.564375 148.015 
L 345.564375 171.484167 
L 322.095208 171.484167 
L 322.095208 148.015 
" clip-path="url(#pb4deff1967)" style="fill: none"/>
    <path d="M 63.934375 171.484167 
L 87.403542 171.484167 
L 87.403542 194.953333 
L 63.934375 194.953333 
L 63.934375 171.484167 
" clip-path="url(#pb4deff1967)" style="fill: #f7ba9f"/>
    <path d="M 87.403542 171.484167 
L 110.872708 171.484167 
L 110.872708 194.953333 
L 87.403542 194.953333 
L 87.403542 171.484167 
" clip-path="url(#pb4deff1967)" style="fill: #7da0f9"/>
    <path d="M 110.872708 171.484167 
L 134.341875 171.484167 
L 134.341875 194.953333 
L 110.872708 194.953333 
L 110.872708 171.484167 
" clip-path="url(#pb4deff1967)" style="fill: #ead4c8"/>
    <path d="M 134.341875 171.484167 
L 157.811042 171.484167 
L 157.811042 194.953333 
L 134.341875 194.953333 
L 134.341875 171.484167 
" clip-path="url(#pb4deff1967)" style="fill: #f59d7e"/>
    <path d="M 157.811042 171.484167 
L 181.280208 171.484167 
L 181.280208 194.953333 
L 157.811042 194.953333 
L 157.811042 171.484167 
" clip-path="url(#pb4deff1967)" style="fill: #d8dce2"/>
    <path d="M 181.280208 171.484167 
L 204.749375 171.484167 
L 204.749375 194.953333 
L 181.280208 194.953333 
L 181.280208 171.484167 
" clip-path="url(#pb4deff1967)" style="fill: #f5c4ac"/>
    <path d="M 204.749375 171.484167 
L 228.218542 171.484167 
L 228.218542 194.953333 
L 204.749375 194.953333 
L 204.749375 171.484167 
" clip-path="url(#pb4deff1967)" style="fill: #f1cdba"/>
    <path d="M 228.218542 171.484167 
L 251.687708 171.484167 
L 251.687708 194.953333 
L 228.218542 194.953333 
L 228.218542 171.484167 
" clip-path="url(#pb4deff1967)" style="fill: none"/>
    <path d="M 251.687708 171.484167 
L 275.156875 171.484167 
L 275.156875 194.953333 
L 251.687708 194.953333 
L 251.687708 171.484167 
" clip-path="url(#pb4deff1967)" style="fill: none"/>
    <path d="M 275.156875 171.484167 
L 298.626042 171.484167 
L 298.626042 194.953333 
L 275.156875 194.953333 
L 275.156875 171.484167 
" clip-path="url(#pb4deff1967)" style="fill: none"/>
    <path d="M 298.626042 171.484167 
L 322.095208 171.484167 
L 322.095208 194.953333 
L 298.626042 194.953333 
L 298.626042 171.484167 
" clip-path="url(#pb4deff1967)" style="fill: none"/>
    <path d="M 322.095208 171.484167 
L 345.564375 171.484167 
L 345.564375 194.953333 
L 322.095208 194.953333 
L 322.095208 171.484167 
" clip-path="url(#pb4deff1967)" style="fill: none"/>
    <path d="M 63.934375 194.953333 
L 87.403542 194.953333 
L 87.403542 218.4225 
L 63.934375 218.4225 
L 63.934375 194.953333 
" clip-path="url(#pb4deff1967)" style="fill: #d4dbe6"/>
    <path d="M 87.403542 194.953333 
L 110.872708 194.953333 
L 110.872708 218.4225 
L 87.403542 218.4225 
L 87.403542 194.953333 
" clip-path="url(#pb4deff1967)" style="fill: #d1dae9"/>
    <path d="M 110.872708 194.953333 
L 134.341875 194.953333 
L 134.341875 218.4225 
L 110.872708 218.4225 
L 110.872708 194.953333 
" clip-path="url(#pb4deff1967)" style="fill: #ccd9ed"/>
    <path d="M 134.341875 194.953333 
L 157.811042 194.953333 
L 157.811042 218.4225 
L 134.341875 218.4225 
L 134.341875 194.953333 
" clip-path="url(#pb4deff1967)" style="fill: #f2cbb7"/>
    <path d="M 157.811042 194.953333 
L 181.280208 194.953333 
L 181.280208 218.4225 
L 157.811042 218.4225 
L 157.811042 194.953333 
" clip-path="url(#pb4deff1967)" style="fill: #d8dce2"/>
    <path d="M 181.280208 194.953333 
L 204.749375 194.953333 
L 204.749375 218.4225 
L 181.280208 218.4225 
L 181.280208 194.953333 
" clip-path="url(#pb4deff1967)" style="fill: #edd1c2"/>
    <path d="M 204.749375 194.953333 
L 228.218542 194.953333 
L 228.218542 218.4225 
L 204.749375 218.4225 
L 204.749375 194.953333 
" clip-path="url(#pb4deff1967)" style="fill: #e5d8d1"/>
    <path d="M 228.218542 194.953333 
L 251.687708 194.953333 
L 251.687708 218.4225 
L 228.218542 218.4225 
L 228.218542 194.953333 
" clip-path="url(#pb4deff1967)" style="fill: #e8d6cc"/>
    <path d="M 251.687708 194.953333 
L 275.156875 194.953333 
L 275.156875 218.4225 
L 251.687708 218.4225 
L 251.687708 194.953333 
" clip-path="url(#pb4deff1967)" style="fill: none"/>
    <path d="M 275.156875 194.953333 
L 298.626042 194.953333 
L 298.626042 218.4225 
L 275.156875 218.4225 
L 275.156875 194.953333 
" clip-path="url(#pb4deff1967)" style="fill: none"/>
    <path d="M 298.626042 194.953333 
L 322.095208 194.953333 
L 322.095208 218.4225 
L 298.626042 218.4225 
L 298.626042 194.953333 
" clip-path="url(#pb4deff1967)" style="fill: none"/>
    <path d="M 322.095208 194.953333 
L 345.564375 194.953333 
L 345.564375 218.4225 
L 322.095208 218.4225 
L 322.095208 194.953333 
" clip-path="url(#pb4deff1967)" style="fill: none"/>
    <path d="M 63.934375 218.4225 
L 87.403542 218.4225 
L 87.403542 241.891667 
L 63.934375 241.891667 
L 63.934375 218.4225 
" clip-path="url(#pb4deff1967)" style="fill: #e0dbd8"/>
    <path d="M 87.403542 218.4225 
L 110.872708 218.4225 
L 110.872708 241.891667 
L 87.403542 241.891667 
L 87.403542 218.4225 
" clip-path="url(#pb4deff1967)" style="fill: #e8765c"/>
    <path d="M 110.872708 218.4225 
L 134.341875 218.4225 
L 134.341875 241.891667 
L 110.872708 241.891667 
L 110.872708 218.4225 
" clip-path="url(#pb4deff1967)" style="fill: #d3dbe7"/>
    <path d="M 134.341875 218.4225 
L 157.811042 218.4225 
L 157.811042 241.891667 
L 134.341875 241.891667 
L 134.341875 218.4225 
" clip-path="url(#pb4deff1967)" style="fill: #dbdcde"/>
    <path d="M 157.811042 218.4225 
L 181.280208 218.4225 
L 181.280208 241.891667 
L 157.811042 241.891667 
L 157.811042 218.4225 
" clip-path="url(#pb4deff1967)" style="fill: #b70d28"/>
    <path d="M 181.280208 218.4225 
L 204.749375 218.4225 
L 204.749375 241.891667 
L 181.280208 241.891667 
L 181.280208 218.4225 
" clip-path="url(#pb4deff1967)" style="fill: #d8dce2"/>
    <path d="M 204.749375 218.4225 
L 228.218542 218.4225 
L 228.218542 241.891667 
L 204.749375 241.891667 
L 204.749375 218.4225 
" clip-path="url(#pb4deff1967)" style="fill: #dddcdc"/>
    <path d="M 228.218542 218.4225 
L 251.687708 218.4225 
L 251.687708 241.891667 
L 228.218542 241.891667 
L 228.218542 218.4225 
" clip-path="url(#pb4deff1967)" style="fill: #d8dce2"/>
    <path d="M 251.687708 218.4225 
L 275.156875 218.4225 
L 275.156875 241.891667 
L 251.687708 241.891667 
L 251.687708 218.4225 
" clip-path="url(#pb4deff1967)" style="fill: #d5dbe5"/>
    <path d="M 275.156875 218.4225 
L 298.626042 218.4225 
L 298.626042 241.891667 
L 275.156875 241.891667 
L 275.156875 218.4225 
" clip-path="url(#pb4deff1967)" style="fill: none"/>
    <path d="M 298.626042 218.4225 
L 322.095208 218.4225 
L 322.095208 241.891667 
L 298.626042 241.891667 
L 298.626042 218.4225 
" clip-path="url(#pb4deff1967)" style="fill: none"/>
    <path d="M 322.095208 218.4225 
L 345.564375 218.4225 
L 345.564375 241.891667 
L 322.095208 241.891667 
L 322.095208 218.4225 
" clip-path="url(#pb4deff1967)" style="fill: none"/>
    <path d="M 63.934375 241.891667 
L 87.403542 241.891667 
L 87.403542 265.360833 
L 63.934375 265.360833 
L 63.934375 241.891667 
" clip-path="url(#pb4deff1967)" style="fill: #f1ccb8"/>
    <path d="M 87.403542 241.891667 
L 110.872708 241.891667 
L 110.872708 265.360833 
L 87.403542 265.360833 
L 87.403542 241.891667 
" clip-path="url(#pb4deff1967)" style="fill: #a9c6fd"/>
    <path d="M 110.872708 241.891667 
L 134.341875 241.891667 
L 134.341875 265.360833 
L 110.872708 265.360833 
L 110.872708 241.891667 
" clip-path="url(#pb4deff1967)" style="fill: #f5c4ac"/>
    <path d="M 134.341875 241.891667 
L 157.811042 241.891667 
L 157.811042 265.360833 
L 134.341875 265.360833 
L 134.341875 241.891667 
" clip-path="url(#pb4deff1967)" style="fill: #d44e41"/>
    <path d="M 157.811042 241.891667 
L 181.280208 241.891667 
L 181.280208 265.360833 
L 157.811042 265.360833 
L 157.811042 241.891667 
" clip-path="url(#pb4deff1967)" style="fill: #d9dce1"/>
    <path d="M 181.280208 241.891667 
L 204.749375 241.891667 
L 204.749375 265.360833 
L 181.280208 265.360833 
L 181.280208 241.891667 
" clip-path="url(#pb4deff1967)" style="fill: #f59c7d"/>
    <path d="M 204.749375 241.891667 
L 228.218542 241.891667 
L 228.218542 265.360833 
L 204.749375 265.360833 
L 204.749375 241.891667 
" clip-path="url(#pb4deff1967)" style="fill: #f7b093"/>
    <path d="M 228.218542 241.891667 
L 251.687708 241.891667 
L 251.687708 265.360833 
L 228.218542 265.360833 
L 228.218542 241.891667 
" clip-path="url(#pb4deff1967)" style="fill: #ee8468"/>
    <path d="M 251.687708 241.891667 
L 275.156875 241.891667 
L 275.156875 265.360833 
L 251.687708 265.360833 
L 251.687708 241.891667 
" clip-path="url(#pb4deff1967)" style="fill: #efcfbf"/>
    <path d="M 275.156875 241.891667 
L 298.626042 241.891667 
L 298.626042 265.360833 
L 275.156875 265.360833 
L 275.156875 241.891667 
" clip-path="url(#pb4deff1967)" style="fill: #d8dce2"/>
    <path d="M 298.626042 241.891667 
L 322.095208 241.891667 
L 322.095208 265.360833 
L 298.626042 265.360833 
L 298.626042 241.891667 
" clip-path="url(#pb4deff1967)" style="fill: none"/>
    <path d="M 322.095208 241.891667 
L 345.564375 241.891667 
L 345.564375 265.360833 
L 322.095208 265.360833 
L 322.095208 241.891667 
" clip-path="url(#pb4deff1967)" style="fill: none"/>
    <path d="M 63.934375 265.360833 
L 87.403542 265.360833 
L 87.403542 288.83 
L 63.934375 288.83 
L 63.934375 265.360833 
" clip-path="url(#pb4deff1967)" style="fill: #e8d6cc"/>
    <path d="M 87.403542 265.360833 
L 110.872708 265.360833 
L 110.872708 288.83 
L 87.403542 288.83 
L 87.403542 265.360833 
" clip-path="url(#pb4deff1967)" style="fill: #b3cdfb"/>
    <path d="M 110.872708 265.360833 
L 134.341875 265.360833 
L 134.341875 288.83 
L 110.872708 288.83 
L 110.872708 265.360833 
" clip-path="url(#pb4deff1967)" style="fill: #f5c2aa"/>
    <path d="M 134.341875 265.360833 
L 157.811042 265.360833 
L 157.811042 288.83 
L 134.341875 288.83 
L 134.341875 265.360833 
" clip-path="url(#pb4deff1967)" style="fill: #b70d28"/>
    <path d="M 157.811042 265.360833 
L 181.280208 265.360833 
L 181.280208 288.83 
L 157.811042 288.83 
L 157.811042 265.360833 
" clip-path="url(#pb4deff1967)" style="fill: #dbdcde"/>
    <path d="M 181.280208 265.360833 
L 204.749375 265.360833 
L 204.749375 288.83 
L 181.280208 288.83 
L 181.280208 265.360833 
" clip-path="url(#pb4deff1967)" style="fill: #ef886b"/>
    <path d="M 204.749375 265.360833 
L 228.218542 265.360833 
L 228.218542 288.83 
L 204.749375 288.83 
L 204.749375 265.360833 
" clip-path="url(#pb4deff1967)" style="fill: #f59f80"/>
    <path d="M 228.218542 265.360833 
L 251.687708 265.360833 
L 251.687708 288.83 
L 228.218542 288.83 
L 228.218542 265.360833 
" clip-path="url(#pb4deff1967)" style="fill: #f4987a"/>
    <path d="M 251.687708 265.360833 
L 275.156875 265.360833 
L 275.156875 288.83 
L 251.687708 288.83 
L 251.687708 265.360833 
" clip-path="url(#pb4deff1967)" style="fill: #f2cbb7"/>
    <path d="M 275.156875 265.360833 
L 298.626042 265.360833 
L 298.626042 288.83 
L 275.156875 288.83 
L 275.156875 265.360833 
" clip-path="url(#pb4deff1967)" style="fill: #dadce0"/>
    <path d="M 298.626042 265.360833 
L 322.095208 265.360833 
L 322.095208 288.83 
L 298.626042 288.83 
L 298.626042 265.360833 
" clip-path="url(#pb4deff1967)" style="fill: #cf453c"/>
    <path d="M 322.095208 265.360833 
L 345.564375 265.360833 
L 345.564375 288.83 
L 322.095208 288.83 
L 322.095208 265.360833 
" clip-path="url(#pb4deff1967)" style="fill: none"/>
   </g>
   <g id="matplotlib.axis_1">
    <g id="xtick_1">
     <g id="line2d_1">
      <defs>
       <path id="mfd15cb12c7" d="M 0 0 
L 0 3.5 
" style="stroke: #000000; stroke-width: 0.8"/>
      </defs>
      <g>
       <use xlink:href="#mfd15cb12c7" x="75.668958" y="288.83" style="stroke: #000000; stroke-width: 0.8"/>
      </g>
     </g>
     <g id="text_1">
      <!-- NUC -->
      <g transform="translate(79.151771 325.909687) rotate(-90) scale(0.15 -0.15)">
       <defs>
        <path id="LinLibertine-4e" d="M 3559 3278 
Q 3559 3503 3539 3620 
Q 3519 3738 3442 3805 
Q 3366 3872 3283 3890 
Q 3200 3909 3003 3928 
Q 2972 3953 2970 4031 
Q 2969 4109 3003 4141 
Q 3644 4128 3713 4128 
Q 3803 4128 4428 4141 
Q 4453 4109 4453 4032 
Q 4453 3956 4428 3928 
Q 4069 3891 3970 3789 
Q 3872 3688 3872 3278 
L 3872 134 
Q 3872 -63 3725 -63 
Q 3584 -63 3469 91 
L 1234 2913 
Q 1069 3125 1017 3123 
Q 966 3122 966 2809 
L 966 850 
Q 966 625 986 508 
Q 1006 391 1082 323 
Q 1159 256 1242 237 
Q 1325 219 1522 197 
Q 1547 166 1548 89 
Q 1550 13 1522 -13 
Q 881 0 813 0 
Q 722 0 97 -13 
Q 66 13 64 89 
Q 63 166 97 197 
Q 456 234 554 337 
Q 653 441 653 850 
L 653 3519 
Q 622 3659 481 3787 
Q 341 3916 147 3928 
Q 116 3953 116 4031 
Q 116 4109 147 4141 
L 1013 4128 
L 3206 1300 
Q 3250 1244 3301 1172 
Q 3353 1100 3379 1069 
Q 3406 1038 3434 1005 
Q 3463 972 3481 959 
Q 3500 947 3513 947 
Q 3556 947 3559 1141 
L 3559 3278 
z
" transform="scale(0.015625)"/>
        <path id="LinLibertine-55" d="M 1100 3347 
L 1100 1722 
Q 1100 1453 1112 1279 
Q 1125 1106 1203 882 
Q 1281 659 1428 519 
Q 1759 200 2188 197 
Q 2500 197 2725 297 
Q 2950 397 3072 540 
Q 3194 684 3264 912 
Q 3334 1141 3350 1328 
Q 3366 1516 3366 1772 
L 3366 3347 
Q 3366 3553 3347 3658 
Q 3328 3763 3245 3820 
Q 3163 3878 3078 3893 
Q 2994 3909 2778 3928 
Q 2753 3953 2753 4031 
Q 2753 4109 2778 4141 
Q 3419 4128 3519 4128 
Q 3544 4128 4172 4141 
Q 4197 4109 4197 4032 
Q 4197 3956 4172 3928 
Q 3941 3903 3861 3875 
Q 3781 3847 3731 3728 
Q 3681 3609 3681 3347 
L 3681 1888 
Q 3681 1434 3611 1098 
Q 3541 763 3364 491 
Q 3188 219 2861 78 
Q 2534 -63 2053 -63 
Q 1803 -63 1570 4 
Q 1338 72 1094 231 
Q 850 391 703 720 
Q 556 1050 556 1509 
L 556 3347 
Q 556 3725 464 3820 
Q 372 3916 63 3928 
Q 38 3953 38 4031 
Q 38 4109 63 4141 
Q 703 4128 825 4128 
Q 1063 4128 1691 4141 
Q 1716 4109 1716 4032 
Q 1716 3956 1691 3928 
Q 1306 3916 1203 3823 
Q 1100 3731 1100 3347 
z
" transform="scale(0.015625)"/>
        <path id="LinLibertine-43" d="M 2284 -63 
Q 1625 -63 1148 246 
Q 672 556 455 1017 
Q 238 1478 238 2016 
Q 238 3047 916 3669 
Q 1509 4213 2291 4213 
Q 2750 4213 3189 4070 
Q 3628 3928 3694 3922 
Q 3803 3250 3834 2931 
Q 3713 2869 3622 2900 
Q 3297 3975 2222 3975 
Q 1663 3975 1200 3406 
Q 1019 3184 919 2862 
Q 819 2541 819 2138 
Q 819 1644 972 1216 
Q 1125 788 1465 492 
Q 1806 197 2278 197 
Q 2725 197 3075 361 
Q 3425 525 3763 897 
Q 3859 897 3909 800 
Q 3250 -63 2284 -63 
z
" transform="scale(0.015625)"/>
       </defs>
       <use xlink:href="#LinLibertine-4e"/>
       <use xlink:href="#LinLibertine-55" x="69.873047"/>
       <use xlink:href="#LinLibertine-43" x="135.9375"/>
      </g>
     </g>
    </g>
    <g id="xtick_2">
     <g id="line2d_2">
      <g>
       <use xlink:href="#mfd15cb12c7" x="99.138125" y="288.83" style="stroke: #000000; stroke-width: 0.8"/>
      </g>
     </g>
     <g id="text_2">
      <!-- SEXP -->
      <g transform="translate(102.620937 329.193281) rotate(-90) scale(0.15 -0.15)">
       <defs>
        <path id="LinLibertine-53" d="M 2525 4038 
Q 2613 3597 2641 3213 
Q 2594 3178 2431 3175 
Q 2400 3275 2370 3354 
Q 2341 3434 2297 3521 
Q 2253 3609 2201 3675 
Q 2150 3741 2078 3803 
Q 2006 3866 1922 3906 
Q 1838 3947 1727 3970 
Q 1616 3994 1484 3994 
Q 1206 3994 995 3772 
Q 784 3550 784 3278 
Q 784 3128 853 2995 
Q 922 2863 1015 2773 
Q 1109 2684 1261 2596 
Q 1413 2509 1516 2467 
Q 1619 2425 1772 2365 
Q 1925 2306 1966 2291 
Q 2153 2209 2298 2117 
Q 2444 2025 2573 1892 
Q 2703 1759 2772 1578 
Q 2841 1397 2841 1178 
Q 2841 875 2678 597 
Q 2516 319 2241 147 
Q 1903 -63 1450 -63 
Q 1147 -63 814 10 
Q 481 84 300 84 
Q 203 488 172 1056 
Q 272 1109 381 1075 
Q 581 166 1503 166 
Q 1888 166 2095 367 
Q 2303 569 2303 953 
Q 2303 1128 2248 1273 
Q 2194 1419 2123 1508 
Q 2053 1597 1923 1680 
Q 1794 1763 1708 1800 
Q 1622 1838 1464 1898 
Q 1306 1959 1250 1984 
Q 972 2106 784 2239 
Q 597 2372 461 2597 
Q 325 2822 325 3103 
Q 325 3597 683 3905 
Q 1041 4213 1544 4213 
Q 1909 4213 2173 4131 
Q 2438 4050 2525 4038 
z
" transform="scale(0.015625)"/>
        <path id="LinLibertine-45" d="M 1747 2309 
Q 2138 2309 2227 2386 
Q 2316 2463 2328 2747 
Q 2353 2778 2431 2778 
Q 2509 2778 2541 2747 
Q 2528 2363 2528 2194 
Q 2528 2078 2541 1631 
Q 2509 1600 2432 1600 
Q 2356 1600 2328 1631 
Q 2316 1803 2291 1878 
Q 2266 1953 2137 2011 
Q 2009 2069 1747 2069 
L 1166 2069 
L 1166 525 
Q 1166 250 1394 250 
L 2266 250 
Q 2875 250 3103 1088 
Q 3219 1113 3328 1056 
Q 3250 550 3091 -13 
Q 2578 0 2272 0 
L 897 0 
Q 378 -6 63 -13 
Q 38 13 38 89 
Q 38 166 63 197 
Q 422 209 522 303 
Q 622 397 622 781 
L 622 3347 
Q 622 3731 522 3823 
Q 422 3916 63 3928 
Q 38 3953 38 4031 
Q 38 4109 63 4141 
L 891 4128 
L 2522 4128 
Q 2688 4128 2834 4153 
Q 2859 4153 2859 4134 
Q 2909 3916 3003 3206 
Q 2900 3156 2791 3175 
Q 2669 3559 2534 3715 
Q 2400 3872 2069 3872 
L 1394 3872 
Q 1284 3872 1225 3792 
Q 1166 3713 1166 3591 
L 1166 2309 
L 1747 2309 
z
" transform="scale(0.015625)"/>
        <path id="LinLibertine-58" d="M 3444 653 
Q 3641 378 3762 295 
Q 3884 213 4091 197 
Q 4122 166 4122 92 
Q 4122 19 4097 -13 
Q 3713 0 3444 0 
Q 3225 0 2713 -13 
Q 2688 13 2688 89 
Q 2688 166 2713 197 
Q 2969 209 2991 281 
Q 3013 353 2863 544 
L 2075 1672 
Q 2025 1744 1984 1741 
Q 1953 1741 1888 1650 
L 1044 469 
Q 947 303 1001 258 
Q 1056 213 1294 197 
Q 1319 166 1319 89 
Q 1319 13 1294 -13 
Q 781 0 622 0 
Q 431 0 44 -13 
Q 13 13 13 89 
Q 13 166 44 197 
Q 275 216 439 300 
Q 603 384 756 594 
L 1703 1863 
Q 1766 1947 1766 2011 
Q 1766 2075 1678 2203 
L 766 3500 
Q 634 3684 534 3775 
Q 434 3866 350 3892 
Q 266 3919 116 3928 
Q 84 3959 84 4034 
Q 84 4109 109 4141 
Q 494 4128 763 4128 
Q 981 4128 1491 4141 
Q 1522 4109 1522 4032 
Q 1522 3956 1491 3928 
Q 1400 3922 1342 3914 
Q 1284 3906 1253 3887 
Q 1222 3869 1212 3847 
Q 1203 3825 1220 3781 
Q 1238 3738 1264 3697 
Q 1291 3656 1341 3581 
L 2047 2534 
Q 2097 2463 2125 2463 
Q 2175 2463 2228 2541 
L 3016 3659 
Q 3113 3819 3053 3867 
Q 2994 3916 2766 3928 
Q 2741 3953 2741 4031 
Q 2741 4109 2766 4141 
Q 3278 4128 3438 4128 
Q 3628 4128 4013 4141 
Q 4044 4109 4044 4032 
Q 4044 3956 4013 3928 
Q 3781 3909 3622 3823 
Q 3463 3738 3303 3531 
L 2425 2400 
Q 2363 2316 2363 2209 
Q 2363 2138 2463 1997 
L 3444 653 
z
" transform="scale(0.015625)"/>
        <path id="LinLibertine-50" d="M 1209 3547 
L 1209 2053 
Q 1325 2022 1697 2022 
Q 2172 2022 2411 2256 
Q 2650 2491 2650 2994 
Q 2650 3550 2406 3753 
Q 2163 3956 1766 3956 
Q 1209 3956 1209 3547 
z
M 666 3347 
Q 666 3731 567 3823 
Q 469 3916 109 3928 
Q 78 3953 78 4031 
Q 78 4109 109 4141 
Q 750 4128 934 4128 
Q 1075 4128 1408 4150 
Q 1741 4172 1813 4172 
Q 2228 4172 2528 4064 
Q 2828 3956 2975 3779 
Q 3122 3603 3183 3440 
Q 3244 3278 3244 3109 
Q 3244 2884 3167 2670 
Q 3091 2456 2928 2254 
Q 2766 2053 2455 1929 
Q 2144 1806 1728 1806 
Q 1409 1806 1209 1869 
L 1209 781 
Q 1209 403 1331 311 
Q 1453 219 1863 197 
Q 1894 166 1894 89 
Q 1894 13 1863 -13 
Q 1222 0 941 0 
Q 734 0 109 -13 
Q 78 13 78 89 
Q 78 166 109 197 
Q 469 209 567 303 
Q 666 397 666 781 
L 666 3347 
z
" transform="scale(0.015625)"/>
       </defs>
       <use xlink:href="#LinLibertine-53"/>
       <use xlink:href="#LinLibertine-45" x="48.486328"/>
       <use xlink:href="#LinLibertine-58" x="103.369141"/>
       <use xlink:href="#LinLibertine-50" x="169.335938"/>
      </g>
     </g>
    </g>
    <g id="xtick_3">
     <g id="line2d_3">
      <g>
       <use xlink:href="#mfd15cb12c7" x="122.607292" y="288.83" style="stroke: #000000; stroke-width: 0.8"/>
      </g>
     </g>
     <g id="text_3">
      <!-- LT -->
      <g transform="translate(126.090104 312.669844) rotate(-90) scale(0.15 -0.15)">
       <defs>
        <path id="LinLibertine-4c" d="M 941 0 
Q 422 -6 109 -13 
Q 78 13 78 89 
Q 78 166 109 197 
Q 469 209 567 303 
Q 666 397 666 781 
L 666 3347 
Q 666 3731 567 3823 
Q 469 3916 109 3928 
Q 78 3953 78 4031 
Q 78 4109 109 4141 
Q 750 4128 934 4128 
Q 1141 4128 1766 4141 
Q 1791 4109 1791 4032 
Q 1791 3956 1766 3928 
Q 1406 3916 1307 3823 
Q 1209 3731 1209 3347 
L 1209 569 
Q 1209 422 1289 336 
Q 1369 250 1509 250 
L 1978 250 
Q 2447 250 2680 470 
Q 2913 691 3022 1088 
Q 3131 1106 3231 1056 
Q 3169 500 3066 -13 
Q 2475 0 2303 0 
L 941 0 
z
" transform="scale(0.015625)"/>
        <path id="LinLibertine-54" d="M 2241 781 
Q 2241 397 2348 305 
Q 2456 213 2859 197 
Q 2891 166 2892 89 
Q 2894 13 2859 -13 
Q 2219 0 1972 0 
Q 1703 0 1075 -13 
Q 1050 13 1050 89 
Q 1050 166 1075 197 
Q 1478 209 1587 303 
Q 1697 397 1697 781 
L 1697 3244 
Q 1697 3556 1630 3717 
Q 1563 3878 1394 3878 
L 1081 3878 
Q 750 3878 537 3725 
Q 325 3572 238 3200 
Q 103 3200 19 3231 
Q 147 3781 178 4159 
Q 178 4178 206 4178 
Q 853 4128 1697 4128 
L 2247 4128 
Q 3097 4128 3681 4178 
Q 3700 4178 3700 4159 
Q 3706 3738 3781 3250 
Q 3709 3219 3566 3219 
Q 3488 3578 3270 3728 
Q 3053 3878 2675 3878 
L 2534 3878 
Q 2369 3878 2305 3715 
Q 2241 3553 2241 3225 
L 2241 781 
z
" transform="scale(0.015625)"/>
       </defs>
       <use xlink:href="#LinLibertine-4c"/>
       <use xlink:href="#LinLibertine-54" x="52.587891"/>
      </g>
     </g>
    </g>
    <g id="xtick_4">
     <g id="line2d_4">
      <g>
       <use xlink:href="#mfd15cb12c7" x="146.076458" y="288.83" style="stroke: #000000; stroke-width: 0.8"/>
      </g>
     </g>
     <g id="text_4">
      <!-- Entropy -->
      <g transform="translate(149.559271 345.564375) rotate(-90) scale(0.15 -0.15)">
       <defs>
        <path id="LinLibertine-6e" d="M 1178 2291 
Q 1647 2809 2228 2809 
Q 2594 2809 2759 2591 
Q 2931 2359 2931 1734 
L 2931 781 
Q 2931 403 3004 314 
Q 3078 225 3359 197 
Q 3384 172 3384 95 
Q 3384 19 3359 -13 
Q 2809 0 2681 0 
Q 2566 0 2028 -13 
Q 2003 13 2003 89 
Q 2003 166 2028 197 
Q 2291 222 2358 312 
Q 2425 403 2425 781 
L 2425 1753 
Q 2425 2094 2350 2247 
Q 2228 2478 2009 2478 
Q 1619 2478 1228 2100 
Q 1119 1978 1119 1831 
L 1119 781 
Q 1119 403 1183 314 
Q 1247 225 1503 197 
Q 1534 166 1536 89 
Q 1538 13 1503 -13 
Q 966 0 872 0 
Q 694 0 166 -13 
Q 141 13 141 89 
Q 141 166 166 197 
Q 466 222 541 309 
Q 616 397 616 781 
L 616 2028 
Q 616 2297 542 2367 
Q 469 2438 197 2463 
Q 159 2572 184 2644 
Q 684 2706 991 2828 
Q 1041 2828 1069 2778 
Q 1119 2663 1119 2291 
Q 1122 2213 1178 2291 
z
" transform="scale(0.015625)"/>
        <path id="LinLibertine-74" d="M 275 2747 
L 569 2747 
Q 569 2944 567 3086 
Q 566 3228 562 3293 
Q 559 3359 556 3396 
Q 553 3434 551 3453 
Q 550 3472 550 3488 
Q 550 3509 575 3528 
Q 600 3547 629 3556 
Q 659 3566 711 3581 
Q 763 3597 794 3609 
Q 831 3625 890 3656 
Q 950 3688 990 3706 
Q 1031 3725 1050 3725 
Q 1100 3725 1100 3669 
Q 1075 3413 1075 2994 
L 1075 2747 
L 1844 2747 
Q 1894 2747 1894 2706 
L 1894 2578 
Q 1894 2494 1741 2497 
L 1075 2497 
L 1075 878 
Q 1075 566 1120 427 
Q 1166 288 1288 288 
Q 1581 288 1813 469 
Q 1909 463 1925 359 
Q 1547 -63 1063 -63 
Q 569 -63 569 569 
L 569 2497 
L 191 2497 
Q 159 2497 159 2534 
L 159 2619 
Q 159 2747 275 2747 
z
" transform="scale(0.015625)"/>
        <path id="LinLibertine-72" d="M 1147 2291 
Q 1147 2259 1156 2246 
Q 1166 2234 1197 2278 
Q 1325 2497 1514 2653 
Q 1703 2809 1906 2809 
Q 2091 2809 2191 2711 
Q 2291 2613 2291 2503 
Q 2291 2381 2198 2281 
Q 2106 2181 1991 2181 
Q 1947 2181 1901 2204 
Q 1856 2228 1834 2250 
Q 1813 2272 1777 2314 
Q 1741 2356 1728 2369 
Q 1684 2413 1594 2413 
Q 1516 2413 1300 2100 
Q 1147 1869 1147 1672 
L 1147 781 
Q 1147 397 1233 311 
Q 1319 225 1672 197 
Q 1703 166 1703 89 
Q 1703 13 1672 -13 
Q 1122 0 897 0 
Q 706 0 166 -13 
Q 141 13 141 89 
Q 141 166 166 197 
Q 478 216 559 306 
Q 641 397 641 781 
L 641 2028 
Q 641 2297 567 2367 
Q 494 2438 225 2463 
Q 188 2572 213 2644 
Q 713 2706 1019 2828 
Q 1069 2828 1094 2778 
Q 1147 2663 1147 2291 
z
" transform="scale(0.015625)"/>
        <path id="LinLibertine-6f" d="M 263 1313 
Q 263 1947 616 2363 
Q 997 2809 1619 2809 
Q 2078 2809 2395 2582 
Q 2713 2356 2838 2042 
Q 2963 1728 2963 1369 
Q 2963 700 2547 294 
Q 2181 -66 1606 -63 
Q 966 -63 614 353 
Q 263 769 263 1313 
z
M 1522 2584 
Q 813 2584 813 1459 
Q 813 1253 861 1042 
Q 909 831 1004 626 
Q 1100 422 1279 290 
Q 1459 159 1697 159 
Q 1978 159 2195 390 
Q 2413 622 2413 1166 
Q 2413 1850 2175 2217 
Q 1938 2584 1522 2584 
z
" transform="scale(0.015625)"/>
        <path id="LinLibertine-70" d="M 1119 2119 
Q 1016 1991 1019 1838 
L 1019 672 
Q 1019 553 1031 492 
Q 1044 431 1072 392 
Q 1100 353 1172 288 
Q 1250 219 1383 186 
Q 1516 153 1625 153 
Q 1881 153 2067 259 
Q 2253 366 2348 547 
Q 2444 728 2486 920 
Q 2528 1113 2528 1331 
Q 2528 1856 2308 2186 
Q 2088 2516 1766 2516 
Q 1631 2516 1439 2397 
Q 1247 2278 1119 2119 
z
M 1019 2356 
Q 1019 2325 1037 2317 
Q 1056 2309 1069 2328 
Q 1478 2809 1947 2809 
Q 2428 2809 2753 2418 
Q 3078 2028 3078 1503 
Q 3078 753 2606 294 
Q 2228 -66 1663 -63 
Q 1350 -63 1106 34 
Q 1056 59 1037 53 
Q 1019 47 1019 -13 
L 1019 -703 
Q 1019 -1088 1105 -1178 
Q 1191 -1269 1544 -1288 
Q 1575 -1319 1575 -1395 
Q 1575 -1472 1544 -1497 
Q 994 -1484 769 -1484 
Q 591 -1484 50 -1497 
Q 25 -1472 25 -1395 
Q 25 -1319 50 -1288 
Q 350 -1275 431 -1181 
Q 513 -1088 513 -703 
L 513 2028 
Q 513 2297 439 2367 
Q 366 2438 97 2463 
Q 59 2572 84 2644 
Q 584 2706 891 2828 
Q 941 2828 966 2778 
Q 1019 2663 1019 2356 
z
" transform="scale(0.015625)"/>
        <path id="LinLibertine-79" d="M 1306 -1025 
Q 1050 -1484 684 -1484 
Q 556 -1484 470 -1417 
Q 384 -1350 384 -1247 
Q 384 -1163 464 -1067 
Q 544 -972 666 -972 
Q 697 -972 751 -981 
Q 806 -991 850 -991 
Q 1069 -991 1172 -806 
Q 1325 -494 1422 -219 
Q 1500 0 1331 384 
L 606 2069 
Q 513 2284 455 2371 
Q 397 2459 323 2496 
Q 250 2534 103 2547 
Q 78 2572 78 2648 
Q 78 2725 103 2759 
Q 359 2747 622 2747 
Q 872 2747 1344 2759 
Q 1369 2728 1369 2650 
Q 1369 2572 1344 2547 
Q 1231 2538 1167 2517 
Q 1103 2497 1072 2473 
Q 1041 2450 1045 2395 
Q 1050 2341 1065 2298 
Q 1081 2256 1119 2166 
Q 1128 2144 1134 2131 
L 1703 800 
Q 1722 753 1742 731 
Q 1763 709 1781 711 
Q 1800 713 1819 733 
Q 1838 753 1856 794 
L 2491 2259 
Q 2563 2413 2469 2470 
Q 2375 2528 2181 2547 
Q 2150 2572 2150 2648 
Q 2150 2725 2181 2759 
Q 2656 2747 2766 2747 
Q 2900 2747 3219 2759 
Q 3250 2728 3250 2650 
Q 3250 2572 3219 2547 
Q 3053 2534 2915 2412 
Q 2778 2291 2700 2138 
Q 2291 1281 1569 -475 
Q 1434 -794 1306 -1025 
z
" transform="scale(0.015625)"/>
       </defs>
       <use xlink:href="#LinLibertine-45"/>
       <use xlink:href="#LinLibertine-6e" x="54.882812"/>
       <use xlink:href="#LinLibertine-74" x="109.082031"/>
       <use xlink:href="#LinLibertine-72" x="140.673828"/>
       <use xlink:href="#LinLibertine-6f" x="177.832031"/>
       <use xlink:href="#LinLibertine-70" x="228.222656"/>
       <use xlink:href="#LinLibertine-79" x="280.078125"/>
      </g>
     </g>
    </g>
    <g id="xtick_5">
     <g id="line2d_5">
      <g>
       <use xlink:href="#mfd15cb12c7" x="169.545625" y="288.83" style="stroke: #000000; stroke-width: 0.8"/>
      </g>
     </g>
     <g id="text_5">
      <!-- EXP -->
      <g transform="translate(173.028437 321.920625) rotate(-90) scale(0.15 -0.15)">
       <use xlink:href="#LinLibertine-45"/>
       <use xlink:href="#LinLibertine-58" x="54.882812"/>
       <use xlink:href="#LinLibertine-50" x="120.849609"/>
      </g>
     </g>
    </g>
    <g id="xtick_6">
     <g id="line2d_6">
      <g>
       <use xlink:href="#mfd15cb12c7" x="193.014792" y="288.83" style="stroke: #000000; stroke-width: 0.8"/>
      </g>
     </g>
     <g id="text_6">
      <!-- LA -->
      <g transform="translate(196.497604 314.141719) rotate(-90) scale(0.15 -0.15)">
       <defs>
        <path id="LinLibertine-41" d="M 1684 1813 
L 2816 1813 
L 2216 3553 
L 2175 3553 
L 1522 1897 
Q 1513 1878 1516 1862 
Q 1519 1847 1528 1837 
Q 1538 1828 1559 1822 
Q 1581 1816 1611 1814 
Q 1641 1813 1684 1813 
z
M 991 506 
Q 984 444 971 395 
Q 959 347 1007 314 
Q 1056 281 1084 262 
Q 1113 244 1191 228 
Q 1269 213 1312 209 
Q 1356 206 1434 197 
Q 1459 166 1459 89 
Q 1459 13 1434 -13 
Q 959 0 616 0 
Q 519 0 44 -13 
Q 13 13 13 89 
Q 13 166 44 197 
Q 288 216 428 297 
Q 569 378 684 653 
L 2138 4084 
Q 2278 4084 2491 4213 
L 3809 550 
Q 3847 434 3901 364 
Q 3956 294 4051 259 
Q 4147 225 4195 219 
Q 4244 213 4384 197 
Q 4416 166 4416 89 
Q 4416 13 4384 -13 
Q 3909 0 3653 0 
Q 3288 0 2816 -13 
Q 2791 13 2791 89 
Q 2791 166 2816 197 
Q 2853 197 2914 201 
Q 2975 206 3008 209 
Q 3041 213 3092 219 
Q 3144 225 3169 231 
Q 3194 238 3228 250 
Q 3263 263 3277 281 
Q 3291 300 3300 326 
Q 3309 353 3306 384 
Q 3303 416 3291 459 
L 2919 1544 
L 1569 1544 
Q 1453 1544 1411 1520 
Q 1369 1497 1344 1434 
L 991 506 
z
" transform="scale(0.015625)"/>
       </defs>
       <use xlink:href="#LinLibertine-4c"/>
       <use xlink:href="#LinLibertine-41" x="52.587891"/>
      </g>
     </g>
    </g>
    <g id="xtick_7">
     <g id="line2d_7">
      <g>
       <use xlink:href="#mfd15cb12c7" x="216.483958" y="288.83" style="stroke: #000000; stroke-width: 0.8"/>
      </g>
     </g>
     <g id="text_7">
      <!-- LD -->
      <g transform="translate(219.966771 314.228437) rotate(-90) scale(0.15 -0.15)">
       <defs>
        <path id="LinLibertine-44" d="M 1222 531 
Q 1222 359 1353 282 
Q 1484 206 1919 206 
Q 2284 206 2565 279 
Q 2847 353 3090 525 
Q 3334 697 3465 1023 
Q 3597 1350 3597 1819 
Q 3597 2209 3501 2567 
Q 3406 2925 3200 3239 
Q 2994 3553 2623 3737 
Q 2253 3922 1759 3922 
Q 1222 3922 1222 3609 
L 1222 531 
z
M 947 4128 
Q 1050 4128 1414 4134 
Q 1778 4141 2003 4141 
Q 2925 4141 3569 3505 
Q 4213 2869 4213 1972 
Q 4213 1409 4017 1001 
Q 3822 594 3498 383 
Q 3175 172 2833 79 
Q 2491 -13 2119 -13 
Q 1734 -13 1376 -6 
Q 1019 0 953 0 
Q 747 0 122 -13 
Q 91 13 91 89 
Q 91 166 122 197 
Q 481 209 579 303 
Q 678 397 678 781 
L 678 3347 
Q 678 3731 579 3823 
Q 481 3916 122 3928 
Q 91 3953 91 4031 
Q 91 4109 122 4141 
Q 763 4128 947 4128 
z
" transform="scale(0.015625)"/>
       </defs>
       <use xlink:href="#LinLibertine-4c"/>
       <use xlink:href="#LinLibertine-44" x="52.587891"/>
      </g>
     </g>
    </g>
    <g id="xtick_8">
     <g id="line2d_8">
      <g>
       <use xlink:href="#mfd15cb12c7" x="239.953125" y="288.83" style="stroke: #000000; stroke-width: 0.8"/>
      </g>
     </g>
     <g id="text_8">
      <!-- NS -->
      <g transform="translate(243.435937 313.583906) rotate(-90) scale(0.15 -0.15)">
       <use xlink:href="#LinLibertine-4e"/>
       <use xlink:href="#LinLibertine-53" x="69.873047"/>
      </g>
     </g>
    </g>
    <g id="xtick_9">
     <g id="line2d_9">
      <g>
       <use xlink:href="#mfd15cb12c7" x="263.422292" y="288.83" style="stroke: #000000; stroke-width: 0.8"/>
      </g>
     </g>
     <g id="text_9">
      <!-- AGE -->
      <g transform="translate(266.905104 324.908906) rotate(-90) scale(0.15 -0.15)">
       <defs>
        <path id="LinLibertine-47" d="M 2413 4213 
Q 2853 4213 3261 4067 
Q 3669 3922 3809 3922 
Q 3866 3319 3950 2938 
L 3731 2900 
Q 3584 3394 3270 3684 
Q 2956 3975 2322 3975 
Q 1663 3975 1225 3450 
Q 788 2925 788 2094 
Q 788 1769 903 1434 
Q 1019 1100 1230 812 
Q 1441 525 1780 345 
Q 2119 166 2528 166 
Q 3131 166 3456 475 
L 3456 1428 
Q 3456 1606 3343 1657 
Q 3231 1709 2931 1734 
Q 2906 1766 2906 1848 
Q 2906 1931 2931 1966 
Q 3534 1953 3725 1953 
Q 3909 1953 4294 1966 
Q 4325 1934 4325 1850 
Q 4325 1766 4294 1734 
Q 4141 1722 4070 1655 
Q 4000 1588 4000 1428 
L 4000 709 
Q 4000 613 4103 531 
Q 3406 -63 2381 -63 
Q 1434 -63 820 528 
Q 206 1119 206 1966 
Q 206 2644 531 3166 
Q 856 3688 1353 3950 
Q 1850 4213 2413 4213 
z
" transform="scale(0.015625)"/>
       </defs>
       <use xlink:href="#LinLibertine-41"/>
       <use xlink:href="#LinLibertine-47" x="69.482422"/>
       <use xlink:href="#LinLibertine-45" x="138.964844"/>
      </g>
     </g>
    </g>
    <g id="xtick_10">
     <g id="line2d_10">
      <g>
       <use xlink:href="#mfd15cb12c7" x="286.891458" y="288.83" style="stroke: #000000; stroke-width: 0.8"/>
      </g>
     </g>
     <g id="text_10">
      <!-- REXP -->
      <g transform="translate(290.374271 330.72375) rotate(-90) scale(0.15 -0.15)">
       <defs>
        <path id="LinLibertine-52" d="M 1741 3956 
Q 1209 3956 1209 3547 
L 1209 2081 
L 1516 2081 
Q 2034 2081 2312 2292 
Q 2591 2503 2591 3059 
Q 2591 3956 1741 3956 
z
M 1209 781 
Q 1209 397 1309 305 
Q 1409 213 1766 197 
Q 1791 166 1791 89 
Q 1791 13 1766 -13 
Q 1125 0 941 0 
Q 734 0 109 -13 
Q 78 13 78 89 
Q 78 166 109 197 
Q 469 209 567 303 
Q 666 397 666 781 
L 666 3347 
Q 666 3731 567 3823 
Q 469 3916 109 3928 
Q 78 3953 78 4031 
Q 78 4109 109 4141 
Q 750 4128 934 4128 
Q 1069 4128 1366 4150 
Q 1663 4172 1734 4172 
Q 2113 4172 2375 4114 
Q 2638 4056 2841 3866 
Q 3181 3547 3181 3066 
Q 3181 2625 2903 2347 
Q 2625 2069 2328 1972 
L 3138 628 
Q 3284 384 3418 259 
Q 3553 134 3750 134 
Q 3794 50 3756 -19 
Q 3666 -63 3488 -63 
Q 2994 -63 2644 506 
L 1959 1619 
Q 1881 1747 1731 1805 
Q 1581 1863 1209 1863 
L 1209 781 
z
" transform="scale(0.015625)"/>
       </defs>
       <use xlink:href="#LinLibertine-52"/>
       <use xlink:href="#LinLibertine-45" x="58.691406"/>
       <use xlink:href="#LinLibertine-58" x="113.574219"/>
       <use xlink:href="#LinLibertine-50" x="179.541016"/>
      </g>
     </g>
    </g>
    <g id="xtick_11">
     <g id="line2d_11">
      <g>
       <use xlink:href="#mfd15cb12c7" x="310.360625" y="288.83" style="stroke: #000000; stroke-width: 0.8"/>
      </g>
     </g>
     <g id="text_11">
      <!-- ND -->
      <g transform="translate(313.843437 316.820625) rotate(-90) scale(0.15 -0.15)">
       <use xlink:href="#LinLibertine-4e"/>
       <use xlink:href="#LinLibertine-44" x="69.873047"/>
      </g>
     </g>
    </g>
    <g id="xtick_12">
     <g id="line2d_12">
      <g>
       <use xlink:href="#mfd15cb12c7" x="333.829792" y="288.83" style="stroke: #000000; stroke-width: 0.8"/>
      </g>
     </g>
     <g id="text_12">
      <!-- NF -->
      <g transform="translate(337.312604 313.459687) rotate(-90) scale(0.15 -0.15)">
       <defs>
        <path id="LinLibertine-46" d="M 1759 2069 
L 1166 2069 
L 1166 781 
Q 1166 397 1264 305 
Q 1363 213 1722 197 
Q 1753 166 1753 89 
Q 1753 13 1722 -13 
Q 1081 0 897 0 
Q 691 0 63 -13 
Q 38 13 38 89 
Q 38 166 63 197 
Q 422 209 522 303 
Q 622 397 622 781 
L 622 3347 
Q 622 3731 522 3823 
Q 422 3916 63 3928 
Q 38 3953 38 4031 
Q 38 4109 63 4141 
L 891 4128 
L 2525 4128 
Q 2694 4128 2825 4153 
Q 2847 4153 2850 4134 
Q 2919 3766 2988 3206 
Q 2903 3175 2791 3175 
Q 2713 3425 2623 3559 
Q 2534 3694 2336 3783 
Q 2138 3872 1813 3872 
L 1394 3872 
Q 1163 3872 1166 3653 
L 1166 2309 
L 1759 2309 
Q 2150 2309 2239 2386 
Q 2328 2463 2344 2747 
Q 2369 2778 2445 2778 
Q 2522 2778 2553 2747 
Q 2541 2363 2541 2194 
Q 2541 2078 2553 1631 
Q 2522 1600 2445 1600 
Q 2369 1600 2344 1631 
Q 2331 1803 2304 1878 
Q 2278 1953 2150 2011 
Q 2022 2069 1759 2069 
z
" transform="scale(0.015625)"/>
       </defs>
       <use xlink:href="#LinLibertine-4e"/>
       <use xlink:href="#LinLibertine-46" x="69.873047"/>
      </g>
     </g>
    </g>
   </g>
   <g id="matplotlib.axis_2">
    <g id="ytick_1">
     <g id="line2d_13">
      <defs>
       <path id="m4ca7c97b39" d="M 0 0 
L -3.5 0 
" style="stroke: #000000; stroke-width: 0.8"/>
      </defs>
      <g>
       <use xlink:href="#m4ca7c97b39" x="63.934375" y="18.934583" style="stroke: #000000; stroke-width: 0.8"/>
      </g>
     </g>
     <g id="text_13">
      <!-- NUC -->
      <g transform="translate(26.854688 22.417396) scale(0.15 -0.15)">
       <use xlink:href="#LinLibertine-4e"/>
       <use xlink:href="#LinLibertine-55" x="69.873047"/>
       <use xlink:href="#LinLibertine-43" x="135.9375"/>
      </g>
     </g>
    </g>
    <g id="ytick_2">
     <g id="line2d_14">
      <g>
       <use xlink:href="#m4ca7c97b39" x="63.934375" y="42.40375" style="stroke: #000000; stroke-width: 0.8"/>
      </g>
     </g>
     <g id="text_14">
      <!-- SEXP -->
      <g transform="translate(23.571094 45.886563) scale(0.15 -0.15)">
       <use xlink:href="#LinLibertine-53"/>
       <use xlink:href="#LinLibertine-45" x="48.486328"/>
       <use xlink:href="#LinLibertine-58" x="103.369141"/>
       <use xlink:href="#LinLibertine-50" x="169.335938"/>
      </g>
     </g>
    </g>
    <g id="ytick_3">
     <g id="line2d_15">
      <g>
       <use xlink:href="#m4ca7c97b39" x="63.934375" y="65.872917" style="stroke: #000000; stroke-width: 0.8"/>
      </g>
     </g>
     <g id="text_15">
      <!-- LT -->
      <g transform="translate(40.094531 69.355729) scale(0.15 -0.15)">
       <use xlink:href="#LinLibertine-4c"/>
       <use xlink:href="#LinLibertine-54" x="52.587891"/>
      </g>
     </g>
    </g>
    <g id="ytick_4">
     <g id="line2d_16">
      <g>
       <use xlink:href="#m4ca7c97b39" x="63.934375" y="89.342083" style="stroke: #000000; stroke-width: 0.8"/>
      </g>
     </g>
     <g id="text_16">
      <!-- Entropy -->
      <g transform="translate(7.2 92.824896) scale(0.15 -0.15)">
       <use xlink:href="#LinLibertine-45"/>
       <use xlink:href="#LinLibertine-6e" x="54.882812"/>
       <use xlink:href="#LinLibertine-74" x="109.082031"/>
       <use xlink:href="#LinLibertine-72" x="140.673828"/>
       <use xlink:href="#LinLibertine-6f" x="177.832031"/>
       <use xlink:href="#LinLibertine-70" x="228.222656"/>
       <use xlink:href="#LinLibertine-79" x="280.078125"/>
      </g>
     </g>
    </g>
    <g id="ytick_5">
     <g id="line2d_17">
      <g>
       <use xlink:href="#m4ca7c97b39" x="63.934375" y="112.81125" style="stroke: #000000; stroke-width: 0.8"/>
      </g>
     </g>
     <g id="text_17">
      <!-- EXP -->
      <g transform="translate(30.84375 116.294062) scale(0.15 -0.15)">
       <use xlink:href="#LinLibertine-45"/>
       <use xlink:href="#LinLibertine-58" x="54.882812"/>
       <use xlink:href="#LinLibertine-50" x="120.849609"/>
      </g>
     </g>
    </g>
    <g id="ytick_6">
     <g id="line2d_18">
      <g>
       <use xlink:href="#m4ca7c97b39" x="63.934375" y="136.280417" style="stroke: #000000; stroke-width: 0.8"/>
      </g>
     </g>
     <g id="text_18">
      <!-- LA -->
      <g transform="translate(38.622656 139.763229) scale(0.15 -0.15)">
       <use xlink:href="#LinLibertine-4c"/>
       <use xlink:href="#LinLibertine-41" x="52.587891"/>
      </g>
     </g>
    </g>
    <g id="ytick_7">
     <g id="line2d_19">
      <g>
       <use xlink:href="#m4ca7c97b39" x="63.934375" y="159.749583" style="stroke: #000000; stroke-width: 0.8"/>
      </g>
     </g>
     <g id="text_19">
      <!-- LD -->
      <g transform="translate(38.535938 163.232396) scale(0.15 -0.15)">
       <use xlink:href="#LinLibertine-4c"/>
       <use xlink:href="#LinLibertine-44" x="52.587891"/>
      </g>
     </g>
    </g>
    <g id="ytick_8">
     <g id="line2d_20">
      <g>
       <use xlink:href="#m4ca7c97b39" x="63.934375" y="183.21875" style="stroke: #000000; stroke-width: 0.8"/>
      </g>
     </g>
     <g id="text_20">
      <!-- NS -->
      <g transform="translate(39.180469 186.701562) scale(0.15 -0.15)">
       <use xlink:href="#LinLibertine-4e"/>
       <use xlink:href="#LinLibertine-53" x="69.873047"/>
      </g>
     </g>
    </g>
    <g id="ytick_9">
     <g id="line2d_21">
      <g>
       <use xlink:href="#m4ca7c97b39" x="63.934375" y="206.687917" style="stroke: #000000; stroke-width: 0.8"/>
      </g>
     </g>
     <g id="text_21">
      <!-- AGE -->
      <g transform="translate(27.855469 210.170729) scale(0.15 -0.15)">
       <use xlink:href="#LinLibertine-41"/>
       <use xlink:href="#LinLibertine-47" x="69.482422"/>
       <use xlink:href="#LinLibertine-45" x="138.964844"/>
      </g>
     </g>
    </g>
    <g id="ytick_10">
     <g id="line2d_22">
      <g>
       <use xlink:href="#m4ca7c97b39" x="63.934375" y="230.157083" style="stroke: #000000; stroke-width: 0.8"/>
      </g>
     </g>
     <g id="text_22">
      <!-- REXP -->
      <g transform="translate(22.040625 233.639896) scale(0.15 -0.15)">
       <use xlink:href="#LinLibertine-52"/>
       <use xlink:href="#LinLibertine-45" x="58.691406"/>
       <use xlink:href="#LinLibertine-58" x="113.574219"/>
       <use xlink:href="#LinLibertine-50" x="179.541016"/>
      </g>
     </g>
    </g>
    <g id="ytick_11">
     <g id="line2d_23">
      <g>
       <use xlink:href="#m4ca7c97b39" x="63.934375" y="253.62625" style="stroke: #000000; stroke-width: 0.8"/>
      </g>
     </g>
     <g id="text_23">
      <!-- ND -->
      <g transform="translate(35.94375 257.109062) scale(0.15 -0.15)">
       <use xlink:href="#LinLibertine-4e"/>
       <use xlink:href="#LinLibertine-44" x="69.873047"/>
      </g>
     </g>
    </g>
    <g id="ytick_12">
     <g id="line2d_24">
      <g>
       <use xlink:href="#m4ca7c97b39" x="63.934375" y="277.095417" style="stroke: #000000; stroke-width: 0.8"/>
      </g>
     </g>
     <g id="text_24">
      <!-- NF -->
      <g transform="translate(39.304688 280.578229) scale(0.15 -0.15)">
       <use xlink:href="#LinLibertine-4e"/>
       <use xlink:href="#LinLibertine-46" x="69.873047"/>
      </g>
     </g>
    </g>
   </g>
   <g id="text_25">
    <!-- -09 -->
    <g style="fill: #959595" transform="translate(66.161536 45.886563) scale(0.15 -0.15)">
     <defs>
      <path id="LinLibertine-2d" d="M 1734 1428 
L 353 1428 
Q 256 1428 256 1550 
Q 256 1641 307 1727 
Q 359 1813 416 1813 
L 1819 1813 
Q 1909 1813 1906 1684 
Q 1906 1622 1848 1525 
Q 1791 1428 1734 1428 
z
" transform="scale(0.015625)"/>
      <path id="LinLibertine-30" d="M 1484 3681 
Q 1363 3681 1255 3603 
Q 1147 3525 1040 3340 
Q 934 3156 870 2762 
Q 806 2369 806 1813 
Q 806 163 1466 159 
Q 1522 159 1586 178 
Q 1650 197 1737 251 
Q 1825 306 1904 431 
Q 1984 556 2034 744 
Q 2144 1141 2144 2059 
Q 2144 3256 1772 3572 
Q 1650 3681 1484 3681 
z
M 1459 -63 
Q 1078 -63 809 206 
Q 547 466 398 916 
Q 250 1366 250 1881 
Q 250 2791 617 3347 
Q 984 3903 1484 3903 
Q 1953 3903 2266 3488 
Q 2700 2913 2700 1941 
Q 2700 1409 2578 998 
Q 2456 588 2262 367 
Q 2069 147 1862 42 
Q 1656 -63 1459 -63 
z
" transform="scale(0.015625)"/>
      <path id="LinLibertine-39" d="M 2150 1869 
Q 2203 2125 2203 2369 
Q 2203 3125 1993 3403 
Q 1784 3681 1434 3681 
Q 1184 3681 1017 3418 
Q 850 3156 850 2656 
Q 850 2516 886 2372 
Q 922 2228 998 2073 
Q 1075 1919 1234 1820 
Q 1394 1722 1619 1722 
Q 1925 1722 2150 1869 
z
M 2091 1638 
Q 1788 1500 1484 1497 
Q 875 1497 597 1789 
Q 319 2081 319 2541 
Q 319 3034 626 3468 
Q 934 3903 1503 3903 
Q 1716 3903 1908 3839 
Q 2100 3775 2298 3619 
Q 2497 3463 2614 3136 
Q 2731 2809 2731 2350 
Q 2731 1494 2138 800 
Q 1606 178 738 -78 
Q 659 -34 659 91 
Q 1250 313 1595 725 
Q 1941 1138 2091 1638 
z
" transform="scale(0.015625)"/>
     </defs>
     <use xlink:href="#LinLibertine-2d"/>
     <use xlink:href="#LinLibertine-30" x="33.789062"/>
     <use xlink:href="#LinLibertine-39" x="80.273438"/>
    </g>
   </g>
   <g id="text_26">
    <!-- 52 -->
    <g style="fill: #404040" transform="translate(68.696302 69.355729) scale(0.15 -0.15)">
     <defs>
      <path id="LinLibertine-35" d="M 2041 1209 
Q 2041 1709 1836 1945 
Q 1631 2181 1300 2181 
Q 897 2181 488 2028 
L 703 3872 
Q 1075 3841 1394 3841 
Q 1778 3841 2444 3909 
L 2491 3884 
L 2388 3450 
Q 1991 3413 1716 3413 
Q 1497 3413 966 3469 
L 838 2400 
Q 1100 2503 1466 2503 
Q 1984 2503 2298 2158 
Q 2613 1813 2613 1325 
Q 2613 716 2231 322 
Q 1850 -72 1253 -72 
Q 959 -72 653 76 
Q 347 225 347 409 
Q 347 506 420 576 
Q 494 647 588 647 
Q 759 647 916 441 
Q 922 428 953 387 
Q 984 347 998 326 
Q 1013 306 1044 275 
Q 1075 244 1100 228 
Q 1125 213 1164 189 
Q 1203 166 1245 159 
Q 1288 153 1338 153 
Q 1631 153 1836 458 
Q 2041 763 2041 1209 
z
" transform="scale(0.015625)"/>
      <path id="LinLibertine-32" d="M 391 2994 
Q 391 3313 717 3608 
Q 1044 3903 1544 3903 
Q 1978 3903 2301 3658 
Q 2625 3413 2625 2931 
Q 2625 2700 2528 2495 
Q 2431 2291 2320 2159 
Q 2209 2028 1984 1813 
L 1338 1191 
Q 863 716 863 416 
L 2003 416 
Q 2175 416 2272 550 
Q 2369 684 2450 1031 
Q 2572 1056 2638 997 
Q 2625 550 2484 -13 
Q 2191 0 1984 0 
L 863 0 
L 331 -13 
Q 331 294 476 578 
Q 622 863 1063 1313 
L 1538 1778 
Q 2063 2309 2059 2906 
Q 2059 3322 1890 3501 
Q 1722 3681 1503 3681 
Q 1184 3681 1028 3559 
Q 872 3438 872 3291 
Q 872 3259 897 3201 
Q 922 3144 922 3138 
Q 947 3047 947 3003 
Q 947 2906 842 2826 
Q 738 2747 647 2747 
Q 544 2747 467 2819 
Q 391 2891 391 2994 
z
" transform="scale(0.015625)"/>
     </defs>
     <use xlink:href="#LinLibertine-35"/>
     <use xlink:href="#LinLibertine-32" x="46.484375"/>
    </g>
   </g>
   <g id="text_27">
    <!-- -07 -->
    <g style="fill: #959595" transform="translate(89.630703 69.355729) scale(0.15 -0.15)">
     <defs>
      <path id="LinLibertine-37" d="M 1088 3425 
Q 966 3425 880 3395 
Q 794 3366 694 3237 
Q 594 3109 531 2869 
Q 434 2856 325 2888 
Q 447 3688 453 3909 
Q 453 3928 481 3928 
Q 506 3922 589 3881 
Q 672 3841 800 3841 
L 2119 3841 
Q 2375 3841 2613 3909 
L 2713 3834 
Q 2022 2144 1281 -63 
L 844 -84 
L 794 -38 
Q 1269 1019 2234 3425 
L 1088 3425 
z
" transform="scale(0.015625)"/>
     </defs>
     <use xlink:href="#LinLibertine-2d"/>
     <use xlink:href="#LinLibertine-30" x="33.789062"/>
     <use xlink:href="#LinLibertine-37" x="80.273438"/>
    </g>
   </g>
   <g id="text_28">
    <!-- 08 -->
    <g style="fill: #959595" transform="translate(68.696302 92.824896) scale(0.15 -0.15)">
     <defs>
      <path id="LinLibertine-38" d="M 1497 3681 
Q 1222 3681 1065 3526 
Q 909 3372 909 3144 
Q 909 2966 995 2808 
Q 1081 2650 1356 2472 
L 1556 2350 
Q 2069 2728 2069 3109 
Q 2069 3353 1930 3517 
Q 1791 3681 1497 3681 
z
M 2516 3103 
Q 2516 2828 2269 2595 
Q 2022 2363 1728 2216 
L 2181 1941 
Q 2681 1641 2681 1038 
Q 2681 628 2348 282 
Q 2016 -63 1434 -63 
Q 916 -63 605 195 
Q 294 453 294 934 
Q 294 1375 666 1703 
Q 888 1897 1181 2053 
L 1019 2156 
Q 456 2509 453 3022 
Q 453 3400 751 3651 
Q 1050 3903 1528 3903 
Q 1988 3903 2252 3679 
Q 2516 3456 2516 3103 
z
M 1447 159 
Q 1741 159 1978 323 
Q 2216 488 2216 909 
Q 2216 1422 1656 1759 
L 1356 1941 
Q 997 1703 859 1425 
Q 722 1147 722 934 
Q 722 544 950 351 
Q 1178 159 1447 159 
z
" transform="scale(0.015625)"/>
     </defs>
     <use xlink:href="#LinLibertine-30"/>
     <use xlink:href="#LinLibertine-38" x="46.484375"/>
    </g>
   </g>
   <g id="text_29">
    <!-- -26 -->
    <g style="fill: #959595" transform="translate(89.630703 92.824896) scale(0.15 -0.15)">
     <defs>
      <path id="LinLibertine-36" d="M 866 1966 
Q 813 1709 813 1466 
Q 813 709 1020 431 
Q 1228 153 1581 153 
Q 1831 153 1997 415 
Q 2163 678 2163 1178 
Q 2163 1319 2128 1462 
Q 2094 1606 2017 1759 
Q 1941 1913 1780 2013 
Q 1619 2113 1394 2113 
Q 1091 2113 866 1966 
z
M 925 2197 
Q 1228 2334 1528 2338 
Q 2138 2338 2416 2045 
Q 2694 1753 2694 1294 
Q 2694 800 2387 364 
Q 2081 -72 1509 -72 
Q 1297 -72 1106 -8 
Q 916 56 717 214 
Q 519 372 400 698 
Q 281 1025 281 1484 
Q 281 2341 878 3034 
Q 1409 3656 2278 3909 
Q 2356 3859 2356 3744 
Q 1766 3522 1420 3109 
Q 1075 2697 925 2197 
z
" transform="scale(0.015625)"/>
     </defs>
     <use xlink:href="#LinLibertine-2d"/>
     <use xlink:href="#LinLibertine-32" x="33.789062"/>
     <use xlink:href="#LinLibertine-36" x="80.273438"/>
    </g>
   </g>
   <g id="text_30">
    <!-- 25 -->
    <g style="fill: #959595" transform="translate(115.634635 92.824896) scale(0.15 -0.15)">
     <use xlink:href="#LinLibertine-32"/>
     <use xlink:href="#LinLibertine-35" x="46.484375"/>
    </g>
   </g>
   <g id="text_31">
    <!-- 03 -->
    <g style="fill: #959595" transform="translate(68.696302 116.294062) scale(0.15 -0.15)">
     <defs>
      <path id="LinLibertine-33" d="M 1375 3681 
Q 1259 3681 1139 3648 
Q 1019 3616 894 3497 
Q 769 3378 769 3194 
Q 769 2863 519 2859 
Q 416 2859 358 2931 
Q 300 3003 300 3078 
Q 300 3175 361 3300 
Q 422 3425 550 3569 
Q 678 3713 931 3808 
Q 1184 3903 1509 3903 
Q 1963 3903 2209 3653 
Q 2409 3450 2409 3147 
Q 2409 2878 2261 2676 
Q 2113 2475 1734 2297 
L 1741 2284 
Q 2100 2228 2372 1984 
Q 2644 1741 2644 1275 
Q 2644 666 2220 301 
Q 1797 -63 1203 -63 
Q 884 -63 582 60 
Q 281 184 281 366 
Q 281 444 367 516 
Q 453 588 550 588 
Q 703 588 825 422 
Q 831 416 854 381 
Q 878 347 887 333 
Q 897 319 919 291 
Q 941 263 959 250 
Q 978 238 1014 214 
Q 1050 191 1087 181 
Q 1125 172 1176 165 
Q 1228 159 1288 159 
Q 1391 159 1508 204 
Q 1625 250 1762 348 
Q 1900 447 1990 665 
Q 2081 884 2081 1184 
Q 2081 2009 1241 2009 
Q 1044 2009 934 1997 
L 903 2203 
Q 1347 2266 1628 2548 
Q 1909 2831 1909 3103 
Q 1909 3300 1831 3433 
Q 1753 3566 1637 3623 
Q 1522 3681 1375 3681 
z
" transform="scale(0.015625)"/>
     </defs>
     <use xlink:href="#LinLibertine-30"/>
     <use xlink:href="#LinLibertine-33" x="46.484375"/>
    </g>
   </g>
   <g id="text_32">
    <!-- 66 -->
    <g style="fill: #404040" transform="translate(92.165469 116.294062) scale(0.15 -0.15)">
     <use xlink:href="#LinLibertine-36"/>
     <use xlink:href="#LinLibertine-36" x="46.484375"/>
    </g>
   </g>
   <g id="text_33">
    <!-- -07 -->
    <g style="fill: #959595" transform="translate(113.09987 116.294062) scale(0.15 -0.15)">
     <use xlink:href="#LinLibertine-2d"/>
     <use xlink:href="#LinLibertine-30" x="33.789062"/>
     <use xlink:href="#LinLibertine-37" x="80.273438"/>
    </g>
   </g>
   <g id="text_34">
    <!-- -01 -->
    <g style="fill: #959595" transform="translate(136.569036 116.294062) scale(0.15 -0.15)">
     <defs>
      <path id="LinLibertine-31" d="M 1844 781 
Q 1844 397 1942 305 
Q 2041 213 2400 197 
Q 2431 166 2431 89 
Q 2431 13 2400 -13 
Q 1759 0 1619 0 
Q 1356 0 728 -13 
Q 703 13 703 89 
Q 703 166 728 197 
Q 1100 209 1225 309 
Q 1350 409 1350 781 
L 1350 2869 
Q 1350 3241 1222 3238 
Q 1050 3238 666 3078 
Q 588 3128 569 3250 
Q 1466 3666 1825 3891 
Q 1863 3891 1863 3859 
Q 1844 3713 1844 3003 
L 1844 781 
z
" transform="scale(0.015625)"/>
     </defs>
     <use xlink:href="#LinLibertine-2d"/>
     <use xlink:href="#LinLibertine-30" x="33.789062"/>
     <use xlink:href="#LinLibertine-31" x="80.273438"/>
    </g>
   </g>
   <g id="text_35">
    <!-- 02 -->
    <g style="fill: #959595" transform="translate(68.696302 139.763229) scale(0.15 -0.15)">
     <use xlink:href="#LinLibertine-30"/>
     <use xlink:href="#LinLibertine-32" x="46.484375"/>
    </g>
   </g>
   <g id="text_36">
    <!-- -15 -->
    <g style="fill: #959595" transform="translate(89.630703 139.763229) scale(0.15 -0.15)">
     <use xlink:href="#LinLibertine-2d"/>
     <use xlink:href="#LinLibertine-31" x="33.789062"/>
     <use xlink:href="#LinLibertine-35" x="80.273438"/>
    </g>
   </g>
   <g id="text_37">
    <!-- 20 -->
    <g style="fill: #959595" transform="translate(115.634635 139.763229) scale(0.15 -0.15)">
     <use xlink:href="#LinLibertine-32"/>
     <use xlink:href="#LinLibertine-30" x="46.484375"/>
    </g>
   </g>
   <g id="text_38">
    <!-- 54 -->
    <g style="fill: #404040" transform="translate(139.103802 139.763229) scale(0.15 -0.15)">
     <defs>
      <path id="LinLibertine-34" d="M 1734 3244 
Q 1247 2578 513 1403 
L 1734 1403 
L 1734 3244 
z
M 2753 1403 
Q 2850 1403 2847 1300 
Q 2847 1244 2786 1172 
Q 2725 1100 2663 1100 
L 2222 1100 
L 2222 513 
Q 2222 409 2237 348 
Q 2253 288 2320 259 
Q 2388 231 2425 225 
Q 2463 219 2603 203 
Q 2647 197 2669 197 
Q 2700 166 2700 89 
Q 2700 13 2669 -13 
Q 2259 0 1972 0 
Q 1625 0 1216 -13 
Q 1191 13 1191 89 
Q 1191 166 1216 197 
Q 1559 222 1644 291 
Q 1734 363 1734 513 
L 1734 1100 
L 428 1100 
Q 231 1100 178 1369 
Q 1169 2925 1913 3834 
Q 1969 3906 2016 3903 
L 2222 3903 
L 2234 3891 
Q 2222 3834 2222 3272 
L 2222 1403 
L 2753 1403 
z
" transform="scale(0.015625)"/>
     </defs>
     <use xlink:href="#LinLibertine-35"/>
     <use xlink:href="#LinLibertine-34" x="46.484375"/>
    </g>
   </g>
   <g id="text_39">
    <!-- -03 -->
    <g style="fill: #959595" transform="translate(160.038203 139.763229) scale(0.15 -0.15)">
     <use xlink:href="#LinLibertine-2d"/>
     <use xlink:href="#LinLibertine-30" x="33.789062"/>
     <use xlink:href="#LinLibertine-33" x="80.273438"/>
    </g>
   </g>
   <g id="text_40">
    <!-- -05 -->
    <g style="fill: #959595" transform="translate(66.161536 163.232396) scale(0.15 -0.15)">
     <use xlink:href="#LinLibertine-2d"/>
     <use xlink:href="#LinLibertine-30" x="33.789062"/>
     <use xlink:href="#LinLibertine-35" x="80.273438"/>
    </g>
   </g>
   <g id="text_41">
    <!-- -10 -->
    <g style="fill: #959595" transform="translate(89.630703 163.232396) scale(0.15 -0.15)">
     <use xlink:href="#LinLibertine-2d"/>
     <use xlink:href="#LinLibertine-31" x="33.789062"/>
     <use xlink:href="#LinLibertine-30" x="80.273438"/>
    </g>
   </g>
   <g id="text_42">
    <!-- 15 -->
    <g style="fill: #959595" transform="translate(115.634635 163.232396) scale(0.15 -0.15)">
     <use xlink:href="#LinLibertine-31"/>
     <use xlink:href="#LinLibertine-35" x="46.484375"/>
    </g>
   </g>
   <g id="text_43">
    <!-- 45 -->
    <g style="fill: #959595" transform="translate(139.103802 163.232396) scale(0.15 -0.15)">
     <use xlink:href="#LinLibertine-34"/>
     <use xlink:href="#LinLibertine-35" x="46.484375"/>
    </g>
   </g>
   <g id="text_44">
    <!-- 00 -->
    <g style="fill: #959595" transform="translate(162.572969 163.232396) scale(0.15 -0.15)">
     <use xlink:href="#LinLibertine-30"/>
     <use xlink:href="#LinLibertine-30" x="46.484375"/>
    </g>
   </g>
   <g id="text_45">
    <!-- 58 -->
    <g style="fill: #404040" transform="translate(186.042135 163.232396) scale(0.15 -0.15)">
     <use xlink:href="#LinLibertine-35"/>
     <use xlink:href="#LinLibertine-38" x="46.484375"/>
    </g>
   </g>
   <g id="text_46">
    <!-- 32 -->
    <g style="fill: #959595" transform="translate(68.696302 186.701562) scale(0.15 -0.15)">
     <use xlink:href="#LinLibertine-33"/>
     <use xlink:href="#LinLibertine-32" x="46.484375"/>
    </g>
   </g>
   <g id="text_47">
    <!-- -59 -->
    <g style="fill: #404040" transform="translate(89.630703 186.701562) scale(0.15 -0.15)">
     <use xlink:href="#LinLibertine-2d"/>
     <use xlink:href="#LinLibertine-35" x="33.789062"/>
     <use xlink:href="#LinLibertine-39" x="80.273438"/>
    </g>
   </g>
   <g id="text_48">
    <!-- 11 -->
    <g style="fill: #959595" transform="translate(115.634635 186.701562) scale(0.15 -0.15)">
     <use xlink:href="#LinLibertine-31"/>
     <use xlink:href="#LinLibertine-31" x="46.484375"/>
    </g>
   </g>
   <g id="text_49">
    <!-- 48 -->
    <g style="fill: #959595" transform="translate(139.103802 186.701562) scale(0.15 -0.15)">
     <use xlink:href="#LinLibertine-34"/>
     <use xlink:href="#LinLibertine-38" x="46.484375"/>
    </g>
   </g>
   <g id="text_50">
    <!-- -03 -->
    <g style="fill: #959595" transform="translate(160.038203 186.701562) scale(0.15 -0.15)">
     <use xlink:href="#LinLibertine-2d"/>
     <use xlink:href="#LinLibertine-30" x="33.789062"/>
     <use xlink:href="#LinLibertine-33" x="80.273438"/>
    </g>
   </g>
   <g id="text_51">
    <!-- 25 -->
    <g style="fill: #959595" transform="translate(186.042135 186.701562) scale(0.15 -0.15)">
     <use xlink:href="#LinLibertine-32"/>
     <use xlink:href="#LinLibertine-35" x="46.484375"/>
    </g>
   </g>
   <g id="text_52">
    <!-- 18 -->
    <g style="fill: #959595" transform="translate(209.511302 186.701562) scale(0.15 -0.15)">
     <use xlink:href="#LinLibertine-31"/>
     <use xlink:href="#LinLibertine-38" x="46.484375"/>
    </g>
   </g>
   <g id="text_53">
    <!-- -07 -->
    <g style="fill: #959595" transform="translate(66.161536 210.170729) scale(0.15 -0.15)">
     <use xlink:href="#LinLibertine-2d"/>
     <use xlink:href="#LinLibertine-30" x="33.789062"/>
     <use xlink:href="#LinLibertine-37" x="80.273438"/>
    </g>
   </g>
   <g id="text_54">
    <!-- -09 -->
    <g style="fill: #959595" transform="translate(89.630703 210.170729) scale(0.15 -0.15)">
     <use xlink:href="#LinLibertine-2d"/>
     <use xlink:href="#LinLibertine-30" x="33.789062"/>
     <use xlink:href="#LinLibertine-39" x="80.273438"/>
    </g>
   </g>
   <g id="text_55">
    <!-- -12 -->
    <g style="fill: #959595" transform="translate(113.09987 210.170729) scale(0.15 -0.15)">
     <use xlink:href="#LinLibertine-2d"/>
     <use xlink:href="#LinLibertine-31" x="33.789062"/>
     <use xlink:href="#LinLibertine-32" x="80.273438"/>
    </g>
   </g>
   <g id="text_56">
    <!-- 20 -->
    <g style="fill: #959595" transform="translate(139.103802 210.170729) scale(0.15 -0.15)">
     <use xlink:href="#LinLibertine-32"/>
     <use xlink:href="#LinLibertine-30" x="46.484375"/>
    </g>
   </g>
   <g id="text_57">
    <!-- -03 -->
    <g style="fill: #959595" transform="translate(160.038203 210.170729) scale(0.15 -0.15)">
     <use xlink:href="#LinLibertine-2d"/>
     <use xlink:href="#LinLibertine-30" x="33.789062"/>
     <use xlink:href="#LinLibertine-33" x="80.273438"/>
    </g>
   </g>
   <g id="text_58">
    <!-- 15 -->
    <g style="fill: #959595" transform="translate(186.042135 210.170729) scale(0.15 -0.15)">
     <use xlink:href="#LinLibertine-31"/>
     <use xlink:href="#LinLibertine-35" x="46.484375"/>
    </g>
   </g>
   <g id="text_59">
    <!-- 07 -->
    <g style="fill: #959595" transform="translate(209.511302 210.170729) scale(0.15 -0.15)">
     <use xlink:href="#LinLibertine-30"/>
     <use xlink:href="#LinLibertine-37" x="46.484375"/>
    </g>
   </g>
   <g id="text_60">
    <!-- 09 -->
    <g style="fill: #959595" transform="translate(232.980469 210.170729) scale(0.15 -0.15)">
     <use xlink:href="#LinLibertine-30"/>
     <use xlink:href="#LinLibertine-39" x="46.484375"/>
    </g>
   </g>
   <g id="text_61">
    <!-- 03 -->
    <g style="fill: #959595" transform="translate(68.696302 233.639896) scale(0.15 -0.15)">
     <use xlink:href="#LinLibertine-30"/>
     <use xlink:href="#LinLibertine-33" x="46.484375"/>
    </g>
   </g>
   <g id="text_62">
    <!-- 66 -->
    <g style="fill: #404040" transform="translate(92.165469 233.639896) scale(0.15 -0.15)">
     <use xlink:href="#LinLibertine-36"/>
     <use xlink:href="#LinLibertine-36" x="46.484375"/>
    </g>
   </g>
   <g id="text_63">
    <!-- -07 -->
    <g style="fill: #959595" transform="translate(113.09987 233.639896) scale(0.15 -0.15)">
     <use xlink:href="#LinLibertine-2d"/>
     <use xlink:href="#LinLibertine-30" x="33.789062"/>
     <use xlink:href="#LinLibertine-37" x="80.273438"/>
    </g>
   </g>
   <g id="text_64">
    <!-- -01 -->
    <g style="fill: #959595" transform="translate(136.569036 233.639896) scale(0.15 -0.15)">
     <use xlink:href="#LinLibertine-2d"/>
     <use xlink:href="#LinLibertine-30" x="33.789062"/>
     <use xlink:href="#LinLibertine-31" x="80.273438"/>
    </g>
   </g>
   <g id="text_65">
    <!-- 98 -->
    <g style="fill: #404040" transform="translate(162.572969 233.639896) scale(0.15 -0.15)">
     <use xlink:href="#LinLibertine-39"/>
     <use xlink:href="#LinLibertine-38" x="46.484375"/>
    </g>
   </g>
   <g id="text_66">
    <!-- -04 -->
    <g style="fill: #959595" transform="translate(183.50737 233.639896) scale(0.15 -0.15)">
     <use xlink:href="#LinLibertine-2d"/>
     <use xlink:href="#LinLibertine-30" x="33.789062"/>
     <use xlink:href="#LinLibertine-34" x="80.273438"/>
    </g>
   </g>
   <g id="text_67">
    <!-- 00 -->
    <g style="fill: #959595" transform="translate(209.511302 233.639896) scale(0.15 -0.15)">
     <use xlink:href="#LinLibertine-30"/>
     <use xlink:href="#LinLibertine-30" x="46.484375"/>
    </g>
   </g>
   <g id="text_68">
    <!-- -04 -->
    <g style="fill: #959595" transform="translate(230.445703 233.639896) scale(0.15 -0.15)">
     <use xlink:href="#LinLibertine-2d"/>
     <use xlink:href="#LinLibertine-30" x="33.789062"/>
     <use xlink:href="#LinLibertine-34" x="80.273438"/>
    </g>
   </g>
   <g id="text_69">
    <!-- -06 -->
    <g style="fill: #959595" transform="translate(253.91487 233.639896) scale(0.15 -0.15)">
     <use xlink:href="#LinLibertine-2d"/>
     <use xlink:href="#LinLibertine-30" x="33.789062"/>
     <use xlink:href="#LinLibertine-36" x="80.273438"/>
    </g>
   </g>
   <g id="text_70">
    <!-- 19 -->
    <g style="fill: #959595" transform="translate(68.696302 257.109062) scale(0.15 -0.15)">
     <use xlink:href="#LinLibertine-31"/>
     <use xlink:href="#LinLibertine-39" x="46.484375"/>
    </g>
   </g>
   <g id="text_71">
    <!-- -34 -->
    <g style="fill: #959595" transform="translate(89.630703 257.109062) scale(0.15 -0.15)">
     <use xlink:href="#LinLibertine-2d"/>
     <use xlink:href="#LinLibertine-33" x="33.789062"/>
     <use xlink:href="#LinLibertine-34" x="80.273438"/>
    </g>
   </g>
   <g id="text_72">
    <!-- 25 -->
    <g style="fill: #959595" transform="translate(115.634635 257.109062) scale(0.15 -0.15)">
     <use xlink:href="#LinLibertine-32"/>
     <use xlink:href="#LinLibertine-35" x="46.484375"/>
    </g>
   </g>
   <g id="text_73">
    <!-- 82 -->
    <g style="fill: #404040" transform="translate(139.103802 257.109062) scale(0.15 -0.15)">
     <use xlink:href="#LinLibertine-38"/>
     <use xlink:href="#LinLibertine-32" x="46.484375"/>
    </g>
   </g>
   <g id="text_74">
    <!-- -03 -->
    <g style="fill: #959595" transform="translate(160.038203 257.109062) scale(0.15 -0.15)">
     <use xlink:href="#LinLibertine-2d"/>
     <use xlink:href="#LinLibertine-30" x="33.789062"/>
     <use xlink:href="#LinLibertine-33" x="80.273438"/>
    </g>
   </g>
   <g id="text_75">
    <!-- 49 -->
    <g style="fill: #959595" transform="translate(186.042135 257.109062) scale(0.15 -0.15)">
     <use xlink:href="#LinLibertine-34"/>
     <use xlink:href="#LinLibertine-39" x="46.484375"/>
    </g>
   </g>
   <g id="text_76">
    <!-- 38 -->
    <g style="fill: #959595" transform="translate(209.511302 257.109062) scale(0.15 -0.15)">
     <use xlink:href="#LinLibertine-33"/>
     <use xlink:href="#LinLibertine-38" x="46.484375"/>
    </g>
   </g>
   <g id="text_77">
    <!-- 60 -->
    <g style="fill: #404040" transform="translate(232.980469 257.109062) scale(0.15 -0.15)">
     <use xlink:href="#LinLibertine-36"/>
     <use xlink:href="#LinLibertine-30" x="46.484375"/>
    </g>
   </g>
   <g id="text_78">
    <!-- 16 -->
    <g style="fill: #959595" transform="translate(256.449635 257.109062) scale(0.15 -0.15)">
     <use xlink:href="#LinLibertine-31"/>
     <use xlink:href="#LinLibertine-36" x="46.484375"/>
    </g>
   </g>
   <g id="text_79">
    <!-- -03 -->
    <g style="fill: #959595" transform="translate(277.384036 257.109062) scale(0.15 -0.15)">
     <use xlink:href="#LinLibertine-2d"/>
     <use xlink:href="#LinLibertine-30" x="33.789062"/>
     <use xlink:href="#LinLibertine-33" x="80.273438"/>
    </g>
   </g>
   <g id="text_80">
    <!-- 09 -->
    <g style="fill: #959595" transform="translate(68.696302 280.578229) scale(0.15 -0.15)">
     <use xlink:href="#LinLibertine-30"/>
     <use xlink:href="#LinLibertine-39" x="46.484375"/>
    </g>
   </g>
   <g id="text_81">
    <!-- -28 -->
    <g style="fill: #959595" transform="translate(89.630703 280.578229) scale(0.15 -0.15)">
     <use xlink:href="#LinLibertine-2d"/>
     <use xlink:href="#LinLibertine-32" x="33.789062"/>
     <use xlink:href="#LinLibertine-38" x="80.273438"/>
    </g>
   </g>
   <g id="text_82">
    <!-- 26 -->
    <g style="fill: #959595" transform="translate(115.634635 280.578229) scale(0.15 -0.15)">
     <use xlink:href="#LinLibertine-32"/>
     <use xlink:href="#LinLibertine-36" x="46.484375"/>
    </g>
   </g>
   <g id="text_83">
    <!-- 98 -->
    <g style="fill: #404040" transform="translate(139.103802 280.578229) scale(0.15 -0.15)">
     <use xlink:href="#LinLibertine-39"/>
     <use xlink:href="#LinLibertine-38" x="46.484375"/>
    </g>
   </g>
   <g id="text_84">
    <!-- -02 -->
    <g style="fill: #959595" transform="translate(160.038203 280.578229) scale(0.15 -0.15)">
     <use xlink:href="#LinLibertine-2d"/>
     <use xlink:href="#LinLibertine-30" x="33.789062"/>
     <use xlink:href="#LinLibertine-32" x="80.273438"/>
    </g>
   </g>
   <g id="text_85">
    <!-- 58 -->
    <g style="fill: #404040" transform="translate(186.042135 280.578229) scale(0.15 -0.15)">
     <use xlink:href="#LinLibertine-35"/>
     <use xlink:href="#LinLibertine-38" x="46.484375"/>
    </g>
   </g>
   <g id="text_86">
    <!-- 47 -->
    <g style="fill: #959595" transform="translate(209.511302 280.578229) scale(0.15 -0.15)">
     <use xlink:href="#LinLibertine-34"/>
     <use xlink:href="#LinLibertine-37" x="46.484375"/>
    </g>
   </g>
   <g id="text_87">
    <!-- 51 -->
    <g style="fill: #404040" transform="translate(232.980469 280.578229) scale(0.15 -0.15)">
     <use xlink:href="#LinLibertine-35"/>
     <use xlink:href="#LinLibertine-31" x="46.484375"/>
    </g>
   </g>
   <g id="text_88">
    <!-- 20 -->
    <g style="fill: #959595" transform="translate(256.449635 280.578229) scale(0.15 -0.15)">
     <use xlink:href="#LinLibertine-32"/>
     <use xlink:href="#LinLibertine-30" x="46.484375"/>
    </g>
   </g>
   <g id="text_89">
    <!-- -02 -->
    <g style="fill: #959595" transform="translate(277.384036 280.578229) scale(0.15 -0.15)">
     <use xlink:href="#LinLibertine-2d"/>
     <use xlink:href="#LinLibertine-30" x="33.789062"/>
     <use xlink:href="#LinLibertine-32" x="80.273438"/>
    </g>
   </g>
   <g id="text_90">
    <!-- 85 -->
    <g style="fill: #404040" transform="translate(303.387969 280.578229) scale(0.15 -0.15)">
     <use xlink:href="#LinLibertine-38"/>
     <use xlink:href="#LinLibertine-35" x="46.484375"/>
    </g>
   </g>
  </g>
 </g>
 <defs>
  <clipPath id="pb4deff1967">
   <rect x="63.934375" y="7.2" width="281.63" height="281.63"/>
  </clipPath>
 </defs>
</svg>
