<?xml version="1.0" encoding="utf-8" standalone="no"?>
<!DOCTYPE svg PUBLIC "-//W3C//DTD SVG 1.1//EN"
  "http://www.w3.org/Graphics/SVG/1.1/DTD/svg11.dtd">
<svg xmlns:xlink="http://www.w3.org/1999/xlink" width="280.577344pt" height="280.577344pt" viewBox="0 0 280.577344 280.577344" xmlns="http://www.w3.org/2000/svg" version="1.1">
 <metadata>
  <rdf:RDF xmlns:dc="http://purl.org/dc/elements/1.1/" xmlns:cc="http://creativecommons.org/ns#" xmlns:rdf="http://www.w3.org/1999/02/22-rdf-syntax-ns#">
   <cc:Work>
    <dc:type rdf:resource="http://purl.org/dc/dcmitype/StillImage"/>
    <dc:date>2024-06-04T12:04:22.653551</dc:date>
    <dc:format>image/svg+xml</dc:format>
    <dc:creator>
     <cc:Agent>
      <dc:title>Matplotlib v3.8.4, https://matplotlib.org/</dc:title>
     </cc:Agent>
    </dc:creator>
   </cc:Work>
  </rdf:RDF>
 </metadata>
 <defs>
  <style type="text/css">*{stroke-linejoin: round; stroke-linecap: butt}</style>
 </defs>
 <g id="figure_1">
  <g id="patch_1">
   <path d="M 0 280.577344 
L 280.577344 280.577344 
L 280.577344 0 
L 0 0 
z
" style="fill: #ffffff"/>
  </g>
  <g id="axes_1">
   <g id="patch_2">
    <path d="M 50.877344 229.7 
L 273.377344 229.7 
L 273.377344 7.2 
L 50.877344 7.2 
z
" style="fill: #ffffff"/>
   </g>
   <g id="QuadMesh_1">
    <path d="M 50.877344 7.2 
L 75.599566 7.2 
L 75.599566 31.922222 
L 50.877344 31.922222 
L 50.877344 7.2 
" clip-path="url(#p143ffc828f)" style="fill: none"/>
    <path d="M 75.599566 7.2 
L 100.321788 7.2 
L 100.321788 31.922222 
L 75.599566 31.922222 
L 75.599566 7.2 
" clip-path="url(#p143ffc828f)" style="fill: none"/>
    <path d="M 100.321788 7.2 
L 125.04401 7.2 
L 125.04401 31.922222 
L 100.321788 31.922222 
L 100.321788 7.2 
" clip-path="url(#p143ffc828f)" style="fill: none"/>
    <path d="M 125.04401 7.2 
L 149.766233 7.2 
L 149.766233 31.922222 
L 125.04401 31.922222 
L 125.04401 7.2 
" clip-path="url(#p143ffc828f)" style="fill: none"/>
    <path d="M 149.766233 7.2 
L 174.488455 7.2 
L 174.488455 31.922222 
L 149.766233 31.922222 
L 149.766233 7.2 
" clip-path="url(#p143ffc828f)" style="fill: none"/>
    <path d="M 174.488455 7.2 
L 199.210677 7.2 
L 199.210677 31.922222 
L 174.488455 31.922222 
L 174.488455 7.2 
" clip-path="url(#p143ffc828f)" style="fill: none"/>
    <path d="M 199.210677 7.2 
L 223.932899 7.2 
L 223.932899 31.922222 
L 199.210677 31.922222 
L 199.210677 7.2 
" clip-path="url(#p143ffc828f)" style="fill: none"/>
    <path d="M 223.932899 7.2 
L 248.655122 7.2 
L 248.655122 31.922222 
L 223.932899 31.922222 
L 223.932899 7.2 
" clip-path="url(#p143ffc828f)" style="fill: none"/>
    <path d="M 248.655122 7.2 
L 273.377344 7.2 
L 273.377344 31.922222 
L 248.655122 31.922222 
L 248.655122 7.2 
" clip-path="url(#p143ffc828f)" style="fill: none"/>
    <path d="M 50.877344 31.922222 
L 75.599566 31.922222 
L 75.599566 56.644444 
L 50.877344 56.644444 
L 50.877344 31.922222 
" clip-path="url(#p143ffc828f)" style="fill: #f49a7b"/>
    <path d="M 75.599566 31.922222 
L 100.321788 31.922222 
L 100.321788 56.644444 
L 75.599566 56.644444 
L 75.599566 31.922222 
" clip-path="url(#p143ffc828f)" style="fill: none"/>
    <path d="M 100.321788 31.922222 
L 125.04401 31.922222 
L 125.04401 56.644444 
L 100.321788 56.644444 
L 100.321788 31.922222 
" clip-path="url(#p143ffc828f)" style="fill: none"/>
    <path d="M 125.04401 31.922222 
L 149.766233 31.922222 
L 149.766233 56.644444 
L 125.04401 56.644444 
L 125.04401 31.922222 
" clip-path="url(#p143ffc828f)" style="fill: none"/>
    <path d="M 149.766233 31.922222 
L 174.488455 31.922222 
L 174.488455 56.644444 
L 149.766233 56.644444 
L 149.766233 31.922222 
" clip-path="url(#p143ffc828f)" style="fill: none"/>
    <path d="M 174.488455 31.922222 
L 199.210677 31.922222 
L 199.210677 56.644444 
L 174.488455 56.644444 
L 174.488455 31.922222 
" clip-path="url(#p143ffc828f)" style="fill: none"/>
    <path d="M 199.210677 31.922222 
L 223.932899 31.922222 
L 223.932899 56.644444 
L 199.210677 56.644444 
L 199.210677 31.922222 
" clip-path="url(#p143ffc828f)" style="fill: none"/>
    <path d="M 223.932899 31.922222 
L 248.655122 31.922222 
L 248.655122 56.644444 
L 223.932899 56.644444 
L 223.932899 31.922222 
" clip-path="url(#p143ffc828f)" style="fill: none"/>
    <path d="M 248.655122 31.922222 
L 273.377344 31.922222 
L 273.377344 56.644444 
L 248.655122 56.644444 
L 248.655122 31.922222 
" clip-path="url(#p143ffc828f)" style="fill: none"/>
    <path d="M 50.877344 56.644444 
L 75.599566 56.644444 
L 75.599566 81.366667 
L 50.877344 81.366667 
L 50.877344 56.644444 
" clip-path="url(#p143ffc828f)" style="fill: #f4c5ad"/>
    <path d="M 75.599566 56.644444 
L 100.321788 56.644444 
L 100.321788 81.366667 
L 75.599566 81.366667 
L 75.599566 56.644444 
" clip-path="url(#p143ffc828f)" style="fill: #ef886b"/>
    <path d="M 100.321788 56.644444 
L 125.04401 56.644444 
L 125.04401 81.366667 
L 100.321788 81.366667 
L 100.321788 56.644444 
" clip-path="url(#p143ffc828f)" style="fill: none"/>
    <path d="M 125.04401 56.644444 
L 149.766233 56.644444 
L 149.766233 81.366667 
L 125.04401 81.366667 
L 125.04401 56.644444 
" clip-path="url(#p143ffc828f)" style="fill: none"/>
    <path d="M 149.766233 56.644444 
L 174.488455 56.644444 
L 174.488455 81.366667 
L 149.766233 81.366667 
L 149.766233 56.644444 
" clip-path="url(#p143ffc828f)" style="fill: none"/>
    <path d="M 174.488455 56.644444 
L 199.210677 56.644444 
L 199.210677 81.366667 
L 174.488455 81.366667 
L 174.488455 56.644444 
" clip-path="url(#p143ffc828f)" style="fill: none"/>
    <path d="M 199.210677 56.644444 
L 223.932899 56.644444 
L 223.932899 81.366667 
L 199.210677 81.366667 
L 199.210677 56.644444 
" clip-path="url(#p143ffc828f)" style="fill: none"/>
    <path d="M 223.932899 56.644444 
L 248.655122 56.644444 
L 248.655122 81.366667 
L 223.932899 81.366667 
L 223.932899 56.644444 
" clip-path="url(#p143ffc828f)" style="fill: none"/>
    <path d="M 248.655122 56.644444 
L 273.377344 56.644444 
L 273.377344 81.366667 
L 248.655122 81.366667 
L 248.655122 56.644444 
" clip-path="url(#p143ffc828f)" style="fill: none"/>
    <path d="M 50.877344 81.366667 
L 75.599566 81.366667 
L 75.599566 106.088889 
L 50.877344 106.088889 
L 50.877344 81.366667 
" clip-path="url(#p143ffc828f)" style="fill: #f1cdba"/>
    <path d="M 75.599566 81.366667 
L 100.321788 81.366667 
L 100.321788 106.088889 
L 75.599566 106.088889 
L 75.599566 81.366667 
" clip-path="url(#p143ffc828f)" style="fill: #f59d7e"/>
    <path d="M 100.321788 81.366667 
L 125.04401 81.366667 
L 125.04401 106.088889 
L 100.321788 106.088889 
L 100.321788 81.366667 
" clip-path="url(#p143ffc828f)" style="fill: #ee8669"/>
    <path d="M 125.04401 81.366667 
L 149.766233 81.366667 
L 149.766233 106.088889 
L 125.04401 106.088889 
L 125.04401 81.366667 
" clip-path="url(#p143ffc828f)" style="fill: none"/>
    <path d="M 149.766233 81.366667 
L 174.488455 81.366667 
L 174.488455 106.088889 
L 149.766233 106.088889 
L 149.766233 81.366667 
" clip-path="url(#p143ffc828f)" style="fill: none"/>
    <path d="M 174.488455 81.366667 
L 199.210677 81.366667 
L 199.210677 106.088889 
L 174.488455 106.088889 
L 174.488455 81.366667 
" clip-path="url(#p143ffc828f)" style="fill: none"/>
    <path d="M 199.210677 81.366667 
L 223.932899 81.366667 
L 223.932899 106.088889 
L 199.210677 106.088889 
L 199.210677 81.366667 
" clip-path="url(#p143ffc828f)" style="fill: none"/>
    <path d="M 223.932899 81.366667 
L 248.655122 81.366667 
L 248.655122 106.088889 
L 223.932899 106.088889 
L 223.932899 81.366667 
" clip-path="url(#p143ffc828f)" style="fill: none"/>
    <path d="M 248.655122 81.366667 
L 273.377344 81.366667 
L 273.377344 106.088889 
L 248.655122 106.088889 
L 248.655122 81.366667 
" clip-path="url(#p143ffc828f)" style="fill: none"/>
    <path d="M 50.877344 106.088889 
L 75.599566 106.088889 
L 75.599566 130.811111 
L 50.877344 130.811111 
L 50.877344 106.088889 
" clip-path="url(#p143ffc828f)" style="fill: #ead4c8"/>
    <path d="M 75.599566 106.088889 
L 100.321788 106.088889 
L 100.321788 130.811111 
L 75.599566 130.811111 
L 75.599566 106.088889 
" clip-path="url(#p143ffc828f)" style="fill: #f5c4ac"/>
    <path d="M 100.321788 106.088889 
L 125.04401 106.088889 
L 125.04401 130.811111 
L 100.321788 130.811111 
L 100.321788 106.088889 
" clip-path="url(#p143ffc828f)" style="fill: #f1ccb8"/>
    <path d="M 125.04401 106.088889 
L 149.766233 106.088889 
L 149.766233 130.811111 
L 125.04401 130.811111 
L 125.04401 106.088889 
" clip-path="url(#p143ffc828f)" style="fill: #edd1c2"/>
    <path d="M 149.766233 106.088889 
L 174.488455 106.088889 
L 174.488455 130.811111 
L 149.766233 130.811111 
L 149.766233 106.088889 
" clip-path="url(#p143ffc828f)" style="fill: none"/>
    <path d="M 174.488455 106.088889 
L 199.210677 106.088889 
L 199.210677 130.811111 
L 174.488455 130.811111 
L 174.488455 106.088889 
" clip-path="url(#p143ffc828f)" style="fill: none"/>
    <path d="M 199.210677 106.088889 
L 223.932899 106.088889 
L 223.932899 130.811111 
L 199.210677 130.811111 
L 199.210677 106.088889 
" clip-path="url(#p143ffc828f)" style="fill: none"/>
    <path d="M 223.932899 106.088889 
L 248.655122 106.088889 
L 248.655122 130.811111 
L 223.932899 130.811111 
L 223.932899 106.088889 
" clip-path="url(#p143ffc828f)" style="fill: none"/>
    <path d="M 248.655122 106.088889 
L 273.377344 106.088889 
L 273.377344 130.811111 
L 248.655122 130.811111 
L 248.655122 106.088889 
" clip-path="url(#p143ffc828f)" style="fill: none"/>
    <path d="M 50.877344 130.811111 
L 75.599566 130.811111 
L 75.599566 155.533333 
L 50.877344 155.533333 
L 50.877344 130.811111 
" clip-path="url(#p143ffc828f)" style="fill: #e8d6cc"/>
    <path d="M 75.599566 130.811111 
L 100.321788 130.811111 
L 100.321788 155.533333 
L 75.599566 155.533333 
L 75.599566 130.811111 
" clip-path="url(#p143ffc828f)" style="fill: #f1ccb8"/>
    <path d="M 100.321788 130.811111 
L 125.04401 130.811111 
L 125.04401 155.533333 
L 100.321788 155.533333 
L 100.321788 130.811111 
" clip-path="url(#p143ffc828f)" style="fill: #edd1c2"/>
    <path d="M 125.04401 130.811111 
L 149.766233 130.811111 
L 149.766233 155.533333 
L 125.04401 155.533333 
L 125.04401 130.811111 
" clip-path="url(#p143ffc828f)" style="fill: #e4d9d2"/>
    <path d="M 149.766233 130.811111 
L 174.488455 130.811111 
L 174.488455 155.533333 
L 149.766233 155.533333 
L 149.766233 130.811111 
" clip-path="url(#p143ffc828f)" style="fill: #cdd9ec"/>
    <path d="M 174.488455 130.811111 
L 199.210677 130.811111 
L 199.210677 155.533333 
L 174.488455 155.533333 
L 174.488455 130.811111 
" clip-path="url(#p143ffc828f)" style="fill: none"/>
    <path d="M 199.210677 130.811111 
L 223.932899 130.811111 
L 223.932899 155.533333 
L 199.210677 155.533333 
L 199.210677 130.811111 
" clip-path="url(#p143ffc828f)" style="fill: none"/>
    <path d="M 223.932899 130.811111 
L 248.655122 130.811111 
L 248.655122 155.533333 
L 223.932899 155.533333 
L 223.932899 130.811111 
" clip-path="url(#p143ffc828f)" style="fill: none"/>
    <path d="M 248.655122 130.811111 
L 273.377344 130.811111 
L 273.377344 155.533333 
L 248.655122 155.533333 
L 248.655122 130.811111 
" clip-path="url(#p143ffc828f)" style="fill: none"/>
    <path d="M 50.877344 155.533333 
L 75.599566 155.533333 
L 75.599566 180.255556 
L 50.877344 180.255556 
L 50.877344 155.533333 
" clip-path="url(#p143ffc828f)" style="fill: #f7ba9f"/>
    <path d="M 75.599566 155.533333 
L 100.321788 155.533333 
L 100.321788 180.255556 
L 75.599566 180.255556 
L 75.599566 155.533333 
" clip-path="url(#p143ffc828f)" style="fill: #e7d7ce"/>
    <path d="M 100.321788 155.533333 
L 125.04401 155.533333 
L 125.04401 180.255556 
L 100.321788 180.255556 
L 100.321788 155.533333 
" clip-path="url(#p143ffc828f)" style="fill: #dedcdb"/>
    <path d="M 125.04401 155.533333 
L 149.766233 155.533333 
L 149.766233 180.255556 
L 125.04401 180.255556 
L 125.04401 155.533333 
" clip-path="url(#p143ffc828f)" style="fill: #d5dbe5"/>
    <path d="M 149.766233 155.533333 
L 174.488455 155.533333 
L 174.488455 180.255556 
L 149.766233 180.255556 
L 149.766233 155.533333 
" clip-path="url(#p143ffc828f)" style="fill: #f39577"/>
    <path d="M 174.488455 155.533333 
L 199.210677 155.533333 
L 199.210677 180.255556 
L 174.488455 180.255556 
L 174.488455 155.533333 
" clip-path="url(#p143ffc828f)" style="fill: #d4dbe6"/>
    <path d="M 199.210677 155.533333 
L 223.932899 155.533333 
L 223.932899 180.255556 
L 199.210677 180.255556 
L 199.210677 155.533333 
" clip-path="url(#p143ffc828f)" style="fill: none"/>
    <path d="M 223.932899 155.533333 
L 248.655122 155.533333 
L 248.655122 180.255556 
L 223.932899 180.255556 
L 223.932899 155.533333 
" clip-path="url(#p143ffc828f)" style="fill: none"/>
    <path d="M 248.655122 155.533333 
L 273.377344 155.533333 
L 273.377344 180.255556 
L 248.655122 180.255556 
L 248.655122 155.533333 
" clip-path="url(#p143ffc828f)" style="fill: none"/>
    <path d="M 50.877344 180.255556 
L 75.599566 180.255556 
L 75.599566 204.977778 
L 50.877344 204.977778 
L 50.877344 180.255556 
" clip-path="url(#p143ffc828f)" style="fill: #d8dce2"/>
    <path d="M 75.599566 180.255556 
L 100.321788 180.255556 
L 100.321788 204.977778 
L 75.599566 204.977778 
L 75.599566 180.255556 
" clip-path="url(#p143ffc828f)" style="fill: #dbdcde"/>
    <path d="M 100.321788 180.255556 
L 125.04401 180.255556 
L 125.04401 204.977778 
L 100.321788 204.977778 
L 100.321788 180.255556 
" clip-path="url(#p143ffc828f)" style="fill: #d8dce2"/>
    <path d="M 125.04401 180.255556 
L 149.766233 180.255556 
L 149.766233 204.977778 
L 125.04401 204.977778 
L 125.04401 180.255556 
" clip-path="url(#p143ffc828f)" style="fill: #dddcdc"/>
    <path d="M 149.766233 180.255556 
L 174.488455 180.255556 
L 174.488455 204.977778 
L 149.766233 204.977778 
L 149.766233 180.255556 
" clip-path="url(#p143ffc828f)" style="fill: #d3dbe7"/>
    <path d="M 174.488455 180.255556 
L 199.210677 180.255556 
L 199.210677 204.977778 
L 174.488455 204.977778 
L 174.488455 180.255556 
" clip-path="url(#p143ffc828f)" style="fill: #d7dce3"/>
    <path d="M 199.210677 180.255556 
L 223.932899 180.255556 
L 223.932899 204.977778 
L 199.210677 204.977778 
L 199.210677 180.255556 
" clip-path="url(#p143ffc828f)" style="fill: #e0dbd8"/>
    <path d="M 223.932899 180.255556 
L 248.655122 180.255556 
L 248.655122 204.977778 
L 223.932899 204.977778 
L 223.932899 180.255556 
" clip-path="url(#p143ffc828f)" style="fill: none"/>
    <path d="M 248.655122 180.255556 
L 273.377344 180.255556 
L 273.377344 204.977778 
L 248.655122 204.977778 
L 248.655122 180.255556 
" clip-path="url(#p143ffc828f)" style="fill: none"/>
    <path d="M 50.877344 204.977778 
L 75.599566 204.977778 
L 75.599566 229.7 
L 50.877344 229.7 
L 50.877344 204.977778 
" clip-path="url(#p143ffc828f)" style="fill: #7da0f9"/>
    <path d="M 75.599566 204.977778 
L 100.321788 204.977778 
L 100.321788 229.7 
L 75.599566 229.7 
L 75.599566 204.977778 
" clip-path="url(#p143ffc828f)" style="fill: #b5cdfa"/>
    <path d="M 100.321788 204.977778 
L 125.04401 204.977778 
L 125.04401 229.7 
L 100.321788 229.7 
L 100.321788 204.977778 
" clip-path="url(#p143ffc828f)" style="fill: #c9d7f0"/>
    <path d="M 125.04401 204.977778 
L 149.766233 204.977778 
L 149.766233 229.7 
L 125.04401 229.7 
L 125.04401 204.977778 
" clip-path="url(#p143ffc828f)" style="fill: #cfdaea"/>
    <path d="M 149.766233 204.977778 
L 174.488455 204.977778 
L 174.488455 229.7 
L 149.766233 229.7 
L 149.766233 204.977778 
" clip-path="url(#p143ffc828f)" style="fill: #d3dbe7"/>
    <path d="M 174.488455 204.977778 
L 199.210677 204.977778 
L 199.210677 229.7 
L 174.488455 229.7 
L 174.488455 204.977778 
" clip-path="url(#p143ffc828f)" style="fill: #cfdaea"/>
    <path d="M 199.210677 204.977778 
L 223.932899 204.977778 
L 223.932899 229.7 
L 199.210677 229.7 
L 199.210677 204.977778 
" clip-path="url(#p143ffc828f)" style="fill: #d1dae9"/>
    <path d="M 223.932899 204.977778 
L 248.655122 204.977778 
L 248.655122 229.7 
L 223.932899 229.7 
L 223.932899 204.977778 
" clip-path="url(#p143ffc828f)" style="fill: #e7745b"/>
    <path d="M 248.655122 204.977778 
L 273.377344 204.977778 
L 273.377344 229.7 
L 248.655122 229.7 
L 248.655122 204.977778 
" clip-path="url(#p143ffc828f)" style="fill: none"/>
   </g>
   <g id="matplotlib.axis_1">
    <g id="xtick_1">
     <g id="line2d_1">
      <defs>
       <path id="m68798e9809" d="M 0 0 
L 0 3.5 
" style="stroke: #000000; stroke-width: 0.8"/>
      </defs>
      <g>
       <use xlink:href="#m68798e9809" x="63.238455" y="229.7" style="stroke: #000000; stroke-width: 0.8"/>
      </g>
     </g>
     <g id="text_1">
      <!-- NS -->
      <g transform="translate(66.84197 255.874219) rotate(-90) scale(0.15 -0.15)">
       <defs>
        <path id="TimesNewRomanPSMT-4e" d="M -84 4238 
L 1066 4238 
L 3656 1059 
L 3656 3503 
Q 3656 3894 3569 3991 
Q 3453 4122 3203 4122 
L 3056 4122 
L 3056 4238 
L 4531 4238 
L 4531 4122 
L 4381 4122 
Q 4113 4122 4000 3959 
Q 3931 3859 3931 3503 
L 3931 -69 
L 3819 -69 
L 1025 3344 
L 1025 734 
Q 1025 344 1109 247 
Q 1228 116 1475 116 
L 1625 116 
L 1625 0 
L 150 0 
L 150 116 
L 297 116 
Q 569 116 681 278 
Q 750 378 750 734 
L 750 3681 
Q 566 3897 470 3965 
Q 375 4034 191 4094 
Q 100 4122 -84 4122 
L -84 4238 
z
" transform="scale(0.015625)"/>
        <path id="TimesNewRomanPSMT-53" d="M 2934 4334 
L 2934 2869 
L 2819 2869 
Q 2763 3291 2617 3541 
Q 2472 3791 2203 3937 
Q 1934 4084 1647 4084 
Q 1322 4084 1109 3886 
Q 897 3688 897 3434 
Q 897 3241 1031 3081 
Q 1225 2847 1953 2456 
Q 2547 2138 2764 1967 
Q 2981 1797 3098 1565 
Q 3216 1334 3216 1081 
Q 3216 600 2842 251 
Q 2469 -97 1881 -97 
Q 1697 -97 1534 -69 
Q 1438 -53 1133 45 
Q 828 144 747 144 
Q 669 144 623 97 
Q 578 50 556 -97 
L 441 -97 
L 441 1356 
L 556 1356 
Q 638 900 775 673 
Q 913 447 1195 297 
Q 1478 147 1816 147 
Q 2206 147 2432 353 
Q 2659 559 2659 841 
Q 2659 997 2573 1156 
Q 2488 1316 2306 1453 
Q 2184 1547 1640 1851 
Q 1097 2156 867 2337 
Q 638 2519 519 2737 
Q 400 2956 400 3219 
Q 400 3675 750 4004 
Q 1100 4334 1641 4334 
Q 1978 4334 2356 4169 
Q 2531 4091 2603 4091 
Q 2684 4091 2736 4139 
Q 2788 4188 2819 4334 
L 2934 4334 
z
" transform="scale(0.015625)"/>
       </defs>
       <use xlink:href="#TimesNewRomanPSMT-4e"/>
       <use xlink:href="#TimesNewRomanPSMT-53" x="72.216797"/>
      </g>
     </g>
    </g>
    <g id="xtick_2">
     <g id="line2d_2">
      <g>
       <use xlink:href="#m68798e9809" x="87.960677" y="229.7" style="stroke: #000000; stroke-width: 0.8"/>
      </g>
     </g>
     <g id="text_2">
      <!-- NF -->
      <g transform="translate(91.564193 255.874219) rotate(-90) scale(0.15 -0.15)">
       <defs>
        <path id="TimesNewRomanPSMT-46" d="M 1309 4006 
L 1309 2341 
L 2081 2341 
Q 2347 2341 2470 2458 
Q 2594 2575 2634 2922 
L 2750 2922 
L 2750 1488 
L 2634 1488 
Q 2631 1734 2570 1850 
Q 2509 1966 2401 2023 
Q 2294 2081 2081 2081 
L 1309 2081 
L 1309 750 
Q 1309 428 1350 325 
Q 1381 247 1481 191 
Q 1619 116 1769 116 
L 1922 116 
L 1922 0 
L 103 0 
L 103 116 
L 253 116 
Q 516 116 634 269 
Q 709 369 709 750 
L 709 3488 
Q 709 3809 669 3913 
Q 638 3991 541 4047 
Q 406 4122 253 4122 
L 103 4122 
L 103 4238 
L 3256 4238 
L 3297 3306 
L 3188 3306 
Q 3106 3603 2998 3742 
Q 2891 3881 2733 3943 
Q 2575 4006 2244 4006 
L 1309 4006 
z
" transform="scale(0.015625)"/>
       </defs>
       <use xlink:href="#TimesNewRomanPSMT-4e"/>
       <use xlink:href="#TimesNewRomanPSMT-46" x="72.216797"/>
      </g>
     </g>
    </g>
    <g id="xtick_3">
     <g id="line2d_3">
      <g>
       <use xlink:href="#m68798e9809" x="112.682899" y="229.7" style="stroke: #000000; stroke-width: 0.8"/>
      </g>
     </g>
     <g id="text_3">
      <!-- LA -->
      <g transform="translate(116.286415 256.694531) rotate(-90) scale(0.15 -0.15)">
       <defs>
        <path id="TimesNewRomanPSMT-4c" d="M 3669 1172 
L 3772 1150 
L 3409 0 
L 128 0 
L 128 116 
L 288 116 
Q 556 116 672 291 
Q 738 391 738 753 
L 738 3488 
Q 738 3884 650 3984 
Q 528 4122 288 4122 
L 128 4122 
L 128 4238 
L 2047 4238 
L 2047 4122 
Q 1709 4125 1573 4059 
Q 1438 3994 1388 3894 
Q 1338 3794 1338 3416 
L 1338 753 
Q 1338 494 1388 397 
Q 1425 331 1503 300 
Q 1581 269 1991 269 
L 2300 269 
Q 2788 269 2984 341 
Q 3181 413 3343 595 
Q 3506 778 3669 1172 
z
" transform="scale(0.015625)"/>
        <path id="TimesNewRomanPSMT-41" d="M 2928 1419 
L 1288 1419 
L 1000 750 
Q 894 503 894 381 
Q 894 284 986 211 
Q 1078 138 1384 116 
L 1384 0 
L 50 0 
L 50 116 
Q 316 163 394 238 
Q 553 388 747 847 
L 2238 4334 
L 2347 4334 
L 3822 809 
Q 4000 384 4145 257 
Q 4291 131 4550 116 
L 4550 0 
L 2878 0 
L 2878 116 
Q 3131 128 3220 200 
Q 3309 272 3309 375 
Q 3309 513 3184 809 
L 2928 1419 
z
M 2841 1650 
L 2122 3363 
L 1384 1650 
L 2841 1650 
z
" transform="scale(0.015625)"/>
       </defs>
       <use xlink:href="#TimesNewRomanPSMT-4c"/>
       <use xlink:href="#TimesNewRomanPSMT-41" x="61.083984"/>
      </g>
     </g>
    </g>
    <g id="xtick_4">
     <g id="line2d_4">
      <g>
       <use xlink:href="#m68798e9809" x="137.405122" y="229.7" style="stroke: #000000; stroke-width: 0.8"/>
      </g>
     </g>
     <g id="text_4">
      <!-- LD -->
      <g transform="translate(141.008637 256.694531) rotate(-90) scale(0.15 -0.15)">
       <defs>
        <path id="TimesNewRomanPSMT-44" d="M 109 0 
L 109 116 
L 269 116 
Q 538 116 650 288 
Q 719 391 719 750 
L 719 3488 
Q 719 3884 631 3984 
Q 509 4122 269 4122 
L 109 4122 
L 109 4238 
L 1834 4238 
Q 2784 4238 3279 4022 
Q 3775 3806 4076 3303 
Q 4378 2800 4378 2141 
Q 4378 1256 3841 663 
Q 3238 0 2003 0 
L 109 0 
z
M 1319 306 
Q 1716 219 1984 219 
Q 2709 219 3187 728 
Q 3666 1238 3666 2109 
Q 3666 2988 3187 3494 
Q 2709 4000 1959 4000 
Q 1678 4000 1319 3909 
L 1319 306 
z
" transform="scale(0.015625)"/>
       </defs>
       <use xlink:href="#TimesNewRomanPSMT-4c"/>
       <use xlink:href="#TimesNewRomanPSMT-44" x="61.083984"/>
      </g>
     </g>
    </g>
    <g id="xtick_5">
     <g id="line2d_5">
      <g>
       <use xlink:href="#m68798e9809" x="162.127344" y="229.7" style="stroke: #000000; stroke-width: 0.8"/>
      </g>
     </g>
     <g id="text_5">
      <!-- LT -->
      <g transform="translate(165.730859 253.654687) rotate(-90) scale(0.15 -0.15)">
       <defs>
        <path id="TimesNewRomanPSMT-54" d="M 3703 4238 
L 3750 3244 
L 3631 3244 
Q 3597 3506 3538 3619 
Q 3441 3800 3280 3886 
Q 3119 3972 2856 3972 
L 2259 3972 
L 2259 734 
Q 2259 344 2344 247 
Q 2463 116 2709 116 
L 2856 116 
L 2856 0 
L 1059 0 
L 1059 116 
L 1209 116 
Q 1478 116 1591 278 
Q 1659 378 1659 734 
L 1659 3972 
L 1150 3972 
Q 853 3972 728 3928 
Q 566 3869 450 3700 
Q 334 3531 313 3244 
L 194 3244 
L 244 4238 
L 3703 4238 
z
" transform="scale(0.015625)"/>
       </defs>
       <use xlink:href="#TimesNewRomanPSMT-4c"/>
       <use xlink:href="#TimesNewRomanPSMT-54" x="51.958984"/>
      </g>
     </g>
    </g>
    <g id="xtick_6">
     <g id="line2d_6">
      <g>
       <use xlink:href="#m68798e9809" x="186.849566" y="229.7" style="stroke: #000000; stroke-width: 0.8"/>
      </g>
     </g>
     <g id="text_6">
      <!-- AGE -->
      <g transform="translate(190.453082 267.527344) rotate(-90) scale(0.15 -0.15)">
       <defs>
        <path id="TimesNewRomanPSMT-47" d="M 3928 4334 
L 4038 2997 
L 3928 2997 
Q 3763 3497 3500 3750 
Q 3122 4116 2528 4116 
Q 1719 4116 1297 3475 
Q 944 2934 944 2188 
Q 944 1581 1178 1081 
Q 1413 581 1792 348 
Q 2172 116 2572 116 
Q 2806 116 3025 175 
Q 3244 234 3447 350 
L 3447 1575 
Q 3447 1894 3398 1992 
Q 3350 2091 3248 2142 
Q 3147 2194 2891 2194 
L 2891 2313 
L 4531 2313 
L 4531 2194 
L 4453 2194 
Q 4209 2194 4119 2031 
Q 4056 1916 4056 1575 
L 4056 278 
Q 3697 84 3347 -6 
Q 2997 -97 2569 -97 
Q 1341 -97 703 691 
Q 225 1281 225 2053 
Q 225 2613 494 3125 
Q 813 3734 1369 4063 
Q 1834 4334 2469 4334 
Q 2700 4334 2889 4296 
Q 3078 4259 3425 4131 
Q 3600 4066 3659 4066 
Q 3719 4066 3761 4120 
Q 3803 4175 3813 4334 
L 3928 4334 
z
" transform="scale(0.015625)"/>
        <path id="TimesNewRomanPSMT-45" d="M 1338 4006 
L 1338 2331 
L 2269 2331 
Q 2631 2331 2753 2441 
Q 2916 2584 2934 2947 
L 3050 2947 
L 3050 1472 
L 2934 1472 
Q 2891 1781 2847 1869 
Q 2791 1978 2662 2040 
Q 2534 2103 2269 2103 
L 1338 2103 
L 1338 706 
Q 1338 425 1363 364 
Q 1388 303 1450 267 
Q 1513 231 1688 231 
L 2406 231 
Q 2766 231 2928 281 
Q 3091 331 3241 478 
Q 3434 672 3638 1063 
L 3763 1063 
L 3397 0 
L 131 0 
L 131 116 
L 281 116 
Q 431 116 566 188 
Q 666 238 702 338 
Q 738 438 738 747 
L 738 3500 
Q 738 3903 656 3997 
Q 544 4122 281 4122 
L 131 4122 
L 131 4238 
L 3397 4238 
L 3444 3309 
L 3322 3309 
Q 3256 3644 3176 3769 
Q 3097 3894 2941 3959 
Q 2816 4006 2500 4006 
L 1338 4006 
z
" transform="scale(0.015625)"/>
       </defs>
       <use xlink:href="#TimesNewRomanPSMT-41"/>
       <use xlink:href="#TimesNewRomanPSMT-47" x="72.216797"/>
       <use xlink:href="#TimesNewRomanPSMT-45" x="144.433594"/>
      </g>
     </g>
    </g>
    <g id="xtick_7">
     <g id="line2d_7">
      <g>
       <use xlink:href="#m68798e9809" x="211.571788" y="229.7" style="stroke: #000000; stroke-width: 0.8"/>
      </g>
     </g>
     <g id="text_7">
      <!-- NUC -->
      <g transform="translate(215.175304 268.371094) rotate(-90) scale(0.15 -0.15)">
       <defs>
        <path id="TimesNewRomanPSMT-55" d="M 3053 4122 
L 3053 4238 
L 4553 4238 
L 4553 4122 
L 4394 4122 
Q 4144 4122 4009 3913 
Q 3944 3816 3944 3463 
L 3944 1744 
Q 3944 1106 3817 754 
Q 3691 403 3320 151 
Q 2950 -100 2313 -100 
Q 1619 -100 1259 140 
Q 900 381 750 788 
Q 650 1066 650 1831 
L 650 3488 
Q 650 3878 542 4000 
Q 434 4122 194 4122 
L 34 4122 
L 34 4238 
L 1866 4238 
L 1866 4122 
L 1703 4122 
Q 1441 4122 1328 3956 
Q 1250 3844 1250 3488 
L 1250 1641 
Q 1250 1394 1295 1075 
Q 1341 756 1459 578 
Q 1578 400 1801 284 
Q 2025 169 2350 169 
Q 2766 169 3094 350 
Q 3422 531 3542 814 
Q 3663 1097 3663 1772 
L 3663 3488 
Q 3663 3884 3575 3984 
Q 3453 4122 3213 4122 
L 3053 4122 
z
" transform="scale(0.015625)"/>
        <path id="TimesNewRomanPSMT-43" d="M 3853 4334 
L 3950 2894 
L 3853 2894 
Q 3659 3541 3300 3825 
Q 2941 4109 2438 4109 
Q 2016 4109 1675 3895 
Q 1334 3681 1139 3212 
Q 944 2744 944 2047 
Q 944 1472 1128 1050 
Q 1313 628 1683 403 
Q 2053 178 2528 178 
Q 2941 178 3256 354 
Q 3572 531 3950 1056 
L 4047 994 
Q 3728 428 3303 165 
Q 2878 -97 2294 -97 
Q 1241 -97 663 684 
Q 231 1266 231 2053 
Q 231 2688 515 3219 
Q 800 3750 1298 4042 
Q 1797 4334 2388 4334 
Q 2847 4334 3294 4109 
Q 3425 4041 3481 4041 
Q 3566 4041 3628 4100 
Q 3709 4184 3744 4334 
L 3853 4334 
z
" transform="scale(0.015625)"/>
       </defs>
       <use xlink:href="#TimesNewRomanPSMT-4e"/>
       <use xlink:href="#TimesNewRomanPSMT-55" x="72.216797"/>
       <use xlink:href="#TimesNewRomanPSMT-43" x="144.433594"/>
      </g>
     </g>
    </g>
    <g id="xtick_8">
     <g id="line2d_8">
      <g>
       <use xlink:href="#m68798e9809" x="236.29401" y="229.7" style="stroke: #000000; stroke-width: 0.8"/>
      </g>
     </g>
     <g id="text_8">
      <!-- EXP -->
      <g transform="translate(239.897526 265.035937) rotate(-90) scale(0.15 -0.15)">
       <defs>
        <path id="TimesNewRomanPSMT-58" d="M 2613 2347 
L 3522 991 
Q 3900 428 4083 279 
Q 4266 131 4547 116 
L 4547 0 
L 2728 0 
L 2728 116 
Q 2909 119 2997 153 
Q 3063 181 3105 239 
Q 3147 297 3147 356 
Q 3147 428 3119 500 
Q 3097 553 2947 775 
L 2228 1863 
L 1341 725 
Q 1200 544 1172 483 
Q 1144 422 1144 356 
Q 1144 256 1228 190 
Q 1313 125 1550 116 
L 1550 0 
L 47 0 
L 47 116 
Q 206 131 322 181 
Q 516 263 691 400 
Q 866 538 1091 822 
L 2091 2084 
L 1256 3306 
Q 916 3803 678 3958 
Q 441 4113 131 4122 
L 131 4238 
L 2091 4238 
L 2091 4122 
Q 1841 4113 1748 4041 
Q 1656 3969 1656 3881 
Q 1656 3766 1806 3544 
L 2456 2572 
L 3209 3525 
Q 3341 3694 3370 3756 
Q 3400 3819 3400 3884 
Q 3400 3950 3363 4000 
Q 3316 4066 3244 4092 
Q 3172 4119 2947 4122 
L 2947 4238 
L 4450 4238 
L 4450 4122 
Q 4272 4113 4159 4066 
Q 3991 3994 3850 3872 
Q 3709 3750 3453 3422 
L 2613 2347 
z
" transform="scale(0.015625)"/>
        <path id="TimesNewRomanPSMT-50" d="M 1313 1984 
L 1313 750 
Q 1313 350 1400 253 
Q 1519 116 1759 116 
L 1922 116 
L 1922 0 
L 106 0 
L 106 116 
L 266 116 
Q 534 116 650 291 
Q 713 388 713 750 
L 713 3488 
Q 713 3888 628 3984 
Q 506 4122 266 4122 
L 106 4122 
L 106 4238 
L 1659 4238 
Q 2228 4238 2556 4120 
Q 2884 4003 3109 3725 
Q 3334 3447 3334 3066 
Q 3334 2547 2992 2222 
Q 2650 1897 2025 1897 
Q 1872 1897 1694 1919 
Q 1516 1941 1313 1984 
z
M 1313 2163 
Q 1478 2131 1606 2115 
Q 1734 2100 1825 2100 
Q 2150 2100 2386 2351 
Q 2622 2603 2622 3003 
Q 2622 3278 2509 3514 
Q 2397 3750 2190 3867 
Q 1984 3984 1722 3984 
Q 1563 3984 1313 3925 
L 1313 2163 
z
" transform="scale(0.015625)"/>
       </defs>
       <use xlink:href="#TimesNewRomanPSMT-45"/>
       <use xlink:href="#TimesNewRomanPSMT-58" x="61.083984"/>
       <use xlink:href="#TimesNewRomanPSMT-50" x="133.300781"/>
      </g>
     </g>
    </g>
    <g id="xtick_9">
     <g id="line2d_9">
      <g>
       <use xlink:href="#m68798e9809" x="261.016233" y="229.7" style="stroke: #000000; stroke-width: 0.8"/>
      </g>
     </g>
     <g id="text_9">
      <!-- SEXP -->
      <g transform="translate(264.619748 273.377344) rotate(-90) scale(0.15 -0.15)">
       <use xlink:href="#TimesNewRomanPSMT-53"/>
       <use xlink:href="#TimesNewRomanPSMT-45" x="55.615234"/>
       <use xlink:href="#TimesNewRomanPSMT-58" x="116.699219"/>
       <use xlink:href="#TimesNewRomanPSMT-50" x="188.916016"/>
      </g>
     </g>
    </g>
   </g>
   <g id="matplotlib.axis_2">
    <g id="ytick_1">
     <g id="line2d_10">
      <defs>
       <path id="ma92b006077" d="M 0 0 
L -3.5 0 
" style="stroke: #000000; stroke-width: 0.8"/>
      </defs>
      <g>
       <use xlink:href="#ma92b006077" x="50.877344" y="19.561111" style="stroke: #000000; stroke-width: 0.8"/>
      </g>
     </g>
     <g id="text_10">
      <!-- NS -->
      <g transform="translate(24.703125 23.164627) scale(0.15 -0.15)">
       <use xlink:href="#TimesNewRomanPSMT-4e"/>
       <use xlink:href="#TimesNewRomanPSMT-53" x="72.216797"/>
      </g>
     </g>
    </g>
    <g id="ytick_2">
     <g id="line2d_11">
      <g>
       <use xlink:href="#ma92b006077" x="50.877344" y="44.283333" style="stroke: #000000; stroke-width: 0.8"/>
      </g>
     </g>
     <g id="text_11">
      <!-- NF -->
      <g transform="translate(24.703125 47.886849) scale(0.15 -0.15)">
       <use xlink:href="#TimesNewRomanPSMT-4e"/>
       <use xlink:href="#TimesNewRomanPSMT-46" x="72.216797"/>
      </g>
     </g>
    </g>
    <g id="ytick_3">
     <g id="line2d_12">
      <g>
       <use xlink:href="#ma92b006077" x="50.877344" y="69.005556" style="stroke: #000000; stroke-width: 0.8"/>
      </g>
     </g>
     <g id="text_12">
      <!-- LA -->
      <g transform="translate(23.882813 72.609071) scale(0.15 -0.15)">
       <use xlink:href="#TimesNewRomanPSMT-4c"/>
       <use xlink:href="#TimesNewRomanPSMT-41" x="61.083984"/>
      </g>
     </g>
    </g>
    <g id="ytick_4">
     <g id="line2d_13">
      <g>
       <use xlink:href="#ma92b006077" x="50.877344" y="93.727778" style="stroke: #000000; stroke-width: 0.8"/>
      </g>
     </g>
     <g id="text_13">
      <!-- LD -->
      <g transform="translate(23.882813 97.331293) scale(0.15 -0.15)">
       <use xlink:href="#TimesNewRomanPSMT-4c"/>
       <use xlink:href="#TimesNewRomanPSMT-44" x="61.083984"/>
      </g>
     </g>
    </g>
    <g id="ytick_5">
     <g id="line2d_14">
      <g>
       <use xlink:href="#ma92b006077" x="50.877344" y="118.45" style="stroke: #000000; stroke-width: 0.8"/>
      </g>
     </g>
     <g id="text_14">
      <!-- LT -->
      <g transform="translate(26.922656 122.053516) scale(0.15 -0.15)">
       <use xlink:href="#TimesNewRomanPSMT-4c"/>
       <use xlink:href="#TimesNewRomanPSMT-54" x="51.958984"/>
      </g>
     </g>
    </g>
    <g id="ytick_6">
     <g id="line2d_15">
      <g>
       <use xlink:href="#ma92b006077" x="50.877344" y="143.172222" style="stroke: #000000; stroke-width: 0.8"/>
      </g>
     </g>
     <g id="text_15">
      <!-- AGE -->
      <g transform="translate(13.05 146.775738) scale(0.15 -0.15)">
       <use xlink:href="#TimesNewRomanPSMT-41"/>
       <use xlink:href="#TimesNewRomanPSMT-47" x="72.216797"/>
       <use xlink:href="#TimesNewRomanPSMT-45" x="144.433594"/>
      </g>
     </g>
    </g>
    <g id="ytick_7">
     <g id="line2d_16">
      <g>
       <use xlink:href="#ma92b006077" x="50.877344" y="167.894444" style="stroke: #000000; stroke-width: 0.8"/>
      </g>
     </g>
     <g id="text_16">
      <!-- NUC -->
      <g transform="translate(12.20625 171.49796) scale(0.15 -0.15)">
       <use xlink:href="#TimesNewRomanPSMT-4e"/>
       <use xlink:href="#TimesNewRomanPSMT-55" x="72.216797"/>
       <use xlink:href="#TimesNewRomanPSMT-43" x="144.433594"/>
      </g>
     </g>
    </g>
    <g id="ytick_8">
     <g id="line2d_17">
      <g>
       <use xlink:href="#ma92b006077" x="50.877344" y="192.616667" style="stroke: #000000; stroke-width: 0.8"/>
      </g>
     </g>
     <g id="text_17">
      <!-- EXP -->
      <g transform="translate(15.541406 196.220182) scale(0.15 -0.15)">
       <use xlink:href="#TimesNewRomanPSMT-45"/>
       <use xlink:href="#TimesNewRomanPSMT-58" x="61.083984"/>
       <use xlink:href="#TimesNewRomanPSMT-50" x="133.300781"/>
      </g>
     </g>
    </g>
    <g id="ytick_9">
     <g id="line2d_18">
      <g>
       <use xlink:href="#ma92b006077" x="50.877344" y="217.338889" style="stroke: #000000; stroke-width: 0.8"/>
      </g>
     </g>
     <g id="text_18">
      <!-- SEXP -->
      <g transform="translate(7.2 220.942405) scale(0.15 -0.15)">
       <use xlink:href="#TimesNewRomanPSMT-53"/>
       <use xlink:href="#TimesNewRomanPSMT-45" x="55.615234"/>
       <use xlink:href="#TimesNewRomanPSMT-58" x="116.699219"/>
       <use xlink:href="#TimesNewRomanPSMT-50" x="188.916016"/>
      </g>
     </g>
    </g>
   </g>
  </g>
 </g>
 <defs>
  <clipPath id="p143ffc828f">
   <rect x="50.877344" y="7.2" width="222.5" height="222.5"/>
  </clipPath>
 </defs>
</svg>
