<?xml version="1.0" encoding="utf-8" standalone="no"?>
<!DOCTYPE svg PUBLIC "-//W3C//DTD SVG 1.1//EN"
  "http://www.w3.org/Graphics/SVG/1.1/DTD/svg11.dtd">
<svg xmlns:xlink="http://www.w3.org/1999/xlink" width="352.802344pt" height="352.802344pt" viewBox="0 0 352.802344 352.802344" xmlns="http://www.w3.org/2000/svg" version="1.1">
 <metadata>
  <rdf:RDF xmlns:dc="http://purl.org/dc/elements/1.1/" xmlns:cc="http://creativecommons.org/ns#" xmlns:rdf="http://www.w3.org/1999/02/22-rdf-syntax-ns#">
   <cc:Work>
    <dc:type rdf:resource="http://purl.org/dc/dcmitype/StillImage"/>
    <dc:date>2024-04-11T14:26:50.838145</dc:date>
    <dc:format>image/svg+xml</dc:format>
    <dc:creator>
     <cc:Agent>
      <dc:title>Matplotlib v3.8.4, https://matplotlib.org/</dc:title>
     </cc:Agent>
    </dc:creator>
   </cc:Work>
  </rdf:RDF>
 </metadata>
 <defs>
  <style type="text/css">*{stroke-linejoin: round; stroke-linecap: butt}</style>
 </defs>
 <g id="figure_1">
  <g id="patch_1">
   <path d="M 0 352.802344 
L 352.802344 352.802344 
L 352.802344 0 
L 0 0 
z
" style="fill: #ffffff"/>
  </g>
  <g id="axes_1">
   <g id="patch_2">
    <path d="M 50.877344 301.925 
L 345.602344 301.925 
L 345.602344 7.2 
L 50.877344 7.2 
z
" style="fill: #ffffff"/>
   </g>
   <g id="QuadMesh_1">
    <path d="M 50.877344 7.2 
L 83.624566 7.2 
L 83.624566 39.947222 
L 50.877344 39.947222 
L 50.877344 7.2 
" clip-path="url(#pf2d52cfda9)" style="fill: none"/>
    <path d="M 83.624566 7.2 
L 116.371788 7.2 
L 116.371788 39.947222 
L 83.624566 39.947222 
L 83.624566 7.2 
" clip-path="url(#pf2d52cfda9)" style="fill: none"/>
    <path d="M 116.371788 7.2 
L 149.11901 7.2 
L 149.11901 39.947222 
L 116.371788 39.947222 
L 116.371788 7.2 
" clip-path="url(#pf2d52cfda9)" style="fill: none"/>
    <path d="M 149.11901 7.2 
L 181.866233 7.2 
L 181.866233 39.947222 
L 149.11901 39.947222 
L 149.11901 7.2 
" clip-path="url(#pf2d52cfda9)" style="fill: none"/>
    <path d="M 181.866233 7.2 
L 214.613455 7.2 
L 214.613455 39.947222 
L 181.866233 39.947222 
L 181.866233 7.2 
" clip-path="url(#pf2d52cfda9)" style="fill: none"/>
    <path d="M 214.613455 7.2 
L 247.360677 7.2 
L 247.360677 39.947222 
L 214.613455 39.947222 
L 214.613455 7.2 
" clip-path="url(#pf2d52cfda9)" style="fill: none"/>
    <path d="M 247.360677 7.2 
L 280.107899 7.2 
L 280.107899 39.947222 
L 247.360677 39.947222 
L 247.360677 7.2 
" clip-path="url(#pf2d52cfda9)" style="fill: none"/>
    <path d="M 280.107899 7.2 
L 312.855122 7.2 
L 312.855122 39.947222 
L 280.107899 39.947222 
L 280.107899 7.2 
" clip-path="url(#pf2d52cfda9)" style="fill: none"/>
    <path d="M 312.855122 7.2 
L 345.602344 7.2 
L 345.602344 39.947222 
L 312.855122 39.947222 
L 312.855122 7.2 
" clip-path="url(#pf2d52cfda9)" style="fill: none"/>
    <path d="M 50.877344 39.947222 
L 83.624566 39.947222 
L 83.624566 72.694444 
L 50.877344 72.694444 
L 50.877344 39.947222 
" clip-path="url(#pf2d52cfda9)" style="fill: #f49a7b"/>
    <path d="M 83.624566 39.947222 
L 116.371788 39.947222 
L 116.371788 72.694444 
L 83.624566 72.694444 
L 83.624566 39.947222 
" clip-path="url(#pf2d52cfda9)" style="fill: none"/>
    <path d="M 116.371788 39.947222 
L 149.11901 39.947222 
L 149.11901 72.694444 
L 116.371788 72.694444 
L 116.371788 39.947222 
" clip-path="url(#pf2d52cfda9)" style="fill: none"/>
    <path d="M 149.11901 39.947222 
L 181.866233 39.947222 
L 181.866233 72.694444 
L 149.11901 72.694444 
L 149.11901 39.947222 
" clip-path="url(#pf2d52cfda9)" style="fill: none"/>
    <path d="M 181.866233 39.947222 
L 214.613455 39.947222 
L 214.613455 72.694444 
L 181.866233 72.694444 
L 181.866233 39.947222 
" clip-path="url(#pf2d52cfda9)" style="fill: none"/>
    <path d="M 214.613455 39.947222 
L 247.360677 39.947222 
L 247.360677 72.694444 
L 214.613455 72.694444 
L 214.613455 39.947222 
" clip-path="url(#pf2d52cfda9)" style="fill: none"/>
    <path d="M 247.360677 39.947222 
L 280.107899 39.947222 
L 280.107899 72.694444 
L 247.360677 72.694444 
L 247.360677 39.947222 
" clip-path="url(#pf2d52cfda9)" style="fill: none"/>
    <path d="M 280.107899 39.947222 
L 312.855122 39.947222 
L 312.855122 72.694444 
L 280.107899 72.694444 
L 280.107899 39.947222 
" clip-path="url(#pf2d52cfda9)" style="fill: none"/>
    <path d="M 312.855122 39.947222 
L 345.602344 39.947222 
L 345.602344 72.694444 
L 312.855122 72.694444 
L 312.855122 39.947222 
" clip-path="url(#pf2d52cfda9)" style="fill: none"/>
    <path d="M 50.877344 72.694444 
L 83.624566 72.694444 
L 83.624566 105.441667 
L 50.877344 105.441667 
L 50.877344 72.694444 
" clip-path="url(#pf2d52cfda9)" style="fill: #f4c5ad"/>
    <path d="M 83.624566 72.694444 
L 116.371788 72.694444 
L 116.371788 105.441667 
L 83.624566 105.441667 
L 83.624566 72.694444 
" clip-path="url(#pf2d52cfda9)" style="fill: #ef886b"/>
    <path d="M 116.371788 72.694444 
L 149.11901 72.694444 
L 149.11901 105.441667 
L 116.371788 105.441667 
L 116.371788 72.694444 
" clip-path="url(#pf2d52cfda9)" style="fill: none"/>
    <path d="M 149.11901 72.694444 
L 181.866233 72.694444 
L 181.866233 105.441667 
L 149.11901 105.441667 
L 149.11901 72.694444 
" clip-path="url(#pf2d52cfda9)" style="fill: none"/>
    <path d="M 181.866233 72.694444 
L 214.613455 72.694444 
L 214.613455 105.441667 
L 181.866233 105.441667 
L 181.866233 72.694444 
" clip-path="url(#pf2d52cfda9)" style="fill: none"/>
    <path d="M 214.613455 72.694444 
L 247.360677 72.694444 
L 247.360677 105.441667 
L 214.613455 105.441667 
L 214.613455 72.694444 
" clip-path="url(#pf2d52cfda9)" style="fill: none"/>
    <path d="M 247.360677 72.694444 
L 280.107899 72.694444 
L 280.107899 105.441667 
L 247.360677 105.441667 
L 247.360677 72.694444 
" clip-path="url(#pf2d52cfda9)" style="fill: none"/>
    <path d="M 280.107899 72.694444 
L 312.855122 72.694444 
L 312.855122 105.441667 
L 280.107899 105.441667 
L 280.107899 72.694444 
" clip-path="url(#pf2d52cfda9)" style="fill: none"/>
    <path d="M 312.855122 72.694444 
L 345.602344 72.694444 
L 345.602344 105.441667 
L 312.855122 105.441667 
L 312.855122 72.694444 
" clip-path="url(#pf2d52cfda9)" style="fill: none"/>
    <path d="M 50.877344 105.441667 
L 83.624566 105.441667 
L 83.624566 138.188889 
L 50.877344 138.188889 
L 50.877344 105.441667 
" clip-path="url(#pf2d52cfda9)" style="fill: #f1cdba"/>
    <path d="M 83.624566 105.441667 
L 116.371788 105.441667 
L 116.371788 138.188889 
L 83.624566 138.188889 
L 83.624566 105.441667 
" clip-path="url(#pf2d52cfda9)" style="fill: #f59d7e"/>
    <path d="M 116.371788 105.441667 
L 149.11901 105.441667 
L 149.11901 138.188889 
L 116.371788 138.188889 
L 116.371788 105.441667 
" clip-path="url(#pf2d52cfda9)" style="fill: #ee8669"/>
    <path d="M 149.11901 105.441667 
L 181.866233 105.441667 
L 181.866233 138.188889 
L 149.11901 138.188889 
L 149.11901 105.441667 
" clip-path="url(#pf2d52cfda9)" style="fill: none"/>
    <path d="M 181.866233 105.441667 
L 214.613455 105.441667 
L 214.613455 138.188889 
L 181.866233 138.188889 
L 181.866233 105.441667 
" clip-path="url(#pf2d52cfda9)" style="fill: none"/>
    <path d="M 214.613455 105.441667 
L 247.360677 105.441667 
L 247.360677 138.188889 
L 214.613455 138.188889 
L 214.613455 105.441667 
" clip-path="url(#pf2d52cfda9)" style="fill: none"/>
    <path d="M 247.360677 105.441667 
L 280.107899 105.441667 
L 280.107899 138.188889 
L 247.360677 138.188889 
L 247.360677 105.441667 
" clip-path="url(#pf2d52cfda9)" style="fill: none"/>
    <path d="M 280.107899 105.441667 
L 312.855122 105.441667 
L 312.855122 138.188889 
L 280.107899 138.188889 
L 280.107899 105.441667 
" clip-path="url(#pf2d52cfda9)" style="fill: none"/>
    <path d="M 312.855122 105.441667 
L 345.602344 105.441667 
L 345.602344 138.188889 
L 312.855122 138.188889 
L 312.855122 105.441667 
" clip-path="url(#pf2d52cfda9)" style="fill: none"/>
    <path d="M 50.877344 138.188889 
L 83.624566 138.188889 
L 83.624566 170.936111 
L 50.877344 170.936111 
L 50.877344 138.188889 
" clip-path="url(#pf2d52cfda9)" style="fill: #ead4c8"/>
    <path d="M 83.624566 138.188889 
L 116.371788 138.188889 
L 116.371788 170.936111 
L 83.624566 170.936111 
L 83.624566 138.188889 
" clip-path="url(#pf2d52cfda9)" style="fill: #f5c4ac"/>
    <path d="M 116.371788 138.188889 
L 149.11901 138.188889 
L 149.11901 170.936111 
L 116.371788 170.936111 
L 116.371788 138.188889 
" clip-path="url(#pf2d52cfda9)" style="fill: #f1ccb8"/>
    <path d="M 149.11901 138.188889 
L 181.866233 138.188889 
L 181.866233 170.936111 
L 149.11901 170.936111 
L 149.11901 138.188889 
" clip-path="url(#pf2d52cfda9)" style="fill: #edd1c2"/>
    <path d="M 181.866233 138.188889 
L 214.613455 138.188889 
L 214.613455 170.936111 
L 181.866233 170.936111 
L 181.866233 138.188889 
" clip-path="url(#pf2d52cfda9)" style="fill: none"/>
    <path d="M 214.613455 138.188889 
L 247.360677 138.188889 
L 247.360677 170.936111 
L 214.613455 170.936111 
L 214.613455 138.188889 
" clip-path="url(#pf2d52cfda9)" style="fill: none"/>
    <path d="M 247.360677 138.188889 
L 280.107899 138.188889 
L 280.107899 170.936111 
L 247.360677 170.936111 
L 247.360677 138.188889 
" clip-path="url(#pf2d52cfda9)" style="fill: none"/>
    <path d="M 280.107899 138.188889 
L 312.855122 138.188889 
L 312.855122 170.936111 
L 280.107899 170.936111 
L 280.107899 138.188889 
" clip-path="url(#pf2d52cfda9)" style="fill: none"/>
    <path d="M 312.855122 138.188889 
L 345.602344 138.188889 
L 345.602344 170.936111 
L 312.855122 170.936111 
L 312.855122 138.188889 
" clip-path="url(#pf2d52cfda9)" style="fill: none"/>
    <path d="M 50.877344 170.936111 
L 83.624566 170.936111 
L 83.624566 203.683333 
L 50.877344 203.683333 
L 50.877344 170.936111 
" clip-path="url(#pf2d52cfda9)" style="fill: #e8d6cc"/>
    <path d="M 83.624566 170.936111 
L 116.371788 170.936111 
L 116.371788 203.683333 
L 83.624566 203.683333 
L 83.624566 170.936111 
" clip-path="url(#pf2d52cfda9)" style="fill: #f1ccb8"/>
    <path d="M 116.371788 170.936111 
L 149.11901 170.936111 
L 149.11901 203.683333 
L 116.371788 203.683333 
L 116.371788 170.936111 
" clip-path="url(#pf2d52cfda9)" style="fill: #edd1c2"/>
    <path d="M 149.11901 170.936111 
L 181.866233 170.936111 
L 181.866233 203.683333 
L 149.11901 203.683333 
L 149.11901 170.936111 
" clip-path="url(#pf2d52cfda9)" style="fill: #e4d9d2"/>
    <path d="M 181.866233 170.936111 
L 214.613455 170.936111 
L 214.613455 203.683333 
L 181.866233 203.683333 
L 181.866233 170.936111 
" clip-path="url(#pf2d52cfda9)" style="fill: #cdd9ec"/>
    <path d="M 214.613455 170.936111 
L 247.360677 170.936111 
L 247.360677 203.683333 
L 214.613455 203.683333 
L 214.613455 170.936111 
" clip-path="url(#pf2d52cfda9)" style="fill: none"/>
    <path d="M 247.360677 170.936111 
L 280.107899 170.936111 
L 280.107899 203.683333 
L 247.360677 203.683333 
L 247.360677 170.936111 
" clip-path="url(#pf2d52cfda9)" style="fill: none"/>
    <path d="M 280.107899 170.936111 
L 312.855122 170.936111 
L 312.855122 203.683333 
L 280.107899 203.683333 
L 280.107899 170.936111 
" clip-path="url(#pf2d52cfda9)" style="fill: none"/>
    <path d="M 312.855122 170.936111 
L 345.602344 170.936111 
L 345.602344 203.683333 
L 312.855122 203.683333 
L 312.855122 170.936111 
" clip-path="url(#pf2d52cfda9)" style="fill: none"/>
    <path d="M 50.877344 203.683333 
L 83.624566 203.683333 
L 83.624566 236.430556 
L 50.877344 236.430556 
L 50.877344 203.683333 
" clip-path="url(#pf2d52cfda9)" style="fill: #f7ba9f"/>
    <path d="M 83.624566 203.683333 
L 116.371788 203.683333 
L 116.371788 236.430556 
L 83.624566 236.430556 
L 83.624566 203.683333 
" clip-path="url(#pf2d52cfda9)" style="fill: #e7d7ce"/>
    <path d="M 116.371788 203.683333 
L 149.11901 203.683333 
L 149.11901 236.430556 
L 116.371788 236.430556 
L 116.371788 203.683333 
" clip-path="url(#pf2d52cfda9)" style="fill: #dedcdb"/>
    <path d="M 149.11901 203.683333 
L 181.866233 203.683333 
L 181.866233 236.430556 
L 149.11901 236.430556 
L 149.11901 203.683333 
" clip-path="url(#pf2d52cfda9)" style="fill: #d5dbe5"/>
    <path d="M 181.866233 203.683333 
L 214.613455 203.683333 
L 214.613455 236.430556 
L 181.866233 236.430556 
L 181.866233 203.683333 
" clip-path="url(#pf2d52cfda9)" style="fill: #f39577"/>
    <path d="M 214.613455 203.683333 
L 247.360677 203.683333 
L 247.360677 236.430556 
L 214.613455 236.430556 
L 214.613455 203.683333 
" clip-path="url(#pf2d52cfda9)" style="fill: #d4dbe6"/>
    <path d="M 247.360677 203.683333 
L 280.107899 203.683333 
L 280.107899 236.430556 
L 247.360677 236.430556 
L 247.360677 203.683333 
" clip-path="url(#pf2d52cfda9)" style="fill: none"/>
    <path d="M 280.107899 203.683333 
L 312.855122 203.683333 
L 312.855122 236.430556 
L 280.107899 236.430556 
L 280.107899 203.683333 
" clip-path="url(#pf2d52cfda9)" style="fill: none"/>
    <path d="M 312.855122 203.683333 
L 345.602344 203.683333 
L 345.602344 236.430556 
L 312.855122 236.430556 
L 312.855122 203.683333 
" clip-path="url(#pf2d52cfda9)" style="fill: none"/>
    <path d="M 50.877344 236.430556 
L 83.624566 236.430556 
L 83.624566 269.177778 
L 50.877344 269.177778 
L 50.877344 236.430556 
" clip-path="url(#pf2d52cfda9)" style="fill: #d8dce2"/>
    <path d="M 83.624566 236.430556 
L 116.371788 236.430556 
L 116.371788 269.177778 
L 83.624566 269.177778 
L 83.624566 236.430556 
" clip-path="url(#pf2d52cfda9)" style="fill: #dbdcde"/>
    <path d="M 116.371788 236.430556 
L 149.11901 236.430556 
L 149.11901 269.177778 
L 116.371788 269.177778 
L 116.371788 236.430556 
" clip-path="url(#pf2d52cfda9)" style="fill: #d8dce2"/>
    <path d="M 149.11901 236.430556 
L 181.866233 236.430556 
L 181.866233 269.177778 
L 149.11901 269.177778 
L 149.11901 236.430556 
" clip-path="url(#pf2d52cfda9)" style="fill: #dddcdc"/>
    <path d="M 181.866233 236.430556 
L 214.613455 236.430556 
L 214.613455 269.177778 
L 181.866233 269.177778 
L 181.866233 236.430556 
" clip-path="url(#pf2d52cfda9)" style="fill: #d3dbe7"/>
    <path d="M 214.613455 236.430556 
L 247.360677 236.430556 
L 247.360677 269.177778 
L 214.613455 269.177778 
L 214.613455 236.430556 
" clip-path="url(#pf2d52cfda9)" style="fill: #d7dce3"/>
    <path d="M 247.360677 236.430556 
L 280.107899 236.430556 
L 280.107899 269.177778 
L 247.360677 269.177778 
L 247.360677 236.430556 
" clip-path="url(#pf2d52cfda9)" style="fill: #e0dbd8"/>
    <path d="M 280.107899 236.430556 
L 312.855122 236.430556 
L 312.855122 269.177778 
L 280.107899 269.177778 
L 280.107899 236.430556 
" clip-path="url(#pf2d52cfda9)" style="fill: none"/>
    <path d="M 312.855122 236.430556 
L 345.602344 236.430556 
L 345.602344 269.177778 
L 312.855122 269.177778 
L 312.855122 236.430556 
" clip-path="url(#pf2d52cfda9)" style="fill: none"/>
    <path d="M 50.877344 269.177778 
L 83.624566 269.177778 
L 83.624566 301.925 
L 50.877344 301.925 
L 50.877344 269.177778 
" clip-path="url(#pf2d52cfda9)" style="fill: #7da0f9"/>
    <path d="M 83.624566 269.177778 
L 116.371788 269.177778 
L 116.371788 301.925 
L 83.624566 301.925 
L 83.624566 269.177778 
" clip-path="url(#pf2d52cfda9)" style="fill: #b5cdfa"/>
    <path d="M 116.371788 269.177778 
L 149.11901 269.177778 
L 149.11901 301.925 
L 116.371788 301.925 
L 116.371788 269.177778 
" clip-path="url(#pf2d52cfda9)" style="fill: #c9d7f0"/>
    <path d="M 149.11901 269.177778 
L 181.866233 269.177778 
L 181.866233 301.925 
L 149.11901 301.925 
L 149.11901 269.177778 
" clip-path="url(#pf2d52cfda9)" style="fill: #cfdaea"/>
    <path d="M 181.866233 269.177778 
L 214.613455 269.177778 
L 214.613455 301.925 
L 181.866233 301.925 
L 181.866233 269.177778 
" clip-path="url(#pf2d52cfda9)" style="fill: #d3dbe7"/>
    <path d="M 214.613455 269.177778 
L 247.360677 269.177778 
L 247.360677 301.925 
L 214.613455 301.925 
L 214.613455 269.177778 
" clip-path="url(#pf2d52cfda9)" style="fill: #cfdaea"/>
    <path d="M 247.360677 269.177778 
L 280.107899 269.177778 
L 280.107899 301.925 
L 247.360677 301.925 
L 247.360677 269.177778 
" clip-path="url(#pf2d52cfda9)" style="fill: #d1dae9"/>
    <path d="M 280.107899 269.177778 
L 312.855122 269.177778 
L 312.855122 301.925 
L 280.107899 301.925 
L 280.107899 269.177778 
" clip-path="url(#pf2d52cfda9)" style="fill: #e7745b"/>
    <path d="M 312.855122 269.177778 
L 345.602344 269.177778 
L 345.602344 301.925 
L 312.855122 301.925 
L 312.855122 269.177778 
" clip-path="url(#pf2d52cfda9)" style="fill: none"/>
   </g>
   <g id="matplotlib.axis_1">
    <g id="xtick_1">
     <g id="line2d_1">
      <defs>
       <path id="me292e5a3bc" d="M 0 0 
L 0 3.5 
" style="stroke: #000000; stroke-width: 0.8"/>
      </defs>
      <g>
       <use xlink:href="#me292e5a3bc" x="67.250955" y="301.925" style="stroke: #000000; stroke-width: 0.8"/>
      </g>
     </g>
     <g id="text_1">
      <!-- NS -->
      <g transform="translate(70.85447 328.099219) rotate(-90) scale(0.15 -0.15)">
       <defs>
        <path id="TimesNewRomanPSMT-4e" d="M -84 4238 
L 1066 4238 
L 3656 1059 
L 3656 3503 
Q 3656 3894 3569 3991 
Q 3453 4122 3203 4122 
L 3056 4122 
L 3056 4238 
L 4531 4238 
L 4531 4122 
L 4381 4122 
Q 4113 4122 4000 3959 
Q 3931 3859 3931 3503 
L 3931 -69 
L 3819 -69 
L 1025 3344 
L 1025 734 
Q 1025 344 1109 247 
Q 1228 116 1475 116 
L 1625 116 
L 1625 0 
L 150 0 
L 150 116 
L 297 116 
Q 569 116 681 278 
Q 750 378 750 734 
L 750 3681 
Q 566 3897 470 3965 
Q 375 4034 191 4094 
Q 100 4122 -84 4122 
L -84 4238 
z
" transform="scale(0.015625)"/>
        <path id="TimesNewRomanPSMT-53" d="M 2934 4334 
L 2934 2869 
L 2819 2869 
Q 2763 3291 2617 3541 
Q 2472 3791 2203 3937 
Q 1934 4084 1647 4084 
Q 1322 4084 1109 3886 
Q 897 3688 897 3434 
Q 897 3241 1031 3081 
Q 1225 2847 1953 2456 
Q 2547 2138 2764 1967 
Q 2981 1797 3098 1565 
Q 3216 1334 3216 1081 
Q 3216 600 2842 251 
Q 2469 -97 1881 -97 
Q 1697 -97 1534 -69 
Q 1438 -53 1133 45 
Q 828 144 747 144 
Q 669 144 623 97 
Q 578 50 556 -97 
L 441 -97 
L 441 1356 
L 556 1356 
Q 638 900 775 673 
Q 913 447 1195 297 
Q 1478 147 1816 147 
Q 2206 147 2432 353 
Q 2659 559 2659 841 
Q 2659 997 2573 1156 
Q 2488 1316 2306 1453 
Q 2184 1547 1640 1851 
Q 1097 2156 867 2337 
Q 638 2519 519 2737 
Q 400 2956 400 3219 
Q 400 3675 750 4004 
Q 1100 4334 1641 4334 
Q 1978 4334 2356 4169 
Q 2531 4091 2603 4091 
Q 2684 4091 2736 4139 
Q 2788 4188 2819 4334 
L 2934 4334 
z
" transform="scale(0.015625)"/>
       </defs>
       <use xlink:href="#TimesNewRomanPSMT-4e"/>
       <use xlink:href="#TimesNewRomanPSMT-53" x="72.216797"/>
      </g>
     </g>
    </g>
    <g id="xtick_2">
     <g id="line2d_2">
      <g>
       <use xlink:href="#me292e5a3bc" x="99.998177" y="301.925" style="stroke: #000000; stroke-width: 0.8"/>
      </g>
     </g>
     <g id="text_2">
      <!-- NF -->
      <g transform="translate(103.601693 328.099219) rotate(-90) scale(0.15 -0.15)">
       <defs>
        <path id="TimesNewRomanPSMT-46" d="M 1309 4006 
L 1309 2341 
L 2081 2341 
Q 2347 2341 2470 2458 
Q 2594 2575 2634 2922 
L 2750 2922 
L 2750 1488 
L 2634 1488 
Q 2631 1734 2570 1850 
Q 2509 1966 2401 2023 
Q 2294 2081 2081 2081 
L 1309 2081 
L 1309 750 
Q 1309 428 1350 325 
Q 1381 247 1481 191 
Q 1619 116 1769 116 
L 1922 116 
L 1922 0 
L 103 0 
L 103 116 
L 253 116 
Q 516 116 634 269 
Q 709 369 709 750 
L 709 3488 
Q 709 3809 669 3913 
Q 638 3991 541 4047 
Q 406 4122 253 4122 
L 103 4122 
L 103 4238 
L 3256 4238 
L 3297 3306 
L 3188 3306 
Q 3106 3603 2998 3742 
Q 2891 3881 2733 3943 
Q 2575 4006 2244 4006 
L 1309 4006 
z
" transform="scale(0.015625)"/>
       </defs>
       <use xlink:href="#TimesNewRomanPSMT-4e"/>
       <use xlink:href="#TimesNewRomanPSMT-46" x="72.216797"/>
      </g>
     </g>
    </g>
    <g id="xtick_3">
     <g id="line2d_3">
      <g>
       <use xlink:href="#me292e5a3bc" x="132.745399" y="301.925" style="stroke: #000000; stroke-width: 0.8"/>
      </g>
     </g>
     <g id="text_3">
      <!-- LA -->
      <g transform="translate(136.348915 328.919531) rotate(-90) scale(0.15 -0.15)">
       <defs>
        <path id="TimesNewRomanPSMT-4c" d="M 3669 1172 
L 3772 1150 
L 3409 0 
L 128 0 
L 128 116 
L 288 116 
Q 556 116 672 291 
Q 738 391 738 753 
L 738 3488 
Q 738 3884 650 3984 
Q 528 4122 288 4122 
L 128 4122 
L 128 4238 
L 2047 4238 
L 2047 4122 
Q 1709 4125 1573 4059 
Q 1438 3994 1388 3894 
Q 1338 3794 1338 3416 
L 1338 753 
Q 1338 494 1388 397 
Q 1425 331 1503 300 
Q 1581 269 1991 269 
L 2300 269 
Q 2788 269 2984 341 
Q 3181 413 3343 595 
Q 3506 778 3669 1172 
z
" transform="scale(0.015625)"/>
        <path id="TimesNewRomanPSMT-41" d="M 2928 1419 
L 1288 1419 
L 1000 750 
Q 894 503 894 381 
Q 894 284 986 211 
Q 1078 138 1384 116 
L 1384 0 
L 50 0 
L 50 116 
Q 316 163 394 238 
Q 553 388 747 847 
L 2238 4334 
L 2347 4334 
L 3822 809 
Q 4000 384 4145 257 
Q 4291 131 4550 116 
L 4550 0 
L 2878 0 
L 2878 116 
Q 3131 128 3220 200 
Q 3309 272 3309 375 
Q 3309 513 3184 809 
L 2928 1419 
z
M 2841 1650 
L 2122 3363 
L 1384 1650 
L 2841 1650 
z
" transform="scale(0.015625)"/>
       </defs>
       <use xlink:href="#TimesNewRomanPSMT-4c"/>
       <use xlink:href="#TimesNewRomanPSMT-41" x="61.083984"/>
      </g>
     </g>
    </g>
    <g id="xtick_4">
     <g id="line2d_4">
      <g>
       <use xlink:href="#me292e5a3bc" x="165.492622" y="301.925" style="stroke: #000000; stroke-width: 0.8"/>
      </g>
     </g>
     <g id="text_4">
      <!-- LD -->
      <g transform="translate(169.096137 328.919531) rotate(-90) scale(0.15 -0.15)">
       <defs>
        <path id="TimesNewRomanPSMT-44" d="M 109 0 
L 109 116 
L 269 116 
Q 538 116 650 288 
Q 719 391 719 750 
L 719 3488 
Q 719 3884 631 3984 
Q 509 4122 269 4122 
L 109 4122 
L 109 4238 
L 1834 4238 
Q 2784 4238 3279 4022 
Q 3775 3806 4076 3303 
Q 4378 2800 4378 2141 
Q 4378 1256 3841 663 
Q 3238 0 2003 0 
L 109 0 
z
M 1319 306 
Q 1716 219 1984 219 
Q 2709 219 3187 728 
Q 3666 1238 3666 2109 
Q 3666 2988 3187 3494 
Q 2709 4000 1959 4000 
Q 1678 4000 1319 3909 
L 1319 306 
z
" transform="scale(0.015625)"/>
       </defs>
       <use xlink:href="#TimesNewRomanPSMT-4c"/>
       <use xlink:href="#TimesNewRomanPSMT-44" x="61.083984"/>
      </g>
     </g>
    </g>
    <g id="xtick_5">
     <g id="line2d_5">
      <g>
       <use xlink:href="#me292e5a3bc" x="198.239844" y="301.925" style="stroke: #000000; stroke-width: 0.8"/>
      </g>
     </g>
     <g id="text_5">
      <!-- LT -->
      <g transform="translate(201.843359 325.879687) rotate(-90) scale(0.15 -0.15)">
       <defs>
        <path id="TimesNewRomanPSMT-54" d="M 3703 4238 
L 3750 3244 
L 3631 3244 
Q 3597 3506 3538 3619 
Q 3441 3800 3280 3886 
Q 3119 3972 2856 3972 
L 2259 3972 
L 2259 734 
Q 2259 344 2344 247 
Q 2463 116 2709 116 
L 2856 116 
L 2856 0 
L 1059 0 
L 1059 116 
L 1209 116 
Q 1478 116 1591 278 
Q 1659 378 1659 734 
L 1659 3972 
L 1150 3972 
Q 853 3972 728 3928 
Q 566 3869 450 3700 
Q 334 3531 313 3244 
L 194 3244 
L 244 4238 
L 3703 4238 
z
" transform="scale(0.015625)"/>
       </defs>
       <use xlink:href="#TimesNewRomanPSMT-4c"/>
       <use xlink:href="#TimesNewRomanPSMT-54" x="51.958984"/>
      </g>
     </g>
    </g>
    <g id="xtick_6">
     <g id="line2d_6">
      <g>
       <use xlink:href="#me292e5a3bc" x="230.987066" y="301.925" style="stroke: #000000; stroke-width: 0.8"/>
      </g>
     </g>
     <g id="text_6">
      <!-- AGE -->
      <g transform="translate(234.590582 339.752344) rotate(-90) scale(0.15 -0.15)">
       <defs>
        <path id="TimesNewRomanPSMT-47" d="M 3928 4334 
L 4038 2997 
L 3928 2997 
Q 3763 3497 3500 3750 
Q 3122 4116 2528 4116 
Q 1719 4116 1297 3475 
Q 944 2934 944 2188 
Q 944 1581 1178 1081 
Q 1413 581 1792 348 
Q 2172 116 2572 116 
Q 2806 116 3025 175 
Q 3244 234 3447 350 
L 3447 1575 
Q 3447 1894 3398 1992 
Q 3350 2091 3248 2142 
Q 3147 2194 2891 2194 
L 2891 2313 
L 4531 2313 
L 4531 2194 
L 4453 2194 
Q 4209 2194 4119 2031 
Q 4056 1916 4056 1575 
L 4056 278 
Q 3697 84 3347 -6 
Q 2997 -97 2569 -97 
Q 1341 -97 703 691 
Q 225 1281 225 2053 
Q 225 2613 494 3125 
Q 813 3734 1369 4063 
Q 1834 4334 2469 4334 
Q 2700 4334 2889 4296 
Q 3078 4259 3425 4131 
Q 3600 4066 3659 4066 
Q 3719 4066 3761 4120 
Q 3803 4175 3813 4334 
L 3928 4334 
z
" transform="scale(0.015625)"/>
        <path id="TimesNewRomanPSMT-45" d="M 1338 4006 
L 1338 2331 
L 2269 2331 
Q 2631 2331 2753 2441 
Q 2916 2584 2934 2947 
L 3050 2947 
L 3050 1472 
L 2934 1472 
Q 2891 1781 2847 1869 
Q 2791 1978 2662 2040 
Q 2534 2103 2269 2103 
L 1338 2103 
L 1338 706 
Q 1338 425 1363 364 
Q 1388 303 1450 267 
Q 1513 231 1688 231 
L 2406 231 
Q 2766 231 2928 281 
Q 3091 331 3241 478 
Q 3434 672 3638 1063 
L 3763 1063 
L 3397 0 
L 131 0 
L 131 116 
L 281 116 
Q 431 116 566 188 
Q 666 238 702 338 
Q 738 438 738 747 
L 738 3500 
Q 738 3903 656 3997 
Q 544 4122 281 4122 
L 131 4122 
L 131 4238 
L 3397 4238 
L 3444 3309 
L 3322 3309 
Q 3256 3644 3176 3769 
Q 3097 3894 2941 3959 
Q 2816 4006 2500 4006 
L 1338 4006 
z
" transform="scale(0.015625)"/>
       </defs>
       <use xlink:href="#TimesNewRomanPSMT-41"/>
       <use xlink:href="#TimesNewRomanPSMT-47" x="72.216797"/>
       <use xlink:href="#TimesNewRomanPSMT-45" x="144.433594"/>
      </g>
     </g>
    </g>
    <g id="xtick_7">
     <g id="line2d_7">
      <g>
       <use xlink:href="#me292e5a3bc" x="263.734288" y="301.925" style="stroke: #000000; stroke-width: 0.8"/>
      </g>
     </g>
     <g id="text_7">
      <!-- NUC -->
      <g transform="translate(267.337804 340.596094) rotate(-90) scale(0.15 -0.15)">
       <defs>
        <path id="TimesNewRomanPSMT-55" d="M 3053 4122 
L 3053 4238 
L 4553 4238 
L 4553 4122 
L 4394 4122 
Q 4144 4122 4009 3913 
Q 3944 3816 3944 3463 
L 3944 1744 
Q 3944 1106 3817 754 
Q 3691 403 3320 151 
Q 2950 -100 2313 -100 
Q 1619 -100 1259 140 
Q 900 381 750 788 
Q 650 1066 650 1831 
L 650 3488 
Q 650 3878 542 4000 
Q 434 4122 194 4122 
L 34 4122 
L 34 4238 
L 1866 4238 
L 1866 4122 
L 1703 4122 
Q 1441 4122 1328 3956 
Q 1250 3844 1250 3488 
L 1250 1641 
Q 1250 1394 1295 1075 
Q 1341 756 1459 578 
Q 1578 400 1801 284 
Q 2025 169 2350 169 
Q 2766 169 3094 350 
Q 3422 531 3542 814 
Q 3663 1097 3663 1772 
L 3663 3488 
Q 3663 3884 3575 3984 
Q 3453 4122 3213 4122 
L 3053 4122 
z
" transform="scale(0.015625)"/>
        <path id="TimesNewRomanPSMT-43" d="M 3853 4334 
L 3950 2894 
L 3853 2894 
Q 3659 3541 3300 3825 
Q 2941 4109 2438 4109 
Q 2016 4109 1675 3895 
Q 1334 3681 1139 3212 
Q 944 2744 944 2047 
Q 944 1472 1128 1050 
Q 1313 628 1683 403 
Q 2053 178 2528 178 
Q 2941 178 3256 354 
Q 3572 531 3950 1056 
L 4047 994 
Q 3728 428 3303 165 
Q 2878 -97 2294 -97 
Q 1241 -97 663 684 
Q 231 1266 231 2053 
Q 231 2688 515 3219 
Q 800 3750 1298 4042 
Q 1797 4334 2388 4334 
Q 2847 4334 3294 4109 
Q 3425 4041 3481 4041 
Q 3566 4041 3628 4100 
Q 3709 4184 3744 4334 
L 3853 4334 
z
" transform="scale(0.015625)"/>
       </defs>
       <use xlink:href="#TimesNewRomanPSMT-4e"/>
       <use xlink:href="#TimesNewRomanPSMT-55" x="72.216797"/>
       <use xlink:href="#TimesNewRomanPSMT-43" x="144.433594"/>
      </g>
     </g>
    </g>
    <g id="xtick_8">
     <g id="line2d_8">
      <g>
       <use xlink:href="#me292e5a3bc" x="296.48151" y="301.925" style="stroke: #000000; stroke-width: 0.8"/>
      </g>
     </g>
     <g id="text_8">
      <!-- EXP -->
      <g transform="translate(300.085026 337.260937) rotate(-90) scale(0.15 -0.15)">
       <defs>
        <path id="TimesNewRomanPSMT-58" d="M 2613 2347 
L 3522 991 
Q 3900 428 4083 279 
Q 4266 131 4547 116 
L 4547 0 
L 2728 0 
L 2728 116 
Q 2909 119 2997 153 
Q 3063 181 3105 239 
Q 3147 297 3147 356 
Q 3147 428 3119 500 
Q 3097 553 2947 775 
L 2228 1863 
L 1341 725 
Q 1200 544 1172 483 
Q 1144 422 1144 356 
Q 1144 256 1228 190 
Q 1313 125 1550 116 
L 1550 0 
L 47 0 
L 47 116 
Q 206 131 322 181 
Q 516 263 691 400 
Q 866 538 1091 822 
L 2091 2084 
L 1256 3306 
Q 916 3803 678 3958 
Q 441 4113 131 4122 
L 131 4238 
L 2091 4238 
L 2091 4122 
Q 1841 4113 1748 4041 
Q 1656 3969 1656 3881 
Q 1656 3766 1806 3544 
L 2456 2572 
L 3209 3525 
Q 3341 3694 3370 3756 
Q 3400 3819 3400 3884 
Q 3400 3950 3363 4000 
Q 3316 4066 3244 4092 
Q 3172 4119 2947 4122 
L 2947 4238 
L 4450 4238 
L 4450 4122 
Q 4272 4113 4159 4066 
Q 3991 3994 3850 3872 
Q 3709 3750 3453 3422 
L 2613 2347 
z
" transform="scale(0.015625)"/>
        <path id="TimesNewRomanPSMT-50" d="M 1313 1984 
L 1313 750 
Q 1313 350 1400 253 
Q 1519 116 1759 116 
L 1922 116 
L 1922 0 
L 106 0 
L 106 116 
L 266 116 
Q 534 116 650 291 
Q 713 388 713 750 
L 713 3488 
Q 713 3888 628 3984 
Q 506 4122 266 4122 
L 106 4122 
L 106 4238 
L 1659 4238 
Q 2228 4238 2556 4120 
Q 2884 4003 3109 3725 
Q 3334 3447 3334 3066 
Q 3334 2547 2992 2222 
Q 2650 1897 2025 1897 
Q 1872 1897 1694 1919 
Q 1516 1941 1313 1984 
z
M 1313 2163 
Q 1478 2131 1606 2115 
Q 1734 2100 1825 2100 
Q 2150 2100 2386 2351 
Q 2622 2603 2622 3003 
Q 2622 3278 2509 3514 
Q 2397 3750 2190 3867 
Q 1984 3984 1722 3984 
Q 1563 3984 1313 3925 
L 1313 2163 
z
" transform="scale(0.015625)"/>
       </defs>
       <use xlink:href="#TimesNewRomanPSMT-45"/>
       <use xlink:href="#TimesNewRomanPSMT-58" x="61.083984"/>
       <use xlink:href="#TimesNewRomanPSMT-50" x="133.300781"/>
      </g>
     </g>
    </g>
    <g id="xtick_9">
     <g id="line2d_9">
      <g>
       <use xlink:href="#me292e5a3bc" x="329.228733" y="301.925" style="stroke: #000000; stroke-width: 0.8"/>
      </g>
     </g>
     <g id="text_9">
      <!-- SEXP -->
      <g transform="translate(332.832248 345.602344) rotate(-90) scale(0.15 -0.15)">
       <use xlink:href="#TimesNewRomanPSMT-53"/>
       <use xlink:href="#TimesNewRomanPSMT-45" x="55.615234"/>
       <use xlink:href="#TimesNewRomanPSMT-58" x="116.699219"/>
       <use xlink:href="#TimesNewRomanPSMT-50" x="188.916016"/>
      </g>
     </g>
    </g>
   </g>
   <g id="matplotlib.axis_2">
    <g id="ytick_1">
     <g id="line2d_10">
      <defs>
       <path id="m9ddbb3e303" d="M 0 0 
L -3.5 0 
" style="stroke: #000000; stroke-width: 0.8"/>
      </defs>
      <g>
       <use xlink:href="#m9ddbb3e303" x="50.877344" y="23.573611" style="stroke: #000000; stroke-width: 0.8"/>
      </g>
     </g>
     <g id="text_10">
      <!-- NS -->
      <g transform="translate(24.703125 27.177127) scale(0.15 -0.15)">
       <use xlink:href="#TimesNewRomanPSMT-4e"/>
       <use xlink:href="#TimesNewRomanPSMT-53" x="72.216797"/>
      </g>
     </g>
    </g>
    <g id="ytick_2">
     <g id="line2d_11">
      <g>
       <use xlink:href="#m9ddbb3e303" x="50.877344" y="56.320833" style="stroke: #000000; stroke-width: 0.8"/>
      </g>
     </g>
     <g id="text_11">
      <!-- NF -->
      <g transform="translate(24.703125 59.924349) scale(0.15 -0.15)">
       <use xlink:href="#TimesNewRomanPSMT-4e"/>
       <use xlink:href="#TimesNewRomanPSMT-46" x="72.216797"/>
      </g>
     </g>
    </g>
    <g id="ytick_3">
     <g id="line2d_12">
      <g>
       <use xlink:href="#m9ddbb3e303" x="50.877344" y="89.068056" style="stroke: #000000; stroke-width: 0.8"/>
      </g>
     </g>
     <g id="text_12">
      <!-- LA -->
      <g transform="translate(23.882813 92.671571) scale(0.15 -0.15)">
       <use xlink:href="#TimesNewRomanPSMT-4c"/>
       <use xlink:href="#TimesNewRomanPSMT-41" x="61.083984"/>
      </g>
     </g>
    </g>
    <g id="ytick_4">
     <g id="line2d_13">
      <g>
       <use xlink:href="#m9ddbb3e303" x="50.877344" y="121.815278" style="stroke: #000000; stroke-width: 0.8"/>
      </g>
     </g>
     <g id="text_13">
      <!-- LD -->
      <g transform="translate(23.882813 125.418793) scale(0.15 -0.15)">
       <use xlink:href="#TimesNewRomanPSMT-4c"/>
       <use xlink:href="#TimesNewRomanPSMT-44" x="61.083984"/>
      </g>
     </g>
    </g>
    <g id="ytick_5">
     <g id="line2d_14">
      <g>
       <use xlink:href="#m9ddbb3e303" x="50.877344" y="154.5625" style="stroke: #000000; stroke-width: 0.8"/>
      </g>
     </g>
     <g id="text_14">
      <!-- LT -->
      <g transform="translate(26.922656 158.166016) scale(0.15 -0.15)">
       <use xlink:href="#TimesNewRomanPSMT-4c"/>
       <use xlink:href="#TimesNewRomanPSMT-54" x="51.958984"/>
      </g>
     </g>
    </g>
    <g id="ytick_6">
     <g id="line2d_15">
      <g>
       <use xlink:href="#m9ddbb3e303" x="50.877344" y="187.309722" style="stroke: #000000; stroke-width: 0.8"/>
      </g>
     </g>
     <g id="text_15">
      <!-- AGE -->
      <g transform="translate(13.05 190.913238) scale(0.15 -0.15)">
       <use xlink:href="#TimesNewRomanPSMT-41"/>
       <use xlink:href="#TimesNewRomanPSMT-47" x="72.216797"/>
       <use xlink:href="#TimesNewRomanPSMT-45" x="144.433594"/>
      </g>
     </g>
    </g>
    <g id="ytick_7">
     <g id="line2d_16">
      <g>
       <use xlink:href="#m9ddbb3e303" x="50.877344" y="220.056944" style="stroke: #000000; stroke-width: 0.8"/>
      </g>
     </g>
     <g id="text_16">
      <!-- NUC -->
      <g transform="translate(12.20625 223.66046) scale(0.15 -0.15)">
       <use xlink:href="#TimesNewRomanPSMT-4e"/>
       <use xlink:href="#TimesNewRomanPSMT-55" x="72.216797"/>
       <use xlink:href="#TimesNewRomanPSMT-43" x="144.433594"/>
      </g>
     </g>
    </g>
    <g id="ytick_8">
     <g id="line2d_17">
      <g>
       <use xlink:href="#m9ddbb3e303" x="50.877344" y="252.804167" style="stroke: #000000; stroke-width: 0.8"/>
      </g>
     </g>
     <g id="text_17">
      <!-- EXP -->
      <g transform="translate(15.541406 256.407682) scale(0.15 -0.15)">
       <use xlink:href="#TimesNewRomanPSMT-45"/>
       <use xlink:href="#TimesNewRomanPSMT-58" x="61.083984"/>
       <use xlink:href="#TimesNewRomanPSMT-50" x="133.300781"/>
      </g>
     </g>
    </g>
    <g id="ytick_9">
     <g id="line2d_18">
      <g>
       <use xlink:href="#m9ddbb3e303" x="50.877344" y="285.551389" style="stroke: #000000; stroke-width: 0.8"/>
      </g>
     </g>
     <g id="text_18">
      <!-- SEXP -->
      <g transform="translate(7.2 289.154905) scale(0.15 -0.15)">
       <use xlink:href="#TimesNewRomanPSMT-53"/>
       <use xlink:href="#TimesNewRomanPSMT-45" x="55.615234"/>
       <use xlink:href="#TimesNewRomanPSMT-58" x="116.699219"/>
       <use xlink:href="#TimesNewRomanPSMT-50" x="188.916016"/>
      </g>
     </g>
    </g>
   </g>
   <g id="text_19">
    <!-- 50 -->
    <g style="fill: #959595" transform="translate(59.750955 59.924349) scale(0.15 -0.15)">
     <defs>
      <path id="TimesNewRomanPSMT-35" d="M 2778 4238 
L 2534 3706 
L 1259 3706 
L 981 3138 
Q 1809 3016 2294 2522 
Q 2709 2097 2709 1522 
Q 2709 1188 2573 903 
Q 2438 619 2231 419 
Q 2025 219 1772 97 
Q 1413 -75 1034 -75 
Q 653 -75 479 54 
Q 306 184 306 341 
Q 306 428 378 495 
Q 450 563 559 563 
Q 641 563 702 538 
Q 763 513 909 409 
Q 1144 247 1384 247 
Q 1750 247 2026 523 
Q 2303 800 2303 1197 
Q 2303 1581 2056 1914 
Q 1809 2247 1375 2428 
Q 1034 2569 447 2591 
L 1259 4238 
L 2778 4238 
z
" transform="scale(0.015625)"/>
      <path id="TimesNewRomanPSMT-30" d="M 231 2094 
Q 231 2819 450 3342 
Q 669 3866 1031 4122 
Q 1313 4325 1613 4325 
Q 2100 4325 2488 3828 
Q 2972 3213 2972 2159 
Q 2972 1422 2759 906 
Q 2547 391 2217 158 
Q 1888 -75 1581 -75 
Q 975 -75 572 641 
Q 231 1244 231 2094 
z
M 844 2016 
Q 844 1141 1059 588 
Q 1238 122 1591 122 
Q 1759 122 1940 273 
Q 2122 425 2216 781 
Q 2359 1319 2359 2297 
Q 2359 3022 2209 3506 
Q 2097 3866 1919 4016 
Q 1791 4119 1609 4119 
Q 1397 4119 1231 3928 
Q 1006 3669 925 3112 
Q 844 2556 844 2016 
z
" transform="scale(0.015625)"/>
     </defs>
     <use xlink:href="#TimesNewRomanPSMT-35"/>
     <use xlink:href="#TimesNewRomanPSMT-30" x="50"/>
    </g>
   </g>
   <g id="text_20">
    <!-- 25 -->
    <g style="fill: #959595" transform="translate(59.750955 92.671571) scale(0.15 -0.15)">
     <defs>
      <path id="TimesNewRomanPSMT-32" d="M 2934 816 
L 2638 0 
L 138 0 
L 138 116 
Q 1241 1122 1691 1759 
Q 2141 2397 2141 2925 
Q 2141 3328 1894 3587 
Q 1647 3847 1303 3847 
Q 991 3847 742 3664 
Q 494 3481 375 3128 
L 259 3128 
Q 338 3706 661 4015 
Q 984 4325 1469 4325 
Q 1984 4325 2329 3994 
Q 2675 3663 2675 3213 
Q 2675 2891 2525 2569 
Q 2294 2063 1775 1497 
Q 997 647 803 472 
L 1909 472 
Q 2247 472 2383 497 
Q 2519 522 2628 598 
Q 2738 675 2819 816 
L 2934 816 
z
" transform="scale(0.015625)"/>
     </defs>
     <use xlink:href="#TimesNewRomanPSMT-32"/>
     <use xlink:href="#TimesNewRomanPSMT-35" x="50"/>
    </g>
   </g>
   <g id="text_21">
    <!-- 58 -->
    <g style="fill: #404040" transform="translate(92.498177 92.671571) scale(0.15 -0.15)">
     <defs>
      <path id="TimesNewRomanPSMT-38" d="M 1228 2134 
Q 725 2547 579 2797 
Q 434 3047 434 3316 
Q 434 3728 753 4026 
Q 1072 4325 1600 4325 
Q 2113 4325 2425 4047 
Q 2738 3769 2738 3413 
Q 2738 3175 2569 2928 
Q 2400 2681 1866 2347 
Q 2416 1922 2594 1678 
Q 2831 1359 2831 1006 
Q 2831 559 2490 242 
Q 2150 -75 1597 -75 
Q 994 -75 656 303 
Q 388 606 388 966 
Q 388 1247 577 1523 
Q 766 1800 1228 2134 
z
M 1719 2469 
Q 2094 2806 2194 3001 
Q 2294 3197 2294 3444 
Q 2294 3772 2109 3958 
Q 1925 4144 1606 4144 
Q 1288 4144 1088 3959 
Q 888 3775 888 3528 
Q 888 3366 970 3203 
Q 1053 3041 1206 2894 
L 1719 2469 
z
M 1375 2016 
Q 1116 1797 991 1539 
Q 866 1281 866 981 
Q 866 578 1086 336 
Q 1306 94 1647 94 
Q 1984 94 2187 284 
Q 2391 475 2391 747 
Q 2391 972 2272 1150 
Q 2050 1481 1375 2016 
z
" transform="scale(0.015625)"/>
     </defs>
     <use xlink:href="#TimesNewRomanPSMT-35"/>
     <use xlink:href="#TimesNewRomanPSMT-38" x="50"/>
    </g>
   </g>
   <g id="text_22">
    <!-- 18 -->
    <g style="fill: #959595" transform="translate(59.750955 125.418793) scale(0.15 -0.15)">
     <defs>
      <path id="TimesNewRomanPSMT-31" d="M 750 3822 
L 1781 4325 
L 1884 4325 
L 1884 747 
Q 1884 391 1914 303 
Q 1944 216 2037 169 
Q 2131 122 2419 116 
L 2419 0 
L 825 0 
L 825 116 
Q 1125 122 1212 167 
Q 1300 213 1334 289 
Q 1369 366 1369 747 
L 1369 3034 
Q 1369 3497 1338 3628 
Q 1316 3728 1258 3775 
Q 1200 3822 1119 3822 
Q 1003 3822 797 3725 
L 750 3822 
z
" transform="scale(0.015625)"/>
     </defs>
     <use xlink:href="#TimesNewRomanPSMT-31"/>
     <use xlink:href="#TimesNewRomanPSMT-38" x="50"/>
    </g>
   </g>
   <g id="text_23">
    <!-- 48 -->
    <g style="fill: #959595" transform="translate(92.498177 125.418793) scale(0.15 -0.15)">
     <defs>
      <path id="TimesNewRomanPSMT-34" d="M 2978 1563 
L 2978 1119 
L 2409 1119 
L 2409 0 
L 1894 0 
L 1894 1119 
L 100 1119 
L 100 1519 
L 2066 4325 
L 2409 4325 
L 2409 1563 
L 2978 1563 
z
M 1894 1563 
L 1894 3666 
L 406 1563 
L 1894 1563 
z
" transform="scale(0.015625)"/>
     </defs>
     <use xlink:href="#TimesNewRomanPSMT-34"/>
     <use xlink:href="#TimesNewRomanPSMT-38" x="50"/>
    </g>
   </g>
   <g id="text_24">
    <!-- 59 -->
    <g style="fill: #404040" transform="translate(125.245399 125.418793) scale(0.15 -0.15)">
     <defs>
      <path id="TimesNewRomanPSMT-39" d="M 338 -88 
L 338 28 
Q 744 34 1094 217 
Q 1444 400 1770 856 
Q 2097 1313 2225 1859 
Q 1734 1544 1338 1544 
Q 891 1544 572 1889 
Q 253 2234 253 2806 
Q 253 3363 572 3797 
Q 956 4325 1575 4325 
Q 2097 4325 2469 3894 
Q 2925 3359 2925 2575 
Q 2925 1869 2578 1258 
Q 2231 647 1613 244 
Q 1109 -88 516 -88 
L 338 -88 
z
M 2275 2091 
Q 2331 2497 2331 2741 
Q 2331 3044 2228 3395 
Q 2125 3747 1936 3934 
Q 1747 4122 1506 4122 
Q 1228 4122 1018 3872 
Q 809 3622 809 3128 
Q 809 2469 1088 2097 
Q 1291 1828 1588 1828 
Q 1731 1828 1928 1897 
Q 2125 1966 2275 2091 
z
" transform="scale(0.015625)"/>
     </defs>
     <use xlink:href="#TimesNewRomanPSMT-35"/>
     <use xlink:href="#TimesNewRomanPSMT-39" x="50"/>
    </g>
   </g>
   <g id="text_25">
    <!-- 12 -->
    <g style="fill: #959595" transform="translate(59.750955 158.166016) scale(0.15 -0.15)">
     <use xlink:href="#TimesNewRomanPSMT-31"/>
     <use xlink:href="#TimesNewRomanPSMT-32" x="50"/>
    </g>
   </g>
   <g id="text_26">
    <!-- 25 -->
    <g style="fill: #959595" transform="translate(92.498177 158.166016) scale(0.15 -0.15)">
     <use xlink:href="#TimesNewRomanPSMT-32"/>
     <use xlink:href="#TimesNewRomanPSMT-35" x="50"/>
    </g>
   </g>
   <g id="text_27">
    <!-- 19 -->
    <g style="fill: #959595" transform="translate(125.245399 158.166016) scale(0.15 -0.15)">
     <use xlink:href="#TimesNewRomanPSMT-31"/>
     <use xlink:href="#TimesNewRomanPSMT-39" x="50"/>
    </g>
   </g>
   <g id="text_28">
    <!-- 14 -->
    <g style="fill: #959595" transform="translate(157.992622 158.166016) scale(0.15 -0.15)">
     <use xlink:href="#TimesNewRomanPSMT-31"/>
     <use xlink:href="#TimesNewRomanPSMT-34" x="50"/>
    </g>
   </g>
   <g id="text_29">
    <!-- 09 -->
    <g style="fill: #959595" transform="translate(59.750955 190.913238) scale(0.15 -0.15)">
     <use xlink:href="#TimesNewRomanPSMT-30"/>
     <use xlink:href="#TimesNewRomanPSMT-39" x="50"/>
    </g>
   </g>
   <g id="text_30">
    <!-- 19 -->
    <g style="fill: #959595" transform="translate(92.498177 190.913238) scale(0.15 -0.15)">
     <use xlink:href="#TimesNewRomanPSMT-31"/>
     <use xlink:href="#TimesNewRomanPSMT-39" x="50"/>
    </g>
   </g>
   <g id="text_31">
    <!-- 14 -->
    <g style="fill: #959595" transform="translate(125.245399 190.913238) scale(0.15 -0.15)">
     <use xlink:href="#TimesNewRomanPSMT-31"/>
     <use xlink:href="#TimesNewRomanPSMT-34" x="50"/>
    </g>
   </g>
   <g id="text_32">
    <!-- 06 -->
    <g style="fill: #959595" transform="translate(157.992622 190.913238) scale(0.15 -0.15)">
     <defs>
      <path id="TimesNewRomanPSMT-36" d="M 2869 4325 
L 2869 4209 
Q 2456 4169 2195 4045 
Q 1934 3922 1679 3669 
Q 1425 3416 1258 3105 
Q 1091 2794 978 2366 
Q 1428 2675 1881 2675 
Q 2316 2675 2634 2325 
Q 2953 1975 2953 1425 
Q 2953 894 2631 456 
Q 2244 -75 1606 -75 
Q 1172 -75 869 213 
Q 275 772 275 1663 
Q 275 2231 503 2743 
Q 731 3256 1154 3653 
Q 1578 4050 1965 4187 
Q 2353 4325 2688 4325 
L 2869 4325 
z
M 925 2138 
Q 869 1716 869 1456 
Q 869 1156 980 804 
Q 1091 453 1309 247 
Q 1469 100 1697 100 
Q 1969 100 2183 356 
Q 2397 613 2397 1088 
Q 2397 1622 2184 2012 
Q 1972 2403 1581 2403 
Q 1463 2403 1327 2353 
Q 1191 2303 925 2138 
z
" transform="scale(0.015625)"/>
     </defs>
     <use xlink:href="#TimesNewRomanPSMT-30"/>
     <use xlink:href="#TimesNewRomanPSMT-36" x="50"/>
    </g>
   </g>
   <g id="text_33">
    <!-- -12 -->
    <g style="fill: #959595" transform="translate(188.242578 190.913238) scale(0.15 -0.15)">
     <defs>
      <path id="TimesNewRomanPSMT-2d" d="M 259 1672 
L 1875 1672 
L 1875 1200 
L 259 1200 
L 259 1672 
z
" transform="scale(0.015625)"/>
     </defs>
     <use xlink:href="#TimesNewRomanPSMT-2d"/>
     <use xlink:href="#TimesNewRomanPSMT-31" x="33.300781"/>
     <use xlink:href="#TimesNewRomanPSMT-32" x="83.300781"/>
    </g>
   </g>
   <g id="text_34">
    <!-- 31 -->
    <g style="fill: #959595" transform="translate(59.750955 223.66046) scale(0.15 -0.15)">
     <defs>
      <path id="TimesNewRomanPSMT-33" d="M 325 3431 
Q 506 3859 782 4092 
Q 1059 4325 1472 4325 
Q 1981 4325 2253 3994 
Q 2459 3747 2459 3466 
Q 2459 3003 1878 2509 
Q 2269 2356 2469 2072 
Q 2669 1788 2669 1403 
Q 2669 853 2319 450 
Q 1863 -75 997 -75 
Q 569 -75 414 31 
Q 259 138 259 259 
Q 259 350 332 419 
Q 406 488 509 488 
Q 588 488 669 463 
Q 722 447 909 348 
Q 1097 250 1169 231 
Q 1284 197 1416 197 
Q 1734 197 1970 444 
Q 2206 691 2206 1028 
Q 2206 1275 2097 1509 
Q 2016 1684 1919 1775 
Q 1784 1900 1550 2001 
Q 1316 2103 1072 2103 
L 972 2103 
L 972 2197 
Q 1219 2228 1467 2375 
Q 1716 2522 1828 2728 
Q 1941 2934 1941 3181 
Q 1941 3503 1739 3701 
Q 1538 3900 1238 3900 
Q 753 3900 428 3381 
L 325 3431 
z
" transform="scale(0.015625)"/>
     </defs>
     <use xlink:href="#TimesNewRomanPSMT-33"/>
     <use xlink:href="#TimesNewRomanPSMT-31" x="50"/>
    </g>
   </g>
   <g id="text_35">
    <!-- 08 -->
    <g style="fill: #959595" transform="translate(92.498177 223.66046) scale(0.15 -0.15)">
     <use xlink:href="#TimesNewRomanPSMT-30"/>
     <use xlink:href="#TimesNewRomanPSMT-38" x="50"/>
    </g>
   </g>
   <g id="text_36">
    <!-- 01 -->
    <g style="fill: #959595" transform="translate(125.245399 223.66046) scale(0.15 -0.15)">
     <use xlink:href="#TimesNewRomanPSMT-30"/>
     <use xlink:href="#TimesNewRomanPSMT-31" x="50"/>
    </g>
   </g>
   <g id="text_37">
    <!-- -06 -->
    <g style="fill: #959595" transform="translate(155.495356 223.66046) scale(0.15 -0.15)">
     <use xlink:href="#TimesNewRomanPSMT-2d"/>
     <use xlink:href="#TimesNewRomanPSMT-30" x="33.300781"/>
     <use xlink:href="#TimesNewRomanPSMT-36" x="83.300781"/>
    </g>
   </g>
   <g id="text_38">
    <!-- 52 -->
    <g style="fill: #404040" transform="translate(190.739844 223.66046) scale(0.15 -0.15)">
     <use xlink:href="#TimesNewRomanPSMT-35"/>
     <use xlink:href="#TimesNewRomanPSMT-32" x="50"/>
    </g>
   </g>
   <g id="text_39">
    <!-- -06 -->
    <g style="fill: #959595" transform="translate(220.9898 223.66046) scale(0.15 -0.15)">
     <use xlink:href="#TimesNewRomanPSMT-2d"/>
     <use xlink:href="#TimesNewRomanPSMT-30" x="33.300781"/>
     <use xlink:href="#TimesNewRomanPSMT-36" x="83.300781"/>
    </g>
   </g>
   <g id="text_40">
    <!-- -04 -->
    <g style="fill: #959595" transform="translate(57.253689 256.407682) scale(0.15 -0.15)">
     <use xlink:href="#TimesNewRomanPSMT-2d"/>
     <use xlink:href="#TimesNewRomanPSMT-30" x="33.300781"/>
     <use xlink:href="#TimesNewRomanPSMT-34" x="83.300781"/>
    </g>
   </g>
   <g id="text_41">
    <!-- -01 -->
    <g style="fill: #959595" transform="translate(90.000911 256.407682) scale(0.15 -0.15)">
     <use xlink:href="#TimesNewRomanPSMT-2d"/>
     <use xlink:href="#TimesNewRomanPSMT-30" x="33.300781"/>
     <use xlink:href="#TimesNewRomanPSMT-31" x="83.300781"/>
    </g>
   </g>
   <g id="text_42">
    <!-- -03 -->
    <g style="fill: #959595" transform="translate(122.748134 256.407682) scale(0.15 -0.15)">
     <use xlink:href="#TimesNewRomanPSMT-2d"/>
     <use xlink:href="#TimesNewRomanPSMT-30" x="33.300781"/>
     <use xlink:href="#TimesNewRomanPSMT-33" x="83.300781"/>
    </g>
   </g>
   <g id="text_43">
    <!-- 00 -->
    <g style="fill: #959595" transform="translate(157.992622 256.407682) scale(0.15 -0.15)">
     <use xlink:href="#TimesNewRomanPSMT-30"/>
     <use xlink:href="#TimesNewRomanPSMT-30" x="50"/>
    </g>
   </g>
   <g id="text_44">
    <!-- -07 -->
    <g style="fill: #959595" transform="translate(188.242578 256.407682) scale(0.15 -0.15)">
     <defs>
      <path id="TimesNewRomanPSMT-37" d="M 644 4238 
L 2916 4238 
L 2916 4119 
L 1503 -88 
L 1153 -88 
L 2419 3728 
L 1253 3728 
Q 900 3728 750 3644 
Q 488 3500 328 3200 
L 238 3234 
L 644 4238 
z
" transform="scale(0.015625)"/>
     </defs>
     <use xlink:href="#TimesNewRomanPSMT-2d"/>
     <use xlink:href="#TimesNewRomanPSMT-30" x="33.300781"/>
     <use xlink:href="#TimesNewRomanPSMT-37" x="83.300781"/>
    </g>
   </g>
   <g id="text_45">
    <!-- -04 -->
    <g style="fill: #959595" transform="translate(220.9898 256.407682) scale(0.15 -0.15)">
     <use xlink:href="#TimesNewRomanPSMT-2d"/>
     <use xlink:href="#TimesNewRomanPSMT-30" x="33.300781"/>
     <use xlink:href="#TimesNewRomanPSMT-34" x="83.300781"/>
    </g>
   </g>
   <g id="text_46">
    <!-- 03 -->
    <g style="fill: #959595" transform="translate(256.234288 256.407682) scale(0.15 -0.15)">
     <use xlink:href="#TimesNewRomanPSMT-30"/>
     <use xlink:href="#TimesNewRomanPSMT-33" x="50"/>
    </g>
   </g>
   <g id="text_47">
    <!-- -59 -->
    <g style="fill: #404040" transform="translate(57.253689 289.154905) scale(0.15 -0.15)">
     <use xlink:href="#TimesNewRomanPSMT-2d"/>
     <use xlink:href="#TimesNewRomanPSMT-35" x="33.300781"/>
     <use xlink:href="#TimesNewRomanPSMT-39" x="83.300781"/>
    </g>
   </g>
   <g id="text_48">
    <!-- -27 -->
    <g style="fill: #959595" transform="translate(90.000911 289.154905) scale(0.15 -0.15)">
     <use xlink:href="#TimesNewRomanPSMT-2d"/>
     <use xlink:href="#TimesNewRomanPSMT-32" x="33.300781"/>
     <use xlink:href="#TimesNewRomanPSMT-37" x="83.300781"/>
    </g>
   </g>
   <g id="text_49">
    <!-- -15 -->
    <g style="fill: #959595" transform="translate(122.748134 289.154905) scale(0.15 -0.15)">
     <use xlink:href="#TimesNewRomanPSMT-2d"/>
     <use xlink:href="#TimesNewRomanPSMT-31" x="33.300781"/>
     <use xlink:href="#TimesNewRomanPSMT-35" x="83.300781"/>
    </g>
   </g>
   <g id="text_50">
    <!-- -10 -->
    <g style="fill: #959595" transform="translate(155.495356 289.154905) scale(0.15 -0.15)">
     <use xlink:href="#TimesNewRomanPSMT-2d"/>
     <use xlink:href="#TimesNewRomanPSMT-31" x="33.300781"/>
     <use xlink:href="#TimesNewRomanPSMT-30" x="83.300781"/>
    </g>
   </g>
   <g id="text_51">
    <!-- -07 -->
    <g style="fill: #959595" transform="translate(188.242578 289.154905) scale(0.15 -0.15)">
     <use xlink:href="#TimesNewRomanPSMT-2d"/>
     <use xlink:href="#TimesNewRomanPSMT-30" x="33.300781"/>
     <use xlink:href="#TimesNewRomanPSMT-37" x="83.300781"/>
    </g>
   </g>
   <g id="text_52">
    <!-- -09 -->
    <g style="fill: #959595" transform="translate(220.9898 289.154905) scale(0.15 -0.15)">
     <use xlink:href="#TimesNewRomanPSMT-2d"/>
     <use xlink:href="#TimesNewRomanPSMT-30" x="33.300781"/>
     <use xlink:href="#TimesNewRomanPSMT-39" x="83.300781"/>
    </g>
   </g>
   <g id="text_53">
    <!-- -09 -->
    <g style="fill: #959595" transform="translate(253.737023 289.154905) scale(0.15 -0.15)">
     <use xlink:href="#TimesNewRomanPSMT-2d"/>
     <use xlink:href="#TimesNewRomanPSMT-30" x="33.300781"/>
     <use xlink:href="#TimesNewRomanPSMT-39" x="83.300781"/>
    </g>
   </g>
   <g id="text_54">
    <!-- 66 -->
    <g style="fill: #404040" transform="translate(288.98151 289.154905) scale(0.15 -0.15)">
     <use xlink:href="#TimesNewRomanPSMT-36"/>
     <use xlink:href="#TimesNewRomanPSMT-36" x="50"/>
    </g>
   </g>
  </g>
 </g>
 <defs>
  <clipPath id="pf2d52cfda9">
   <rect x="50.877344" y="7.2" width="294.725" height="294.725"/>
  </clipPath>
 </defs>
</svg>
