<?xml version="1.0" encoding="utf-8" standalone="no"?>
<!DOCTYPE svg PUBLIC "-//W3C//DTD SVG 1.1//EN"
  "http://www.w3.org/Graphics/SVG/1.1/DTD/svg11.dtd">
<svg xmlns:xlink="http://www.w3.org/1999/xlink" width="280.775625pt" height="280.775625pt" viewBox="0 0 280.775625 280.775625" xmlns="http://www.w3.org/2000/svg" version="1.1">
 <metadata>
  <rdf:RDF xmlns:dc="http://purl.org/dc/elements/1.1/" xmlns:cc="http://creativecommons.org/ns#" xmlns:rdf="http://www.w3.org/1999/02/22-rdf-syntax-ns#">
   <cc:Work>
    <dc:type rdf:resource="http://purl.org/dc/dcmitype/StillImage"/>
    <dc:date>2024-06-04T12:04:22.581832</dc:date>
    <dc:format>image/svg+xml</dc:format>
    <dc:creator>
     <cc:Agent>
      <dc:title>Matplotlib v3.8.4, https://matplotlib.org/</dc:title>
     </cc:Agent>
    </dc:creator>
   </cc:Work>
  </rdf:RDF>
 </metadata>
 <defs>
  <style type="text/css">*{stroke-linejoin: round; stroke-linecap: butt}</style>
 </defs>
 <g id="figure_1">
  <g id="patch_1">
   <path d="M 0 280.775625 
L 280.775625 280.775625 
L 280.775625 0 
L 0 0 
z
" style="fill: #ffffff"/>
  </g>
  <g id="axes_1">
   <g id="patch_2">
    <path d="M 58.365625 222.41 
L 273.575625 222.41 
L 273.575625 7.2 
L 58.365625 7.2 
z
" style="fill: #ffffff"/>
   </g>
   <g id="QuadMesh_1">
    <path d="M 58.365625 7.2 
L 79.886625 7.2 
L 79.886625 28.721 
L 58.365625 28.721 
L 58.365625 7.2 
" clip-path="url(#p90cd34b306)" style="fill: none"/>
    <path d="M 79.886625 7.2 
L 101.407625 7.2 
L 101.407625 28.721 
L 79.886625 28.721 
L 79.886625 7.2 
" clip-path="url(#p90cd34b306)" style="fill: none"/>
    <path d="M 101.407625 7.2 
L 122.928625 7.2 
L 122.928625 28.721 
L 101.407625 28.721 
L 101.407625 7.2 
" clip-path="url(#p90cd34b306)" style="fill: none"/>
    <path d="M 122.928625 7.2 
L 144.449625 7.2 
L 144.449625 28.721 
L 122.928625 28.721 
L 122.928625 7.2 
" clip-path="url(#p90cd34b306)" style="fill: none"/>
    <path d="M 144.449625 7.2 
L 165.970625 7.2 
L 165.970625 28.721 
L 144.449625 28.721 
L 144.449625 7.2 
" clip-path="url(#p90cd34b306)" style="fill: none"/>
    <path d="M 165.970625 7.2 
L 187.491625 7.2 
L 187.491625 28.721 
L 165.970625 28.721 
L 165.970625 7.2 
" clip-path="url(#p90cd34b306)" style="fill: none"/>
    <path d="M 187.491625 7.2 
L 209.012625 7.2 
L 209.012625 28.721 
L 187.491625 28.721 
L 187.491625 7.2 
" clip-path="url(#p90cd34b306)" style="fill: none"/>
    <path d="M 209.012625 7.2 
L 230.533625 7.2 
L 230.533625 28.721 
L 209.012625 28.721 
L 209.012625 7.2 
" clip-path="url(#p90cd34b306)" style="fill: none"/>
    <path d="M 230.533625 7.2 
L 252.054625 7.2 
L 252.054625 28.721 
L 230.533625 28.721 
L 230.533625 7.2 
" clip-path="url(#p90cd34b306)" style="fill: none"/>
    <path d="M 252.054625 7.2 
L 273.575625 7.2 
L 273.575625 28.721 
L 252.054625 28.721 
L 252.054625 7.2 
" clip-path="url(#p90cd34b306)" style="fill: none"/>
    <path d="M 58.365625 28.721 
L 79.886625 28.721 
L 79.886625 50.242 
L 58.365625 50.242 
L 58.365625 28.721 
" clip-path="url(#p90cd34b306)" style="fill: #a3c2fe"/>
    <path d="M 79.886625 28.721 
L 101.407625 28.721 
L 101.407625 50.242 
L 79.886625 50.242 
L 79.886625 28.721 
" clip-path="url(#p90cd34b306)" style="fill: none"/>
    <path d="M 101.407625 28.721 
L 122.928625 28.721 
L 122.928625 50.242 
L 101.407625 50.242 
L 101.407625 28.721 
" clip-path="url(#p90cd34b306)" style="fill: none"/>
    <path d="M 122.928625 28.721 
L 144.449625 28.721 
L 144.449625 50.242 
L 122.928625 50.242 
L 122.928625 28.721 
" clip-path="url(#p90cd34b306)" style="fill: none"/>
    <path d="M 144.449625 28.721 
L 165.970625 28.721 
L 165.970625 50.242 
L 144.449625 50.242 
L 144.449625 28.721 
" clip-path="url(#p90cd34b306)" style="fill: none"/>
    <path d="M 165.970625 28.721 
L 187.491625 28.721 
L 187.491625 50.242 
L 165.970625 50.242 
L 165.970625 28.721 
" clip-path="url(#p90cd34b306)" style="fill: none"/>
    <path d="M 187.491625 28.721 
L 209.012625 28.721 
L 209.012625 50.242 
L 187.491625 50.242 
L 187.491625 28.721 
" clip-path="url(#p90cd34b306)" style="fill: none"/>
    <path d="M 209.012625 28.721 
L 230.533625 28.721 
L 230.533625 50.242 
L 209.012625 50.242 
L 209.012625 28.721 
" clip-path="url(#p90cd34b306)" style="fill: none"/>
    <path d="M 230.533625 28.721 
L 252.054625 28.721 
L 252.054625 50.242 
L 230.533625 50.242 
L 230.533625 28.721 
" clip-path="url(#p90cd34b306)" style="fill: none"/>
    <path d="M 252.054625 28.721 
L 273.575625 28.721 
L 273.575625 50.242 
L 252.054625 50.242 
L 252.054625 28.721 
" clip-path="url(#p90cd34b306)" style="fill: none"/>
    <path d="M 58.365625 50.242 
L 79.886625 50.242 
L 79.886625 71.763 
L 58.365625 71.763 
L 58.365625 50.242 
" clip-path="url(#p90cd34b306)" style="fill: #f59c7d"/>
    <path d="M 79.886625 50.242 
L 101.407625 50.242 
L 101.407625 71.763 
L 79.886625 71.763 
L 79.886625 50.242 
" clip-path="url(#p90cd34b306)" style="fill: #d3dbe7"/>
    <path d="M 101.407625 50.242 
L 122.928625 50.242 
L 122.928625 71.763 
L 101.407625 71.763 
L 101.407625 50.242 
" clip-path="url(#p90cd34b306)" style="fill: none"/>
    <path d="M 122.928625 50.242 
L 144.449625 50.242 
L 144.449625 71.763 
L 122.928625 71.763 
L 122.928625 50.242 
" clip-path="url(#p90cd34b306)" style="fill: none"/>
    <path d="M 144.449625 50.242 
L 165.970625 50.242 
L 165.970625 71.763 
L 144.449625 71.763 
L 144.449625 50.242 
" clip-path="url(#p90cd34b306)" style="fill: none"/>
    <path d="M 165.970625 50.242 
L 187.491625 50.242 
L 187.491625 71.763 
L 165.970625 71.763 
L 165.970625 50.242 
" clip-path="url(#p90cd34b306)" style="fill: none"/>
    <path d="M 187.491625 50.242 
L 209.012625 50.242 
L 209.012625 71.763 
L 187.491625 71.763 
L 187.491625 50.242 
" clip-path="url(#p90cd34b306)" style="fill: none"/>
    <path d="M 209.012625 50.242 
L 230.533625 50.242 
L 230.533625 71.763 
L 209.012625 71.763 
L 209.012625 50.242 
" clip-path="url(#p90cd34b306)" style="fill: none"/>
    <path d="M 230.533625 50.242 
L 252.054625 50.242 
L 252.054625 71.763 
L 230.533625 71.763 
L 230.533625 50.242 
" clip-path="url(#p90cd34b306)" style="fill: none"/>
    <path d="M 252.054625 50.242 
L 273.575625 50.242 
L 273.575625 71.763 
L 252.054625 71.763 
L 252.054625 50.242 
" clip-path="url(#p90cd34b306)" style="fill: none"/>
    <path d="M 58.365625 71.763 
L 79.886625 71.763 
L 79.886625 93.284 
L 58.365625 93.284 
L 58.365625 71.763 
" clip-path="url(#p90cd34b306)" style="fill: #f7b396"/>
    <path d="M 79.886625 71.763 
L 101.407625 71.763 
L 101.407625 93.284 
L 79.886625 93.284 
L 79.886625 71.763 
" clip-path="url(#p90cd34b306)" style="fill: #d3dbe7"/>
    <path d="M 101.407625 71.763 
L 122.928625 71.763 
L 122.928625 93.284 
L 101.407625 93.284 
L 101.407625 71.763 
" clip-path="url(#p90cd34b306)" style="fill: #f39778"/>
    <path d="M 122.928625 71.763 
L 144.449625 71.763 
L 144.449625 93.284 
L 122.928625 93.284 
L 122.928625 71.763 
" clip-path="url(#p90cd34b306)" style="fill: none"/>
    <path d="M 144.449625 71.763 
L 165.970625 71.763 
L 165.970625 93.284 
L 144.449625 93.284 
L 144.449625 71.763 
" clip-path="url(#p90cd34b306)" style="fill: none"/>
    <path d="M 165.970625 71.763 
L 187.491625 71.763 
L 187.491625 93.284 
L 165.970625 93.284 
L 165.970625 71.763 
" clip-path="url(#p90cd34b306)" style="fill: none"/>
    <path d="M 187.491625 71.763 
L 209.012625 71.763 
L 209.012625 93.284 
L 187.491625 93.284 
L 187.491625 71.763 
" clip-path="url(#p90cd34b306)" style="fill: none"/>
    <path d="M 209.012625 71.763 
L 230.533625 71.763 
L 230.533625 93.284 
L 209.012625 93.284 
L 209.012625 71.763 
" clip-path="url(#p90cd34b306)" style="fill: none"/>
    <path d="M 230.533625 71.763 
L 252.054625 71.763 
L 252.054625 93.284 
L 230.533625 93.284 
L 230.533625 71.763 
" clip-path="url(#p90cd34b306)" style="fill: none"/>
    <path d="M 252.054625 71.763 
L 273.575625 71.763 
L 273.575625 93.284 
L 252.054625 93.284 
L 252.054625 71.763 
" clip-path="url(#p90cd34b306)" style="fill: none"/>
    <path d="M 58.365625 93.284 
L 79.886625 93.284 
L 79.886625 114.805 
L 58.365625 114.805 
L 58.365625 93.284 
" clip-path="url(#p90cd34b306)" style="fill: #efcfbf"/>
    <path d="M 79.886625 93.284 
L 101.407625 93.284 
L 101.407625 114.805 
L 79.886625 114.805 
L 79.886625 93.284 
" clip-path="url(#p90cd34b306)" style="fill: #f2cbb7"/>
    <path d="M 101.407625 93.284 
L 122.928625 93.284 
L 122.928625 114.805 
L 101.407625 114.805 
L 101.407625 93.284 
" clip-path="url(#p90cd34b306)" style="fill: #edd1c2"/>
    <path d="M 122.928625 93.284 
L 144.449625 93.284 
L 144.449625 114.805 
L 122.928625 114.805 
L 122.928625 93.284 
" clip-path="url(#p90cd34b306)" style="fill: #e3d9d3"/>
    <path d="M 144.449625 93.284 
L 165.970625 93.284 
L 165.970625 114.805 
L 144.449625 114.805 
L 144.449625 93.284 
" clip-path="url(#p90cd34b306)" style="fill: none"/>
    <path d="M 165.970625 93.284 
L 187.491625 93.284 
L 187.491625 114.805 
L 165.970625 114.805 
L 165.970625 93.284 
" clip-path="url(#p90cd34b306)" style="fill: none"/>
    <path d="M 187.491625 93.284 
L 209.012625 93.284 
L 209.012625 114.805 
L 187.491625 114.805 
L 187.491625 93.284 
" clip-path="url(#p90cd34b306)" style="fill: none"/>
    <path d="M 209.012625 93.284 
L 230.533625 93.284 
L 230.533625 114.805 
L 209.012625 114.805 
L 209.012625 93.284 
" clip-path="url(#p90cd34b306)" style="fill: none"/>
    <path d="M 230.533625 93.284 
L 252.054625 93.284 
L 252.054625 114.805 
L 230.533625 114.805 
L 230.533625 93.284 
" clip-path="url(#p90cd34b306)" style="fill: none"/>
    <path d="M 252.054625 93.284 
L 273.575625 93.284 
L 273.575625 114.805 
L 252.054625 114.805 
L 252.054625 93.284 
" clip-path="url(#p90cd34b306)" style="fill: none"/>
    <path d="M 58.365625 114.805 
L 79.886625 114.805 
L 79.886625 136.326 
L 58.365625 136.326 
L 58.365625 114.805 
" clip-path="url(#p90cd34b306)" style="fill: #f1ccb8"/>
    <path d="M 79.886625 114.805 
L 101.407625 114.805 
L 101.407625 136.326 
L 79.886625 136.326 
L 79.886625 114.805 
" clip-path="url(#p90cd34b306)" style="fill: #f3c7b1"/>
    <path d="M 101.407625 114.805 
L 122.928625 114.805 
L 122.928625 136.326 
L 101.407625 136.326 
L 101.407625 114.805 
" clip-path="url(#p90cd34b306)" style="fill: #eed0c0"/>
    <path d="M 122.928625 114.805 
L 144.449625 114.805 
L 144.449625 136.326 
L 122.928625 136.326 
L 122.928625 114.805 
" clip-path="url(#p90cd34b306)" style="fill: #edd2c3"/>
    <path d="M 144.449625 114.805 
L 165.970625 114.805 
L 165.970625 136.326 
L 144.449625 136.326 
L 144.449625 114.805 
" clip-path="url(#p90cd34b306)" style="fill: #ebd3c6"/>
    <path d="M 165.970625 114.805 
L 187.491625 114.805 
L 187.491625 136.326 
L 165.970625 136.326 
L 165.970625 114.805 
" clip-path="url(#p90cd34b306)" style="fill: none"/>
    <path d="M 187.491625 114.805 
L 209.012625 114.805 
L 209.012625 136.326 
L 187.491625 136.326 
L 187.491625 114.805 
" clip-path="url(#p90cd34b306)" style="fill: none"/>
    <path d="M 209.012625 114.805 
L 230.533625 114.805 
L 230.533625 136.326 
L 209.012625 136.326 
L 209.012625 114.805 
" clip-path="url(#p90cd34b306)" style="fill: none"/>
    <path d="M 230.533625 114.805 
L 252.054625 114.805 
L 252.054625 136.326 
L 230.533625 136.326 
L 230.533625 114.805 
" clip-path="url(#p90cd34b306)" style="fill: none"/>
    <path d="M 252.054625 114.805 
L 273.575625 114.805 
L 273.575625 136.326 
L 252.054625 136.326 
L 252.054625 114.805 
" clip-path="url(#p90cd34b306)" style="fill: none"/>
    <path d="M 58.365625 136.326 
L 79.886625 136.326 
L 79.886625 157.847 
L 58.365625 157.847 
L 58.365625 136.326 
" clip-path="url(#p90cd34b306)" style="fill: #d8dce2"/>
    <path d="M 79.886625 136.326 
L 101.407625 136.326 
L 101.407625 157.847 
L 79.886625 157.847 
L 79.886625 136.326 
" clip-path="url(#p90cd34b306)" style="fill: #e9d5cb"/>
    <path d="M 101.407625 136.326 
L 122.928625 136.326 
L 122.928625 157.847 
L 101.407625 157.847 
L 101.407625 136.326 
" clip-path="url(#p90cd34b306)" style="fill: #cdd9ec"/>
    <path d="M 122.928625 136.326 
L 144.449625 136.326 
L 144.449625 157.847 
L 122.928625 157.847 
L 122.928625 136.326 
" clip-path="url(#p90cd34b306)" style="fill: #d9dce1"/>
    <path d="M 144.449625 136.326 
L 165.970625 136.326 
L 165.970625 157.847 
L 144.449625 157.847 
L 144.449625 136.326 
" clip-path="url(#p90cd34b306)" style="fill: #e8d6cc"/>
    <path d="M 165.970625 136.326 
L 187.491625 136.326 
L 187.491625 157.847 
L 165.970625 157.847 
L 165.970625 136.326 
" clip-path="url(#p90cd34b306)" style="fill: #a9c6fd"/>
    <path d="M 187.491625 136.326 
L 209.012625 136.326 
L 209.012625 157.847 
L 187.491625 157.847 
L 187.491625 136.326 
" clip-path="url(#p90cd34b306)" style="fill: none"/>
    <path d="M 209.012625 136.326 
L 230.533625 136.326 
L 230.533625 157.847 
L 209.012625 157.847 
L 209.012625 136.326 
" clip-path="url(#p90cd34b306)" style="fill: none"/>
    <path d="M 230.533625 136.326 
L 252.054625 136.326 
L 252.054625 157.847 
L 230.533625 157.847 
L 230.533625 136.326 
" clip-path="url(#p90cd34b306)" style="fill: none"/>
    <path d="M 252.054625 136.326 
L 273.575625 136.326 
L 273.575625 157.847 
L 252.054625 157.847 
L 252.054625 136.326 
" clip-path="url(#p90cd34b306)" style="fill: none"/>
    <path d="M 58.365625 157.847 
L 79.886625 157.847 
L 79.886625 179.368 
L 58.365625 179.368 
L 58.365625 157.847 
" clip-path="url(#p90cd34b306)" style="fill: #ee8468"/>
    <path d="M 79.886625 157.847 
L 101.407625 157.847 
L 101.407625 179.368 
L 79.886625 179.368 
L 79.886625 157.847 
" clip-path="url(#p90cd34b306)" style="fill: #adc9fd"/>
    <path d="M 101.407625 157.847 
L 122.928625 157.847 
L 122.928625 179.368 
L 101.407625 179.368 
L 101.407625 157.847 
" clip-path="url(#p90cd34b306)" style="fill: #f7af91"/>
    <path d="M 122.928625 157.847 
L 144.449625 157.847 
L 144.449625 179.368 
L 122.928625 179.368 
L 122.928625 157.847 
" clip-path="url(#p90cd34b306)" style="fill: #f2cab5"/>
    <path d="M 144.449625 157.847 
L 165.970625 157.847 
L 165.970625 179.368 
L 144.449625 179.368 
L 144.449625 157.847 
" clip-path="url(#p90cd34b306)" style="fill: #e6d7cf"/>
    <path d="M 165.970625 157.847 
L 187.491625 157.847 
L 187.491625 179.368 
L 165.970625 179.368 
L 165.970625 157.847 
" clip-path="url(#p90cd34b306)" style="fill: #f5c4ac"/>
    <path d="M 187.491625 157.847 
L 209.012625 157.847 
L 209.012625 179.368 
L 187.491625 179.368 
L 187.491625 157.847 
" clip-path="url(#p90cd34b306)" style="fill: #cedaeb"/>
    <path d="M 209.012625 157.847 
L 230.533625 157.847 
L 230.533625 179.368 
L 209.012625 179.368 
L 209.012625 157.847 
" clip-path="url(#p90cd34b306)" style="fill: none"/>
    <path d="M 230.533625 157.847 
L 252.054625 157.847 
L 252.054625 179.368 
L 230.533625 179.368 
L 230.533625 157.847 
" clip-path="url(#p90cd34b306)" style="fill: none"/>
    <path d="M 252.054625 157.847 
L 273.575625 157.847 
L 273.575625 179.368 
L 252.054625 179.368 
L 252.054625 157.847 
" clip-path="url(#p90cd34b306)" style="fill: none"/>
    <path d="M 58.365625 179.368 
L 79.886625 179.368 
L 79.886625 200.889 
L 58.365625 200.889 
L 58.365625 179.368 
" clip-path="url(#p90cd34b306)" style="fill: #f7a889"/>
    <path d="M 79.886625 179.368 
L 101.407625 179.368 
L 101.407625 200.889 
L 79.886625 200.889 
L 79.886625 179.368 
" clip-path="url(#p90cd34b306)" style="fill: #c6d6f1"/>
    <path d="M 101.407625 179.368 
L 122.928625 179.368 
L 122.928625 200.889 
L 101.407625 200.889 
L 101.407625 179.368 
" clip-path="url(#p90cd34b306)" style="fill: #f7b99e"/>
    <path d="M 122.928625 179.368 
L 144.449625 179.368 
L 144.449625 200.889 
L 122.928625 200.889 
L 122.928625 179.368 
" clip-path="url(#p90cd34b306)" style="fill: #f4c5ad"/>
    <path d="M 144.449625 179.368 
L 165.970625 179.368 
L 165.970625 200.889 
L 144.449625 200.889 
L 144.449625 179.368 
" clip-path="url(#p90cd34b306)" style="fill: #e6d7cf"/>
    <path d="M 165.970625 179.368 
L 187.491625 179.368 
L 187.491625 200.889 
L 165.970625 200.889 
L 165.970625 179.368 
" clip-path="url(#p90cd34b306)" style="fill: #eed0c0"/>
    <path d="M 187.491625 179.368 
L 209.012625 179.368 
L 209.012625 200.889 
L 187.491625 200.889 
L 187.491625 179.368 
" clip-path="url(#p90cd34b306)" style="fill: #d3dbe7"/>
    <path d="M 209.012625 179.368 
L 230.533625 179.368 
L 230.533625 200.889 
L 209.012625 200.889 
L 209.012625 179.368 
" clip-path="url(#p90cd34b306)" style="fill: #f7b497"/>
    <path d="M 230.533625 179.368 
L 252.054625 179.368 
L 252.054625 200.889 
L 230.533625 200.889 
L 230.533625 179.368 
" clip-path="url(#p90cd34b306)" style="fill: none"/>
    <path d="M 252.054625 179.368 
L 273.575625 179.368 
L 273.575625 200.889 
L 252.054625 200.889 
L 252.054625 179.368 
" clip-path="url(#p90cd34b306)" style="fill: none"/>
    <path d="M 58.365625 200.889 
L 79.886625 200.889 
L 79.886625 222.41 
L 58.365625 222.41 
L 58.365625 200.889 
" clip-path="url(#p90cd34b306)" style="fill: #ecd3c5"/>
    <path d="M 79.886625 200.889 
L 101.407625 200.889 
L 101.407625 222.41 
L 79.886625 222.41 
L 79.886625 200.889 
" clip-path="url(#p90cd34b306)" style="fill: #e2dad5"/>
    <path d="M 101.407625 200.889 
L 122.928625 200.889 
L 122.928625 222.41 
L 101.407625 222.41 
L 101.407625 200.889 
" clip-path="url(#p90cd34b306)" style="fill: #ecd3c5"/>
    <path d="M 122.928625 200.889 
L 144.449625 200.889 
L 144.449625 222.41 
L 122.928625 222.41 
L 122.928625 200.889 
" clip-path="url(#p90cd34b306)" style="fill: #ebd3c6"/>
    <path d="M 144.449625 200.889 
L 165.970625 200.889 
L 165.970625 222.41 
L 144.449625 222.41 
L 144.449625 200.889 
" clip-path="url(#p90cd34b306)" style="fill: #e4d9d2"/>
    <path d="M 165.970625 200.889 
L 187.491625 200.889 
L 187.491625 222.41 
L 165.970625 222.41 
L 165.970625 200.889 
" clip-path="url(#p90cd34b306)" style="fill: #e8d6cc"/>
    <path d="M 187.491625 200.889 
L 209.012625 200.889 
L 209.012625 222.41 
L 187.491625 222.41 
L 187.491625 200.889 
" clip-path="url(#p90cd34b306)" style="fill: #e7d7ce"/>
    <path d="M 209.012625 200.889 
L 230.533625 200.889 
L 230.533625 222.41 
L 209.012625 222.41 
L 209.012625 200.889 
" clip-path="url(#p90cd34b306)" style="fill: #d9dce1"/>
    <path d="M 230.533625 200.889 
L 252.054625 200.889 
L 252.054625 222.41 
L 230.533625 222.41 
L 230.533625 200.889 
" clip-path="url(#p90cd34b306)" style="fill: #e7d7ce"/>
    <path d="M 252.054625 200.889 
L 273.575625 200.889 
L 273.575625 222.41 
L 252.054625 222.41 
L 252.054625 200.889 
" clip-path="url(#p90cd34b306)" style="fill: none"/>
   </g>
   <g id="matplotlib.axis_1">
    <g id="xtick_1">
     <g id="line2d_1">
      <defs>
       <path id="m461d56bf65" d="M 0 0 
L 0 3.5 
" style="stroke: #000000; stroke-width: 0.8"/>
      </defs>
      <g>
       <use xlink:href="#m461d56bf65" x="69.126125" y="222.41" style="stroke: #000000; stroke-width: 0.8"/>
      </g>
     </g>
     <g id="text_1">
      <!-- V -->
      <g transform="translate(72.729641 240.242812) rotate(-90) scale(0.15 -0.15)">
       <defs>
        <path id="TimesNewRomanPSMT-56" d="M 4544 4238 
L 4544 4122 
Q 4319 4081 4203 3978 
Q 4038 3825 3909 3509 
L 2431 -97 
L 2316 -97 
L 728 3556 
Q 606 3838 556 3900 
Q 478 3997 364 4051 
Q 250 4106 56 4122 
L 56 4238 
L 1788 4238 
L 1788 4122 
Q 1494 4094 1406 4022 
Q 1319 3950 1319 3838 
Q 1319 3681 1463 3350 
L 2541 866 
L 3541 3319 
Q 3688 3681 3688 3822 
Q 3688 3913 3597 3995 
Q 3506 4078 3291 4113 
Q 3275 4116 3238 4122 
L 3238 4238 
L 4544 4238 
z
" transform="scale(0.015625)"/>
       </defs>
       <use xlink:href="#TimesNewRomanPSMT-56"/>
      </g>
     </g>
    </g>
    <g id="xtick_2">
     <g id="line2d_2">
      <g>
       <use xlink:href="#m461d56bf65" x="90.647125" y="222.41" style="stroke: #000000; stroke-width: 0.8"/>
      </g>
     </g>
     <g id="text_2">
      <!-- DD/V -->
      <g transform="translate(94.250641 266.075625) rotate(-90) scale(0.15 -0.15)">
       <defs>
        <path id="TimesNewRomanPSMT-44" d="M 109 0 
L 109 116 
L 269 116 
Q 538 116 650 288 
Q 719 391 719 750 
L 719 3488 
Q 719 3884 631 3984 
Q 509 4122 269 4122 
L 109 4122 
L 109 4238 
L 1834 4238 
Q 2784 4238 3279 4022 
Q 3775 3806 4076 3303 
Q 4378 2800 4378 2141 
Q 4378 1256 3841 663 
Q 3238 0 2003 0 
L 109 0 
z
M 1319 306 
Q 1716 219 1984 219 
Q 2709 219 3187 728 
Q 3666 1238 3666 2109 
Q 3666 2988 3187 3494 
Q 2709 4000 1959 4000 
Q 1678 4000 1319 3909 
L 1319 306 
z
" transform="scale(0.015625)"/>
        <path id="TimesNewRomanPSMT-2f" d="M 1794 4444 
L 259 -88 
L 9 -88 
L 1544 4444 
L 1794 4444 
z
" transform="scale(0.015625)"/>
       </defs>
       <use xlink:href="#TimesNewRomanPSMT-44"/>
       <use xlink:href="#TimesNewRomanPSMT-44" x="72.216797"/>
       <use xlink:href="#TimesNewRomanPSMT-2f" x="144.433594"/>
       <use xlink:href="#TimesNewRomanPSMT-56" x="172.216797"/>
      </g>
     </g>
    </g>
    <g id="xtick_3">
     <g id="line2d_3">
      <g>
       <use xlink:href="#m461d56bf65" x="112.168125" y="222.41" style="stroke: #000000; stroke-width: 0.8"/>
      </g>
     </g>
     <g id="text_3">
      <!-- MDNL -->
      <g transform="translate(115.771641 273.575625) rotate(-90) scale(0.15 -0.15)">
       <defs>
        <path id="TimesNewRomanPSMT-4d" d="M 2619 0 
L 981 3566 
L 981 734 
Q 981 344 1066 247 
Q 1181 116 1431 116 
L 1581 116 
L 1581 0 
L 106 0 
L 106 116 
L 256 116 
Q 525 116 638 278 
Q 706 378 706 734 
L 706 3503 
Q 706 3784 644 3909 
Q 600 4000 483 4061 
Q 366 4122 106 4122 
L 106 4238 
L 1306 4238 
L 2844 922 
L 4356 4238 
L 5556 4238 
L 5556 4122 
L 5409 4122 
Q 5138 4122 5025 3959 
Q 4956 3859 4956 3503 
L 4956 734 
Q 4956 344 5044 247 
Q 5159 116 5409 116 
L 5556 116 
L 5556 0 
L 3756 0 
L 3756 116 
L 3906 116 
Q 4178 116 4288 278 
Q 4356 378 4356 734 
L 4356 3566 
L 2722 0 
L 2619 0 
z
" transform="scale(0.015625)"/>
        <path id="TimesNewRomanPSMT-4e" d="M -84 4238 
L 1066 4238 
L 3656 1059 
L 3656 3503 
Q 3656 3894 3569 3991 
Q 3453 4122 3203 4122 
L 3056 4122 
L 3056 4238 
L 4531 4238 
L 4531 4122 
L 4381 4122 
Q 4113 4122 4000 3959 
Q 3931 3859 3931 3503 
L 3931 -69 
L 3819 -69 
L 1025 3344 
L 1025 734 
Q 1025 344 1109 247 
Q 1228 116 1475 116 
L 1625 116 
L 1625 0 
L 150 0 
L 150 116 
L 297 116 
Q 569 116 681 278 
Q 750 378 750 734 
L 750 3681 
Q 566 3897 470 3965 
Q 375 4034 191 4094 
Q 100 4122 -84 4122 
L -84 4238 
z
" transform="scale(0.015625)"/>
        <path id="TimesNewRomanPSMT-4c" d="M 3669 1172 
L 3772 1150 
L 3409 0 
L 128 0 
L 128 116 
L 288 116 
Q 556 116 672 291 
Q 738 391 738 753 
L 738 3488 
Q 738 3884 650 3984 
Q 528 4122 288 4122 
L 128 4122 
L 128 4238 
L 2047 4238 
L 2047 4122 
Q 1709 4125 1573 4059 
Q 1438 3994 1388 3894 
Q 1338 3794 1338 3416 
L 1338 753 
Q 1338 494 1388 397 
Q 1425 331 1503 300 
Q 1581 269 1991 269 
L 2300 269 
Q 2788 269 2984 341 
Q 3181 413 3343 595 
Q 3506 778 3669 1172 
z
" transform="scale(0.015625)"/>
       </defs>
       <use xlink:href="#TimesNewRomanPSMT-4d"/>
       <use xlink:href="#TimesNewRomanPSMT-44" x="88.916016"/>
       <use xlink:href="#TimesNewRomanPSMT-4e" x="161.132812"/>
       <use xlink:href="#TimesNewRomanPSMT-4c" x="233.349609"/>
      </g>
     </g>
    </g>
    <g id="xtick_4">
     <g id="line2d_4">
      <g>
       <use xlink:href="#m461d56bf65" x="133.689125" y="222.41" style="stroke: #000000; stroke-width: 0.8"/>
      </g>
     </g>
     <g id="text_4">
      <!-- NB -->
      <g transform="translate(137.292641 250.248281) rotate(-90) scale(0.15 -0.15)">
       <defs>
        <path id="TimesNewRomanPSMT-42" d="M 2956 2163 
Q 3397 2069 3616 1863 
Q 3919 1575 3919 1159 
Q 3919 844 3719 555 
Q 3519 266 3170 133 
Q 2822 0 2106 0 
L 106 0 
L 106 116 
L 266 116 
Q 531 116 647 284 
Q 719 394 719 750 
L 719 3488 
Q 719 3881 628 3984 
Q 506 4122 266 4122 
L 106 4122 
L 106 4238 
L 1938 4238 
Q 2450 4238 2759 4163 
Q 3228 4050 3475 3764 
Q 3722 3478 3722 3106 
Q 3722 2788 3528 2536 
Q 3334 2284 2956 2163 
z
M 1319 2331 
Q 1434 2309 1582 2298 
Q 1731 2288 1909 2288 
Q 2366 2288 2595 2386 
Q 2825 2484 2947 2687 
Q 3069 2891 3069 3131 
Q 3069 3503 2766 3765 
Q 2463 4028 1881 4028 
Q 1569 4028 1319 3959 
L 1319 2331 
z
M 1319 306 
Q 1681 222 2034 222 
Q 2600 222 2897 476 
Q 3194 731 3194 1106 
Q 3194 1353 3059 1581 
Q 2925 1809 2622 1940 
Q 2319 2072 1872 2072 
Q 1678 2072 1540 2065 
Q 1403 2059 1319 2044 
L 1319 306 
z
" transform="scale(0.015625)"/>
       </defs>
       <use xlink:href="#TimesNewRomanPSMT-4e"/>
       <use xlink:href="#TimesNewRomanPSMT-42" x="72.216797"/>
      </g>
     </g>
    </g>
    <g id="xtick_5">
     <g id="line2d_5">
      <g>
       <use xlink:href="#m461d56bf65" x="155.210125" y="222.41" style="stroke: #000000; stroke-width: 0.8"/>
      </g>
     </g>
     <g id="text_5">
      <!-- REC -->
      <g transform="translate(158.813641 258.582656) rotate(-90) scale(0.15 -0.15)">
       <defs>
        <path id="TimesNewRomanPSMT-52" d="M 4325 0 
L 3194 0 
L 1759 1981 
Q 1600 1975 1500 1975 
Q 1459 1975 1412 1976 
Q 1366 1978 1316 1981 
L 1316 750 
Q 1316 350 1403 253 
Q 1522 116 1759 116 
L 1925 116 
L 1925 0 
L 109 0 
L 109 116 
L 269 116 
Q 538 116 653 291 
Q 719 388 719 750 
L 719 3488 
Q 719 3888 631 3984 
Q 509 4122 269 4122 
L 109 4122 
L 109 4238 
L 1653 4238 
Q 2328 4238 2648 4139 
Q 2969 4041 3192 3777 
Q 3416 3513 3416 3147 
Q 3416 2756 3161 2468 
Q 2906 2181 2372 2063 
L 3247 847 
Q 3547 428 3762 290 
Q 3978 153 4325 116 
L 4325 0 
z
M 1316 2178 
Q 1375 2178 1419 2176 
Q 1463 2175 1491 2175 
Q 2097 2175 2405 2437 
Q 2713 2700 2713 3106 
Q 2713 3503 2464 3751 
Q 2216 4000 1806 4000 
Q 1625 4000 1316 3941 
L 1316 2178 
z
" transform="scale(0.015625)"/>
        <path id="TimesNewRomanPSMT-45" d="M 1338 4006 
L 1338 2331 
L 2269 2331 
Q 2631 2331 2753 2441 
Q 2916 2584 2934 2947 
L 3050 2947 
L 3050 1472 
L 2934 1472 
Q 2891 1781 2847 1869 
Q 2791 1978 2662 2040 
Q 2534 2103 2269 2103 
L 1338 2103 
L 1338 706 
Q 1338 425 1363 364 
Q 1388 303 1450 267 
Q 1513 231 1688 231 
L 2406 231 
Q 2766 231 2928 281 
Q 3091 331 3241 478 
Q 3434 672 3638 1063 
L 3763 1063 
L 3397 0 
L 131 0 
L 131 116 
L 281 116 
Q 431 116 566 188 
Q 666 238 702 338 
Q 738 438 738 747 
L 738 3500 
Q 738 3903 656 3997 
Q 544 4122 281 4122 
L 131 4122 
L 131 4238 
L 3397 4238 
L 3444 3309 
L 3322 3309 
Q 3256 3644 3176 3769 
Q 3097 3894 2941 3959 
Q 2816 4006 2500 4006 
L 1338 4006 
z
" transform="scale(0.015625)"/>
        <path id="TimesNewRomanPSMT-43" d="M 3853 4334 
L 3950 2894 
L 3853 2894 
Q 3659 3541 3300 3825 
Q 2941 4109 2438 4109 
Q 2016 4109 1675 3895 
Q 1334 3681 1139 3212 
Q 944 2744 944 2047 
Q 944 1472 1128 1050 
Q 1313 628 1683 403 
Q 2053 178 2528 178 
Q 2941 178 3256 354 
Q 3572 531 3950 1056 
L 4047 994 
Q 3728 428 3303 165 
Q 2878 -97 2294 -97 
Q 1241 -97 663 684 
Q 231 1266 231 2053 
Q 231 2688 515 3219 
Q 800 3750 1298 4042 
Q 1797 4334 2388 4334 
Q 2847 4334 3294 4109 
Q 3425 4041 3481 4041 
Q 3566 4041 3628 4100 
Q 3709 4184 3744 4334 
L 3853 4334 
z
" transform="scale(0.015625)"/>
       </defs>
       <use xlink:href="#TimesNewRomanPSMT-52"/>
       <use xlink:href="#TimesNewRomanPSMT-45" x="66.699219"/>
       <use xlink:href="#TimesNewRomanPSMT-43" x="127.783203"/>
      </g>
     </g>
    </g>
    <g id="xtick_6">
     <g id="line2d_6">
      <g>
       <use xlink:href="#m461d56bf65" x="176.731125" y="222.41" style="stroke: #000000; stroke-width: 0.8"/>
      </g>
     </g>
     <g id="text_6">
      <!-- NP -->
      <g transform="translate(180.334641 248.584219) rotate(-90) scale(0.15 -0.15)">
       <defs>
        <path id="TimesNewRomanPSMT-50" d="M 1313 1984 
L 1313 750 
Q 1313 350 1400 253 
Q 1519 116 1759 116 
L 1922 116 
L 1922 0 
L 106 0 
L 106 116 
L 266 116 
Q 534 116 650 291 
Q 713 388 713 750 
L 713 3488 
Q 713 3888 628 3984 
Q 506 4122 266 4122 
L 106 4122 
L 106 4238 
L 1659 4238 
Q 2228 4238 2556 4120 
Q 2884 4003 3109 3725 
Q 3334 3447 3334 3066 
Q 3334 2547 2992 2222 
Q 2650 1897 2025 1897 
Q 1872 1897 1694 1919 
Q 1516 1941 1313 1984 
z
M 1313 2163 
Q 1478 2131 1606 2115 
Q 1734 2100 1825 2100 
Q 2150 2100 2386 2351 
Q 2622 2603 2622 3003 
Q 2622 3278 2509 3514 
Q 2397 3750 2190 3867 
Q 1984 3984 1722 3984 
Q 1563 3984 1313 3925 
L 1313 2163 
z
" transform="scale(0.015625)"/>
       </defs>
       <use xlink:href="#TimesNewRomanPSMT-4e"/>
       <use xlink:href="#TimesNewRomanPSMT-50" x="72.216797"/>
      </g>
     </g>
    </g>
    <g id="xtick_7">
     <g id="line2d_7">
      <g>
       <use xlink:href="#m461d56bf65" x="198.252125" y="222.41" style="stroke: #000000; stroke-width: 0.8"/>
      </g>
     </g>
     <g id="text_7">
      <!-- RG -->
      <g transform="translate(201.855641 250.248281) rotate(-90) scale(0.15 -0.15)">
       <defs>
        <path id="TimesNewRomanPSMT-47" d="M 3928 4334 
L 4038 2997 
L 3928 2997 
Q 3763 3497 3500 3750 
Q 3122 4116 2528 4116 
Q 1719 4116 1297 3475 
Q 944 2934 944 2188 
Q 944 1581 1178 1081 
Q 1413 581 1792 348 
Q 2172 116 2572 116 
Q 2806 116 3025 175 
Q 3244 234 3447 350 
L 3447 1575 
Q 3447 1894 3398 1992 
Q 3350 2091 3248 2142 
Q 3147 2194 2891 2194 
L 2891 2313 
L 4531 2313 
L 4531 2194 
L 4453 2194 
Q 4209 2194 4119 2031 
Q 4056 1916 4056 1575 
L 4056 278 
Q 3697 84 3347 -6 
Q 2997 -97 2569 -97 
Q 1341 -97 703 691 
Q 225 1281 225 2053 
Q 225 2613 494 3125 
Q 813 3734 1369 4063 
Q 1834 4334 2469 4334 
Q 2700 4334 2889 4296 
Q 3078 4259 3425 4131 
Q 3600 4066 3659 4066 
Q 3719 4066 3761 4120 
Q 3803 4175 3813 4334 
L 3928 4334 
z
" transform="scale(0.015625)"/>
       </defs>
       <use xlink:href="#TimesNewRomanPSMT-52"/>
       <use xlink:href="#TimesNewRomanPSMT-47" x="66.699219"/>
      </g>
     </g>
    </g>
    <g id="xtick_8">
     <g id="line2d_8">
      <g>
       <use xlink:href="#m461d56bf65" x="219.773125" y="222.41" style="stroke: #000000; stroke-width: 0.8"/>
      </g>
     </g>
     <g id="text_8">
      <!-- NTM -->
      <g transform="translate(223.376641 262.742813) rotate(-90) scale(0.15 -0.15)">
       <defs>
        <path id="TimesNewRomanPSMT-54" d="M 3703 4238 
L 3750 3244 
L 3631 3244 
Q 3597 3506 3538 3619 
Q 3441 3800 3280 3886 
Q 3119 3972 2856 3972 
L 2259 3972 
L 2259 734 
Q 2259 344 2344 247 
Q 2463 116 2709 116 
L 2856 116 
L 2856 0 
L 1059 0 
L 1059 116 
L 1209 116 
Q 1478 116 1591 278 
Q 1659 378 1659 734 
L 1659 3972 
L 1150 3972 
Q 853 3972 728 3928 
Q 566 3869 450 3700 
Q 334 3531 313 3244 
L 194 3244 
L 244 4238 
L 3703 4238 
z
" transform="scale(0.015625)"/>
       </defs>
       <use xlink:href="#TimesNewRomanPSMT-4e"/>
       <use xlink:href="#TimesNewRomanPSMT-54" x="72.216797"/>
       <use xlink:href="#TimesNewRomanPSMT-4d" x="133.300781"/>
      </g>
     </g>
    </g>
    <g id="xtick_9">
     <g id="line2d_9">
      <g>
       <use xlink:href="#m461d56bf65" x="241.294125" y="222.41" style="stroke: #000000; stroke-width: 0.8"/>
      </g>
     </g>
     <g id="text_9">
      <!-- TS -->
      <g transform="translate(244.897641 246.913125) rotate(-90) scale(0.15 -0.15)">
       <defs>
        <path id="TimesNewRomanPSMT-53" d="M 2934 4334 
L 2934 2869 
L 2819 2869 
Q 2763 3291 2617 3541 
Q 2472 3791 2203 3937 
Q 1934 4084 1647 4084 
Q 1322 4084 1109 3886 
Q 897 3688 897 3434 
Q 897 3241 1031 3081 
Q 1225 2847 1953 2456 
Q 2547 2138 2764 1967 
Q 2981 1797 3098 1565 
Q 3216 1334 3216 1081 
Q 3216 600 2842 251 
Q 2469 -97 1881 -97 
Q 1697 -97 1534 -69 
Q 1438 -53 1133 45 
Q 828 144 747 144 
Q 669 144 623 97 
Q 578 50 556 -97 
L 441 -97 
L 441 1356 
L 556 1356 
Q 638 900 775 673 
Q 913 447 1195 297 
Q 1478 147 1816 147 
Q 2206 147 2432 353 
Q 2659 559 2659 841 
Q 2659 997 2573 1156 
Q 2488 1316 2306 1453 
Q 2184 1547 1640 1851 
Q 1097 2156 867 2337 
Q 638 2519 519 2737 
Q 400 2956 400 3219 
Q 400 3675 750 4004 
Q 1100 4334 1641 4334 
Q 1978 4334 2356 4169 
Q 2531 4091 2603 4091 
Q 2684 4091 2736 4139 
Q 2788 4188 2819 4334 
L 2934 4334 
z
" transform="scale(0.015625)"/>
       </defs>
       <use xlink:href="#TimesNewRomanPSMT-54"/>
       <use xlink:href="#TimesNewRomanPSMT-53" x="61.083984"/>
      </g>
     </g>
    </g>
    <g id="xtick_10">
     <g id="line2d_10">
      <g>
       <use xlink:href="#m461d56bf65" x="262.815125" y="222.41" style="stroke: #000000; stroke-width: 0.8"/>
      </g>
     </g>
     <g id="text_10">
      <!-- RII -->
      <g transform="translate(266.418641 249.404531) rotate(-90) scale(0.15 -0.15)">
       <defs>
        <path id="TimesNewRomanPSMT-49" d="M 1975 116 
L 1975 0 
L 159 0 
L 159 116 
L 309 116 
Q 572 116 691 269 
Q 766 369 766 750 
L 766 3488 
Q 766 3809 725 3913 
Q 694 3991 597 4047 
Q 459 4122 309 4122 
L 159 4122 
L 159 4238 
L 1975 4238 
L 1975 4122 
L 1822 4122 
Q 1563 4122 1444 3969 
Q 1366 3869 1366 3488 
L 1366 750 
Q 1366 428 1406 325 
Q 1438 247 1538 191 
Q 1672 116 1822 116 
L 1975 116 
z
" transform="scale(0.015625)"/>
       </defs>
       <use xlink:href="#TimesNewRomanPSMT-52"/>
       <use xlink:href="#TimesNewRomanPSMT-49" x="66.699219"/>
       <use xlink:href="#TimesNewRomanPSMT-49" x="100"/>
      </g>
     </g>
    </g>
   </g>
   <g id="matplotlib.axis_2">
    <g id="ytick_1">
     <g id="line2d_11">
      <defs>
       <path id="m16ff851e18" d="M 0 0 
L -3.5 0 
" style="stroke: #000000; stroke-width: 0.8"/>
      </defs>
      <g>
       <use xlink:href="#m16ff851e18" x="58.365625" y="17.9605" style="stroke: #000000; stroke-width: 0.8"/>
      </g>
     </g>
     <g id="text_11">
      <!-- V -->
      <g transform="translate(40.532813 21.564016) scale(0.15 -0.15)">
       <use xlink:href="#TimesNewRomanPSMT-56"/>
      </g>
     </g>
    </g>
    <g id="ytick_2">
     <g id="line2d_12">
      <g>
       <use xlink:href="#m16ff851e18" x="58.365625" y="39.4815" style="stroke: #000000; stroke-width: 0.8"/>
      </g>
     </g>
     <g id="text_12">
      <!-- DD/V -->
      <g transform="translate(14.7 43.085016) scale(0.15 -0.15)">
       <use xlink:href="#TimesNewRomanPSMT-44"/>
       <use xlink:href="#TimesNewRomanPSMT-44" x="72.216797"/>
       <use xlink:href="#TimesNewRomanPSMT-2f" x="144.433594"/>
       <use xlink:href="#TimesNewRomanPSMT-56" x="172.216797"/>
      </g>
     </g>
    </g>
    <g id="ytick_3">
     <g id="line2d_13">
      <g>
       <use xlink:href="#m16ff851e18" x="58.365625" y="61.0025" style="stroke: #000000; stroke-width: 0.8"/>
      </g>
     </g>
     <g id="text_13">
      <!-- MDNL -->
      <g transform="translate(7.2 64.606016) scale(0.15 -0.15)">
       <use xlink:href="#TimesNewRomanPSMT-4d"/>
       <use xlink:href="#TimesNewRomanPSMT-44" x="88.916016"/>
       <use xlink:href="#TimesNewRomanPSMT-4e" x="161.132812"/>
       <use xlink:href="#TimesNewRomanPSMT-4c" x="233.349609"/>
      </g>
     </g>
    </g>
    <g id="ytick_4">
     <g id="line2d_14">
      <g>
       <use xlink:href="#m16ff851e18" x="58.365625" y="82.5235" style="stroke: #000000; stroke-width: 0.8"/>
      </g>
     </g>
     <g id="text_14">
      <!-- NB -->
      <g transform="translate(30.527344 86.127016) scale(0.15 -0.15)">
       <use xlink:href="#TimesNewRomanPSMT-4e"/>
       <use xlink:href="#TimesNewRomanPSMT-42" x="72.216797"/>
      </g>
     </g>
    </g>
    <g id="ytick_5">
     <g id="line2d_15">
      <g>
       <use xlink:href="#m16ff851e18" x="58.365625" y="104.0445" style="stroke: #000000; stroke-width: 0.8"/>
      </g>
     </g>
     <g id="text_15">
      <!-- REC -->
      <g transform="translate(22.192969 107.648016) scale(0.15 -0.15)">
       <use xlink:href="#TimesNewRomanPSMT-52"/>
       <use xlink:href="#TimesNewRomanPSMT-45" x="66.699219"/>
       <use xlink:href="#TimesNewRomanPSMT-43" x="127.783203"/>
      </g>
     </g>
    </g>
    <g id="ytick_6">
     <g id="line2d_16">
      <g>
       <use xlink:href="#m16ff851e18" x="58.365625" y="125.5655" style="stroke: #000000; stroke-width: 0.8"/>
      </g>
     </g>
     <g id="text_16">
      <!-- NP -->
      <g transform="translate(32.191406 129.169016) scale(0.15 -0.15)">
       <use xlink:href="#TimesNewRomanPSMT-4e"/>
       <use xlink:href="#TimesNewRomanPSMT-50" x="72.216797"/>
      </g>
     </g>
    </g>
    <g id="ytick_7">
     <g id="line2d_17">
      <g>
       <use xlink:href="#m16ff851e18" x="58.365625" y="147.0865" style="stroke: #000000; stroke-width: 0.8"/>
      </g>
     </g>
     <g id="text_17">
      <!-- RG -->
      <g transform="translate(30.527344 150.690016) scale(0.15 -0.15)">
       <use xlink:href="#TimesNewRomanPSMT-52"/>
       <use xlink:href="#TimesNewRomanPSMT-47" x="66.699219"/>
      </g>
     </g>
    </g>
    <g id="ytick_8">
     <g id="line2d_18">
      <g>
       <use xlink:href="#m16ff851e18" x="58.365625" y="168.6075" style="stroke: #000000; stroke-width: 0.8"/>
      </g>
     </g>
     <g id="text_18">
      <!-- NTM -->
      <g transform="translate(18.032813 172.211016) scale(0.15 -0.15)">
       <use xlink:href="#TimesNewRomanPSMT-4e"/>
       <use xlink:href="#TimesNewRomanPSMT-54" x="72.216797"/>
       <use xlink:href="#TimesNewRomanPSMT-4d" x="133.300781"/>
      </g>
     </g>
    </g>
    <g id="ytick_9">
     <g id="line2d_19">
      <g>
       <use xlink:href="#m16ff851e18" x="58.365625" y="190.1285" style="stroke: #000000; stroke-width: 0.8"/>
      </g>
     </g>
     <g id="text_19">
      <!-- TS -->
      <g transform="translate(33.8625 193.732016) scale(0.15 -0.15)">
       <use xlink:href="#TimesNewRomanPSMT-54"/>
       <use xlink:href="#TimesNewRomanPSMT-53" x="61.083984"/>
      </g>
     </g>
    </g>
    <g id="ytick_10">
     <g id="line2d_20">
      <g>
       <use xlink:href="#m16ff851e18" x="58.365625" y="211.6495" style="stroke: #000000; stroke-width: 0.8"/>
      </g>
     </g>
     <g id="text_20">
      <!-- RII -->
      <g transform="translate(31.371094 215.253016) scale(0.15 -0.15)">
       <use xlink:href="#TimesNewRomanPSMT-52"/>
       <use xlink:href="#TimesNewRomanPSMT-49" x="66.699219"/>
       <use xlink:href="#TimesNewRomanPSMT-49" x="100"/>
      </g>
     </g>
    </g>
   </g>
  </g>
 </g>
 <defs>
  <clipPath id="p90cd34b306">
   <rect x="58.365625" y="7.2" width="215.21" height="215.21"/>
  </clipPath>
 </defs>
</svg>
